<?xml version="1.0" encoding="UTF-8"?>
<!DOCTYPE svg PUBLIC "-//W3C//DTD SVG 1.1//EN" "http://www.w3.org/Graphics/SVG/1.1/DTD/svg11.dtd">
<!-- Creator: CorelDRAW 2020 (64-Bit Evaluation Version) -->
<svg xmlns="http://www.w3.org/2000/svg" xml:space="preserve" width="2.13333in" height="2.13333in" version="1.1" style="shape-rendering:geometricPrecision; text-rendering:geometricPrecision; image-rendering:optimizeQuality; fill-rule:evenodd; clip-rule:evenodd"
viewBox="0 0 2133.33 2133.33"
 xmlns:xlink="http://www.w3.org/1999/xlink"
 xmlns:xodm="http://www.corel.com/coreldraw/odm/2003">
 <defs>
  <style type="text/css">
   <![CDATA[
    .fil13 {fill:#190C02}
    .fil14 {fill:#2F2311}
    .fil10 {fill:#350B02}
    .fil9 {fill:#542C15}
    .fil12 {fill:#573926}
    .fil11 {fill:#664B35}
    .fil3 {fill:#774C26}
    .fil8 {fill:#835D3C}
    .fil0 {fill:#9C7A4C}
    .fil1 {fill:#A48A64}
    .fil2 {fill:#C59A6B}
    .fil4 {fill:#D5A86A}
    .fil7 {fill:#DDB284}
    .fil5 {fill:#EDC17D}
    .fil6 {fill:#F4C798}
   ]]>
  </style>
 </defs>
 <g id="Layer_x0020_1">
  <metadata id="CorelCorpID_0Corel-Layer"/>
  <g id="_2670870498864">
   <path class="fil0" d="M1547.44 1683.83c13.33,1.11 70.87,18.29 78.74,24.33 0.03,0.02 40.84,43.76 42.26,60.81 -14.9,7.15 -61.33,-4.16 -77.06,-17.04 -4.91,-4.02 -40.67,-54.07 -43.93,-68.1zm63.21 192.7l-18.74 0c-9.48,-1.77 -19.45,-5.75 -29.56,-10.43l-163.61 -82.87c-12.06,-7.17 -19.62,-9.74 -32.46,-16.83 -23.06,-12.74 -41.6,-22.63 -64.58,-34.01l-291.82 -151.83c-9.03,-5.25 -20.74,-13.91 -31.49,-18.11 -21.54,-8.42 -62.02,-1.31 -78.6,2.94 -26.73,6.85 -22.92,-4.55 -37.98,-4.62 -12.05,-0.05 -14,9.94 -39.62,6.24 -24.08,-3.48 -8.83,-10.02 -38.4,-6.13 -28.9,3.79 -19.22,3.19 -40.11,-5.67 -23.92,-10.14 -8.25,0.75 -38.51,-1.26 -21.94,-1.46 -18.22,-10.82 -34.04,-15.83 -21.33,-6.77 -16.15,5.66 -38.76,-0.99 -17.35,-5.1 -17.76,-11.27 -26,-23.58 -16.89,8.11 -38.21,4.16 -48.96,-4.59 -7.89,-6.43 -6.33,0.5 -4.84,-8.85 -1.37,-30.69 -10.12,-18.23 17.93,-26.91 22.06,0 23.25,-4.17 42.98,-4.54 -11.54,18.43 5.09,-2.24 -7.53,8.48 -3.67,3.11 -5.6,3.31 -8.55,5.07l-0.02 4.46c-8.75,-6.44 -1.54,-7.65 -17.43,-6.65 -29.08,1.83 -12.5,5.58 -18.38,11.14l8.72 4.91c8.99,3.46 2.73,1.87 12.83,4.09 13.95,3.06 14.4,1.01 27.69,4.43 -2.27,-34.8 -1.35,-25.24 8.99,-31.33l-0.18 9.93c0.17,1.15 0.25,2.6 0.5,3.88l4.15 13.04c19.59,-7.27 23.11,0.41 53.76,-13.44 -12.09,-15.02 2.89,-9.71 -40.29,-12.44 15,-11.14 37.07,-11.3 49.28,-1.77l22.43 -37.74c-9.63,4.32 2.06,7.12 -17.98,8.09 -19.48,0.94 -16.28,-3.81 -21.62,-14 -17.01,4.44 -3.86,5.55 -27.62,13.06 4.87,-17.51 -2.16,-6.52 10.12,-22.78 -11.81,2.36 -22.59,0.5 -33.88,-0.37l-33.92 -8.2c8.27,-19.39 5.83,-10.28 14.33,-17.15 0.15,-0.12 1.06,-0.35 1.28,-0.8l-34.55 5.72c-0.83,-0.02 -2.14,-0.11 -2.98,-0.17 -22.27,-1.72 -20.31,-8.87 -40.59,3.43 11.01,11 14.63,9.27 22.78,11.76 28.22,8.62 11.83,-9.42 21.18,19.58 -15.37,-14.51 -6.57,-12.63 -30.89,-13.59l-40.77 0.19 -0.04 26.85c-8.65,-7.13 -24.47,-6.53 -2.19,-35.81 -18.8,10.43 -2.89,10.75 -33.61,8.92l22.16 -8.82c1.45,-0.67 2.46,-0.93 3.8,-1.63l9.85 -7.44c-6.53,-19.41 2.28,-5.64 -13.43,-13.42 -23.1,8.92 -19.73,4.1 -40.33,-2.61 -7.43,5.27 -5.3,13.11 -22.38,20.49 1.25,-24.49 -1.12,-22.66 15.83,-34.2 8.97,-6.1 15.07,-12.09 22.66,-15.07 -5.05,-5.19 10.14,-9.04 -8.15,4 -0.74,0.54 -2.26,1.91 -3.48,2.75 -7.59,-17.1 6.48,-5.93 -17.93,-15.69 -16.45,6.35 -32.08,2.17 -49.29,-4.48 -5.66,9.34 -15.53,-14.86 -4.5,17.88 -5.41,-4.69 -24.97,-6.58 0.98,-33.69l-14.4 11.49c-11.7,-21.25 8.59,2.35 -6.65,-7.69 -14.62,-9.63 -11.35,-0.7 -33.69,-10.4l-6.02 12.82c-0.47,0.55 -1.6,1.72 -2.08,2.16l-4.64 1.23c-4.83,-10.86 -12.16,-44.35 7.16,-57.34 15.08,-10.15 48.64,-30.18 62.23,-22.13l40.34 19.32c10.04,9.98 6.05,4.32 10.54,21.49 -1.31,-0.82 -3,-3.74 -3.76,-2.73 -8.66,11.41 4.98,-6.22 -35.84,-22.57 -35.18,-14.08 -13.91,1.9 -46.95,6.2l66.1 24.93c-11.62,14.57 -11.48,2.49 -6.41,8.29l54.45 -33.2c0.73,-0.54 1.72,-1.42 2.45,-1.95 0.72,-0.53 1.78,-1.31 2.5,-1.83 4.48,-3.14 7.82,-4.89 13.13,-8.18l76.19 -45.14c20.04,-13.11 37.81,-23.74 61.87,-26.85 -7.46,21.09 6.95,13.89 -13.44,17.91 -14.5,10.33 -93.08,59.16 -107.53,58.27 -9.66,16.84 1.43,8.07 -13.86,15.02l23.02 18.1c-1.15,0.39 -2.73,1.63 -4.1,1.91 -1.2,0.25 -2.61,0.67 -3.89,0.72 -18.66,0.86 -4.33,-0.66 -13.09,-5.54 -8.7,-4.85 -6.32,-8.02 -21.11,-7.82 17.49,14.49 28.32,0.8 37.48,35.83 -46.69,-6.02 -38.98,-29.67 -70.3,-11.96l-19.28 11.96 62.72 18.87c15.19,-19.56 3.69,-14.93 31.34,-18.82 -4.43,37.38 6.86,10.19 -15.31,24.36 17.86,-3.45 14.36,-1.98 27.07,1.49 5.8,1.58 5.56,2 10.31,3.7 13.96,5.02 -4.74,1.33 11.94,4.29 -2.15,26.98 -8.77,8.48 -7.09,19.94l17.87 -18.77c2.23,-2.07 21.11,-18.94 9.04,-13.16 -7.15,-7.96 -34.07,-14.29 -38.53,-16.55 -18.07,-9.19 -4.18,5.57 -17.46,-14.26l55.99 -36.75c23.59,-16.23 35.43,-29.94 58.23,-39.44 9.06,10.65 4.72,-4.19 2.73,13.42l-12.87 12.14c-8.31,5.57 -8.36,5.2 -16.1,10.93 -15.5,11.48 -20.12,17 -32.02,17.29 -9.2,17.13 -0.9,10.35 -20.22,18.06 12.26,7.89 30.54,9.91 38.14,22.27 24.2,-0.04 6.16,3.95 21.69,-14.69 22.35,-26.84 30.04,-32.65 54.48,-39.08l-17.88 22.39c-2.25,7.04 1.93,-0.36 -5.47,8.37 -0.26,0.31 -6.43,6.57 -6.46,6.59 -13.08,11.17 -4.19,7.19 -14.98,7.46 -0.16,0.29 -6.55,10.94 -6.74,11.15 -7.02,7.73 1.56,1.06 -8.56,6.73 9.17,-3.04 25.31,11 37.7,18.83 16.89,-15.89 18.69,-30.55 44.81,-41.19 0.97,1.61 3.22,1.89 3.39,4.51l1.07 8.91c-11.76,10.5 -6.26,8.69 -12.85,13.96 -8.48,6.79 -0.42,3.76 -9.54,3.99 -3.24,5.37 -8.34,16.72 -15.26,17.91 14.26,0.96 23.13,6.95 37.67,13.9 0.7,-0.54 1.51,-2.55 1.84,-1.93 6.09,11.33 -3.97,-1.38 16.08,-11.95l4.74 23.71c0.02,0.69 -0.54,2.12 -0.26,3.13 7.43,0 25.06,4.57 27.11,4.13 6.59,-1.43 2.79,-10.43 26.27,-9.48 1.39,0.06 3.3,0.38 4.85,0.92 -21.34,-20.33 1.02,-16 1.5,-16.65 4.21,17.11 8.72,23.96 27.51,29.02 14.74,4.78 22.52,15.24 47.11,27.74 0.97,0.49 2.17,1.03 3.13,1.53l5.81 3.32c51.33,31.13 20.82,-0.7 68.92,20.53 12.72,5.61 30.93,12.93 46.69,13.68 28.46,35.02 216.07,20.62 249.63,9.15 58.91,-20.14 104.09,-49.94 152.35,-81.67l73.72 -69.68c8.26,-11.89 8.44,-16.2 16.78,-27.27 8.88,-11.78 1.75,-2.98 10.36,-12.16l14.46 -14.43c-17.13,43.78 -9.3,43.89 -25.85,52.17l11.04 -0.18 -12.82 11.33c-11.37,10.99 -4.69,-2.73 -9.88,15.37 -5.98,20.85 1.46,22.42 -10.61,37.26 69.87,4.17 21.92,-29.58 58.64,-61.82 68.5,-9.98 24.37,-37.2 42.89,-65.74 13.67,-19.63 0.36,4.17 40.12,-27.3 2.02,-28.61 -6.89,-26.8 -7.39,-57.89l11.51 -5.37 0 8.41c27.36,2.28 24.18,4.5 44.81,-13.44 -17.48,-1.45 -12.81,-4.1 -33.96,-4.48 12.26,-15.78 13.77,-10.49 15.14,-25.74 -29.87,-7.19 -24.74,-5.73 -37.62,6.57 -3.57,-14.2 -9.87,-20.34 -10.11,-36.19 11.87,0.19 13.72,-1.85 31.36,-0.89 2.84,-31.29 21.94,-27.58 26.75,-55.79l-27.39 -5.44 -10.26 13.89 6.5 -12.57c-7.18,-7.05 -24.56,-12.33 -27.07,-37.06l2.2 -17.09c0.35,-1.33 0.77,-3.22 1.81,-4.44l-1.76 19.49 28.58 0.11 13.44 -18.11 0 16.42c21.58,-0.48 38.37,-10.58 49.29,-26.89l-44.79 0 5.43 -17.61 -27.93 -5.93 -12.02 12.31 6.67 -10.95c-8.82,-6.34 -19.86,-5.7 -25.71,-7.61l-8.89 -27.56c-0.97,-3.59 -2.8,-11.51 -2.24,-14.8 1.57,-9.27 2.05,-8.31 5.58,-12.99l-0.19 22.49 27.89 2.4 9.5 -27.13 7.33 -18.36 -30.48 -4.7 -6.55 9.31c-4.42,-19.35 3.05,-9.74 -14.81,-15.37 -2.86,11 -11.45,27.54 -6.23,36.52 -3.12,-18.03 -3.87,-22.78 -10.57,-37.52 -7.11,-15.59 -5.75,-19.26 -9.42,-35.04 21.87,2.49 23.7,8.38 37.35,-4.92 2.19,-14.86 0.97,-8.56 0.39,-14.99 -0.49,-5.37 -2.02,-12.92 -2.71,-18.69 9.44,3.11 8.16,-4.7 8.34,2.93 6.6,-9.5 19.77,-27.76 17.31,-43.08l-13.79 2.73c-0.78,0.62 -2.04,1.29 -2.53,1.6 -0.49,0.3 -1.93,1.21 -2.54,1.59l-25.36 19.19c-8.13,19.7 3.03,3.4 -17.91,8.87 3.66,-35.04 -0.93,-11.08 8.06,-24.22 10.09,-14.74 9.48,-3 9.85,-2.57 -5.99,-10.03 -4.02,-0.67 -4,-16.56 0,-0.04 2.83,-12.79 3.2,-15.01l-13.21 0.23 -8.4 6.47 -3.11 29.4 -37.51 -7.13 -3.41 -33.46c-2.13,-7.74 -3.46,-9.97 -5.28,-13.19 -10.31,13.52 -9.86,25.77 -6.38,42.85 -5.52,-16.12 -33.37,-46.75 -54.59,-49.92 -15.3,-27.97 -92.52,-71.41 -134.26,-85.65 -60.03,-20.5 -125.44,-24.41 -197.82,-21.87 20.64,-12.06 63.07,-7.84 89.09,-6.33 -48.21,-19.16 -160.23,-0.7 -209.35,16.77 -67.12,23.88 -144.7,71.02 -186.31,112.5l-88.86 121.52c-3.24,7.39 -5.85,15.48 -8.93,22.26 -6.38,14.04 -11.93,28.25 -18.57,43.22 -9.8,22.09 -8.76,26.47 -11.73,46.78 -1.25,8.53 -6.84,44.74 -8.41,49.18 -21.56,6.41 -2.35,0.08 -13.25,5.34 -10.05,4.85 -8.54,16.88 -13.78,-0.57 -4.97,-16.54 -0.42,-3.94 3.15,-12.94 16.06,-40.54 1.06,13.43 4.04,-18.57 0.11,-1.26 0,-3.09 0.07,-4.63l13.81 -6.69c1.04,-0.55 2.72,-1.52 4.07,-2.3l-10.54 -11.48c-4.55,-9.54 -2.59,-19.57 -2.62,-19.79l-4.74 -18c-15.12,8.41 -9.31,1.22 -13.33,17.43 -0.46,1.85 -0.09,24.96 -0.09,27.33 18.26,0.13 -25.31,-4.4 -26.91,-4.43l26.89 4.46c-1.18,-14.19 -5.9,-36.15 -9.8,-50.29l9.77 -7.97c3.68,-11.07 5.29,-9.49 3.48,-26.19 -2.39,-22.12 -5.57,-1.08 -2.42,-28.04 3.64,-31.06 -0.56,-12.97 -2.09,-34.96l23.54 -116.95c8.36,-23.04 3.61,-18.06 13.36,-26.87 13.1,16.25 -3.07,19.98 13.42,26.89 0.27,-13.1 -6.46,-55.34 -1.03,-74 7.05,-24.19 7.69,-6.08 10.04,-29.07 16.58,15.83 10.05,5.12 6.43,43.08 -0.12,1.32 -0.04,15.92 -0.07,16.14 -2.2,14.29 -1.45,9.34 -10.83,21.43 13.42,16.07 1.95,11.01 16.23,12.53 -6.88,22.32 -12.69,-5.46 -7.29,27.78l-4.46 0.02c16.06,23.44 6.45,4.98 -4.48,13.42 -3.57,-9.28 -3.62,-15 -8.15,-26.85l-3.89 17.92c0.08,1.14 0.11,2.46 0.37,3.54 1.89,7.96 9.7,10.97 14.97,14.38 -1,1.13 -2.92,0.88 -3.35,3.03 -0.87,4.37 -5.67,1.8 -6.44,12.61l1.98 6.75 -4.46 0.02c10.83,28.06 8.8,10.67 31.33,8.98 -12.25,14.66 1.56,7.42 -14.34,13.43 0.91,2.46 4.07,9.78 4.07,9.81 3.91,11.99 1.03,-4.59 1.35,8.11 7.26,8.7 -7.2,12.17 13.42,4.48 7.61,-29.59 15.69,-14.95 21.96,-35.29 -1.49,-0.22 -11.78,-0.28 -13.42,-0.31 -1.54,-0.02 -7.3,-0.08 -8.83,-0.11l-8.66 -0.17c-4.07,-6.61 -15.69,-18.85 -11.85,-31.02 5.28,-16.74 -4.82,-6.1 11.83,-13.75l2.61 17.93c0.24,1.42 0.65,3.17 0.87,4.36 0.23,1.25 0.24,3.2 1,4.55 7.39,3.23 1.07,-1.29 8.96,8.41 0.98,-1.12 6.03,-6.5 6.72,-6.88 0.49,-0.26 2.18,-1.44 2.7,-1.67 18.48,-8.27 0.67,9.44 4.5,-5.39 5.92,-22.89 -12.65,1.88 8.46,-16.83 -3.93,20.72 -10.4,15.42 8.99,14.14 7.78,-46.83 7.81,7.17 20.62,-19.01 15.09,-30.83 -15.95,-35.38 -16.11,-35.46 4.52,32.74 -0.18,5.75 5.96,18.98l11.91 21.31c-11.18,-3.27 -16.51,2.16 -27.54,-27.35 -4.09,-10.94 -0.86,13.01 0.75,-3.74 2.57,-26.67 2.78,-0.72 -8.84,-28.34l-13.04 -47.86c-0.62,-16.6 2.22,-19.63 8.36,-27.1 20.45,24.67 -6.56,29.5 30.31,44.8 -9.81,7.95 5.63,6.06 -12.39,0.02 -11.17,29.77 4.33,5.13 -4.46,31.35l7.39 14.25c34.73,-9.13 -3.61,7.76 32.7,1.47 5.04,-0.87 17.91,-3.89 18.95,-3.98l12.66 1.68c-7.71,-13.99 -8.38,-17.54 -4.48,-31.32 7.02,0.63 12.06,-20.69 13.44,17.93 -4.43,-4.68 18.96,-12.89 9.1,-59.79 41.11,2.06 16.24,22.61 47.57,23.42 6.26,1.94 0.41,4.78 15.98,0.72 22.76,-5.94 42.91,-29.4 60.65,-33.81 6.31,-1.57 26.91,0.98 45.8,-7.56l39.73 -29.93 12.03 17.49 55.53 -8.5c-8.56,-14.19 -8.28,-14.92 -13.02,-27.54 13.67,-9.06 2.89,2.48 10.11,-9.48 0.97,-1.6 1.9,-6.94 2.57,-10.74 7.56,-43.42 16.98,-47.15 9.7,-78.36 -3.85,-2.37 6.03,-10.2 -7.12,0 11.24,-19.29 8.17,-14.93 -0.44,-35.2 35.81,31.48 5.6,31.55 25.52,34.52l-4.48 -17.24 23.73 -35.29c1.62,-4.44 7.15,-10.77 0.73,-19.64 -6.26,-8.67 5.52,-10.4 -15.5,-3.32 20.72,-9 5.83,-1.99 13.4,-13.44 -0.01,-0.01 -6.42,-12.3 -20.63,1.63 -9.09,8.91 -17.72,44.87 -19.3,48.98 -6.12,15.82 5.77,3.65 -6.2,8.82l-12.1 -19.08 -13.44 -4.5c-2.72,11.65 -2.78,12.06 -8.97,19.98l-13.44 29.29c-4.53,-5.79 -9.91,-10.82 -5.03,-29.24 0.59,-2.22 3.93,-9.71 5.76,-12.94 6.67,-11.8 -3.58,0.33 8.2,-11.57l-4.46 -8.96c-4.78,-17.22 3.41,-16.15 -17.91,-17.93 -2.66,11.44 -7.78,22.34 -13.44,35.83 -26.05,0 -4.37,1.89 -13.42,-8.94 2.45,-6.78 5.24,-16.19 7.65,-22.1 9.42,-23.17 25.13,-49.26 42.55,-66.45 11.13,-10.99 47.74,-46.65 57.35,-49.09 -16.14,5.81 -3.85,4.17 -11.59,9.67 -0.83,0.59 -1.94,1.4 -2.82,1.97 -0.91,0.59 -2.1,1.21 -3.05,1.78 -36.45,21.46 -6.71,12.06 -30.69,22.45 -1.13,0.49 -2.19,0.79 -3.47,1.24l-24.56 6.4c3.46,-13.25 -5.09,-18.21 31.02,-36.07 14.11,-6.98 129.65,-44.33 148.19,-44.63 2.85,-3.38 3.59,-10.73 4.48,-13.38 6.26,-7.01 18.66,-3.96 32.5,-7.8 84.96,-23.59 177.82,-18.66 263.4,-19.2 48.8,-0.31 97.56,18.8 129.12,36.69 109.14,61.8 86.55,204.78 27.65,286.12 -35.34,48.8 -79.14,82.39 -124.52,121.95 -90.36,78.78 -60.84,33.26 -72.7,84.15 14.35,-9.61 15.44,-13.44 40.33,-13.44 7.39,13.97 8.96,14.06 8.96,35.85 9.63,-7.06 12.02,-21.32 33.63,-12.01 15.24,6.57 11.19,20.39 11.19,38.9 33.36,-22.33 49.73,-8.95 40.33,31.37 30.16,-7.03 22.94,-18.36 49.29,4.48 -0.41,18.34 -2.68,19.5 -8.96,31.37 35.71,-8.31 66.63,-4.54 40.33,40.33 21.23,-0.47 35.06,-9.87 45.37,8.86 10.51,19.07 -4.47,21.54 -9.52,40.44 13.81,-6.63 16.43,-4.48 35.85,-4.48 19.38,28.93 13.23,27.34 -4.48,53.78 7.98,-0.67 50.43,-12.78 48.11,26.13 -0.74,12.35 -9.7,17.12 -16.75,27.65 23.99,0 29.51,5.34 44.81,13.44 0,42.28 -15.33,29.75 -22.41,49.3 19.94,-9.22 34.94,7.67 44.81,22.41 -4.09,17.54 -9.68,26.77 -26.89,31.37l0 8.96c29.98,0.67 34.2,6.83 44.81,26.89 -7.83,14.79 -13.19,26.51 -31.37,31.37l0 8.96c32.81,0.73 63.73,34.25 11.81,61.1l-11.81 6.12c22.66,5.28 24.9,12.07 40.33,22.41l0 26.89c-15.08,10.1 -11.99,15.94 -35.85,17.93l0 8.96c20.37,5.44 25.68,16.19 35.85,31.37 -6.4,23.96 -20.4,35.2 -49.29,35.85l0 8.96c52.7,12.28 43.5,67.22 -17.93,67.22 5.22,7.79 3.27,5.2 10.37,12.05l11.51 10.91c5.5,6.94 9.73,18.32 13.98,26.34 -18.86,21.7 -25.18,28.25 -62.74,31.37 12.41,16.94 20.9,4.36 31.37,49.29 -18.17,27.13 -24.07,26.89 -67.22,26.89 13.26,19.8 24.07,19.95 26.89,53.78 -17.17,25.63 -38.47,33.87 -71.7,17.93 8.74,32.72 22.41,13.39 22.41,67.22 -16.28,10.91 -34.65,28.89 -76.18,8.96 5.82,21.81 34.28,40.46 14.78,68.25 -6.87,9.79 -14.73,14.93 -23.28,16.9zm-63.21 -192.7l0 0zm40.33 -67.22c13.2,1.1 72.63,15.23 82.86,20.21 4.24,2.07 45.28,34.18 47.1,55.97 -26.7,0 -58.89,4.96 -83.59,-19.48l-30.94 -36.27c-0.85,-1 -3.27,-3.86 -4.09,-4.87 -5.5,-6.76 -7.26,-9.48 -11.33,-15.56zm-107.55 -22.41c65.24,0 70.02,25.38 88.61,45.83 10.76,11.83 14.61,9.65 18.94,25.87 -39.09,-20.69 -60.44,-2.71 -88.8,-45.64 -7.15,-10.81 -12.52,-16.76 -18.76,-26.06zm152.37 -40.33c3.99,-1.88 63.98,4.72 74.66,10.48 18.2,9.82 44.6,31.37 46.33,52.25 -60.76,0 -72.29,-0.37 -115.95,-50.5 -4.89,-5.61 -2.48,-1.63 -4.58,-6.43 -0.16,-0.37 -0.42,-1.67 -0.51,-1.99 -0.21,-0.7 0.75,-2.49 0.06,-3.81zm-528.8 -8.96c22.78,0 96.35,25.44 119.37,33l261.17 83.89c22.74,9.61 40.72,46.78 54.16,66.84 -15.4,-1.28 -39.57,-14.06 -55.69,-20.49l-79.54 -32.49c-75.54,-34.87 -172.24,-69.13 -242.7,-102.36 -15.02,-7.08 -39.39,-17.98 -56.76,-19.43l0 -8.96zm-89.63 4.48c33.96,0.76 432.56,174.91 469.25,189.51l56.97 23.69c7.24,2.81 17.06,5.2 22.91,8.46 6.58,3.66 118.19,125.98 -26.31,53.2 -14.09,-7.09 -21.52,-10.69 -36.32,-17.46l-149.07 -79.47c-19.97,-8.59 -21.3,-10.18 -38.66,-19.6 -25.75,-13.97 -47.86,-25.93 -73.85,-38.17l-224.91 -120.16zm506.39 -13.44c67.54,1.51 65.96,17.78 84.64,36.35l8.8 9.13c5.03,5.92 5.59,6.76 9.62,12.78 -70.55,-5.87 -65.88,-14.07 -86.35,-34.65 -21.56,-21.68 -11.42,-13.51 -16.72,-23.61zm-322.66 -4.48c38.19,0 140.49,30.01 184.8,39.26 39.43,8.24 46.4,2.65 63.89,25.73 9.53,12.58 11.85,12.59 15.7,29.11l-101.47 -32.97c-17.03,-4.5 -19.2,-3.51 -34.99,-9.82 -23.59,-9.44 -42.43,-14.23 -67.31,-22.32l-69.59 -20.04c2.24,-3.98 2.92,-8.96 8.96,-8.96zm-425.72 4.48c5.19,-5.19 25.54,7.58 5.59,1.82 -0.54,-0.15 -13.37,5.96 -5.59,-1.82zm663.23 -13.44c11.15,5.35 58.98,1.66 71.7,49.3 -45.47,-21.82 -46.82,6.38 -71.7,-49.3zm103.07 -13.44l0 0zm-250.96 -4.48l70.98 9.33c38.24,5.72 36.83,9.09 54.5,35.48 -37.09,-8.64 -136.22,-35.19 -165.81,-35.85 6.14,-8.5 12.49,-8.96 40.33,-8.96zm-515.35 4.48c4.76,-4.76 17,7.11 4.99,2.33 -0.1,-0.04 -12.5,5.17 -4.99,-2.33zm882.81 -22.41c76.79,0 63.92,-8.41 109.61,24.83 12.8,9.3 16.15,8.76 20.35,24.46 -30.66,2.55 -4.53,4.85 -55.08,2 -20,-1.13 -58.76,-37.28 -74.88,-51.3zm-98.59 -8.96c41.71,0.93 80.04,17.86 103.07,49.3 -54.11,0 -63.52,-5.73 -86.8,-25.23 -15.26,-12.78 -13.43,-1.87 -16.27,-24.06zm-17.92 31.37c-17.53,0 -32.09,0.85 -44.04,-5.25l-12.67 -9.74c-7.89,-8.36 -5.42,-6.78 -10.5,-16.38 31.37,0 42.01,-6.27 67.22,31.37zm-138.92 -40.33c15.5,7.44 15.49,0.36 30.24,10.09 8.44,5.57 13.96,13.68 19.05,21.28 -21.2,-4.49 -44.87,3.13 -49.29,-31.37zm-58.26 0c21.07,0 23.12,10.09 31.37,22.41l-36.56 -6.58c-6.21,-1.55 -11.99,9.12 -7.12,-6.46 2.78,-8.89 -0.54,-9.37 12.31,-9.37zm161.33 -40.33c12.89,-1.07 36.89,-18.41 67.22,26.88 -42.36,-0.94 -47.71,2.25 -67.22,-26.88zm-76.18 0c17.7,0 18.19,-1.41 31.37,-4.48l23.28 26.05c-38.23,0.84 -38.87,2 -54.65,-21.57zm156.85 -4.48c34.11,-7.95 40.16,-7.74 71.76,13.37 23.56,15.74 26,12.29 31.3,26.96 -45.17,-1 -77.41,-2.02 -103.07,-40.33zm-80.67 4.48l0 0zm174.77 -8.97c26.8,0 61.59,-5.85 76.25,-0.35 16.41,6.16 44.91,23.06 53.71,36.2 -23.78,11.41 -34.41,8.96 -62.74,8.96 -12.43,0 -7.52,-3 -17.44,-9.45 -5.71,-3.72 -9.73,-6.02 -16.41,-10.48 -7.01,-4.69 -9.57,-7.02 -15.55,-11.34l-17.83 -13.55zm-318.75 32.67c13.25,-44.79 7.25,-43.26 51.8,-50.06 -3.94,9.22 -14.46,36.27 -18.18,48.58l-33.61 1.47zm108.13 -50.59c1,-12.1 2.1,-12.19 4.48,-22.41 17.62,4.11 18.18,4.93 26.89,17.93 -13.19,3.07 -13.68,4.48 -31.37,4.48zm53.78 -26.89c36,0 34.96,-9.53 71.7,22.41 -27.13,0 -48.56,12.15 -71.7,-22.41zm76.18 -8.97c57,-1.27 29.18,-19.57 101.94,23.54l5.62 3.35c-45.73,10.65 -70.76,5.09 -107.56,-26.89zm98.59 -13.44l43.61 -2.57c32.64,-2.82 70.83,9.11 77.38,29.45 -6.36,5.53 -4.92,5.21 -14.34,8.37l-49.2 1.48c-5.02,-1.85 -21.14,-13.02 -28.44,-16.49 -23.26,-11.07 -18.09,-0.88 -29.01,-20.24zm-212.61 -17.9c18.23,3.66 8.93,-1.29 21.54,3.84 2.5,1.02 6.24,3.26 8.18,4.8 10.03,7.92 2.24,-1.65 8.12,9.26 -5.95,0 -21.53,0.71 -26.44,-0.48 -14.27,-3.47 -12.47,-3.76 -11.39,-17.43zm55.76 -8.99c57.17,-13.31 25.6,-0.73 67.22,8.97l0 8.96c-31.53,-6.68 -28.86,15.42 -67.22,-17.93zm76.18 -17.92c29.56,0 30.39,-11.07 49.48,-4.92 18.32,5.89 22.08,13.11 44.63,18.37l0 8.96c-20.82,-4.41 -31.37,4.01 -49.49,3.48 -15.13,-0.44 -26.26,-12.65 -44.62,-16.93l0 -8.96zm-1263.73 -4.48c17.41,1.45 11.68,4.04 31.37,4.48 -7.59,10.36 0.07,9.73 -15.32,6.75 -16.24,-3.14 -9.19,-1.87 -16.04,-11.23zm-4.48 -4.48c-10.27,14.22 0.27,5.09 -26.89,4.48 11.33,-15.46 7.51,-9 26.89,-4.48zm1353.35 -8.96c59.36,-1.33 33.47,-23.31 95.95,-1.9 18.54,6.35 20.62,3.22 25.05,19.83l-43.09 10.79c-12.44,2.13 -3.07,3.55 -16.45,-0.28l-61.45 -28.43zm-147.88 -17.93c11.23,-0.25 45.61,-9.93 62.74,13.44 -20.27,0.45 -17.81,4.48 -40.33,4.48 -14.57,0 -3.38,-3.89 -22.41,-8.96l0 -8.97zm67.22 -17.92c16,-3.73 68.1,-20.41 89.62,8.96 -41.71,9.72 -39.16,15.49 -69.19,2.19l-20.43 -11.15zm201.65 -26.89c-3.35,9.25 -5.62,11.5 -22.82,17.64 -33.19,11.84 -31.48,4.59 -58.7,-3.27 -14.18,-4.09 -22.17,-6.91 -34.98,-9.89 0.9,-0.62 2.39,-2.51 2.83,-1.65l22.36 -9.04c6.4,-1.89 26.25,-7.93 30.84,-8.54 10.32,-1.38 47.76,8.64 60.48,14.75zm-250.95 -4.48c9.3,-7.76 25.35,-3.57 32.76,-1.39 20.09,5.92 5.39,-4.85 16.54,10.35 -16.56,1.38 -16.75,5.72 -29.27,7.63 -23.11,3.52 -13.51,-2.02 -20.03,-16.59zm85.15 -35.85c26.66,0 33.74,8.42 58.26,8.96l0 8.96c-35.04,0 -15.67,8.97 -53.78,8.97 -19.43,0 -13.83,-7.14 -35.85,-8.97 5.58,-7.62 18.89,-17.92 31.37,-17.92zm112.03 0c-19.19,0 -36.3,-12.85 -62.74,-13.44l0 -8.96c66.46,-15.48 15.11,-19.41 85.04,-11.43 12.93,1.48 11.78,-3.23 22.52,11.43l-44.81 22.41zm-152.36 -35.85c4.48,-3.89 -0.81,-0.28 7.66,-5.78 3.59,-2.33 2.49,-2.01 8.44,-5.01 17.22,-8.69 34.11,-9.36 53.42,-4.94 21.15,4.84 10.56,-1.78 20.11,11.26 -35.61,0 -15.61,7.22 -41.89,11.62 -14.06,2.35 -27.6,-6.69 -47.73,-7.14zm-17.93 -17.92l0 -8.96 13.44 0c-9.85,14.19 -0.68,3.18 -13.44,8.96zm161.33 -13.44l-62.74 -13.44c16.7,-1.39 37.24,-28.78 103.07,-13.44 -10.6,15.82 -32.94,26.89 -40.33,26.89zm-147.89 -17.93c4.23,-5.77 12.17,-12.76 19.53,-16.63 19.54,-10.26 8.8,-1.3 29.76,-1.3 24.75,0 5.03,-10.11 26.89,0 -5.9,8.06 -18.18,15.89 -30.01,19.64 -17.45,5.54 -26.66,-1.71 -46.17,-1.71zm67.22 -40.33c9.67,-14.44 11.13,-14.43 26.77,-22.65 20.72,-10.89 49.74,-15.93 71.82,-4.24 -27.92,38.11 -68.44,26.89 -98.59,26.89zm-4.48 -31.37c-7.63,10.42 -47.78,33.87 -59.32,22.33 -11,-11 3.14,-20.09 14.52,-22.16 8.19,-1.48 34.75,-0.17 44.8,-0.17zm-8.96 -22.4c8.18,-30.62 47.19,-35.2 76.18,-35.85 -0.16,7.44 3.55,22.18 -21.32,32.45 -13.82,5.71 -37.02,3.4 -54.86,3.4zm-71.7 -67.22c17.69,0 18.18,-1.41 31.37,-4.48 -12.31,18.38 -18.96,23.01 -31.37,4.48zm44.81 17.93c23.22,-34.68 34.74,-30.68 76.18,-40.33 -3.17,38.07 -44.03,40.33 -76.18,40.33zm-62.23 -60.48c10.3,9.93 8.45,-8.94 8.45,15.67l-8.45 -15.67zm30.86 20.15c7.3,-27.37 39.76,-44.81 76.18,-44.81 -6.72,12.69 -13.52,24.57 -26.21,32.04 -15.7,9.25 -34.7,5.44 -49.97,12.77zm40.33 -89.63c-2.89,5.46 -5.75,13.06 -8.67,17.55 -0.52,0.79 -1.26,1.88 -1.81,2.64 -14.97,20.47 -45.69,27.86 -52.22,21.73 -7.31,-6.86 11.2,-24.15 18.4,-27.96 10.15,-5.38 30.87,-12.84 44.3,-13.96zm-104.58 -0.6c24.09,-12.61 17.46,-34.19 59.77,-35.25 -1.65,19.83 -14.65,28.54 -30.4,37.22 -0.96,0.52 -2.08,1.2 -3.06,1.69 -25.62,12.83 -21.42,5.78 -26.31,-3.66zm-442.13 -277.24c0.24,-10.9 2.54,-17.35 2.69,-23.01 0.36,-14.69 -2.69,-3.16 -2.69,-21.8 0,-20.61 2.43,2.16 2.26,-13.44 -0.17,-15.49 -2.26,6.91 -2.26,-13.44 0,-13.73 20.63,-41.52 22.4,-62.74 6.81,7.83 7.48,9.49 8.56,27.26 2.41,39.44 5.7,97.39 -30.96,107.18zm44.81 -165.81c0,-9.94 20.24,-35.46 26.89,-40.33 8.8,37.75 31.66,50.26 19.69,119.28l-15.43 64.23c-5.67,19.16 -1.37,20.9 -22.18,22.63 -12,-25.02 13.61,-69.77 -0.24,-129.72 -2.84,-12.31 -8.72,-23.76 -8.72,-36.09zm-80.66 -8.96c-13.26,-3.54 -7.26,-1.82 -17.92,-8.96 4.43,-16.59 13.44,-21.08 17.92,-40.33l8.96 0c3.13,13.1 -0.57,6.46 8.96,13.44 -7.81,11.67 -16.52,18.93 -17.93,35.85zm67.22 -22.41l-8.96 0c-3.14,-13.1 0.58,-6.46 -8.96,-13.44 10.66,-15.93 15.06,-24.93 31.37,-35.85 16.64,29.61 -4.48,15.74 -13.44,49.3zm-112.03 -13.44c-6.55,-14.17 -6.56,-5.28 0.91,-17.2 3.69,-5.9 11.71,-12.13 16.06,-10.98 14.16,3.76 -8.93,25.26 -16.96,28.17zm94.11 -58.26c-3.34,40.09 -46.91,38.65 -19.98,12.17 9.96,-9.8 7.38,-8.81 19.98,-12.17zm-58.26 4.48c0.24,-1.95 20.33,-8.03 5.98,0.31 -7.83,4.55 -6.82,6.48 -5.98,-0.31zm103.07 4.48c4.63,-17.35 13.79,-26.4 35.85,-26.89 -2.63,9.81 -1.31,4.67 -6.37,11.68 -17.1,23.73 -19.26,17.38 -29.49,15.21zm62.74 -49.3l-8.74 5.15 8.74 -5.15zm4.48 -4.48l-4.48 4.48 4.48 -4.48zm0 0l0 0zm318.17 -31.37c31.31,16.57 27.48,4.05 68.59,34.48 68.86,50.97 50.42,155.13 15.17,219.56 -14.48,26.46 -59.71,72.98 -84.73,94.52l-100.66 83.19c-16.52,13.94 -11.43,16.43 -32.8,11.9 5.66,-21.18 39.07,-45.8 54.9,-61.62 20.24,-20.24 40.29,-37.38 57.14,-59.37 25.38,-33.15 19.48,-16.81 49.17,-67.35 32.28,-54.97 44.88,-177.3 -7.68,-229.57 -4.01,-3.98 -8.21,-7.1 -11.34,-11.07 -10.87,-13.75 -2.47,-4.64 -7.74,-14.67zm-183.73 0c127.14,0 140.31,144.63 119.19,199.85 -4.3,11.25 -5.62,19.15 -9.81,30.52 -14.96,40.54 -62.81,92.59 -88.21,126.89 -2.38,3.2 -6.95,9.24 -9.79,12.62l-6.33 7.11c-17.04,19.28 -11.5,17.35 -36.42,17.35 17.9,-33.81 51.13,-75.69 66.37,-103.92 7.68,-14.22 22.55,-44.66 27.27,-57.87 19.97,-55.87 15.79,-117.6 -8.43,-169.89 -20.47,-44.2 -38.27,-39.42 -53.85,-62.67zm201.66 67.42c8.35,-3.66 -6.2,1.91 12.18,-3.67 0.49,33.77 7.11,8.72 6.27,66.07 -0.51,35.19 1.27,64.13 -14.54,95.48l-6.19 11.48c-3.45,6.21 -2.63,4.37 -6.38,11.21 -16.89,30.71 -73.89,96.96 -102.09,125.05l-4.61 4.66c-0.67,0.66 -1.56,1.64 -2.23,2.29l-4.49 4.29c-18.15,16.03 -49.69,33.46 -54.72,59.38 18.21,11.52 4.31,2.11 19.04,6.24l6.94 1.67c24.76,8.54 32.87,45.39 -1.51,41.37 0.9,-10.78 0.54,-4.93 6.65,-12.31 15,-18.14 0.67,13.28 4.89,-3.93 0.32,-1.33 1.9,-0.9 2.59,-1.67 -14.5,-6.46 -16.61,-5.4 -28.09,-13.56 7.69,45.66 5.52,19.55 -8.45,31.47 -12.53,-32.55 -4.69,-51.6 -8.98,-60.84 -1.92,0.2 -56.12,8.95 -58.68,3.3 -0.04,-0.09 -22.54,-8.74 -11.5,-51.91 -11.26,4.8 -62.68,16.97 -71.59,10.88 -23.18,-15.85 -1.2,-51.49 -24.05,-37.36 -12.92,-2.58 -8.29,-3.27 -17.92,1.51 4.75,-57.13 42.75,-90.98 17.09,-187.38 -15.45,-58.04 -33.83,-43 -11.66,-71.57 7.78,-10.03 6.2,-7.01 12.48,-18.89 11.59,4.2 9.39,8.94 17.93,13.46 16.48,4.83 12.75,1.64 21.21,22.47 32.04,78.93 18.94,133.64 -17.07,212.23 -1.2,2.61 -6.57,12.26 -6.43,17.06 0.25,8.93 5.78,15.45 10.67,21.39l5.06 -16.47c24.55,-54.22 52.12,-126.35 39.47,-188.27 -2.35,-11.54 -6.22,-25.72 -10.76,-38.89 -17.01,-49.26 -26.54,-36.86 -33.19,-65.4 9.06,-6.07 17.83,-11.87 26.89,-17.93 42.46,28.43 17.65,22.72 40.33,34.95 5.96,-5.56 4.89,7.91 5.62,-8.43 1.17,18.01 49,78.27 20.96,163.13l-50.34 110.49c-7.55,13.35 -14.43,20.56 -16.55,40.44 4.52,2.72 7.72,7.72 13.43,4.46 47.52,-94.15 123.24,-200.2 45.81,-323.63 -9.45,-15.06 -23.39,-22.45 -27.89,-39.33 26.6,-12.76 43.06,-2.96 61.69,14.74 12.34,11.73 9.61,11.82 18.98,12.52 18.11,7.27 5.55,-4.1 15.41,11.1 37.63,58.05 28.33,140.72 -5.56,205.99 -0.45,0.88 -1.04,2.06 -1.51,2.92 -22.47,41.7 -48.8,72.74 -66.73,102.76 -10.45,17.5 -4.35,-1.53 -8.8,21.93 13.07,7.96 16.62,6.85 26.61,11.51 17.95,8.35 9.26,8.04 22.66,16.37 11.7,-9.51 10.1,-11.06 19.3,-22.07 70.54,-84.46 157.3,-168.18 131.43,-299.63 -15.94,-80.98 -50.46,-84.39 -65.57,-105.02 45.39,3.78 79.86,26.96 105.61,60.51 13.08,17.05 3.32,8.72 10.91,11.39z"/>
   <path class="fil1" d="M651.19 1486.65l-17.92 0c8.38,-5.31 -10.01,-5.04 8.96,-3.69 9.63,0.68 3.93,0.39 8.96,3.69zm-53.78 -22.41l-17.93 0c8.38,-5.32 -10.01,-5.04 8.96,-3.7 9.63,0.68 3.93,0.39 8.96,3.7zm-26.91 8.94c-11.17,-10.25 -8.94,2.6 -8.94,-13.42 11.86,-3.15 3.69,0.36 13.44,-4.48 -5.14,13.78 -2.56,4.53 -4.5,17.91zm-62.72 -17.91c23.24,0 17.39,-4 26.89,8.96l-26.89 0 0 -8.96zm17.93 -17.92l0 -8.96c27.14,0.6 13.13,-2.91 17.93,8.96 -7.98,-3.3 -6.11,-4.25 -17.93,0zm-53.78 -13.44c-11.33,15.46 -7.5,9 -26.89,4.48 5.33,-3.39 -0.08,-2.02 9.73,-3.71 6.3,-1.09 10.81,-0.77 17.15,-0.77zm-80.66 -40.33c23.06,1.96 8.46,-4.39 13.44,8.96 -7.54,-3.74 -7.88,-4.12 -13.44,-8.96zm-67.22 -53.78c18.16,4.23 13.49,1.2 17.92,13.44 -15.05,-7.97 -8.34,-0.37 -17.92,-13.44zm-58.26 -58.26c9.83,4.72 17.63,7.82 31.37,8.97l0 8.96c-31.12,-0.7 -25.71,-10.57 -31.37,-17.93zm67.22 -8.96c-31.75,-0.71 -37.7,-15.47 -67.22,-17.93 11.5,-15.69 14.45,-8.28 32,-0.92 14.54,6.09 27.51,8.31 35.22,18.85zm-121 -53.78c13.66,3.18 28.58,8 35.85,17.93 -14.27,6.6 -5.9,6.59 -19.98,-1.93 -10.39,-6.29 -10.33,-7.72 -15.87,-16zm246.48 53.78c-10.48,0 -13.31,-9.24 -31.37,-13.44l132.63 -69.31c19.33,-8.55 30.61,-19.92 33.18,11.06 -34.76,8.09 -115.85,71.7 -134.44,71.7zm-237.51 -89.63c17.05,0.38 44.56,13.13 53.78,26.89 -20.47,-1.7 -34.46,-13.43 -53.78,-17.93l0 -8.96zm-58.26 -35.85c18.07,4.22 31.15,9.28 35.85,26.89 -19.63,-1.63 -27.47,-14.37 -35.85,-26.89zm192.69 62.74c27.68,-2.31 200.44,-77.95 233.03,-80.67 -2.62,31.45 -11.65,23.52 -49.25,40.38l-124.87 59.13c-24.87,13.34 -54.39,-1.91 -58.91,-18.84zm-120.99 -62.74c-15.62,0 -51.64,-22.33 -58.26,-31.36 36.8,-17.67 95.43,-22.91 141.64,-33.13l212.54 -38.41c16.04,-2.2 41.69,-3.4 53.62,-9.12 -0.56,25.04 -4.87,20.22 -74.34,37.69 -17.47,4.4 -30.88,7.7 -46.68,11.58l-228.52 62.76zm-89.63 -49.29c-39.46,-26.43 -22.94,-59.53 14.55,-66.24l323.53 -33.54c6.56,-0.18 15.08,0.8 27.27,-0.66l60.37 -2.63c-2.15,25.93 -17.03,16.66 -44.99,22.27 -83.26,16.72 -265.04,44.03 -328.61,61.21 -22.08,5.97 -34.06,15.37 -52.12,19.58zm407.8 -134.42l-347.16 34.04c-47.79,10.15 -116.84,2.98 -108.19,81.89 1.39,12.68 9.52,24.47 20,32.59 21.86,16.94 13.95,2.39 19.83,33.94 3.38,18.11 6.57,21.44 19.26,34.52 7.24,7.46 0.92,1.69 6.9,6.54l26.37 13.96c-12.91,55.41 32.89,49.06 44.31,72.2 6.02,12.2 3.67,20.13 13.06,31.76 17.52,21.74 32,7.65 46.33,38.82 18.73,40.73 21.48,20.42 48.61,36.53 17.4,10.33 10.94,32.77 43.2,41.94 23.53,6.69 15.86,-4.24 28.55,11.79 9.44,11.93 0.73,13.48 20.57,24.25 30.32,16.45 18.62,-7.54 56.64,28.56 23.73,22.53 22.72,4.63 47.37,15.23l14.33 8.13c-1.37,-30.69 -10.12,-18.23 17.93,-26.91 22.06,0 23.25,-4.17 42.98,-4.54 -11.54,18.43 5.09,-2.24 -7.53,8.48 -3.67,3.11 -5.6,3.31 -8.55,5.07 -7.24,10.93 11.26,8.94 -13.44,8.94 7.1,-8.5 -3.7,-1.54 13.42,-4.48 -8.75,-6.44 -1.54,-7.65 -17.43,-6.65 -29.08,1.83 -12.5,5.58 -18.38,11.14l8.72 4.91c8.99,3.46 2.73,1.87 12.83,4.09 13.95,3.06 14.4,1.01 27.69,4.43 -2.27,-34.8 -1.35,-25.24 8.99,-31.33l-0.18 9.93c0.17,1.15 0.25,2.6 0.5,3.88l4.15 13.04c19.59,-7.27 23.11,0.41 53.76,-13.44 -12.09,-15.02 2.89,-9.71 -40.29,-12.44 15,-11.14 37.07,-11.3 49.28,-1.77l22.43 -37.74c-9.63,4.32 2.06,7.12 -17.98,8.09 -19.48,0.94 -16.28,-3.81 -21.62,-14 -17.01,4.44 -3.86,5.55 -27.62,13.06 4.87,-17.51 -2.16,-6.52 10.12,-22.78 -11.81,2.36 -22.59,0.5 -33.88,-0.37l-33.92 -8.2c8.27,-19.39 5.83,-10.28 14.33,-17.15 0.15,-0.12 1.06,-0.35 1.28,-0.8l-34.55 5.72c-0.83,-0.02 -2.14,-0.11 -2.98,-0.17 -22.27,-1.72 -20.31,-8.87 -40.59,3.43 11.01,11 14.63,9.27 22.78,11.76 28.22,8.62 11.83,-9.42 21.18,19.58 -15.37,-14.51 -6.57,-12.63 -30.89,-13.59l-40.77 0.19 -0.04 26.85c-8.65,-7.13 -24.47,-6.53 -2.19,-35.81 -18.8,10.43 -2.89,10.75 -33.61,8.92l22.16 -8.82c1.45,-0.67 2.46,-0.93 3.8,-1.63l9.85 -7.44c-6.53,-19.41 2.28,-5.64 -13.43,-13.42 0,22.53 1.2,8.67 -4.48,13.42 -17.27,-1.44 -14.44,-4.48 -35.85,-4.48l0 -11.55c-7.43,5.27 -5.3,13.11 -22.38,20.49 1.25,-24.49 -1.12,-22.66 15.83,-34.2 8.97,-6.1 15.07,-12.09 22.66,-15.07 -5.05,-5.19 10.14,-9.04 -8.15,4 -0.74,0.54 -2.26,1.91 -3.48,2.75 -7.59,-17.1 6.48,-5.93 -17.93,-15.69 0,22.52 1.2,8.67 -4.48,13.42 -19.5,-9.36 -30.89,-0.28 -44.81,-17.91 -5.66,9.34 -15.53,-14.86 -4.5,17.88 -5.41,-4.69 -24.97,-6.58 0.98,-33.69l-14.4 11.49c-11.7,-21.25 8.59,2.35 -6.65,-7.69 -14.62,-9.63 -11.35,-0.7 -33.69,-10.4l-6.02 12.82c-0.47,0.55 -1.6,1.72 -2.08,2.16l-4.64 1.23c-4.83,-10.86 -12.16,-44.35 7.16,-57.34 15.08,-10.15 48.64,-30.18 62.23,-22.13l40.34 19.32c10.04,9.98 6.05,4.32 10.54,21.49 -1.31,-0.82 -3,-3.74 -3.76,-2.73 -8.66,11.41 4.98,-6.22 -35.84,-22.57 -35.18,-14.08 -13.91,1.9 -46.95,6.2l66.1 24.93c-11.62,14.57 -11.48,2.49 -6.41,8.29l54.45 -33.2c0.73,-0.54 1.72,-1.42 2.45,-1.95 0.72,-0.53 1.78,-1.31 2.5,-1.83 4.48,-3.14 7.82,-4.89 13.13,-8.18l76.19 -45.14c20.04,-13.11 37.81,-23.74 61.87,-26.85 -7.46,21.09 6.95,13.89 -13.44,17.91l8.99 0c-13.98,29.13 14.32,10.5 -12.89,31.57 -29.85,23.11 -66.64,55.55 -86.47,46.34 -2.64,-1.22 -7.39,-5.05 -8.39,-6.07 -7,-7.24 -3.5,-1.56 -8.77,-13.56 -9.66,16.84 1.43,8.07 -13.86,15.02l23.02 18.1c-1.15,0.39 -2.73,1.63 -4.1,1.91 -1.2,0.25 -2.61,0.67 -3.89,0.72 -18.66,0.86 -4.33,-0.66 -13.09,-5.54 -8.7,-4.85 -6.32,-8.02 -21.11,-7.82 17.49,14.49 28.32,0.8 37.48,35.83 -46.69,-6.02 -38.98,-29.67 -70.3,-11.96l-19.28 11.96 62.72 18.87c15.19,-19.56 3.69,-14.93 31.34,-18.82 -4.43,37.38 6.86,10.19 -15.31,24.36 17.86,-3.45 14.36,-1.98 27.07,1.49 5.8,1.58 5.56,2 10.31,3.7 13.96,5.02 -4.74,1.33 11.94,4.29 -2.15,26.98 -8.77,8.48 -7.09,19.94l17.87 -18.77c2.23,-2.07 21.11,-18.94 9.04,-13.16 -7.15,-7.96 -34.07,-14.29 -38.53,-16.55 -18.07,-9.19 -4.18,5.57 -17.46,-14.26l55.99 -36.75c23.59,-16.23 35.43,-29.94 58.23,-39.44 9.06,10.65 4.72,-4.19 2.73,13.42 19.26,4.31 6.65,4.29 24.16,8.97l0 8.96c-20.15,5.38 -47.35,38.99 -62.74,49.29 -32.9,-8.79 -24.03,-20.4 -22.41,-26.87 -9.2,17.13 -0.9,10.35 -20.22,18.06 12.26,7.89 30.54,9.91 38.14,22.27 24.2,-0.04 6.16,3.95 21.69,-14.69 22.35,-26.84 30.04,-32.65 54.48,-39.08l-17.88 22.39c29.23,12.17 16.4,30.81 -4.5,44.81 -22.71,-11.26 -18.83,-7.61 -22.41,-22.39 -0.16,0.29 -6.55,10.94 -6.74,11.15 -7.02,7.73 1.56,1.06 -8.56,6.73 9.17,-3.04 25.31,11 37.7,18.83 16.89,-15.89 18.69,-30.55 44.81,-41.19 0.97,1.61 3.22,1.89 3.39,4.51l1.07 8.91c13.24,1.97 17.54,16.61 10.25,27.9 -3.69,5.71 -8.74,10 -18.2,7.85 -14.52,-3.31 -10.87,-3.06 -14.43,-17.8 -3.24,5.37 -8.34,16.72 -15.26,17.91 14.26,0.96 23.13,6.95 37.67,13.9 0.7,-0.54 1.51,-2.55 1.84,-1.93 6.09,11.33 -3.97,-1.38 16.08,-11.95l4.74 23.71c0.02,0.69 -0.54,2.12 -0.26,3.13 7.43,0 25.06,4.57 27.11,4.13 6.59,-1.43 2.79,-10.43 26.27,-9.48 1.39,0.06 3.3,0.38 4.85,0.92 -21.34,-20.33 1.02,-16 1.5,-16.65 4.21,17.11 8.72,23.96 27.51,29.02 -6.27,-20.12 -63.09,-52.83 -81.21,-80.65l-3.54 -5.69c-13.3,-20.13 -28,-26.67 -39.16,-45.83 -16.74,-28.73 -15.96,-23.08 -43.61,-37.22 0.68,-0.31 1.84,-0.42 2.19,-0.44l7.64 0.12c1.67,0.27 10.76,3.35 13.72,4.17 -3.37,-17.48 -6.2,-12.26 -17.32,-47.46 -5.01,-15.87 -6.89,-13.63 -17.85,-20.2 -8.16,-4.89 -1.58,-0.87 -8.83,-5.84l12.74 -6.37c-9.08,-63.14 -1.05,-57.48 -30.43,-79.01 -1.61,23.31 -3.14,9.1 -7.07,14 -16.09,-0.06 -91.69,27.35 -114.05,36.11 -16.39,6.42 -22.26,10.38 -37.74,16.03 -24.52,8.95 -50.33,17.05 -76.04,27.16 -47.12,18.54 -30.85,-4.61 -72.42,-14.3l175.87 -57.15c15.03,-3.48 22.15,-4.38 36.31,-8.51 13.45,-3.92 22.19,-5.17 35.84,-8.91 16.45,-4.51 19.98,-7.52 37.43,-10.56l34.74 -10.36c5.58,-16.02 5.28,-19.44 6.98,-38.91 9.59,9.57 9.54,6.2 10.96,36.13 0.56,11.74 1.08,19.62 3.67,29.66 -4.59,-36.07 -5,-56.48 0.65,-92.68 -21.56,6.41 -2.35,0.08 -13.25,5.34 -10.05,4.85 -8.54,16.88 -13.78,-0.57 -4.97,-16.54 -0.42,-3.94 3.15,-12.94 16.06,-40.54 1.06,13.43 4.04,-18.57 0.11,-1.26 0,-3.09 0.07,-4.63l13.81 -6.69c1.04,-0.55 2.72,-1.52 4.07,-2.3l-10.54 -11.48c-4.55,-9.54 -2.59,-19.57 -2.62,-19.79l-4.74 -18c-15.12,8.41 -9.31,1.22 -13.33,17.43 -0.46,1.85 -0.09,24.96 -0.09,27.33 18.26,0.13 -25.31,-4.4 -26.91,-4.43z"/>
   <path class="fil2" d="M1197.67 1436.96c-29.03,-2.61 -14.88,7.86 -29.51,-20.46 -29.13,-56.39 31.48,-51.87 32.18,-51.65 20.46,6.4 40.57,76.56 40.49,79.28 -26.33,6.08 -31.66,3.63 -39.09,-18.82 -5.09,-15.4 -10.79,-33.43 -21.76,-41.95 -2.02,16.04 13,34.56 17.69,53.61zm54.68 -89.23c8.49,-17.19 21.65,-32.32 39.67,-41.37 8.37,3.44 3.81,1.65 9.56,5.22 20.8,12.94 5.26,6.43 29.62,9.46 13.81,39.65 24.47,29.31 20.69,58.05 -32,16.98 -32.93,-3.97 -42.18,-29.96l-24.43 -3.02c-5.86,20.18 0.13,13.13 -15.67,21.22 -18.9,-10.75 -2.41,-3.17 -17.26,-19.62zm122.73 -117.08c2.34,-27.97 18.48,-41.38 47.89,-32.81 26.07,7.59 49.59,19.96 39.19,46.8 -21.2,5.04 -17.78,0.67 -33.61,-11.35 -8.85,-6.72 -17.16,-12.13 -28.9,-15.45l-4.55 12.53c21.24,9.63 16.76,1.86 36.39,17.86 17.48,14.25 22.41,7.9 17.33,31.14 -13.76,6.15 -20.84,5.02 -34.81,-4.14 -38.44,-25.23 -60.14,-12.31 -71.89,-39.39 9.87,-7.11 15.75,-18.64 32.94,-5.17zm13.88 -281.74c1.74,13.84 3.64,17.82 5.57,26.89 1.67,59.17 11.05,81.01 -4.76,141.97 -9.39,36.18 -39.67,101.75 -58.37,125.31 -95.04,119.7 -171.04,102.82 -278.65,120.25 -41.89,6.78 -84.11,-10.44 -113.49,-25.69 -139.54,-72.45 -119.26,-114 -161.47,-130.37l12.65 23.92c22.29,13.03 23.68,31.59 42.25,51.31 21.52,22.85 22,9.03 49.55,40.24 17.46,19.78 67.59,34.53 93.95,40.65 28,6.49 11.83,3.6 28.77,17.46l-3.28 21.3c8.89,14.27 5.52,7.79 2.08,29.13l14.22 -24.59c-0.4,19.85 -1.57,14.35 2.92,29.29 -47.1,3.47 -28.79,5.97 -44.7,38.65 -0.18,0.37 -1.05,2.77 -1.18,2.2 -0.13,-0.57 -0.72,1.51 -1.15,2.11l-18.97 -2.71c28.46,35.02 216.07,20.62 249.63,9.15 58.91,-20.14 104.09,-49.94 152.35,-81.67l73.72 -69.68c8.26,-11.89 8.44,-16.2 16.78,-27.27 8.88,-11.78 1.75,-2.98 10.36,-12.16l14.46 -14.43c-17.13,43.78 -9.3,43.89 -25.85,52.17l11.04 -0.18c40.74,1.36 24.22,-21.18 29.89,-51.63 3.41,-18.27 28.51,-29.61 44.76,-36.98 0.59,-28.81 -8.32,-31.32 -6.72,-58.17 21.05,-17.66 29.63,-21.33 32.91,-36.06 -3.57,-14.2 -9.87,-20.34 -10.11,-36.19 -4.96,-30.04 10.57,-26.17 20.45,-48.22l6.5 -12.57c-7.18,-7.05 -24.56,-12.33 -27.07,-37.06l2.2 -17.09c0.35,-1.33 0.77,-3.22 1.81,-4.44 9.96,-5.15 8.49,-10.59 10.24,-20.2l6.67 -10.95c-8.82,-6.34 -19.86,-5.7 -25.71,-7.61l-8.89 -27.56 -13.72 11.83c-3.8,-22.64 -5.57,-30.12 -15.51,-51.54 -18.1,-38.96 -1.07,-32.79 -29.3,-44.94 6.54,25.76 11.45,18.86 16.52,36.51 -6.11,-3.07 -13.16,-4.59 -21.02,-8.26l-23.28 20.62c-0.23,-0.63 -1.24,1.04 -1.73,1.41l-5.64 -11.37c23.82,-0.94 11.35,-4.22 30.63,-8.98 -0.43,-27.96 -5.91,-52.24 -39.65,-46.9 -3.13,0.5 -11.9,4.45 -13.82,5.59 -4.83,2.86 -5.29,3.81 -10.48,8.3 -1.02,0.88 -8.67,7.83 -9.62,8.75l-35.04 34.12 19.18 35.62c2.27,6.37 4.43,12.79 6.61,19.25 3.93,11.55 0.32,7.48 6.35,15.95 -6.57,4.99 3.1,13.76 -5.82,-4.46z"/>
   <path class="fil3" d="M907.14 1204.02c41.08,-0.51 122.41,-6.4 153.93,4.8 2.12,67.22 -19.78,47.01 -33.27,75.17l157.93 0.93c-8.56,20.49 -44.91,37.59 -67.44,45.57 -30.52,10.82 -73.92,3.53 -102.76,-7.48 -9.91,-3.78 -26.32,-11.09 -36.29,-17.13 -18.86,-11.42 -35.95,-23.27 -45.83,-38.72l-3.44 -5.57c-11.4,-17.33 -23.17,-34.15 -22.83,-57.57zm105.26 -437.48c-13.49,1.74 -32.07,11.33 -43.59,19.46 -24.24,17.1 -84.59,48.61 -87.23,98.9l-9.11 199.78c-27.87,0.03 -38.83,-6.56 -59.08,-0.17 -22.39,7.07 -41.36,1.43 -59.32,8.9 -2.73,-23.55 -13.73,-75.06 3,-90.76 -0.93,-19.02 -2.48,-21.6 6.64,-36.87 0.31,-32.77 22.54,-66.01 38.33,-90.05 11.1,-16.91 12.54,-21.73 27.15,-35.5 11.92,-11.25 20.01,-19.24 31.43,-29.72l-7.61 -0.55 -35.93 31.41c-26.81,28.31 -60.66,95.36 -70.13,136.09 -13.95,60.01 -7.52,130 13.22,185.24 5.31,14.13 16.73,32.88 17.62,44.58 42.21,16.37 21.93,57.93 161.47,130.37 29.38,15.25 71.59,32.48 113.49,25.69 107.62,-17.43 183.62,-0.55 278.65,-120.25 18.7,-23.56 48.98,-89.13 58.37,-125.31 15.81,-60.96 6.44,-82.8 4.76,-141.97 -21.75,7.52 -18.52,-21.02 -17.39,53.76 0.09,5.87 -1.29,91.13 -7.46,71.08 -0.2,-0.64 -0.8,2.01 -1.46,2.86 0.13,15.4 -13.45,57.87 -20.07,72.8 -16.4,36.97 -12.34,25.02 -41.59,47.06 -28.26,21.31 -22.45,27.89 -68.22,27.57 -29.5,-0.2 -59.72,0.68 -90.35,-0.31l2.04 -195.23c-7.93,-8.65 11.22,-12.64 -16.28,-6.75l-3.03 36.69c14.91,-29.27 -45.65,-60.19 -45.72,-60.26 23.06,-4.66 22.72,-22.37 33.74,-44.89 -0.23,-56.51 -14.16,-81.24 -64.21,-94.01 8.56,22.46 -2.25,4.37 14.56,22.1 61.51,64.86 14.83,86.85 -10.07,116.8 25.8,32.03 19.81,0.85 47.96,49.29 -0.41,0.14 -1.09,-0.45 -1.21,-0.48l-6.5 -0.67c-13.96,-0.47 0.44,8.26 -9.08,-4.13 -0.41,-0.53 -1.41,-2.28 -1.76,-2.78 -0.41,-0.6 -1.7,-1.54 -2.02,-3.31 -0.34,-1.92 -1.19,-2.58 -1.21,-1.76l-17.24 7.29c-10.4,-19.87 6.73,-13.26 -13.44,-26.74l-0.33 7.59c2.74,27.88 12.86,77.79 -4.67,102.99 -0.16,28.58 -16.89,24.44 -44.57,25.43l-1.67 -133.51c-5,-12.73 4.85,-4.54 -11.1,-8.72 -10.97,-2.87 -5.02,-0.61 -13.83,1.5 -0.66,1.1 -1.2,2.62 -1.49,3.53l-3.79 29.27c-8.61,4.2 5.55,-1.4 -6.85,3.42 -14.87,5.79 -13.6,-0.61 -38.32,-4.89 -0.32,20.34 4.44,108.64 -7.24,119.46l-12.41 11.85c-5.13,-41.28 -5.73,-258.93 -0.72,-299.97 0.76,-6.19 6.37,-26.17 8.91,-31.07 27.52,-52.93 101.3,-86.78 156.22,-99.15 1.43,-0.44 8.74,-2.32 9.58,-2.69 10.53,-4.7 5.11,-2.18 12.01,-7.71 -38.4,-3.04 -47.04,-2.61 -81.84,7.4z"/>
   <path class="fil4" d="M1150.01 1055.4l-2.04 195.23c30.63,0.99 60.85,0.11 90.35,0.31 45.77,0.32 39.96,-6.26 68.22,-27.57 29.25,-22.04 25.19,-10.09 41.59,-47.06 6.62,-14.93 20.21,-57.4 20.07,-72.8 2.79,-77.36 12.24,-120.35 -18.5,-191.25 -31.95,-73.66 -88.43,-105.86 -99.31,-121.7 -0.11,44.62 -11.47,41.62 -4.17,52.61 3.16,4.76 -0.46,-1.16 4.3,4.87l-98.09 8.09c-8.71,25.81 -0.05,119.62 -0.46,155.73l63.85 -2.4c4.83,-5.61 12.25,-14.56 17.01,-20.04 8.46,-9.74 0.98,-0.43 9.43,-13.55 8.88,-13.78 -4.18,-0.9 9.41,-13.51 16.02,19.33 9.06,110.74 7.17,116.8 -4.04,12.91 0.04,4.41 -7.17,13.11 -16.2,-10.56 -17.61,-36.46 -37.95,-41.61 -11.07,-2.8 -55.18,1.83 -63.72,4.73z"/>
   <path class="fil1" d="M633.26 756.2l0 0zm35.85 -67.22c17.18,4.58 13.35,7.27 17.93,26.89 -19,-12.72 -9.7,-8.48 -17.93,-26.89zm-8.96 -40.33l8.96 0 0 17.92c-14.71,-10.78 -6.24,3.24 -8.96,-17.92zm67.22 0c17.38,4.64 17.46,6.05 17.92,26.89l-8.96 0c-2.53,-10.87 -4.69,-17.98 -8.96,-26.89zm31.37 -40.33l8.96 0c2.49,10.68 4.72,22.53 8.96,31.37 -19.93,-2.17 -17.93,-8.53 -17.93,-31.37zm-98.59 8.96c4.76,-4.76 17,7.11 4.99,2.33 -0.11,-0.04 -12.5,5.18 -4.99,-2.33zm31.37 -17.93l5.03 17.75 -9.51 0.17c0,-2.49 -0.09,-7.31 0.3,-8.66 2.46,-8.57 0.63,-4.37 4.18,-9.27zm26.89 -4.48l8.97 0c0.43,19.69 3.03,13.96 4.48,31.36l-8.96 0c-1.44,-17.3 -3.94,-11.71 -4.48,-31.36zm4.48 -44.81c0,3.31 0.32,9.98 -0.39,13.05 -2.02,8.66 -1.15,4.71 -4.09,9.36 -2.06,-24.85 -7.63,-9.15 4.48,-22.41zm201.66 -53.78c-21.08,-14.11 -6.96,-19.51 -4.48,-49.29 10,6.7 13.31,5.05 12.66,21.21 -0.17,4.28 -5.93,23.54 -8.18,28.08zm53.78 -22.4c-4.1,-2.74 -13.44,-7.3 -13.44,-13.44 0,-17.03 5.59,-30.33 8.96,-44.81 21.99,16.11 4.48,24.27 4.48,58.26zm-398.86 425.72c3.68,-11.07 5.29,-9.49 3.48,-26.19 -2.39,-22.12 -5.57,-1.08 -2.42,-28.04 3.64,-31.06 -0.56,-12.97 -2.09,-34.96l23.54 -116.95c8.36,-23.04 3.61,-18.06 13.36,-26.87 13.1,16.25 -3.07,19.98 13.42,26.89 0.27,-13.1 -6.46,-55.34 -1.03,-74 7.05,-24.19 7.69,-6.08 10.04,-29.07 16.58,15.83 10.05,5.12 6.43,43.08 -0.12,1.32 -0.04,15.92 -0.07,16.14 -2.2,14.29 -1.45,9.34 -10.83,21.43 13.42,16.07 1.95,11.01 16.23,12.53 -6.88,22.32 -12.69,-5.46 -7.29,27.78 4.97,-7 1.83,-22.19 8.96,4.5 -3.38,-2.82 -10.91,-3.63 -13.43,-4.48 16.06,23.44 6.45,4.98 -4.48,13.42 -3.57,-9.28 -3.62,-15 -8.15,-26.85l-3.89 17.92c0.08,1.14 0.11,2.46 0.37,3.54 1.89,7.96 9.7,10.97 14.97,14.38 -1,1.13 -2.92,0.88 -3.35,3.03 -0.87,4.37 -5.67,1.8 -6.44,12.61l1.98 6.75 4.48 0.02 -8.94 0c10.83,28.06 8.8,10.67 31.33,8.98 -12.25,14.66 1.56,7.42 -14.34,13.43 5.7,3.48 8.91,5.17 14.36,8.96 0,18.02 1.72,1.91 -8.94,8.96 7.26,8.7 -7.2,12.17 13.42,4.48 7.61,-29.59 15.69,-14.95 21.96,-35.29 -1.49,-0.22 -11.78,-0.28 -13.42,-0.31 -1.54,-0.02 -7.3,-0.08 -8.83,-0.11l-8.66 -0.17c-4.07,-6.61 -15.69,-18.85 -11.85,-31.02 5.28,-16.74 -4.82,-6.1 11.83,-13.75l2.61 17.93c0.24,1.42 0.65,3.17 0.87,4.36 0.23,1.25 0.24,3.2 1,4.55 4.65,-11.11 -7.48,-8.94 8.96,-8.94l0 17.35c0.98,-1.12 6.03,-6.5 6.72,-6.88 0.49,-0.26 2.18,-1.44 2.7,-1.67 18.48,-8.27 0.67,9.44 4.5,-5.39 5.92,-22.89 -12.65,1.88 8.46,-16.83 -3.93,20.72 -10.4,15.42 8.99,14.14 7.78,-46.83 7.81,7.17 20.62,-19.01 15.09,-30.83 -15.95,-35.38 -16.11,-35.46 4.52,32.74 -0.18,5.75 5.96,18.98l11.91 21.31c-11.18,-3.27 -16.51,2.16 -27.54,-27.35 -4.09,-10.94 -0.86,13.01 0.75,-3.74 2.57,-26.67 2.78,-0.72 -8.84,-28.34l-13.04 -47.86c-0.62,-16.6 2.22,-19.63 8.36,-27.1 20.45,24.67 -6.56,29.5 30.31,44.8 -9.81,7.95 5.63,6.06 -12.39,0.02 4.66,14.02 7.66,15.76 8.96,31.35 -5.22,3.2 5.06,4.75 -13.43,0l7.39 14.25c34.73,-9.13 -3.61,7.76 32.7,1.47 5.04,-0.87 17.91,-3.89 18.95,-3.98l12.66 1.68c-7.71,-13.99 -8.38,-17.54 -4.48,-31.32 7.02,0.63 12.06,-20.69 13.44,17.93 -4.43,-4.68 18.96,-12.89 9.1,-59.79 41.11,2.06 16.24,22.61 47.57,23.42 -9.68,-37.12 -16.46,-30.13 -11.9,-53.28 -8.74,-10.46 1.24,-3.6 -13.42,-8.94 0,52.02 6.61,39.63 -10.9,27.77l-7.01 -5.38c4.07,19.39 8,7.48 -8.96,13.42 0.02,-4.99 0.97,-23.71 0.71,-27.33 -2.32,-31.68 4.19,-15.23 -14.18,-21.92 5.67,19.48 1.7,10.84 0,31.35 -11.15,-7.75 -5.32,-3.84 -17.91,-8.96 3.68,22.81 7.62,6.16 -7.75,13.31 -1.22,-27.75 -0.33,-77.11 7.73,-95.43 12.32,2.26 6.29,-6.87 4.5,10.42 16.67,-5.61 9.89,-2.18 13.42,0l0 26.86c0.81,28.1 -3.67,1.05 13.43,13.44 -0.07,-9.74 -1.79,-34.12 -0.78,-41.72 1.41,-10.73 4.41,-7.12 4.2,-21.01 -0.6,-39.62 3.3,-8.68 -7.87,-22.37l-17.42 30.22c-4.42,-5.33 -17.8,15.2 -3.78,-22.45 3.47,-9.33 9.25,-7.66 12.45,-23.56 -36.37,23.62 5.13,28.15 -40.52,51.59 1.48,-24.93 10.82,-40.68 29.81,-54.78 39.39,-29.23 20.72,-28.69 61.33,-51.63 20.78,-11.75 23.16,-23.08 34.92,-31.77l155.85 -88.33c-7.78,7.09 -14.67,10.34 -24.37,17.74 -18.38,14.02 -3.74,11.87 -21.89,27.14 -1.02,0.85 -4.41,3.18 -5.49,4.08 -0.87,0.73 -1.91,1.54 -2.76,2.3l-11.86 11.44c-0.61,0.5 -1.64,1.26 -2.26,1.74 -0.63,0.49 -1.75,1.13 -2.39,1.61 -10.91,8.31 -1.65,-9.35 -11.91,11.06 -8.65,17.21 -5.84,4.72 -0.71,23.92 14.36,-5.48 7.52,1.76 24.39,-32.41 0.07,-0.13 4.72,-8.84 5.88,-12.35 15.99,13.07 8.81,10.51 6.84,17.91l15.31 -5.17c-3.64,17.28 -7.17,13.22 -8.73,32.05 -13.78,-3.3 -5.86,-2.36 -17.93,-2.1l-5.61 6.21c8.52,5.46 13.55,6.65 18.06,13.81l-7.96 0.02c-1.42,24.15 -7.23,23.94 -8.96,44.79 -18.67,-9.87 -10.13,1.81 -12.97,-13.64 -1.74,-9.48 2.93,-15.26 5.78,-26.69l-24.17 -22.38c-2.75,17.39 -5.44,20.72 -8.97,35.83 -8.59,-6.3 -7.07,-0.29 -8.96,-13.46l-17.9 17.92c1.45,-23.54 3.88,-21.18 8.92,-35.81 -13.8,-4.19 -12.62,-3.21 -22.36,0 -3.03,6.61 -3.69,4.97 -3.09,14.69l2.54 8.31c0.26,0.71 9.92,13 -8.44,12.85l0 31.34c-23.7,-2.02 -8.45,4.26 -13.44,-10.63l-8.96 18.2c-2.51,-2.9 -15.36,-6.91 0.99,-31.94 10.58,-16.19 9.59,-12.83 16.2,-33.87 -26.42,11.72 -22.38,26.29 -22.56,26.72l-1.36 2.24c-0.63,0.37 -11.21,1.38 -15.66,2.41 1.59,22.37 -3.61,10.54 -4.14,25.75 -0.43,12.02 -0.76,-4.53 11.16,16.09 -20.38,-2.24 -6.64,-7.79 -23.85,7.43l16.62 -5.07c-2.2,10.8 -3.29,10.89 -4.3,22.99l-17.91 0c22.04,37.87 -25.69,-32.91 11.65,12.35 11.83,14.35 2.56,-19.02 6.27,10.03 28.42,-22.87 -1.37,-27.42 22.39,-53.73 9.22,10.61 4.59,-4.14 3.08,13.43 20.35,1.49 14.49,-4.75 17.27,10.77 1.32,7.41 -0.73,17.07 -2.43,25.08l-17.91 0c10.43,9.66 -15.74,10.52 17.91,8 -12.67,20.72 -2.48,12.19 10.91,18.87 1.62,-18.17 -3.56,-68.44 15.95,-83.07l0 11.42c-0.09,-0.07 -13.67,-0.22 -1.37,-9.01 0.07,-0.05 1.06,-0.3 1.41,0.03 10,-7.9 8.94,11.68 8.94,-22.41l13.44 0c0,4.33 0.51,23.39 -0.37,26.19 -7.2,22.94 -1.57,10.28 -17.53,14.15 11.72,10.86 -14.49,8.8 13.44,8.96 -3.7,21.09 2.06,9.44 -8.98,8.98 2.62,8.59 5.61,15.14 4.68,26.71 -0.81,10.07 0.12,5 -2.93,10.89 -6.74,13.04 0.8,2.92 -10.69,11.68 0.8,1.18 2.61,0.98 3.12,2.9 3.93,14.88 5.93,-6.34 10.42,11.61 3.8,15.19 -2.49,7.97 -9.09,7.93 4.01,12.04 6.21,15.05 8.96,26.87l-17.91 0c12.14,16.03 22.35,15.81 38,16.37 -2.49,-10.78 -17.48,-53.22 -11.39,-79.74 8.7,-37.84 -2.06,-14.04 18.15,-21.75 5.3,26.36 -2.71,9.96 -4.65,40.21 -0.67,10.37 -0.56,36.22 0.21,45.77 11.35,7.76 7.7,5.47 17.88,-0.85 -0.66,-0.28 -10.31,-1.88 -13.42,-4.48l0 -53.78c22.83,26.28 8.24,21.69 13.44,58.24 17.71,-6.73 16.38,2.24 17.24,-21.59 0.59,-16.47 -2.79,-7.55 -3.5,-23.3 -0.79,-17.47 -1.71,-55.52 13.14,-71.59l5.4 21.02c-0.19,1.5 -5.97,14.63 -6.96,19.29 0.8,-0.91 2.08,-3.45 2.42,-2.69l8.1 -10.76c5.84,21.86 8.33,3.92 8.26,26.28 -0.04,10.04 -3.77,17.94 -3.77,36.45l-13.42 0 9.68 8.41c1.1,0.89 5.24,4.04 6.34,4.89l6.36 4.61c19.38,-23.38 4.04,-85.45 23,-126.15 3.1,-6.65 -9.1,-2.27 6.01,-6.98 7.65,-2.39 12.52,9 -2.09,25.6 37.41,15.22 8.94,27.08 8.94,80.66l-13.42 -8.96c2.17,22.42 4.89,48.59 26.1,19.67 10.07,-13.75 9.46,-100.05 35.27,-143.97l-12.1 -19.08c-3.12,19.74 -8.98,34.61 -13.44,53.76 -16.83,-12.33 -12.85,-17.28 -8.97,-38.28l-13.44 29.29c-4.53,-5.79 -9.91,-10.82 -5.03,-29.24 0.59,-2.22 3.93,-9.71 5.76,-12.94 6.67,-11.8 -3.58,0.33 8.2,-11.57l-4.46 -8.96c-16.09,11.93 -0.61,-4.32 -8.53,8.61 -3.94,6.43 -2.87,5.1 -4.89,13.8 -16.54,-1.38 -7.09,0.38 -17.93,-4.5 -26.05,0 -4.37,1.89 -13.42,-8.94 2.45,-6.78 5.24,-16.19 7.65,-22.1 9.42,-23.17 25.13,-49.26 42.55,-66.45 11.13,-10.99 47.74,-46.65 57.35,-49.09 -16.14,5.81 -3.85,4.17 -11.59,9.67 -0.83,0.59 -1.94,1.4 -2.82,1.97 -0.91,0.59 -2.1,1.21 -3.05,1.78 -36.45,21.46 -6.71,12.06 -30.69,22.45 -1.13,0.49 -2.19,0.79 -3.47,1.24l-24.56 6.4c3.46,-13.25 -5.09,-18.21 31.02,-36.07 14.11,-6.98 129.65,-44.33 148.19,-44.63 2.85,-3.38 3.59,-10.73 4.48,-13.38 -30.89,1.81 -43.22,11.15 -67.16,17.96 -81.43,23.19 -157.45,58.19 -228.61,103l-101.26 77.99c-21.68,22.06 -53.05,45.61 -78.72,78.12l-36.07 49.08c-6.28,9.38 -9.31,14.83 -15.5,24.83 -7.87,12.7 -9.07,11.34 -16.43,23.91l-27.62 57.52c-27.53,56.24 -54.81,189.62 -42.71,253.2 3.15,16.55 -3.21,9.78 9.1,17.94z"/>
   <path class="fil5" d="M1114.26 650.2c17.07,-17.03 53.49,-20.54 74.66,-1.55 -2.18,28.87 -10.54,27.24 -39.6,31.15l-9.67 41.35c-14.81,-2.44 -4.36,0.94 -17.85,-6.24 -10.07,-5.36 -1.96,-0.76 -10.91,-8.01 7.42,-21.13 1.94,-32.03 3.36,-56.7zm-137.21 11.89c-5.34,-9.15 -2.5,-3.55 -10.76,-10.83 -25.95,-22.9 8.59,11.72 -9.08,-7.1 1.11,-1.32 2.96,-13.49 19.81,-12.21 1.12,0.09 2.39,0.54 3.53,0.76l23.67 7.63c7.5,26.15 3.44,25 6.28,62.3l-1.52 17.63c-0.14,-0.6 -0.89,2.89 -1.58,4.22 -22.87,3 -26.54,-7.34 -27.49,-27.9l-25.74 -1.03c-2.24,-14.61 -4.81,-13.41 4,-21.06 2.17,-1.88 4.99,-2.5 9.05,-5.09 6.46,-4.11 5.44,-3.02 9.81,-7.33zm-194.24 57.06c1.38,24.7 -5.6,5.14 7.53,23.17 16.66,22.87 6.04,-6.25 17.2,35.15 2.68,9.93 5.84,15.45 9.48,23.53 16.81,0 18.44,1.22 31.32,-6.27l-22.33 2.2c11.34,-40.02 -5.04,-7.33 -12.11,-75.15 20.44,0.5 45.92,7.95 61.35,19.28 0.97,-0.9 2.17,-3.85 2.7,-2.93 1.23,2.13 16.15,-25.15 31.96,4.44 -6.4,19.1 -1.06,2.99 -13.64,16.7l20.52 -5.97c-16.44,7.15 -2.56,3.84 -8.63,11.12 113.41,-29.02 137.02,-63.41 289.46,-8.88 16.99,6.07 29.77,10.02 42.06,17.26l38.98 23.45 -13.51 -10.73c-2.44,-14.58 -0.77,-11.5 -11.09,-18.72 7.37,-5.94 10.76,-6.48 15.89,-17.25 -15.43,4.39 -10.21,6.03 -27.22,9.89l-18.2 -24.44c42.6,-27.82 31.07,17.42 39.05,-38.64 64.36,-2.15 33.71,-25.69 68.38,-5.39l2.4 20.36c-0.5,-4.69 27.44,-14.56 45.06,-2.12 7.71,5.44 -2.14,4.93 15.06,10.77 -4.46,-7.08 -2.87,-7.38 -6.57,-15.64 -15.3,-27.97 -92.52,-71.41 -134.26,-85.65 -60.03,-20.5 -125.44,-24.41 -197.82,-21.87 -96.67,-3.74 -233.8,75.34 -272.99,122.33z"/>
   <path class="fil6" d="M728.4 854.78c2.8,-26.39 5.98,-17.52 -3.5,-42.34 17.98,4.29 12.54,1.9 24.68,12.04l-2.5 31.85 34.84 20.87c-6.51,12.39 -1.72,10.35 -18.69,11.56 -3.9,-7.18 -2.04,-6.05 -0.41,-15.04l-34.41 -18.93zm-73.05 331.65c14.82,10.46 3.43,-2.13 13.31,16.13 2.37,4.39 4.91,12.88 6.87,19.17 5.93,19.03 3.45,28.21 22.11,30.94l35.06 0.2 -3.13 -19.02 14.79 -10.52c-13.82,-8 -14.87,-4.29 -24.07,-14.53 6.5,-4.61 20.66,-12.69 30.89,-10.05 15.63,4.04 20.11,15.14 27.83,23.51 5.16,9.54 9.24,-13.09 4.96,13.43 2.51,1.56 -2.74,17.38 5.18,2.85 10,-18.37 -1.83,12.51 1.26,-7.36l-12.65 -23.92c-0.89,-11.7 -12.31,-30.44 -17.62,-44.58 -20.74,-55.24 -27.17,-125.23 -13.22,-185.24 9.46,-40.72 43.32,-107.77 70.13,-136.09l35.93 -31.41c13.98,-26.24 40,-26.93 55.16,-45.53 6.07,-7.28 -7.81,-3.97 8.63,-11.12l-20.52 5.97c-18.07,4.8 -10.3,8.2 -29.98,10.24 -12.17,-9.94 -5.85,-12.58 -24.98,-20.51 4.77,24.38 15.31,27.65 7.04,45.71 -12.88,7.49 -14.51,6.27 -31.32,6.27 -3.64,-8.08 -6.8,-13.61 -9.48,-23.53 -11.16,-41.4 -0.54,-12.28 -17.2,-35.15 -13.13,-18.02 -6.15,1.53 -7.53,-23.17 -39.44,27.56 -102.73,124.94 -122.72,193.85 -29.09,100.28 -26.04,174.13 -4.74,273.43z"/>
   <path class="fil7" d="M809.62 1329.81c0.37,-1.33 1.12,-4.61 1.4,-3.89l10.67 -24.66c31.68,4.63 47.86,18.54 65.63,33.08 -1.93,30.37 -10,27.72 -32.4,42.73 -19.62,13.15 -18.66,19.57 -42.42,21.67 -6.76,-6.19 -9.36,-9.27 -13.95,-15.16l39.87 -27.96c9,-8.69 0.29,2.64 8.22,-10.09 -21.34,-4.29 -22.76,-2.77 -37.02,-15.72zm-253.91 -250.95c15.56,0 13.78,5.5 14.8,20.14 3.93,-4.91 5.46,9.3 7.07,-14 29.38,21.53 21.35,15.87 30.43,79.01l-12.74 6.37c7.26,4.96 0.68,0.95 8.83,5.84 10.96,6.58 12.84,4.33 17.85,20.2 11.11,35.2 13.95,29.98 17.32,47.46 -2.96,-0.82 -12.05,-3.9 -13.72,-4.17l-7.64 -0.12c-0.35,0.02 -1.52,0.12 -2.19,0.44 27.65,14.14 26.87,8.49 43.61,37.22 11.16,19.17 25.85,25.7 39.16,45.83l3.54 5.69c18.12,27.82 74.94,60.53 81.21,80.65 14.74,4.78 22.52,15.24 47.11,27.74 0.97,0.49 2.17,1.03 3.13,1.53l5.81 3.32c51.33,31.13 20.82,-0.7 68.92,20.53 12.72,5.61 30.93,12.93 46.69,13.68l18.97 2.71c0.43,-0.6 1.01,-2.68 1.15,-2.11 0.13,0.57 1,-1.83 1.18,-2.2 15.91,-32.69 -2.41,-35.18 44.7,-38.65 -4.49,-14.94 -3.32,-9.44 -2.92,-29.29l-14.22 24.59c-21.94,-4.18 -12.81,-0.72 -25.2,-12.13 -15.51,-14.28 14.71,-8.83 -25.8,-11.25 -0.74,57.76 32.33,2.66 21.08,51.85 -7.93,2.59 11.59,9.15 -12.63,0.13 -8.86,-3.3 -4.25,-9.82 -18.67,-16.93 -17.66,-8.71 -19.13,0.98 -48.52,-2.45 3.93,-14.57 10.63,-17.57 26.69,-20.67l2.13 -33.58c15.65,-12.06 43.2,-20.75 58.4,-9.95 16.28,11.57 3.96,-2.22 9.09,21.38l11.35 4.46 3.28 -21.3c-16.94,-13.85 -0.77,-10.97 -28.77,-17.46 -26.36,-6.11 -76.49,-20.87 -93.95,-40.65 -27.55,-31.2 -28.02,-17.38 -49.55,-40.24 -18.57,-19.73 -19.96,-38.28 -42.25,-51.31 -3.09,19.87 8.74,-11.02 -1.26,7.36 -7.92,14.54 -2.67,-1.29 -5.18,-2.85 4.28,-26.52 0.2,-3.88 -4.96,-13.43l1.63 17.85c-34.43,26.81 -3.19,-1.51 -21.92,26.34 -56.2,8.37 -56.03,15.06 -70.18,0.61 5.83,-22.61 -10.7,10.91 3.75,-8.77l5.35 -5.63c-18.66,-2.73 -16.18,-11.91 -22.11,-30.94 -1.96,-6.3 -4.5,-14.78 -6.87,-19.17 -9.89,-18.26 1.51,-5.67 -13.31,-16.13l0.22 26.65c-27.08,-31.72 -37.8,-57.64 -43.5,-117.7 -2.59,-10.04 -3.11,-17.92 -3.67,-29.66 -1.43,-29.94 -1.37,-26.56 -10.96,-36.13 -1.7,19.47 -1.4,22.9 -6.98,38.91l-34.74 10.36z"/>
   <path class="fil2" d="M1001.7 913.81l-1.04 101.87 -21.41 0.23c-1.66,-21 -0.22,-41.91 -0.19,-62.57 0.07,-35.9 -8.69,-38.98 22.63,-39.53zm-81.06 274.07c11.68,-10.82 6.91,-99.13 7.24,-119.46 24.72,4.29 23.45,10.68 38.32,4.89 12.4,-4.82 -1.76,0.78 6.85,-3.42l3.79 -29.27c0.29,-0.91 0.83,-2.43 1.49,-3.53 8.81,-2.11 2.87,-4.37 13.83,-1.5 15.96,4.18 6.1,-4.01 11.1,8.72l37.8 3.55c13.64,21.17 9.11,76.23 8.44,104.53 17.53,-25.2 7.41,-75.11 4.67,-102.99l0.33 -7.59c20.17,13.48 3.04,6.87 13.44,26.74l17.24 -7.29c0.02,-0.83 0.87,-0.17 1.21,1.76 0.31,1.77 1.6,2.71 2.02,3.31 0.35,0.51 1.35,2.25 1.76,2.78 9.52,12.38 -4.88,3.65 9.08,4.13l6.5 0.67c0.12,0.02 0.8,0.61 1.21,0.48 -28.14,-48.44 -22.15,-17.26 -47.96,-49.29 24.91,-29.95 71.58,-51.94 10.07,-116.8 -16.8,-17.73 -5.99,0.36 -14.56,-22.1 50.05,12.77 63.98,37.5 64.21,94.01 12.43,11.2 2.14,10.25 10.22,31.27 10.07,-50.94 -1.71,-112.6 6.21,-161.82 23.35,-6.89 55.74,-5.11 80.67,-2.71 0.52,-20.46 4.16,-19.45 -7.25,-29.37l-26.74 -13.94c8.8,14.55 0.3,7.38 14.44,13.49l-168.28 16.35c5.1,11.63 15.36,15.65 22.55,25.45 8.63,11.75 6.87,16.35 15.67,23.9 -1.91,-0.12 -77.89,14 -143.07,9.59 -1.13,7.54 -0.51,50.43 -1.92,69.96 -2.02,27.85 0.06,48.48 1.18,71.54 2.17,44.7 -1.39,107.02 -1.78,154z"/>
   <path class="fil8" d="M830.44 590.39c13.62,9.12 12.97,5.64 13.44,26.89l-8.96 0c-0.22,-10.16 -1.38,-19.95 -4.48,-26.89zm-40.33 -85.14c17.46,11.69 13.44,8.64 13.44,35.85l-13.44 0 0 -35.85zm35.85 17.92c7.65,2.04 17.93,5.21 17.93,13.44 0,15.45 -3.32,17.35 -4.48,31.37 -27.68,-18.54 -5.55,-25.7 -13.44,-44.81zm-62.74 8.94l-13.16 -5.37c1.48,-20.35 3.54,-5.86 -0.26,-21.49 1.78,-17.29 7.82,-8.16 -4.5,-10.42 -8.07,18.32 -8.96,67.68 -7.73,95.43 15.37,-7.15 11.43,9.5 7.75,-13.31 5.92,-15.32 4.46,-8.52 4.46,-26.89 11.62,2.78 4.63,0.53 13.44,4.5 18.37,6.69 11.85,-9.76 14.18,21.92 0.26,3.61 -0.69,22.33 -0.71,27.33 16.96,-5.94 13.03,5.96 8.96,-13.42 5.92,-15.32 4.46,-8.52 4.46,-26.89 6.26,3.1 4.5,3.19 13.44,4.5 14.67,5.34 4.68,-1.52 13.42,8.94 -4.56,23.15 2.22,16.16 11.9,53.28 6.26,1.94 0.41,4.78 15.98,0.72 22.76,-5.94 42.91,-29.4 60.65,-33.81 6.31,-1.57 26.91,0.98 45.8,-7.56l39.73 -29.93 12.03 17.49 55.53 -8.5c-8.56,-14.19 -8.28,-14.92 -13.02,-27.54 10.07,-26.06 0.77,-32.42 2.6,-51.63 1.92,-20.12 7.96,-28.59 12.66,-46.96 11.24,-19.29 8.17,-14.93 -0.44,-35.2 35.81,31.48 5.6,31.55 25.52,34.52l-4.48 -17.24c7.05,-28.94 -14.35,6.98 5.89,-43.32 7.23,-17.97 3.77,-3.74 3.08,-14.93 20.72,-9 5.83,-1.99 13.4,-13.44 -0.01,-0.01 -6.42,-12.3 -20.63,1.63 -9.09,8.91 -17.72,44.87 -19.3,48.98 -6.12,15.82 5.77,3.65 -6.2,8.82 -25.81,43.93 -25.2,130.22 -35.27,143.97 -21.2,28.92 -23.93,2.75 -26.1,-19.67 7.09,-21.15 -2.62,-6.57 2.64,-33.13 3.91,-19.74 9.7,-18.21 1.84,-38.57 14.61,-16.6 9.74,-27.99 2.09,-25.6 -15.11,4.71 -2.91,0.33 -6.01,6.98 -18.95,40.69 -3.62,102.77 -23,126.15l-6.36 -4.61c-1.1,-0.84 -5.24,-4 -6.34,-4.89l-9.68 -8.41c1.11,-12.15 0.27,3.38 0.35,-10.17 0.02,-3.38 -0.02,-8.73 -0.11,-12.06 -0.29,-10.74 -0.39,-16.5 -1.82,-27.06 0.98,-4.66 6.77,-17.8 6.96,-19.29l-5.4 -21.02c-14.85,16.07 -13.93,54.11 -13.14,71.59 0.71,15.75 4.09,6.82 3.5,23.3 -0.86,23.83 0.46,14.85 -17.24,21.59l-0.03 0.02c-10.18,6.32 -6.53,8.61 -17.88,0.85 -0.78,-9.54 -0.88,-35.4 -0.21,-45.77 1.94,-30.25 9.94,-13.85 4.65,-40.21 -20.21,7.72 -9.46,-16.09 -18.15,21.75 -6.1,26.53 8.9,68.96 11.39,79.74 -15.65,-0.56 -25.86,-0.34 -38,-16.37 6.24,-16.75 7.42,-6.9 -0.02,-22.41l8.96 -4.46c6.59,0.05 12.89,7.26 9.09,-7.93 -4.49,-17.95 -6.49,3.28 -10.42,-11.61 -0.51,-1.92 -2.33,-1.72 -3.12,-2.9 -0.02,-0.91 -0.58,-3.22 -0.65,-2.66l0.63 -46.63c6.69,5.59 2.13,0.76 8.96,0.02 11.04,0.46 5.28,12.11 8.98,-8.98 -27.93,-0.16 -1.72,1.9 -13.44,-8.96 0.94,-10 3.96,-1.48 -4.48,-17.93 -0.35,-0.32 -1.34,-0.08 -1.41,-0.03 -12.3,8.79 1.28,8.94 1.37,9.01l0 -11.42c-19.52,14.63 -14.33,64.91 -15.95,83.07 -13.39,-6.68 -23.58,1.86 -10.91,-18.87 -33.64,2.52 -7.48,1.66 -17.91,-8 6.58,-17.03 5.41,-16.49 3.06,-35.85 1.51,-17.56 6.15,-2.82 -3.08,-13.43 -23.76,26.31 6.03,30.85 -22.39,53.73 -3.72,-29.05 5.56,4.32 -6.27,-10.03 -37.35,-45.27 10.39,25.52 -11.65,-12.35 12.12,-11.16 9.58,-1.07 5.58,-17.92 17.21,-15.22 3.47,-9.68 23.85,-7.43 -11.93,-20.63 -11.59,-4.07 -11.16,-16.09 0.53,-15.21 5.73,-3.38 4.14,-25.75 4.45,-1.03 15.03,-2.03 15.66,-2.41l1.36 -2.24c0.19,-0.43 -3.85,-15 22.56,-26.72 -6.61,21.04 -5.63,17.67 -16.2,33.87 -16.35,25.03 -3.5,29.04 -0.99,31.94l8.96 -18.2c0.62,-0.67 1.36,-2.8 1.58,-2.23 2.35,6.09 2.75,-3.97 3.41,-4.99 2.7,-4.18 3.22,-6.15 8.45,-13.49 18.35,0.15 8.7,-12.14 8.44,-12.85l-2.54 -8.31c-0.6,-9.72 0.06,-8.08 3.09,-14.69 9.74,-3.21 8.56,-4.19 22.36,0 -5.04,14.63 -7.47,12.26 -8.92,35.81l17.9 -17.92 17.93 -22.36 24.17 22.38c8.74,-4.85 1.04,-0.26 16.16,-4.46l7.96 -0.02c-4.51,-7.16 -9.54,-8.35 -18.06,-13.81l5.61 -6.21c6.39,-12.82 8.09,-11.84 11.35,-24.79 1.97,-7.39 9.15,-4.83 -6.84,-17.91 -1.17,3.51 -5.81,12.22 -5.88,12.35 -16.88,34.17 -10.04,26.93 -24.39,32.41 -5.13,-19.19 -7.94,-6.7 0.71,-23.92 10.27,-20.41 1,-2.75 11.91,-11.06 0.64,-0.48 1.77,-1.13 2.39,-1.61 0.62,-0.48 1.65,-1.24 2.26,-1.74l11.86 -11.44c0.85,-0.75 1.89,-1.57 2.76,-2.3 1.08,-0.91 4.46,-3.23 5.49,-4.08 18.14,-15.27 3.5,-13.12 21.89,-27.14 9.7,-7.39 16.59,-10.65 24.37,-17.74l-155.85 88.33c-11.76,8.69 -14.14,20.02 -34.92,31.77 -40.61,22.94 -21.94,22.41 -61.33,51.63 -18.98,14.09 -28.33,29.84 -29.81,54.78 45.65,-23.45 4.15,-27.98 40.52,-51.59 -3.2,15.9 -8.98,14.23 -12.45,23.56 -14.01,37.65 -0.63,17.12 3.78,22.45l17.42 -30.22c11.18,13.69 7.27,-17.25 7.87,22.37 0.21,13.89 -2.78,10.28 -4.2,21.01 -1.01,7.6 0.71,31.97 0.78,41.72 -17.09,-12.39 -12.61,14.66 -13.43,-13.44z"/>
   <path class="fil0" d="M908.15 764.42c-15.17,18.61 -41.19,19.29 -55.16,45.53l7.61 0.55c25.79,-11.22 26.68,-26.59 90.83,-49.97 0.4,0.7 0.54,2.04 0.58,2.37 0.04,0.3 0.41,1.89 0.45,2.24l0.11 3.75c-0.36,13.76 -3.5,-6.03 -1.15,3.64 18.62,-4.55 66.55,-16.94 80.79,-15.65l-19.83 9.65c34.8,-10 43.44,-10.44 81.84,-7.4 -6.9,5.54 -1.48,3.01 -12.01,7.71 -0.83,0.37 -8.15,2.25 -9.58,2.69 33.62,2.92 38.67,-6.41 67.87,7.96 13.58,6.69 31.47,16.43 41.33,26.1l26.74 13.94c11.41,9.92 7.78,8.91 7.25,29.37 -24.93,-2.4 -57.32,-4.17 -80.67,2.71 -7.92,49.22 3.86,110.88 -6.21,161.82 -8.08,-21.02 2.2,-20.07 -10.22,-31.27 -11.02,22.52 -10.68,40.23 -33.74,44.89 0.06,0.06 60.63,30.98 45.72,60.26l3.03 -36.69c27.5,-5.89 8.35,-1.9 16.28,6.75 8.54,-2.9 52.65,-7.53 63.72,-4.73 20.33,5.15 21.75,31.05 37.95,41.61 7.21,-8.7 3.13,-0.2 7.17,-13.11 1.89,-6.06 8.85,-97.47 -7.17,-116.8 -13.59,12.61 -0.53,-0.27 -9.41,13.51 -8.44,13.11 -0.97,3.8 -9.43,13.55 -4.76,5.48 -12.19,14.43 -17.01,20.04l-63.85 2.4c0.41,-36.11 -8.25,-129.91 0.46,-155.73l98.09 -8.09c-4.76,-6.04 -1.14,-0.12 -4.3,-4.87 -7.3,-10.99 4.06,-7.99 4.17,-52.61 10.88,15.83 67.36,48.04 99.31,121.7 30.75,70.89 21.3,113.89 18.5,191.25 0.65,-0.85 1.26,-3.5 1.46,-2.86 6.17,20.04 7.55,-65.21 7.46,-71.08 -1.13,-74.78 -4.36,-46.24 17.39,-53.76 -1.93,-9.07 -3.83,-13.05 -5.57,-26.89 -9.09,-13.93 -15.03,-32.81 -20.31,-43.56l-13.59 -23.61c-49,-78.32 -65.11,-68.04 -76.41,-85.49l-38.98 -23.45c-12.29,-7.24 -25.07,-11.19 -42.06,-17.26 -152.43,-54.53 -176.05,-20.14 -289.46,8.88z"/>
   <path class="fil4" d="M1265.14 785.53l13.51 10.73c11.29,17.45 27.41,7.17 76.41,85.49l13.59 23.61c5.28,10.74 11.22,29.63 20.31,43.56 8.92,18.22 -0.75,9.45 5.82,4.46 -6.02,-8.48 -2.42,-4.4 -6.35,-15.95 -2.19,-6.46 -4.34,-12.89 -6.61,-19.25l-19.18 -35.62 35.04 -34.12c0.95,-0.93 8.6,-7.87 9.62,-8.75 5.19,-4.48 5.65,-5.43 10.48,-8.3 1.92,-1.14 10.69,-5.09 13.82,-5.59 33.74,-5.34 39.22,18.93 39.65,46.9 -19.28,4.76 -6.81,8.04 -30.63,8.98l5.64 11.37c0.5,-0.38 1.5,-2.04 1.73,-1.41l23.28 -20.62c7.86,3.67 14.91,5.19 21.02,8.26 -5.07,-17.65 -9.97,-10.75 -16.52,-36.51 28.23,12.15 11.2,5.97 29.3,44.94 9.94,21.42 11.71,28.9 15.51,51.54l13.72 -11.83c-0.97,-3.59 -2.8,-11.51 -2.24,-14.8 1.57,-9.27 2.05,-8.31 5.58,-12.99l7.5 -16c-4.42,-19.35 3.05,-9.74 -14.81,-15.37 -2.86,11 -11.45,27.54 -6.23,36.52 -3.12,-18.03 -3.87,-22.78 -10.57,-37.52 -7.11,-15.59 -5.75,-19.26 -9.42,-35.04l4.47 -40.11 30.56 1.52c9.44,3.11 8.16,-4.7 8.34,2.93 6.6,-9.5 19.77,-27.76 17.31,-43.08l-13.79 2.73c4.38,4.79 7.57,-7.75 3.7,15.83 -0.3,1.84 -6.64,14.38 -7.25,15.53 -21.22,-5.67 -4.29,-8.07 -26.89,-8.98 -8.13,19.7 3.03,3.4 -17.91,8.87 3.66,-35.04 -0.93,-11.08 8.06,-24.22 10.09,-14.74 9.48,-3 9.85,-2.57 -5.99,-10.03 -4.02,-0.67 -4,-16.56 0,-0.04 2.83,-12.79 3.2,-15.01l-13.21 0.23c11.13,5.64 1.79,16.58 0.56,31.37l-8.96 0 0 -24.9 -3.11 29.4 -37.51 -7.13 -3.41 -33.46c-2.13,-7.74 -3.46,-9.97 -5.28,-13.19 -10.31,13.52 -9.86,25.77 -6.38,42.85 -5.52,-16.12 -33.37,-46.75 -54.59,-49.92 3.71,8.26 2.11,8.56 6.57,15.64 -17.19,-5.85 -7.34,-5.33 -15.06,-10.77 -17.62,-12.44 -45.56,-2.56 -45.06,2.12l-2.4 -20.36 0.37 20.4c-11.07,1.11 -11.8,-3.23 -6.65,7.47 3.92,8.15 5.93,5.8 10.48,11.49 15.48,19.38 15.21,16.94 -3.81,33.63 -20.07,-7.22 -7.16,-9.62 -17.9,-25.7 -5.08,10.79 0.47,3.15 -13.49,8.98 4.51,7.94 6.79,-11.81 1.58,13.44 -3.02,14.66 -8.73,8.65 -17.04,26.39l-20.35 -1.54z"/>
   <path class="fil7" d="M920.63 1187.88c0.39,-46.97 3.95,-109.29 1.78,-154 -1.12,-23.07 -3.19,-43.69 -1.18,-71.54 1.41,-19.53 0.8,-62.42 1.92,-69.96 65.18,4.41 141.16,-9.7 143.07,-9.59 -8.8,-7.55 -7.04,-12.15 -15.67,-23.9 -7.19,-9.8 -17.45,-13.81 -22.55,-25.45l168.28 -16.35c-14.15,-6.11 -5.65,1.06 -14.44,-13.49 -9.85,-9.67 -27.75,-19.41 -41.33,-26.1 -29.2,-14.38 -34.26,-5.05 -67.87,-7.96 -54.91,12.36 -128.7,46.22 -156.22,99.15 -2.54,4.9 -8.15,24.88 -8.91,31.07 -5.01,41.04 -4.42,258.69 0.72,299.97l12.41 -11.85z"/>
   <path class="fil7" d="M1061.07 1208.81c-31.52,-11.19 -112.85,-5.3 -153.93,-4.8 -0.34,23.43 11.43,40.24 22.83,57.57l3.44 5.57c9.88,15.45 26.96,27.31 45.83,38.72 9.97,6.03 26.39,13.34 36.29,17.13 28.84,11.01 72.24,18.3 102.76,7.48 22.53,-7.98 58.87,-25.08 67.44,-45.57l-157.93 -0.93c13.49,-28.17 35.39,-7.95 33.27,-75.17z"/>
   <path class="fil2" d="M1377.16 254.66c24.43,71.36 46.92,102.01 6.46,198.8 -15.97,38.2 -45.66,80.57 -69.1,114.63 -9.63,13.99 -13.57,22.36 -35.94,22.29 -5.7,3.26 -8.91,-1.73 -13.43,-4.46 2.11,-19.87 9,-27.09 16.55,-40.44l50.34 -110.49c28.04,-84.86 -19.79,-145.12 -20.96,-163.13 -0.72,16.34 0.34,2.87 -5.62,8.43 5.74,27.02 11.72,26.53 20.87,77.95l4.04 14.63c10.88,50.47 -63.16,185.83 -66.82,189.05 -10.2,8.96 -1.54,5.64 -20.82,6.07l0 -12.17 -5.06 16.47c-4.89,-5.94 -10.42,-12.46 -10.67,-21.39 -0.14,-4.8 5.23,-14.44 6.43,-17.06 36.01,-78.59 49.1,-133.3 17.07,-212.23 -8.46,-20.83 -4.73,-17.65 -21.21,-22.47l13.53 31.43c34.48,83.8 6.39,150.67 -31.46,231.43 22.84,-14.13 0.87,21.51 24.05,37.36 8.91,6.09 60.33,-6.09 71.59,-10.88 -11.04,43.17 11.46,51.82 11.5,51.91 2.56,5.65 56.76,-3.1 58.68,-3.3 4.29,9.24 -3.55,28.3 8.98,60.84 13.96,-11.93 16.14,14.19 8.45,-31.47 11.48,8.16 13.59,7.1 28.09,13.56 -0.69,0.77 -2.27,0.34 -2.59,1.67 -4.22,17.22 10.11,-14.2 -4.89,3.93 -6.1,7.38 -5.75,1.52 -6.65,12.31 34.39,4.02 26.27,-32.82 1.51,-41.37l-6.94 -1.67c-14.72,-4.13 -0.83,5.28 -19.04,-6.24 5.04,-25.92 36.57,-43.35 54.72,-59.38l4.49 -4.29c0.67,-0.65 1.56,-1.63 2.23,-2.29l4.61 -4.66c28.2,-28.09 85.2,-94.34 102.09,-125.05 3.76,-6.84 2.93,-5 6.38,-11.21l6.19 -11.48c15.81,-31.35 14.04,-60.29 14.54,-95.48 0.84,-57.35 -5.78,-32.3 -6.27,-66.07 -18.38,5.58 -3.83,0.01 -12.18,3.67 4.35,27.24 7.56,34.18 8.73,58.11 4.2,85.43 -28.83,134.53 -85.87,196.17l-38.26 37.92c-26.46,26.61 -44.28,53.12 -77.3,70.59l-8.96 -7.98c-13.41,-8.33 -4.71,-8.02 -22.66,-16.37 -9.99,-4.65 -13.54,-3.55 -26.61,-11.51 4.45,-23.45 -1.65,-4.43 8.8,-21.93 17.93,-30.02 44.26,-61.06 66.73,-102.76 0.47,-0.86 1.06,-2.04 1.51,-2.92 33.9,-65.27 43.2,-147.94 5.56,-205.99 -9.85,-15.2 2.7,-3.83 -15.41,-11.1z"/>
   <path class="fil9" d="M612.72 1002.7c-5.65,36.2 -5.24,56.6 -0.65,92.68 5.7,60.06 16.42,85.99 43.5,117.7l-0.22 -26.65c-21.3,-99.3 -24.35,-173.15 4.74,-273.43 19.99,-68.91 83.28,-166.3 122.72,-193.85 39.19,-46.99 176.32,-126.07 272.99,-122.33 20.64,-12.06 63.07,-7.84 89.09,-6.33 -48.21,-19.16 -160.23,-0.7 -209.35,16.77 -67.12,23.88 -144.7,71.02 -186.31,112.5l-88.86 121.52c-3.24,7.39 -5.85,15.48 -8.93,22.26 -6.38,14.04 -11.93,28.25 -18.57,43.22 -9.8,22.09 -8.76,26.47 -11.73,46.78 -1.25,8.53 -6.84,44.74 -8.41,49.18z"/>
   <path class="fil4" d="M860.6 810.5c-11.42,10.48 -19.51,18.47 -31.43,29.72 -14.6,13.78 -16.04,18.59 -27.15,35.5 -15.79,24.04 -38.01,57.28 -38.33,90.05l-1.5 18.88 21.94 -42.28c2.87,10.59 -1.25,9.78 19.16,8.95 25.44,-1.03 10.53,-0.23 22.81,-11.06 28.3,-24.93 21.24,-9.01 35.69,-29.13 3.37,10.75 10.7,53.11 12.58,56.84 0.61,-24.41 -2.67,-63.71 7.18,-83.1 2.64,-50.29 63,-81.8 87.23,-98.9 11.53,-8.14 30.11,-17.72 43.59,-19.46l19.83 -9.65c-14.24,-1.29 -62.17,11.1 -80.79,15.65 -2.35,-9.67 0.79,10.11 1.15,-3.64l-0.11 -3.75c-0.04,-0.35 -0.41,-1.94 -0.45,-2.24 -0.05,-0.33 -0.18,-1.67 -0.58,-2.37 -64.15,23.38 -65.04,38.75 -90.83,49.97z"/>
   <path class="fil0" d="M874.39 968l-3.59 64.81c6.16,-32.42 -24.5,-18.94 -44.89,-17.68 -48.83,3 -50.65,8.65 -61.85,-4.22 -2.87,10.14 -3.02,16.11 -10.58,24.2l3.59 -32.46c-16.74,15.7 -5.73,67.22 -3,90.76 17.96,-7.47 36.93,-1.83 59.32,-8.9 20.25,-6.39 31.21,0.19 59.08,0.17l9.11 -199.78c-9.85,19.39 -6.57,58.69 -7.18,83.1z"/>
   <path class="fil10" d="M1558.22 1149.31c-3.27,14.73 -11.86,18.41 -32.91,36.06 -1.6,26.85 7.31,29.35 6.72,58.17 -16.25,7.37 -41.35,18.71 -44.76,36.98 -5.67,30.45 10.85,52.98 -29.89,51.63l-12.82 11.33c-11.37,10.99 -4.69,-2.73 -9.88,15.37 -5.98,20.85 1.46,22.42 -10.61,37.26 69.87,4.17 21.92,-29.58 58.64,-61.82 68.5,-9.98 24.37,-37.2 42.89,-65.74 13.67,-19.63 0.36,4.17 40.12,-27.3 2.02,-28.61 -6.89,-26.8 -7.39,-57.89l11.51 -5.37c6.53,-1.96 2.94,1.26 6.7,-2.5 7.12,-7.11 1.74,0.88 4.15,-7.02 12.26,-15.78 13.77,-10.49 15.14,-25.74 -29.87,-7.19 -24.74,-5.73 -37.62,6.57z"/>
   <path class="fil2" d="M763.7 965.78c-9.13,15.27 -7.57,17.85 -6.64,36.87l-3.59 32.46c7.56,-8.08 7.7,-14.06 10.58,-24.2 11.2,12.86 13.01,7.22 61.85,4.22 20.39,-1.26 51.06,-14.74 44.89,17.68l3.59 -64.81c-1.89,-3.73 -9.22,-46.09 -12.58,-56.84 -14.45,20.12 -7.39,4.19 -35.69,29.13 -12.28,10.83 2.63,10.03 -22.81,11.06 -20.41,0.82 -16.28,1.64 -19.16,-8.95l-21.94 42.28 1.5 -18.88z"/>
   <path class="fil0" d="M1265.14 785.53l20.35 1.54c8.31,-17.74 14.02,-11.73 17.04,-26.39 5.2,-25.26 2.93,-5.51 -1.58,-13.44 13.96,-5.83 8.41,1.81 13.49,-8.98 10.74,16.07 -2.17,18.48 17.9,25.7 19.02,-16.69 19.29,-14.25 3.81,-33.63 -4.55,-5.69 -6.56,-3.33 -10.48,-11.49 -5.15,-10.7 -4.42,-6.35 6.65,-7.47l-0.37 -20.4c-34.67,-20.3 -4.02,3.24 -68.38,5.39 -7.98,56.06 3.55,10.82 -39.05,38.64l18.2 24.44c17.01,-3.86 11.79,-5.49 27.22,-9.89 -5.13,10.77 -8.52,11.31 -15.89,17.25 10.32,7.23 8.65,4.14 11.09,18.72z"/>
   <path class="fil8" d="M1375.08 1230.65c-17.19,-13.47 -23.07,-1.94 -32.94,5.17 11.75,27.08 33.45,14.16 71.89,39.39 13.97,9.17 21.05,10.29 34.81,4.14 5.08,-23.24 0.15,-16.89 -17.33,-31.14 -19.63,-16 -15.15,-8.23 -36.39,-17.86l4.55 -12.53c11.74,3.32 20.04,8.73 28.9,15.45 15.83,12.02 12.41,16.39 33.61,11.35 10.4,-26.83 -13.12,-39.21 -39.19,-46.8 -29.42,-8.56 -45.55,4.84 -47.89,32.81z"/>
   <path class="fil7" d="M1049.5 1152.38c0.67,-28.3 5.2,-83.37 -8.44,-104.53l-37.8 -3.55 1.67 133.51c27.68,-0.99 44.41,3.15 44.57,-25.43z"/>
   <path class="fil11" d="M1003.74 1431.27c3.44,-21.34 6.81,-14.87 -2.08,-29.13l-11.35 -4.46c-5.13,-23.61 7.19,-9.81 -9.09,-21.38 -15.2,-10.8 -42.75,-2.11 -58.4,9.95l-2.13 33.58c-16.06,3.1 -22.76,6.1 -26.69,20.67 29.38,3.43 30.86,-6.26 48.52,2.45 14.42,7.11 9.81,13.63 18.67,16.93 24.23,9.02 4.71,2.46 12.63,-0.13 11.24,-49.19 -21.82,5.92 -21.08,-51.85 40.52,2.41 10.3,-3.04 25.8,11.25 12.39,11.41 3.26,7.95 25.2,12.13z"/>
   <path class="fil11" d="M854.93 1377.07c22.39,-15.01 30.46,-12.35 32.4,-42.73 -17.78,-14.54 -33.95,-28.45 -65.63,-33.08l-10.67 24.66c-0.28,-0.73 -1.03,2.56 -1.4,3.89 14.26,12.96 15.68,11.44 37.02,15.72 -7.93,12.73 0.78,1.4 -8.22,10.09l-39.87 27.96c4.59,5.89 7.19,8.96 13.95,15.16 23.76,-2.1 22.8,-8.52 42.42,-21.67z"/>
   <path class="fil11" d="M1252.35 1347.73c14.85,16.45 -1.64,8.87 17.26,19.62 15.8,-8.09 9.81,-1.04 15.67,-21.22l24.43 3.02c9.25,25.99 10.18,46.93 42.18,29.96 3.78,-28.74 -6.88,-18.4 -20.69,-58.05 -24.36,-3.04 -8.82,3.47 -29.62,-9.46 -5.75,-3.58 -1.2,-1.78 -9.56,-5.22 -18.02,9.06 -31.18,24.19 -39.67,41.37z"/>
   <path class="fil12" d="M1197.67 1436.96c-4.69,-19.04 -19.71,-37.56 -17.69,-53.61 10.97,8.52 16.66,26.56 21.76,41.95 7.43,22.46 12.76,24.91 39.09,18.82 0.09,-2.73 -20.03,-72.89 -40.49,-79.28 -0.7,-0.22 -61.31,-4.74 -32.18,51.65 14.63,28.32 0.48,17.86 29.51,20.46z"/>
   <path class="fil8" d="M1114.26 650.2c-1.43,24.67 4.06,35.57 -3.36,56.7 8.94,7.25 0.84,2.65 10.91,8.01 13.48,7.18 3.04,3.79 17.85,6.24l9.67 -41.35c29.07,-3.91 37.42,-2.28 39.6,-31.15 -21.17,-18.99 -57.59,-15.48 -74.66,1.55z"/>
   <path class="fil3" d="M957.21 644.17c17.68,18.81 -16.87,-15.8 9.08,7.1 8.25,7.28 5.41,1.67 10.76,10.83 -4.38,4.31 -3.36,3.22 -9.81,7.33 -4.06,2.59 -6.88,3.21 -9.05,5.09 -8.81,7.65 -6.24,6.45 -4,21.06l25.74 1.03c0.95,20.56 4.62,30.9 27.49,27.9 0.7,-1.33 1.44,-4.82 1.58,-4.22l1.52 -17.63c-2.85,-37.3 1.22,-36.15 -6.28,-62.3l-23.67 -7.63c-1.14,-0.22 -2.41,-0.67 -3.53,-0.76 -16.85,-1.28 -18.7,10.89 -19.81,12.21z"/>
   <path class="fil8" d="M697.65 1252.67l-5.35 5.63c-14.44,19.68 2.08,-13.84 -3.75,8.77 14.15,14.45 13.98,7.76 70.18,-0.61 18.74,-27.85 -12.51,0.47 21.92,-26.34l-1.63 -17.85c-7.72,-8.37 -12.2,-19.47 -27.83,-23.51 -10.23,-2.65 -24.39,5.43 -30.89,10.05 9.2,10.24 10.24,6.53 24.07,14.53l-14.79 10.52 3.13 19.02 -35.06 -0.2z"/>
   <path class="fil11" d="M848.34 794.72c8.27,-18.06 -2.26,-21.33 -7.04,-45.71 19.13,7.93 12.82,10.56 24.98,20.51 19.69,-2.04 11.91,-5.44 29.98,-10.24 12.59,-13.72 7.24,2.4 13.64,-16.7 -15.81,-29.59 -30.73,-2.31 -31.96,-4.44 -0.54,-0.92 -1.73,2.03 -2.7,2.93 -15.43,-11.33 -40.91,-18.78 -61.35,-19.28 7.07,67.81 23.46,35.13 12.11,75.15l22.33 -2.2z"/>
   <path class="fil13" d="M1001.7 913.81c-31.32,0.55 -22.57,3.63 -22.63,39.53 -0.04,20.65 -1.48,41.57 0.19,62.57l21.41 -0.23 1.04 -101.87z"/>
   <path class="fil10" d="M1568.56 1064.9c-9.89,22.06 -25.41,18.18 -20.45,48.22 11.87,0.19 13.72,-1.85 31.36,-0.89 2.84,-31.29 21.94,-27.58 26.75,-55.79l-27.39 -5.44 -10.26 13.89z"/>
   <path class="fil10" d="M1562.24 973.53c-1.74,9.61 -0.27,15.05 -10.24,20.2l-1.76 19.49 28.58 0.11 13.44 -18.11c0.71,-0.39 2.05,-1.72 2.15,-1.13 0.1,0.55 1.61,-1.19 1.72,-1.48 3.86,-11.3 1.88,5.26 0.63,-7.86l5.43 -17.61 -27.93 -5.93 -12.02 12.31z"/>
   <polygon class="fil10" points="1545.14,883.63 1537.64,899.62 1537.45,922.11 1565.35,924.51 1574.84,897.38 1582.17,879.02 1551.69,874.31 "/>
   <path class="fil10" d="M1358.65 1452.1l33.61 -1.47c3.72,-12.31 14.24,-39.37 18.18,-48.58 -44.55,6.8 -38.54,5.27 -51.8,50.06z"/>
   <path class="fil10" d="M1504.1 832.22c21.87,2.49 23.7,8.38 37.35,-4.92 2.19,-14.86 0.97,-8.56 0.39,-14.99 -0.49,-5.37 -2.02,-12.92 -2.71,-18.69l-30.56 -1.52 -4.47 40.11z"/>
   <path class="fil14" d="M728.4 854.78l34.41 18.93c-1.63,8.99 -3.49,7.86 0.41,15.04 16.98,-1.21 12.18,0.83 18.69,-11.56l-34.84 -20.87 2.5 -31.85c-12.13,-10.15 -6.7,-7.76 -24.68,-12.04 9.48,24.82 6.3,15.95 3.5,42.34z"/>
  </g>
 </g>
</svg>
