<?xml version="1.0" encoding="UTF-8"?>
<!DOCTYPE svg PUBLIC "-//W3C//DTD SVG 1.1//EN" "http://www.w3.org/Graphics/SVG/1.1/DTD/svg11.dtd">
<!-- Creator: CorelDRAW 2020 (64-Bit Evaluation Version) -->
<svg xmlns="http://www.w3.org/2000/svg" xml:space="preserve" width="2.13333in" height="2.13333in" version="1.1" style="shape-rendering:geometricPrecision; text-rendering:geometricPrecision; image-rendering:optimizeQuality; fill-rule:evenodd; clip-rule:evenodd"
viewBox="0 0 2133.33 2133.33"
 xmlns:xlink="http://www.w3.org/1999/xlink"
 xmlns:xodm="http://www.corel.com/coreldraw/odm/2003">
 <defs>
  <style type="text/css">
   <![CDATA[
    .fil0 {fill:#A42097}
    .fil1 {fill:#AD36A1}
    .fil4 {fill:#BD5EB4}
    .fil6 {fill:#C774BE}
    .fil5 {fill:#D18FCA}
    .fil2 {fill:#F5E6F3}
    .fil3 {fill:#FEFDFE}
   ]]>
  </style>
 </defs>
 <g id="Layer_x0020_1">
  <metadata id="CorelCorpID_0Corel-Layer"/>
  <g id="_2670885720160">
   <path class="fil0" d="M553.81 1044.56c23.19,-3.52 115.74,-6.9 134.4,0.92 11.82,4.95 39.04,16.02 42.09,27.02 4.11,14.81 2.32,44.63 -6.46,57.61 -7.64,11.29 -25.72,24.43 -35.55,34.48 -41.61,42.56 -148.93,43.94 -163.87,30.22 -11.64,-16.74 -7.87,-64.63 2.22,-82.1 12.26,-21.22 6.07,-18.65 11.31,-38.7 2.71,-10.35 10.78,-19.77 15.86,-29.45zm53.68 -213.33c4.26,-4.78 64.69,-4.48 74.24,-4.45 22.15,0.08 50.07,-4.27 67.63,10.91 35.26,30.5 12.12,69.66 -19.7,91.17 -2.1,1.42 -51.41,22.3 -54.49,22.61 -10.14,1.02 -68.57,1.31 -75.87,-1.12 -18.07,-6.02 -11.12,-49.72 -9.52,-65.78 1.7,-17.08 2.65,-11.94 10.87,-24.72 6.83,-10.62 6.41,-28.13 6.85,-28.63zm285.21 70c81.08,-215.15 -281.98,-196.42 -363.99,-159.57 -43.1,19.37 -50.81,46.25 -62.27,88 -10.72,39.07 -21.14,73.96 -33.46,112.59 -24.04,75.32 -39.33,158.68 -61.33,235.8 -28.91,101.34 -27.67,111.15 126.75,112.93 83.42,0.96 182.13,5.6 255.8,-40.7 59.18,-37.19 117.37,-102.43 117.27,-175.96 -0.06,-40.83 -33.27,-74.12 -30.08,-92.99 2.25,-13.34 39.67,-49.21 51.31,-80.11z"/>
   <path class="fil0" d="M1498.02 901.22c2.1,-25.99 -32.89,-21.27 -52.94,-21.45 -79.09,-0.7 -203.47,-10.04 -238.57,62.89 -12.54,26.05 -85.47,295.28 -83.1,314.07 4.63,36.68 36.61,32.96 65.02,32.95 31.09,-0.01 52.07,-1.54 63.59,-34.57 17.87,-51.21 26.7,-105.08 42.94,-156.94 28.82,-92.03 21.94,-119.62 74.28,-127.7 81.3,-12.55 120.46,33.65 128.77,-69.24z"/>
   <path class="fil0" d="M1817.81 901.22c2.91,-26.44 -30.59,-21.44 -52.74,-21.52 -33.37,-0.13 -66.67,0.45 -100.02,1.27 -56.74,1.4 -113.93,4.24 -138.7,64.67l-36.07 167.53c-8.49,36.39 -49.6,117.59 -40.73,152.71 7.03,27.84 56.7,24.26 78.5,22.45 36.53,-3.03 46.25,-11.07 55.15,-45.56 13.91,-53.91 27.4,-108 41.13,-161.96 15.17,-59.63 11.58,-106.13 79.98,-122.54 45.27,-10.86 45.54,1.04 83.22,3.02 33.39,1.75 28.01,-39.28 30.3,-60.07z"/>
   <path class="fil0" d="M912.49 1146.24c0.92,20.79 -8.74,48.96 9.86,52.65 50.44,10.02 7.5,19.2 29.98,37.04 24.07,-8.82 -13.06,-15.78 26.87,-41.72 2.81,-16.74 -6.51,-24.28 12.16,-30.37 13.72,9.37 8.5,33.89 7.26,49.8 -11.02,13.32 -13.58,5.75 -16.03,24.44 -1.68,12.8 -4.08,27.41 8.04,32.34 11.3,-9.67 3.74,-9.04 6.7,-21.83 4.38,-18.9 7.98,-7.27 14.3,-20.14 6.1,-12.43 -0.03,-46.29 6.3,-60.8 16.64,-9.5 33.11,-4.35 52.16,-3.5 6.77,-17.53 15,-22.67 16.64,-43.04 1.69,-21 -2.17,-38.11 6.87,-57.83 8.7,-18.98 28.03,-78.51 28.91,-98.6 1.4,-31.83 4.55,-25.93 11.09,-50.96 13.55,-51.86 -141.91,-30.78 -144.29,-28.94 -3.05,3.47 -42.32,117.41 -43.44,126.71 -1.91,15.9 1.02,23.07 -5.65,38.78 -28,65.93 -3.15,39.27 -27.71,95.97z"/>
   <path class="fil0" d="M1336.86 741.22c30.64,-28.3 0.85,-38.83 -18.79,-73 -28.46,-49.49 -32.4,-39.34 -66.89,-10.9 -48.42,39.92 -135.82,21.28 -174.58,85.07 -15.87,26.11 6.16,68.5 24.25,89.76 32.25,37.9 31.93,28.8 63.26,-1.98 13.79,-13.55 72.31,-35.12 92.17,-37.5 20.44,-2.46 34.44,-0.57 51.13,-15.58 14.04,-12.63 23.47,-30.33 29.46,-35.87z"/>
   <path class="fil1" d="M716.78 648.31c-5.92,-13.69 -3.16,-34.72 0.8,-48.11 14.34,-3.55 33.56,-4.39 48.19,0.26l1.31 27.05c-9.27,8.9 -7.44,3.15 -12.49,7.31 -9.76,8.04 -0.61,3.96 -7.32,10.55 -7.01,6.89 -19.81,4.95 -30.48,2.94zm16.84 -72.2c-3.41,-11.77 -3.46,-19.27 -0.21,-30.41 12.76,-5.77 38.72,-6.25 50.07,2.74 -0.23,18.05 -1.24,7.4 -10.38,14.54 -10.5,8.2 -1.86,1.7 -9.15,14.54l-30.32 -1.41zm-37.31 -54.86c-9.51,108.52 -10.35,16.03 -18.18,76.69 -5.76,44.66 -17.52,-20.98 -17.96,72.29 159.17,0.97 100.72,-10.75 143.84,-27.82 11.82,-4.68 21.87,21.33 42.3,25.8 15.14,3.31 67.62,3.3 81.26,-2.87 25.38,-11.47 -31.84,-18.57 -35.06,-19.92 -23.06,-9.67 -18.69,-37.3 5.12,-44.07 3.42,-0.97 65.02,-2.84 52.35,-16.01 -10.06,-10.47 -51.84,-4.94 -51.84,-24.4 -0,-21.37 48.69,-15.87 61.29,-19.52 28.65,-8.32 17.73,-29.27 -8.2,-32.66 -15.5,-2.03 -67.96,-2.61 -80.61,4.76 -25,14.55 -33.31,121.74 -54.26,84.85 -8.59,-15.12 6.4,-37.21 1.33,-56.74 -12.15,-46.79 -89.29,-40.38 -121.38,-20.38z"/>
   <path class="fil2" d="M553.81 1044.56c-5.08,9.68 -13.15,19.1 -15.86,29.45 -5.24,20.05 0.94,17.48 -11.31,38.7 -10.09,17.47 -13.86,65.36 -2.22,82.1 14.94,13.72 122.26,12.33 163.87,-30.22 9.83,-10.05 27.91,-23.19 35.55,-34.48 8.78,-12.97 10.58,-42.8 6.46,-57.61 -3.06,-11 -30.27,-22.07 -42.09,-27.02 -18.66,-7.82 -111.2,-4.44 -134.4,-0.92z"/>
   <path class="fil3" d="M607.49 831.22c-0.44,0.49 -0.01,18 -6.85,28.63 -8.22,12.78 -9.17,7.64 -10.87,24.72 -1.6,16.05 -8.56,59.76 9.52,65.78 7.3,2.43 65.73,2.14 75.87,1.12 3.08,-0.31 52.39,-21.19 54.49,-22.61 31.83,-21.51 54.96,-60.67 19.7,-91.17 -17.55,-15.19 -45.48,-10.83 -67.63,-10.91 -9.55,-0.03 -69.97,-0.33 -74.24,4.45z"/>
   <path class="fil4" d="M1070.07 1164.14c-19.04,-0.85 -35.52,-6 -52.16,3.5 -6.33,14.5 -0.2,48.36 -6.3,60.8 -6.32,12.87 -9.92,1.24 -14.3,20.14 -2.96,12.8 4.6,12.16 -6.7,21.83 -12.11,-4.93 -9.71,-19.54 -8.04,-32.34 2.45,-18.69 5.02,-11.12 16.03,-24.44 1.25,-15.91 6.47,-40.43 -7.26,-49.8 -18.67,6.09 -9.34,13.63 -12.16,30.37 -39.93,25.94 -2.8,32.9 -26.87,41.72 -22.48,-17.84 20.46,-27.02 -29.98,-37.04 -18.6,-3.69 -8.94,-31.86 -9.86,-52.65 -5.24,17.15 -1.49,24.24 -11.86,36.97 -11.69,14.35 -9.19,15.11 -10.05,34.67 -0.86,19.44 2.7,22.56 -8.74,37.07 -8.81,11.17 -10.39,18.55 -3.13,31.83 15.06,6.58 127.09,5.09 148.33,2.5 20.94,-15.57 24.94,-32.58 25.94,-58.03 3.1,-78.2 12.91,-24.98 17.08,-67.11z"/>
   <path class="fil2" d="M642.07 669.31l18.1 0.91c0.44,-93.27 12.2,-27.63 17.96,-72.29 7.83,-60.66 8.67,31.84 18.18,-76.69l-12.59 -0 -6.72 -15.85 -14.63 1.21c0.32,17.65 7.17,34.94 -13.84,37.49 -22.56,2.75 -19.95,-9.41 -32.73,-14.03 -19.35,14.1 -46.22,35.8 -60.88,54.87l0.07 39.57c0.25,0.36 23.07,23.98 23.65,24.45 41.53,3.05 27.33,-23.64 62.58,-14.21l0.87 34.56z"/>
   <path class="fil1" d="M642.07 669.31l-0.87 -34.56c-35.25,-9.43 -21.05,17.26 -62.58,14.21 -0.58,-0.47 -23.4,-24.09 -23.65,-24.45l-0.07 -39.57c14.66,-19.07 41.54,-40.78 60.88,-54.87 12.78,4.62 10.18,16.78 32.73,14.03 21.01,-2.56 14.16,-19.84 13.84,-37.49 -93.69,2.11 -77.57,-7.61 -111.46,30.82 -8.69,9.85 -20.31,18.87 -30.9,28.19 -5.54,26.63 -4.37,67.74 -0.52,94.89 0.57,0.73 22.08,20.87 23.44,21.91 11.44,1.12 44.81,3.5 54.75,0.92 19.84,-5.15 1.09,-19 44.41,-14.02z"/>
   <path class="fil5" d="M1018.37 1381.22c27.44,1.38 -0.41,39.11 25.61,47.03 16.23,-9.84 13.31,-49.03 4.01,-63.35 -39.27,-25.05 -50.68,25.46 -78.01,9.24 -41.65,-24.71 -27.11,13.67 -53.13,19.74 -12.96,-12.77 -3.31,-25.5 -22.91,-32.37 -52.54,-18.41 -63.37,28.2 -51.04,45.61 0.03,0.02 37.61,20.63 39.91,21.74 13.17,6.3 43.28,3.05 58.91,3.04 38.1,-0.04 19.41,2.45 46.8,-14.52l21.19 10.75c12.69,-12.24 8.67,-29.62 8.67,-46.91z"/>
   <path class="fil5" d="M1180.64 1428.62c19.22,9.97 36.88,6.21 50.55,-7.74 21.93,-22.39 27.54,4.89 45.05,9.83 53.67,15.15 90.4,-28.44 73.14,-47.18 -13.79,-8.26 -20.01,-0.06 -28.41,-14.52 -5.91,-10.18 -1.94,-19.94 -17.05,-22.52 -31.23,-5.33 -12.58,29.61 -28.41,47.6 -9.63,-0.05 -8.8,-6.76 -17.52,-12.15 -10.6,-6.56 -11.8,-2.44 -23.42,-9.97 -16.57,-10.74 -35.46,-16.98 -54.63,-6.85 -6.87,13.59 -7.12,50.28 0.7,63.5z"/>
   <path class="fil5" d="M1387.23 1427.89c14.47,3.58 142.09,6.76 151.8,2.62 12.39,-5.28 9.76,-57.92 3.9,-64.3 -24.09,-26.16 -28.17,22.7 -37.73,28.57 -14.14,-8.64 -3.37,-16.13 -14.3,-31.37 -20.43,-3.27 -25.91,31.22 -51.9,33.93 -20.01,-6.77 -24.51,-37.53 -44.84,-34.75 -11.47,14.32 -7.08,46.7 -6.93,65.3z"/>
   <path class="fil6" d="M1123.57 1402.46c6.61,-4.75 26.87,-6.35 14.41,-20.16 -6.64,-7.36 -3.5,0.93 -12.48,-7.54 -5.73,-5.4 -1.33,-4.1 -7.57,-13.34l-26.78 -1.41c-11.45,14.5 0,7.97 -11.51,16.06 -9.08,6.39 -9.55,-4.72 -11.6,15.15 0.7,0.44 -0.42,1.91 9.9,7.46 5.56,2.99 -0.18,-2.6 8.33,3.78l3.81 27.07c11.28,3.34 18.5,3.18 30.82,-0.05l2.67 -27.03z"/>
   <path class="fil2" d="M716.78 648.31c10.67,2 23.48,3.94 30.48,-2.94 6.7,-6.59 -2.44,-2.51 7.32,-10.55 5.05,-4.15 3.22,1.59 12.49,-7.31l-1.31 -27.05c-14.63,-4.66 -33.85,-3.81 -48.19,-0.26 -3.96,13.4 -6.71,34.43 -0.8,48.11z"/>
   <path class="fil2" d="M733.63 576.11l30.32 1.41c7.29,-12.84 -1.35,-6.34 9.15,-14.54 9.15,-7.14 10.15,3.51 10.38,-14.54 -11.34,-8.99 -37.31,-8.51 -50.07,-2.74 -3.25,11.14 -3.19,18.63 0.21,30.41z"/>
  </g>
 </g>
</svg>
