<?xml version="1.0" encoding="UTF-8"?>
<!DOCTYPE svg PUBLIC "-//W3C//DTD SVG 1.1//EN" "http://www.w3.org/Graphics/SVG/1.1/DTD/svg11.dtd">
<!-- Creator: CorelDRAW 2020 (64-Bit Evaluation Version) -->
<svg xmlns="http://www.w3.org/2000/svg" xml:space="preserve" width="2.13333in" height="2.13333in" version="1.1" style="shape-rendering:geometricPrecision; text-rendering:geometricPrecision; image-rendering:optimizeQuality; fill-rule:evenodd; clip-rule:evenodd"
viewBox="0 0 2133.33 2133.33"
 xmlns:xlink="http://www.w3.org/1999/xlink"
 xmlns:xodm="http://www.corel.com/coreldraw/odm/2003">
 <defs>
  <style type="text/css">
   <![CDATA[
    .fil0 {fill:#05872E}
    .fil3 {fill:#067B1B}
    .fil2 {fill:#EAF5ED}
    .fil1 {fill:#FCFDFC}
   ]]>
  </style>
 </defs>
 <g id="Layer_x0020_1">
  <metadata id="CorelCorpID_0Corel-Layer"/>
  <g id="_2670884343040">
   <path class="fil0" d="M1219.09 1560.63c3.48,-12.76 11.16,-36.49 19.85,-46.17l17.47 47.04c-13.94,-2.02 -8.07,-5.89 -20.36,-4.9 -14.7,1.19 1.24,4.48 -16.95,4.02zm-181.11 -20.53c1.29,18.52 19.41,22.06 20.04,-3.56 0.35,-14.55 -2.19,-13.24 4.31,-23.31 3.09,4.92 2.87,-0.21 4.54,12.07l-3.72 34.56 -25.27 0.33c-6.91,-7.47 -7.35,-5.61 -8.47,-20.07 -0.03,-0.4 -0.08,-14.7 -0.07,-14.81 2.19,-19.78 0.28,-5.37 4.13,-12.06 9.31,13.54 3.22,8.27 4.51,26.84zm-338.51 20.77c2.98,-12.22 12.01,-38.34 20.17,-46.57l17.04 47.03c-15.11,-1.64 -6.67,-5.69 -20.06,-4.76 -13.82,0.96 0.07,3.89 -17.15,4.3zm485.48 0.54c-4.39,-11.51 -3.49,-34.18 -0.85,-47.45 20.73,-1.35 30.63,-2.96 30.51,18.74 -8.18,9.01 -4.98,8.36 -20.98,9.32 -6.5,18.36 3.62,13.35 -8.68,19.39zm165.91 -47.66c3.93,10.03 4.67,36.98 0,47.63 -6.92,-6.96 -3.69,3.26 -5.65,-14.06 -0.45,-4.02 0.49,-5.43 -0.52,-12.05 -1.33,3.96 -9.71,20.53 -15.46,26.29 -9.19,-4.11 -16.97,-20.74 -19.22,-26.43 -0.96,6.52 -0.04,11.72 -0.67,15.61 -1.71,10.42 -0.4,5.54 -5.36,10.85 -5.25,-10.17 -4.62,-37.78 0,-48.11 10.3,4.72 8.08,3.78 13.56,16.3 9.64,22.04 6.82,14.15 13.17,19.48 4.08,-19.83 8.21,-31.12 20.16,-35.5zm-270.5 48.09c-3.45,-5.34 -4.06,7.54 -3.91,-21.75 0.05,-9.05 0.07,-17.7 -0.04,-27.64l30.62 4.22c2.9,13.67 2.49,14.43 -6.34,27l8.11 18c-16.76,-3.78 -6.97,-8.86 -21.23,-19.78l-5.47 17.46c-0.19,-0.53 -1.11,1.69 -1.74,2.48zm-243.35 -45.26c27.61,-12.15 18.51,9.56 15.92,23.43 15.65,-5.47 -1.62,-4.36 17.76,-6.1l-1.67 5.26c-2.85,13.28 1.15,13.74 -0.64,20.52 -15.71,-2.95 -10.17,4.09 -28.71,0.37 -12.42,-7.04 -4.78,-38.54 -2.65,-43.48zm571.57 45.04c-5.31,-10.11 -4.59,-38.37 0,-48.2 16.11,6.67 11.74,11.84 20.99,23.41l8.82 8.05c-0.13,-5.49 -0.9,-14.55 -0.54,-19.67l3.19 -11.81c5.43,7.24 2.31,-7.02 5.22,11.89l-0.3 36.67c-24.26,-4.81 -12.93,-19.91 -32.22,-31.49 -0.07,4.98 0.68,12.8 0.4,16.85 -1.74,24.52 0.77,7.39 -5.57,14.3zm78.73 -24.28c-1.88,-13.35 -3.52,-20.78 9.53,-24.09 14.67,-3.73 16.5,3.48 18.73,12.16 -13.1,-1.09 -11.1,-6.52 -21.73,0.08 8.68,16.05 3.69,3.11 15.54,11.31 20.87,14.44 -11.6,42.02 -23.17,13.93 14.25,-6.74 0.84,8.59 20.81,0 -3.69,-12.69 -1,-6.48 -19.71,-13.4zm-123.08 -24.11c47.83,0 26.76,-0.95 32.63,5.05 -10.87,5.68 -3.19,-0.35 -19.4,4.26l-4.63 2.96c5.11,14.42 6.33,3.43 19.88,10.82 -11.98,13.72 -16.12,-5.61 -19.58,14.43 10.48,5.65 3.18,0.89 13.67,3.01l10.13 4.2c-9.38,7.07 -9.5,4.06 -32.54,4l-0.16 -48.72zm-245.41 0c46.38,0 27.45,-0.3 32.68,5.05 -9.7,5.09 -5.46,0.69 -16.48,3.31l-7.57 3.9c5.04,14.07 5.5,4.54 20.3,9.92 -6.63,8.22 4.13,0.58 -9.83,5.99 -0.87,0.34 -2.13,0.13 -2.95,0.46 -8.74,3.54 -4.84,-4.4 -7.21,8.87 10.45,5.58 4.22,0.53 16.88,3.53l6.94 3.69c-8.79,6.64 -18.76,4.03 -32.56,4l-0.19 -48.72zm-126 47.67c-39.88,-43.49 24.72,-61.96 24.67,-37.77l-22.8 -0.16c-3.36,5.71 -11.24,16.03 -2.67,25.79 4.62,5.26 24.61,6.35 25.38,4.59 0.33,-0.77 1.47,0.64 2.19,1 -1.39,1.65 0.78,5.46 -11.35,7.63 -7.43,1.33 -8.24,-0.12 -15.41,-1.08zm-51.28 -47.67c44.22,0 28.45,0.28 32.8,6.7l-24.37 1.13 -0.01 12.51c12.8,-0.04 10.31,-1.18 20.08,2.74 -15.53,17.87 -18.91,-11.95 -19.2,17.35 13.23,-0.02 15.41,-2.72 23.43,4.29 -8.3,6.63 -19.52,4.03 -32.46,4l-0.26 -48.72zm-16.66 38.16c-8.13,-17.46 -27.77,-8.86 -21.54,-28.8 4.91,-15.72 21.51,-13.18 29.29,4.07 -16.24,-5.22 -6.67,-11.49 -21.7,-1.17 7.02,15.26 9.08,2.98 21.87,18.14l-2.44 15.89c-14.29,3.83 -23.55,5.2 -26.76,-11.22 9.2,3.55 10.88,6.99 21.28,3.09zm-162.09 0.37c-7.81,-18 -27.36,-10.29 -21.5,-29.06 4.78,-15.32 21.44,-13.95 29.21,4.02l-12.54 -3.94c-9.37,-1.27 -2.34,-2.04 -9.08,2.71 5.32,11.89 9.67,7.59 21.29,14.86l-1.89 19.31c-13.63,3.5 -23.34,3.59 -26.85,-11.38 9.15,3.3 10.8,6.87 21.36,3.48zm-97.22 9.78c-4.62,-11.01 -3.85,-34.47 -0.94,-47.64 13.46,-0.75 23.16,-3.7 31.16,4.39l-24.66 7.21c4.79,10.08 -1.63,3.31 8.66,7.79l9.13 2.13c0.49,-0.83 1.86,0.49 2.73,0.9 -9.16,8.61 -7.64,4.62 -19.14,7.21 -2.29,17.59 2.88,12.59 -6.94,18.01zm797.88 -32.44c-3.09,-9.04 -1.56,-3.92 -6.14,-9.63 -3.66,-4.56 -0.26,2.51 -4.49,-5.72l29.03 -0.52c-17.84,22.57 -7.81,1.92 -10.13,34.2 -1.74,24.11 0.54,7.48 -5.44,14.12 -4.7,-9.41 -2.83,-19.39 -2.83,-32.45zm-188.33 32.43c-11.74,-8.08 -0.03,-9.3 -8.49,-26.97 -5.08,-10.61 -7.83,-7.43 -13.57,-21.58 18.22,4.81 19.13,17.81 20.82,14.53 0.36,-0.69 1.65,1.15 2.47,1.73 5.93,-11.77 2.91,-11.57 17.97,-16.1 -31.08,53.17 -7.66,24.9 -19.21,48.39zm-499.34 -45.95c12.35,-4.27 16.18,-3.92 28.89,-0.44 -12.72,19.89 -9.04,-10.66 -12.85,46.36 -7.24,-4.2 -5.3,3.8 -5.91,-14 -0.22,-6.41 0.41,-15.35 0.56,-22l-10.69 -9.92zm385.24 -42.21c-5.24,-28.66 -1.41,-98.67 -1.45,-131.82 -0.07,-49.31 1.48,-80.7 51.94,-85.5l-1.75 217.69 -48.74 -0.37zm-247.52 -298.76c57.38,-9.17 51.22,67.91 52.11,79.5 54.45,1.47 79.95,-2.2 115.42,29.02 57.31,50.44 45.27,152.33 -35.06,182.72 -23.76,8.99 -106.61,11.72 -132.89,6.38l0.43 -297.62zm-42.59 296.79c-14.19,5.03 -98.79,3.26 -118.44,1.82 -70.46,-5.14 -110.32,-76.76 -93.35,-138.27 7.14,-25.87 33.22,-54.51 53.72,-65.07 23.03,-11.85 163.33,-38.75 169.23,50.09 6.18,93.06 -112.68,72.76 -168.13,73.63 11.38,31.26 52.44,28.03 88.74,27.96 28.28,-0.05 77.61,2.43 68.23,49.83zm554.28 1.39c-3.99,-31.89 -3.61,-144.33 -0.74,-177.89 2.39,-27.95 23.2,-36.72 52.52,-36.59 28.24,0.13 58.35,-0.91 86.32,0.65 3.97,68.47 -69.76,44.72 -81.96,53.37 -13.03,9.23 -3.24,124.24 -6.91,161.06l-49.23 -0.61zm-166.46 0.41c-4.87,-31.25 -1.14,-96.65 -1.15,-131.64 -0.01,-46.23 -5.38,-83.11 46.38,-83.11l92.55 1.17c1.23,22.83 -7.17,38.3 -23.91,45.87 -18.09,8.19 -42.95,2.9 -63.43,5.99l-2.02 162.3 -48.42 -0.57zm-85.56 -280.93c31.78,-20.94 54.24,32.37 23.03,45.48 -31.27,13.12 -50.07,-27.66 -23.03,-45.48zm-335.61 -62.37c-3.43,-27.06 -0.87,-246.38 -0.87,-293.29 0,-80.66 -0.95,-151.99 80.81,-209.64 69.46,-48.98 228.21,-31.31 336.24,-31.68 27.59,-0.09 35.37,-8.92 35.31,-36.13 -0.09,-47.5 1.8,-100.04 -1.05,-146.91 32.1,6.15 41.62,14.55 59.08,31.39 21.72,20.95 22.93,24.3 22.65,61.13 -0.72,94.78 7.16,445.59 -5.41,489.51 -27.67,96.72 -104.71,136.58 -197.4,136.34 -60.08,-0.16 -290.46,3.07 -329.37,-0.72zm207.66 -994.19c-176.17,12.43 -364.18,82.79 -494.33,189.48 -41.15,33.74 -61.39,41.17 -90.42,78.98 -11.72,15.26 -14.02,15.96 -27.72,29.98l-50.03 61.9c-16.17,21.28 -30.72,43.1 -46.85,68.58 -27.09,42.81 -55,98.07 -75.4,151.77 -45.04,118.53 -68.19,252.78 -57.79,392 35.62,476.64 446.71,877.43 971.54,840.41 480.71,-33.91 878.37,-451.43 841.58,-971.64 -33.7,-476.59 -447.29,-878.38 -970.59,-841.46z"/>
   <path class="fil1" d="M1284.54 900.69c-29.82,8.84 -229.2,1.49 -278.3,2.63 12,59.07 126.35,99.19 176.95,26.02l89.56 -0.06c-23.78,85.72 -132,142.15 -229.12,109.98 -77.89,-25.8 -150.07,-116.73 -118.35,-228.02 42.05,-147.54 236.7,-181.76 327.82,-57.2 27.44,37.52 38.74,89.67 31.44,146.65zm-446.97 229.2c38.9,3.79 269.28,0.56 329.37,0.72 92.69,0.24 169.73,-39.62 197.4,-136.34 12.57,-43.92 4.68,-394.73 5.41,-489.51 0.28,-36.83 -0.93,-40.19 -22.65,-61.13 -17.46,-16.85 -26.98,-25.25 -59.08,-31.39 2.85,46.87 0.96,99.41 1.05,146.91 0.06,27.21 -7.72,36.04 -35.31,36.13 -108.03,0.37 -266.78,-17.3 -336.24,31.68 -81.76,57.65 -80.81,128.98 -80.81,209.64 0,46.91 -2.56,266.23 0.87,293.29z"/>
   <path class="fil0" d="M1005.73 822.73c12.68,-34.09 45.83,-64.62 96.28,-65.32 49,-0.68 86.28,31.77 98.42,66.35l-194.69 -1.04zm278.8 77.96c7.31,-56.98 -3.99,-109.13 -31.44,-146.65 -91.13,-124.56 -285.78,-90.34 -327.82,57.2 -31.71,111.29 40.46,202.22 118.35,228.02 97.12,32.17 205.34,-24.26 229.12,-109.98l-89.56 0.06c-50.6,73.17 -164.96,33.06 -176.95,-26.02 49.09,-1.14 248.48,6.21 278.3,-2.63z"/>
   <path class="fil1" d="M715.12 1342.45c9.01,-17.39 17.64,-29.18 44.01,-31.52 21.93,-1.94 51.47,-2.04 68.74,5.36 4.56,38.92 -36.68,23.61 -112.75,26.16zm155.8 128.94c9.38,-47.41 -39.95,-49.89 -68.23,-49.83 -36.3,0.07 -77.36,3.3 -88.74,-27.96 55.45,-0.87 174.31,19.42 168.13,-73.63 -5.9,-88.84 -146.2,-61.94 -169.23,-50.09 -20.5,10.56 -46.57,39.2 -53.72,65.07 -16.97,61.51 22.89,133.13 93.35,138.27 19.65,1.44 104.25,3.21 118.44,-1.82z"/>
   <path class="fil1" d="M964.77 1421.68l0.41 -114.85c33.89,-0.77 99.17,-6.28 99.24,56.51 0.09,66.34 -69.77,59.24 -99.65,58.33zm-51.69 50.55c26.28,5.34 109.13,2.61 132.89,-6.38 80.33,-30.39 92.37,-132.28 35.06,-182.72 -35.47,-31.22 -60.97,-27.55 -115.42,-29.02 -0.89,-11.59 5.27,-88.67 -52.11,-79.5l-0.43 297.62z"/>
   <path class="fil1" d="M1425.2 1472.78l49.23 0.61c3.67,-36.82 -6.12,-151.83 6.91,-161.06 12.2,-8.64 85.93,15.11 81.96,-53.37 -27.96,-1.56 -58.08,-0.53 -86.32,-0.65 -29.32,-0.13 -50.13,8.63 -52.52,36.59 -2.88,33.56 -3.25,146 0.74,177.89z"/>
   <path class="fil1" d="M1258.74 1473.19l48.42 0.57 2.02 -162.3c20.48,-3.09 45.34,2.2 63.43,-5.99 16.74,-7.58 25.14,-23.05 23.91,-45.87l-92.55 -1.17c-51.76,0 -46.39,36.88 -46.38,83.11 0.01,34.99 -3.72,100.39 1.15,131.64z"/>
   <path class="fil1" d="M1161.03 1473.37l48.74 0.37 1.75 -217.69c-50.45,4.8 -52,36.19 -51.94,85.5 0.04,33.15 -3.78,103.16 1.45,131.82z"/>
   <path class="fil0" d="M964.77 1421.68c29.89,0.9 99.74,8.01 99.65,-58.33 -0.08,-62.8 -65.35,-57.28 -99.24,-56.51l-0.41 114.85z"/>
   <path class="fil1" d="M1005.73 822.73l194.69 1.04c-12.13,-34.58 -49.42,-67.03 -98.42,-66.35 -50.45,0.7 -83.6,31.23 -96.28,65.32z"/>
   <path class="fil0" d="M715.12 1342.45c76.07,-2.55 117.31,12.76 112.75,-26.16 -17.27,-7.4 -46.81,-7.3 -68.74,-5.36 -26.37,2.34 -35,14.13 -44.01,31.52z"/>
   <path class="fil1" d="M1173.18 1192.26c-27.04,17.82 -8.24,58.6 23.03,45.48 31.21,-13.11 8.75,-66.42 -23.03,-45.48z"/>
   <path class="fil1" d="M1303.98 1561.59c4.96,-5.31 3.65,-0.43 5.36,-10.85 0.64,-3.89 -0.28,-9.09 0.67,-15.61 2.25,5.69 10.03,22.32 19.22,26.43 5.74,-5.76 14.12,-22.33 15.46,-26.29 1.01,6.62 0.07,8.04 0.52,12.05 1.96,17.31 -1.27,7.09 5.65,14.06 4.67,-10.66 3.93,-37.6 0,-47.63 -11.94,4.38 -16.07,15.68 -20.16,35.5 -6.35,-5.33 -3.52,2.56 -13.17,-19.48 -5.48,-12.51 -3.26,-11.57 -13.56,-16.3 -4.62,10.33 -5.25,37.94 0,48.11z"/>
   <path class="fil1" d="M852.87 1553.33c-5.6,-0.92 -17.32,-3.85 -11.09,-10.37 2.59,-2.71 0.13,-6.04 7.36,0.39 6.93,6.15 2.59,0.73 3.73,9.98zm-15.86 -36.75c-2.13,4.95 -9.76,36.45 2.65,43.48 18.54,3.72 13,-3.32 28.71,-0.37 1.79,-6.78 -2.2,-7.24 0.64,-20.52l1.67 -5.26c-19.38,1.74 -2.1,0.63 -17.76,6.1 2.59,-13.87 11.69,-35.57 -15.92,-23.43z"/>
   <path class="fil1" d="M1408.58 1561.62c6.33,-6.91 3.82,10.22 5.57,-14.3 0.28,-4.06 -0.47,-11.87 -0.4,-16.85 19.3,11.58 7.96,26.68 32.22,31.49l0.3 -36.67c-2.91,-18.91 0.2,-4.65 -5.22,-11.89l-3.19 11.81c-0.35,5.12 0.41,14.18 0.54,19.67l-8.82 -8.05c-9.24,-11.56 -4.87,-16.73 -20.99,-23.41 -4.59,9.83 -5.31,38.09 0,48.2z"/>
   <path class="fil1" d="M1085.07 1525.49c10.37,-8.22 11.52,-5.66 16.1,3.96 -11.58,7.03 -12.33,7.72 -16.1,-3.96zm-4.71 36.35c0.63,-0.79 1.55,-3.01 1.74,-2.48l5.47 -17.46c14.26,10.91 4.47,16 21.23,19.78l-8.11 -18c8.83,-12.57 9.24,-13.33 6.34,-27l-30.62 -4.22c0.11,9.94 0.09,18.59 0.04,27.64 -0.16,29.29 0.45,16.41 3.91,21.75z"/>
   <path class="fil1" d="M1119.01 1561.95c13.81,0.03 23.78,2.64 32.56,-4l-6.94 -3.69c-12.66,-3 -6.43,2.05 -16.88,-3.53 2.37,-13.28 -1.54,-5.33 7.21,-8.87 0.82,-0.33 2.09,-0.13 2.95,-0.46 13.97,-5.41 3.2,2.23 9.83,-5.99 -14.8,-5.37 -15.26,4.15 -20.3,-9.92l7.57 -3.9c11.03,-2.63 6.78,1.77 16.48,-3.31 -5.23,-5.35 13.7,-5.05 -32.68,-5.05l0.19 48.72z"/>
   <path class="fil1" d="M1364.39 1561.95c23.03,0.06 23.16,3.07 32.54,-4l-10.13 -4.2c-10.49,-2.12 -3.19,2.64 -13.67,-3.01 3.46,-20.04 7.6,-0.71 19.58,-14.43 -13.55,-7.39 -14.77,3.6 -19.88,-10.82l4.63 -2.96c16.2,-4.6 8.53,1.42 19.4,-4.26 -5.87,-6 15.2,-5.05 -32.63,-5.05l0.16 48.72z"/>
   <path class="fil1" d="M941.8 1561.95c12.94,0.03 24.17,2.63 32.46,-4 -8.02,-7.01 -10.2,-4.31 -23.43,-4.29 0.29,-29.3 3.67,0.52 19.2,-17.35 -9.76,-3.92 -7.28,-2.78 -20.08,-2.74l0.01 -12.51 24.37 -1.13c-4.34,-6.42 11.43,-6.7 -32.8,-6.7l0.26 48.72z"/>
   <path class="fil2" d="M699.48 1560.87c17.22,-0.41 3.33,-3.33 17.15,-4.3 13.38,-0.93 4.94,3.11 20.06,4.76l-17.04 -47.03c-8.15,8.23 -17.19,34.36 -20.17,46.57z"/>
   <path class="fil2" d="M1219.09 1560.63c18.19,0.46 2.25,-2.84 16.95,-4.02 12.3,-0.99 6.42,2.88 20.36,4.9l-17.47 -47.04c-8.69,9.68 -16.37,33.41 -19.85,46.17z"/>
   <path class="fil1" d="M1487.31 1537.34c18.71,6.92 16.03,0.71 19.71,13.4 -19.96,8.59 -6.56,-6.74 -20.81,0 11.57,28.08 44.04,0.5 23.17,-13.93 -11.85,-8.2 -6.86,4.74 -15.54,-11.31 10.63,-6.6 8.63,-1.18 21.73,-0.08 -2.24,-8.68 -4.07,-15.89 -18.73,-12.16 -13.04,3.31 -11.41,10.75 -9.53,24.09z"/>
   <path class="fil2" d="M1206.23 1529.1c-17.75,11.32 -14.22,0.69 -15.29,0 0.01,-0.02 3.48,-22.59 15.29,0zm-21.27 32.31c12.3,-6.04 2.18,-1.03 8.68,-19.39 16,-0.96 12.8,-0.31 20.98,-9.32 0.13,-21.7 -9.78,-20.09 -30.51,-18.74 -2.64,13.28 -3.54,35.94 0.85,47.45z"/>
   <path class="fil1" d="M1037.88 1560.19l25.27 -0.33 3.72 -34.56c-1.67,-12.28 -1.45,-7.15 -4.54,-12.07 -6.5,10.07 -3.95,8.76 -4.31,23.31 -0.62,25.63 -18.75,22.08 -20.04,3.56 -1.29,-18.57 4.8,-13.3 -4.51,-26.84 -3.85,6.68 -1.94,-7.73 -4.13,12.06 -0.01,0.11 0.04,14.41 0.07,14.81 1.11,14.46 1.56,12.59 8.47,20.07z"/>
   <path class="fil1" d="M924.89 1551.39c-10.4,3.91 -12.08,0.46 -21.28,-3.09 3.21,16.42 12.47,15.05 26.76,11.22l2.44 -15.89c-12.79,-15.16 -14.85,-2.87 -21.87,-18.14 15.03,-10.33 5.46,-4.06 21.7,1.17 -7.78,-17.26 -24.38,-19.8 -29.29,-4.07 -6.24,19.94 13.4,11.35 21.54,28.8z"/>
   <path class="fil1" d="M762.8 1551.76c-10.56,3.39 -12.21,-0.18 -21.36,-3.48 3.51,14.97 13.22,14.88 26.85,11.38l1.89 -19.31c-11.62,-7.27 -15.96,-2.96 -21.29,-14.86 6.74,-4.75 -0.29,-3.98 9.08,-2.71l12.54 3.94c-7.77,-17.97 -24.43,-19.34 -29.21,-4.02 -5.85,18.77 13.7,11.06 21.5,29.06z"/>
   <path class="fil1" d="M992.82 1560.89c7.17,0.96 7.98,2.42 15.41,1.08 12.13,-2.18 9.96,-5.98 11.35,-7.63 -0.72,-0.36 -1.85,-1.77 -2.19,-1 -0.77,1.76 -20.76,0.67 -25.38,-4.59 -8.56,-9.76 -0.69,-20.08 2.67,-25.79l22.8 0.16c0.05,-24.19 -64.55,-5.72 -24.67,37.77z"/>
   <path class="fil2" d="M665.58 1561.54c9.82,-5.43 4.65,-0.42 6.94,-18.01 11.5,-2.59 9.98,1.4 19.14,-7.21 -0.87,-0.41 -2.24,-1.73 -2.73,-0.9l-9.13 -2.13c-10.29,-4.47 -3.87,2.3 -8.66,-7.79l24.66 -7.21c-8,-8.09 -17.7,-5.13 -31.16,-4.39 -2.92,13.17 -3.69,36.63 0.94,47.64z"/>
   <path class="fil1" d="M1275.13 1561.52c11.55,-23.49 -11.87,4.78 19.21,-48.39 -15.07,4.53 -12.05,4.33 -17.97,16.1 -0.82,-0.58 -2.11,-2.42 -2.47,-1.73 -1.69,3.28 -2.61,-9.72 -20.82,-14.53 5.74,14.16 8.49,10.98 13.57,21.58 8.46,17.67 -3.25,18.89 8.49,26.97z"/>
   <path class="fil1" d="M1463.46 1529.1c-0,13.06 -1.87,23.04 2.83,32.45 5.98,-6.64 3.7,9.98 5.44,-14.12 2.32,-32.28 -7.7,-11.63 10.13,-34.2l-29.03 0.52c4.23,8.23 0.83,1.15 4.49,5.72 4.58,5.71 3.05,0.6 6.14,9.63z"/>
   <path class="fil2" d="M786.48 1525.49c-0.15,6.66 -0.78,15.6 -0.56,22 0.61,17.79 -1.33,9.8 5.91,14 3.81,-57.02 0.13,-26.48 12.85,-46.36 -12.71,-3.47 -16.53,-3.82 -28.89,0.44l10.69 9.92z"/>
   <path class="fil3" d="M1190.94 1529.1c1.07,0.69 -2.46,11.32 15.29,0 -11.8,-22.59 -15.28,-0.02 -15.29,0z"/>
   <path class="fil3" d="M1085.07 1525.49c3.77,11.68 4.52,10.99 16.1,3.96 -4.57,-9.62 -5.73,-12.18 -16.1,-3.96z"/>
   <path class="fil3" d="M841.78 1542.96c-6.23,6.52 5.49,9.45 11.09,10.37 -1.15,-9.25 3.2,-3.83 -3.73,-9.98 -7.24,-6.43 -4.77,-3.1 -7.36,-0.39z"/>
  </g>
 </g>
</svg>
