<?xml version="1.0" encoding="UTF-8"?>
<!DOCTYPE svg PUBLIC "-//W3C//DTD SVG 1.1//EN" "http://www.w3.org/Graphics/SVG/1.1/DTD/svg11.dtd">
<!-- Creator: CorelDRAW 2020 (64-Bit Evaluation Version) -->
<svg xmlns="http://www.w3.org/2000/svg" xml:space="preserve" width="2.13333in" height="2.13333in" version="1.1" style="shape-rendering:geometricPrecision; text-rendering:geometricPrecision; image-rendering:optimizeQuality; fill-rule:evenodd; clip-rule:evenodd"
viewBox="0 0 2133.33 2133.33"
 xmlns:xlink="http://www.w3.org/1999/xlink"
 xmlns:xodm="http://www.corel.com/coreldraw/odm/2003">
 <defs>
  <style type="text/css">
   <![CDATA[
    .fil0 {fill:#EF7D16}
    .fil1 {fill:#FFFFFE}
   ]]>
  </style>
 </defs>
 <g id="Layer_x0020_1">
  <metadata id="CorelCorpID_0Corel-Layer"/>
  <g id="_2670875435216">
   <path class="fil0" d="M422.17 1116.5c9.16,-13.18 21.91,-27.88 32.61,-42.15 55.52,-74.08 315.21,-427.82 352.76,-460.8 10.93,-9.59 27.93,-26.09 49.24,-26.27 72.24,-0.61 34.72,124.38 23.89,158.55 -54.98,173.55 -194.83,586.06 -283.34,752 -15.39,28.85 -34.66,76.14 -74.86,68.56 -13.03,-46.03 65.66,-279.03 84.93,-332.03 18.97,-52.19 37.57,-102.52 55.28,-155.52l39.2 -119.8c4.53,-14.97 12.28,-28.32 5.37,-39.76 -8.66,19.72 -29.53,41.03 -44.07,60.22l-179.61 227.14c-14.64,17.53 -31.67,38.75 -46.69,53.19 -33.33,32.02 -110.2,81.44 -135.47,32.42 -33.09,-64.22 23.21,-274.2 40.59,-345.29 27.52,-112.56 56.17,-219.72 66.17,-340.3 102.41,39.96 103.95,119.59 83.48,241.78 -15.66,93.45 -44.69,181.96 -69.48,268.07zm537.91 281.91c-33.89,45.99 -155.64,238.93 -204.99,157.42 -23.11,-38.17 7.53,-123.26 19.57,-161.59 31.81,-101.16 63.3,-202.42 94.77,-304.72 30.72,-99.88 64.63,-204.74 104.2,-298.76 113.05,-268.65 168.13,-188.46 157.29,-138.51 -8.37,38.59 -80.43,241.71 -99.49,299.86 -22.66,69.13 -90.15,243.35 -99.63,298.21 22.74,-25.51 41.24,-52.47 63.16,-79.56 30,-37.08 164.09,-211.71 189.21,-236 22.4,-21.67 42.17,-49.31 78.67,-65.56 151.26,-67.33 64.4,217.52 53.69,281.61 15.44,-5.39 43.13,-25.55 62.82,-35.69 36.17,-18.63 32.36,-6.42 53.48,-42.68 36.72,-63.01 53.87,-66.31 91.49,-103.9 -24.69,-53.43 0.67,-122.13 26.43,-134.39 12.43,23.4 -49.34,58.17 -15.49,126.43 14.94,-10.2 41.89,-29.73 65.41,-35.19 76.07,-17.64 80.07,87.93 -0.59,86.93 -44.86,-0.55 -58.51,-21.72 -71.44,-31.19 -19.94,25.83 -48.66,33.94 -85.8,105.21 61.63,5.13 184.8,-58.67 325.53,77.41 7.97,7.71 13,16.22 20.73,27.46 45.36,65.95 51.63,162.91 12.07,219.95 -85.44,123.18 -279.33,35.81 -353.33,-96.88 -27.58,-49.46 -34.57,-85.94 -36.23,-152.1 -39.21,9.93 -66.97,29.69 -94.42,49.72 -23.41,17.09 -19.01,12.3 -27.17,46.72 -29.47,124.44 -38.1,164.21 -56.63,298.61 -36.18,-15.53 -72.93,-44.12 -85.53,-83.53 -15.04,-47.02 -5.16,-103.21 2.69,-151.13 17.87,-109.15 53.83,-195.22 68.2,-267.55l-258.67 343.38zm-809.6 -358.42c0,117.44 -5.2,183.28 29.14,299.98 59.43,201.99 172.19,366.82 342.21,489.82 82.26,59.51 180.58,105.08 279.91,134.25 140.55,41.28 340.16,42.25 480.75,0.88 308.95,-90.9 533.28,-312.96 624.07,-622.13 41.28,-140.55 42.25,-340.15 0.88,-480.75 -30.28,-102.91 -73.36,-195.4 -133.58,-280.58 -118.53,-167.65 -291.2,-285.54 -488.54,-343.49 -140.55,-41.28 -340.15,-42.25 -480.75,-0.88 -56.28,16.56 -100.98,32.63 -149.93,57.15 -140.33,70.28 -247.46,157.3 -339.89,285.06 -59.51,82.26 -105.07,180.58 -134.25,279.91 -13.57,46.19 -30.02,123.3 -30.02,180.77z"/>
   <path class="fil1" d="M422.17 1116.5c24.8,-86.12 53.83,-174.62 69.48,-268.07 20.47,-122.2 18.93,-201.82 -83.48,-241.78 -10,120.58 -38.66,227.74 -66.17,340.3 -17.38,71.09 -73.69,281.07 -40.59,345.29 25.27,49.02 102.13,-0.39 135.47,-32.42 15.02,-14.43 32.05,-35.66 46.69,-53.19l179.61 -227.14c14.54,-19.19 35.41,-40.5 44.07,-60.22 6.9,11.44 -0.84,24.8 -5.37,39.76l-39.2 119.8c-17.71,53 -36.31,103.32 -55.28,155.52 -19.27,53 -97.96,286 -84.93,332.03 40.2,7.58 59.47,-39.71 74.86,-68.56 88.51,-165.94 228.36,-578.46 283.34,-752 10.82,-34.17 48.35,-159.16 -23.89,-158.55 -21.31,0.18 -38.31,16.68 -49.24,26.27 -37.55,32.98 -297.24,386.72 -352.76,460.8 -10.7,14.27 -23.44,28.97 -32.61,42.15z"/>
   <path class="fil0" d="M1428.43 1156.97c2.92,63.79 34.06,111 75.3,149.43 125.91,117.3 255.85,-44.1 110.91,-125.7 -59.72,-33.62 -112.74,-37.46 -186.21,-23.73z"/>
   <path class="fil0" d="M1542.46 973.43c27.65,34.08 104.8,40.23 104.71,-7.33 -0.1,-57.22 -92.65,-12.78 -104.71,7.33z"/>
   <polygon class="fil1" points="1988.33,1365.41 1992.03,1365.41 1992.03,1335.83 1988.33,1335.83 "/>
   <path class="fil1" d="M1988.33 1454.16l1.11 -1.1c-0.07,0.07 -1.47,0.74 -1.11,1.1z"/>
  </g>
 </g>
</svg>
