<?xml version="1.0" encoding="UTF-8"?>
<!DOCTYPE svg PUBLIC "-//W3C//DTD SVG 1.1//EN" "http://www.w3.org/Graphics/SVG/1.1/DTD/svg11.dtd">
<!-- Creator: CorelDRAW 2020 (64-Bit Evaluation Version) -->
<svg xmlns="http://www.w3.org/2000/svg" xml:space="preserve" width="2.13333in" height="2.13333in" version="1.1" style="shape-rendering:geometricPrecision; text-rendering:geometricPrecision; image-rendering:optimizeQuality; fill-rule:evenodd; clip-rule:evenodd"
viewBox="0 0 2133.33 2133.33"
 xmlns:xlink="http://www.w3.org/1999/xlink"
 xmlns:xodm="http://www.corel.com/coreldraw/odm/2003">
 <defs>
  <style type="text/css">
   <![CDATA[
    .fil4 {fill:#095EA6}
    .fil7 {fill:#2378B5}
    .fil11 {fill:#2A544D}
    .fil13 {fill:#4A7A6D}
    .fil8 {fill:#558DB4}
    .fil3 {fill:#ABABAD}
    .fil10 {fill:#C2B373}
    .fil12 {fill:#CCBA5C}
    .fil5 {fill:#E5CA44}
    .fil6 {fill:#EECD2C}
    .fil14 {fill:#FDEE94}
    .fil9 {fill:#FEFEC4}
    .fil1 {fill:#FEFFFD}
    .fil2 {fill:#FFD000}
    .fil0 {fill:#FFDA21}
   ]]>
  </style>
 </defs>
 <g id="Layer_x0020_1">
  <metadata id="CorelCorpID_0Corel-Layer"/>
  <circle class="fil0" cx="1101.35" cy="1046.39" r="1000"/>
  <g id="_2670897081232">
   <path class="fil1" d="M814.56 1635.57l26.91 -0.85 8.89 -87.07c1.72,-53.08 18.35,-118.62 36.12,-170.98 36.94,-108.89 67.41,-179.28 134.01,-270.72 26.69,-36.64 20.85,-27.02 45.61,-55.59 12.46,-14.38 37.08,-44.35 50.68,-49.64 21.6,-3.1 80.37,86.37 96.23,108.3 13.57,18.75 25.86,39.44 39.6,62.05 11.21,18.46 31.99,45.04 31.61,68.97l9.17 -1.4c22.59,-2.81 80.76,-23.57 100.46,-32.27l-18.87 -42.13c-6.8,-13.19 -13,-23.53 -19.53,-35.28l-32.11 -53c-29.96,-52.05 -66.08,-102.28 -105.22,-146.68 -55.97,-63.5 -75.44,-108.03 -123.8,-70.99 -68.69,52.61 -122.15,122.42 -173.06,191.37l-71.93 123.61c-12.65,28.16 -21.16,47.65 -33.2,76.63 -32.64,78.5 -83.29,274.52 -77.21,373.06 13.73,0.6 24.72,2.88 38.81,4.67 11.03,1.41 33.03,-2.82 36.83,7.94z"/>
   <path class="fil1" d="M865.25 462.55c-15.87,17.12 -56.94,38.9 -66.38,53.62 6.93,13.39 17.52,24.87 23.38,36.69 15.1,14.99 34.56,47.64 50.1,66.95 13.41,16.65 43.28,47.72 51.09,63.22 13.48,7.85 31.78,28.92 46.69,41.07 6.42,5.23 15.48,12.55 23.88,18.86 8.78,6.58 18.42,10.24 24.27,19.89 10.29,2.03 25.15,10.04 32.23,16.33 20.38,14.44 46.37,23.23 70.17,32.91 53.35,21.69 206.07,63.58 254.84,60.83l2.44 -33.3 -0.31 -51.68c-54.72,-2.6 -117.69,-18.06 -161.95,-37.12 -35.24,-15.17 -96.6,-56.28 -114.45,-81.65 -4.63,-7.04 -18.94,-20.04 -25.97,-28.89 -7.05,-8.87 -16.92,-20.54 -22.87,-29.13 -7.78,-11.22 -38.22,-51.61 -40.33,-65.75 -8.19,-4.98 -2.78,2.43 -6.18,-9.37 -5.67,-3.67 -9.48,-13.84 -13.68,-20.73 -4.98,-8.18 -9,-14.5 -13.98,-22.94 -9.43,-15.97 -21.06,-31.09 -28.3,-47.07l-18.79 -24.91c-21,5.54 -43.64,32.63 -65.9,42.18z"/>
   <path class="fil2" d="M1359.71 1112.21c8.63,2.48 3.85,-0.54 9.43,6.55 2.72,3.46 2.95,5.54 5.26,9.91l31.98 58.97c20.03,-2.96 35.68,-14.81 57.43,-22.11 7.79,0.22 17.41,-8.23 23.49,-12.22 6.8,-4.46 16.2,-6.54 24.95,-12.03 29.64,-18.59 108.36,-81.11 113.51,-106.35 9.61,-28.17 8.19,-22.45 -36.21,-60.68 -42.4,-36.52 -152.71,-112.3 -199.05,-116.9l-7.28 23.87c-52.51,7.16 -183.27,-38.01 -215.17,-38.28 3.98,14.24 18.27,24.25 26.18,33.78 29.3,35.3 169.41,200.79 165.48,235.49z"/>
   <path class="fil3" d="M949.94 445.28c7.24,15.98 18.87,31.1 28.3,47.07 4.98,8.44 9,14.77 13.98,22.94 4.2,6.89 8.01,17.06 13.68,20.73l4.38 -6.27c129.62,-5.28 292.76,38.09 386.81,85.9 67.79,34.46 82.68,38.02 144.8,87.91 24.81,19.92 40.19,32.36 62.22,54.3 15.88,15.82 41.58,52.98 54.74,62.13l1.64 -4.58c0.58,-3.21 2.82,-10.79 -21.51,-64.45 -10.35,-22.83 -22.2,-40.96 -35.4,-59.82 -14.69,-20.99 -45.4,-56.7 -66.44,-74.65 -12.44,-10.61 -18.78,-13.3 -24.03,-25.21l-91.26 -58.98c-70.68,-39.52 -138.91,-64.36 -218.07,-79.4 -116.82,-22.18 -144.7,-13.61 -253.84,-7.62z"/>
   <path class="fil2" d="M1326.87 701.44c7.54,-1.3 40.44,11.41 50.09,16.36 16.55,8.49 32.64,13.35 48.55,21.74 100.56,52.98 129.3,75.41 203.17,155.97 22.45,24.48 18.84,34.67 37.19,38.42 14.53,-60.28 1.55,-84.37 -37.92,-126.48 -18.28,-19.5 -32.48,-38.36 -52.35,-55.09 -5.09,-4.29 -6.89,-4.79 -11.96,-9.4 -8.13,-7.39 -12.27,-13.9 -21.95,-20.99 -10.17,-7.45 -14.69,-10.2 -24.33,-18.36 -9.93,-8.41 -14.5,-9.87 -27.03,-16.61 -10.8,-5.8 -14.95,-15.87 -50.39,-34.26 -10.22,-5.3 -18.06,-8.52 -29.19,-14.18 -9.58,-4.87 -15.26,-10.24 -26.99,-14.61 -13.57,-5.05 -52.41,-17.19 -60.72,-29.37 -14.06,0.91 -32.66,-10.12 -46.63,-14.44 -15.67,-4.84 -31.32,-14.14 -49.51,-13.1 -16.98,2.54 -77.03,-9.6 -99.57,-13.12 -28.07,-4.38 -70.29,-8.81 -100.41,-8.02 1.88,22.16 51.96,89.14 69.4,104.15 8.98,7.73 8.77,7.32 20.34,8.37 74.62,6.77 97.22,6.65 167.96,25.97 17.03,4.65 32.98,6.09 42.26,17.05z"/>
   <path class="fil4" d="M1590.62 1335.41c-12.7,3.83 -37.81,23.93 -53.66,32.74 -13.63,7.58 -40.3,25.05 -58.2,27.21 -13.11,11.96 -87.6,37.68 -111.6,43.16l-3.46 2.09c-4.63,9.41 -0.64,6.47 -13.5,11.14l-242.27 52.23 0.18 99.37c36.23,4.37 184.37,-25.71 224.78,-35.25 23.44,-5.54 57.05,-18.67 68.04,-10.58l105.28 -35.35 3.08 -2.28c39.6,-22.09 69.77,-32.15 105.19,-55.94 40.15,-26.98 56.15,-44.47 86.85,-76.62 -14.98,12.04 -34.94,35.96 -46.82,43.61 -29.53,19.02 -6.11,9.3 -54.63,34.06 -10.58,5.4 -40.17,19.03 -44.03,5.5 -0.2,-0.72 -0.55,-1.6 -0.74,-2.43l-0.57 -85.2c-16.59,-0.27 -11.11,-2.01 -23.62,3.87 -7.07,3.32 -4.41,8.49 -14.31,2.26 32.52,-17.16 40.35,-17.17 79.28,-47.85l40 -33.67c19.14,-13.86 7.37,-12.21 22.63,-29.09 8.59,-9.5 12.22,-12.79 18.24,-23.73 0.32,-0.58 0.72,-1.39 1.04,-1.98 0.32,-0.61 0.72,-1.41 1.05,-2.02l12.12 -20c-7.38,22.04 -27.8,43.56 -42.2,59.28 -5.43,5.92 -7.08,9.32 -12.7,15.01 -4.79,4.85 -7.73,7.41 -12.9,11.7 -10.37,8.61 -16.39,18.11 -32.53,18.75z"/>
   <path class="fil3" d="M1377.97 839.63l-0.85 -0.83c32.34,-4.09 168.74,75.09 199.78,105.12 25.29,24.48 65.02,47.47 67.64,76.56 1.8,-2.83 0.92,-1.1 3.66,-6.91l19.35 -47.93c20.3,-40.17 9.24,-41.31 17.01,-62.3 21.67,10.24 23.09,53.31 28.73,73.1 8.92,31.3 0.91,60.61 0.11,91.2l6.35 -21.61c2.63,-26.52 1.07,-59.61 -4.4,-84.62 -3.63,-16.61 -19.05,-75.2 -35.07,-79.37 -9.14,23.18 3.35,53.98 -15.31,72.34 -8.63,-2.94 -6.11,-1.74 -12.13,-9.76l-28.33 -38.85c-45.3,-52.39 -111.74,-110.07 -172.54,-142.62 -10.98,-5.88 -22.18,-8.42 -32.74,-13.88l-62.48 -29.01c-38.81,-22.25 -130.76,-30.74 -139.97,-42.8 -15.37,3.69 -41.06,-2.73 -57.09,-4.78 -18.93,-2.43 -37.5,-2.04 -58.44,-3.49 17.85,25.37 79.21,66.49 114.45,81.65 44.27,19.06 107.23,34.52 161.95,37.12l0.31 51.68z"/>
   <path class="fil5" d="M792.59 718.31c-12.72,13.06 -18.61,6.29 -36.62,17.92l-9.44 8.04c-0.38,-0.62 -1.42,1.38 -2.02,2.17 16.16,-1.87 69.73,-25.17 89.53,-32.48 28.91,-10.7 80.33,-18.18 89.41,-30.92 -7.8,-15.51 -37.68,-46.57 -51.09,-63.22 -15.55,-19.31 -35,-51.96 -50.1,-66.95 -28.2,-5.63 -149.16,30.29 -173.85,40.13 -25.03,9.97 -51.15,20.52 -74.79,31.84 -13.95,6.68 -63.47,30.78 -75.7,32.35 8.83,-28.39 140.12,-105.63 164.11,-118.1 67.06,-34.86 128.48,-60.41 203.24,-76.52 22.26,-9.55 44.9,-36.64 65.9,-42.18l18.79 24.91c109.14,-6 137.02,-14.56 253.84,7.62 79.16,15.04 147.39,39.88 218.07,79.4l91.26 58.98c20.93,6.48 40.77,32.23 56.26,48.02 35.69,36.39 18.42,20.51 44.36,53.5 26,33.07 57.2,100.96 57.36,144.91 -18.9,-2.69 -12.18,-2.24 -24.34,-18.74l-41.89 -49.82c-3.52,-3.4 -5.25,-4.5 -9.68,-8.75l-36.8 -36.52c-40.11,-36.73 -193.12,-126.05 -235.34,-129.31 8.3,12.19 47.15,24.32 60.72,29.37 11.73,4.37 17.41,9.73 26.99,14.61 11.13,5.66 18.97,8.88 29.19,14.18 35.43,18.39 39.59,28.45 50.39,34.26 12.53,6.73 17.1,8.2 27.03,16.61 9.64,8.16 14.16,10.91 24.33,18.36 9.68,7.09 13.82,13.6 21.95,20.99 5.07,4.61 6.87,5.11 11.96,9.4 19.87,16.74 34.07,35.6 52.35,55.09 39.47,42.11 52.45,66.2 37.92,126.48 -18.35,-3.74 -14.74,-13.93 -37.19,-38.42 -73.87,-80.56 -102.61,-102.99 -203.17,-155.97 -15.91,-8.38 -32,-13.25 -48.55,-21.74 -9.65,-4.95 -42.56,-17.66 -50.09,-16.36 -20.09,-7.79 -91.54,-28.07 -110.09,-24 9.22,12.06 101.16,20.55 139.97,42.8l62.48 29.01c10.56,5.46 21.77,8 32.74,13.88 60.8,32.56 127.23,90.23 172.54,142.62l28.33 38.85c6.02,8.02 3.49,6.81 12.13,9.76 18.66,-18.35 6.17,-49.16 15.31,-72.34 16.02,4.17 31.44,62.77 35.07,79.37 5.46,25.01 7.03,58.11 4.4,84.62l-6.35 21.61c-0.81,34.43 -22.38,50.5 -27.91,79.4 13.97,-5.08 4.94,1.36 13.71,-9.87 9.57,-12.26 4.46,-4.29 2.54,-8.51 1.27,44.3 -17.31,87.11 -41.26,121.41 -7.98,11.43 -7.21,4.69 -6.77,18.67 17.75,-10.03 33.99,-46.21 42.44,-69.21 10.65,-28.98 15.94,-62.59 14.88,-98.41 4.15,-2.78 -0.48,-2.67 7.48,0.22 9,-52.78 14.62,-111.87 -1.66,-165.3 -6.41,-21.02 -15.47,-46.06 -27.96,-64.24 -11.06,-16.09 -4.76,-17.8 -7.74,-39.07 -5.02,-35.88 -17.42,-59.19 -28.03,-87.96 -14.19,-38.47 -54.78,-88.28 -85.74,-118.54l-72.55 -65.17c-7.71,-5.09 -18.79,-9.97 -28.96,-17.34 -18.07,-13.09 -35.74,-23.46 -57.36,-34.02l-62.2 -29.28c-23.45,-9.02 -117.66,-38.07 -141.59,-41.55 -27.96,-4.06 -51.24,-6.99 -81.02,-11.07 -50.92,-6.96 -163.93,5.12 -171.04,1.59l-13.61 -14.08c-5.15,-3.96 -7.94,-5.9 -16.39,-3.83 -7.14,1.75 -22.06,17.48 -29.01,22.51 -34.76,25.1 -102.4,28.45 -148.58,53.61 -73.36,39.96 -104.34,40.8 -194.36,108.79l-52.59 36.45c-6.51,5.24 -0.21,-0.33 -5.71,5.97 -8.59,9.85 -43.35,39.76 -44.71,53.4 32.94,-1.02 53.87,-22.66 86.86,-36.39l19.08 -8.21c69.98,-39.69 66.92,-36.12 139.31,-54.52 17.67,-4.49 21.53,-11.8 74.14,-20.93 15.43,-2.68 7.5,-11.49 54.07,-8.44 13.58,21.17 27.12,37.54 42.95,58.05 13.31,17.24 40.19,44.69 42.05,56.71l-28.19 11.27c-10.04,3.16 -19.59,5.33 -28.81,7.98 -19.88,5.7 -39.59,12.98 -56.58,20.57z"/>
   <path class="fil4" d="M1399.17 1206.85l-5.32 -0.48c-19.69,8.7 -77.87,29.45 -100.46,32.27l-5.47 2.91c-13.09,17.47 -61,24.31 -85.1,28.64 -20.83,3.74 -77.2,12.18 -93.19,19.94l-1.45 104.73c50.78,3.13 192.37,-37.98 213.57,-34.92l14.74 0.09c10.99,-6.58 40.33,-13.06 55.1,-18.03 18.61,-6.26 37.13,-14.42 57.02,-21.14l0.49 -1.22c6.92,-11.63 6.75,-6.41 16.18,-12.96 -3.41,-2.37 9.24,-3.93 -6.97,-1.29 -6.74,1.1 -23.6,17.6 -58.75,21.5 7.02,-3.16 6.24,-2.42 11.97,-7.38l11.78 -10.16c0,-16.06 -2.27,-8.53 0.14,-21.43 -13.82,-9.77 -11.41,3.18 -10.69,-17.17 0.22,-6.11 -1.38,-16 -1.38,-29.44l-6.23 24.72c0.01,-6.14 0.44,-11.66 -0.75,-17.65l-1.41 -4.67c-0.31,-1.11 -4.25,-6.78 -0.37,-12.27 4.39,-6.21 6.11,-1.61 12.13,-6.96 -0.72,-0.61 -1.8,-1.15 -2.42,-1.46l-12.84 -4.62c11.24,-10.98 30.77,-12.71 43.7,-23.3 -22.57,0.3 -24.67,8.75 -44,11.74z"/>
   <path class="fil6" d="M1158.11 1263.42c35.92,-7.27 79.89,-14.22 112.93,-27.56l-4.18 -18.75c2.68,-23.74 -124.03,-196.64 -147.01,-208.11 -40.91,19.66 -131.55,153.59 -158.72,206.1 -31.74,61.33 -91.79,208.33 -93.04,271.8l-21.23 155.08c-19.19,2.69 -105.13,-5.63 -118.01,-11.65 -1.45,-12.26 2.44,-84.62 8.12,-100.17 2.06,-5.63 1.69,-4.48 4.02,-7.58 -3.91,-23.37 23.45,-134.44 30.91,-163.24 49.56,-191.49 156.33,-366.79 300.36,-492.64 52.58,-45.94 64.76,-46.33 117.17,17.94 64.56,79.2 106.84,121.57 157.61,212.95 9.63,17.34 8.39,12.53 12.69,14.62 3.93,-34.7 -136.18,-200.2 -165.48,-235.49 -7.91,-9.52 -22.2,-19.54 -26.18,-33.78 31.9,0.27 162.66,45.44 215.17,38.28l7.28 -23.87c46.33,4.6 156.65,80.38 199.05,116.9 44.4,38.23 45.82,32.51 36.21,60.68 7.56,-4.59 4.04,-0.62 8.69,-7.18 8.49,-11.98 0.94,-20.98 -7.44,-29.46 -9.72,-9.85 -20.5,-19.41 -30.33,-28.12 -50.8,-45.02 -115.79,-82.99 -178.63,-112.05 -37.33,-17.27 -36.35,-8.65 -40.94,-19.33l0.85 0.83 -2.44 33.3c-48.76,2.75 -201.48,-39.15 -254.84,-60.83 -23.8,-9.68 -49.79,-18.47 -70.17,-32.91 -67.5,-18.52 -236.12,16.44 -298.96,33.83 -44.77,12.39 -80.44,27.06 -122.81,44.52 -21.28,8.77 -38.5,16.36 -59.28,26.87 -18.91,9.57 -44.29,27.48 -57.31,21.68 -0.76,-8.77 10.07,-14.89 24.33,-27.22 9.18,-7.93 20.74,-17.66 30,-25.03 18.77,-14.91 47.98,-40.91 69.14,-44.91 5.23,-1.12 43.32,-26.33 53.35,-31.78 11.21,-6.08 17.93,-9.98 30.18,-15.94 9.12,-4.44 22.25,-10.47 25.37,-14.79 0.6,-0.78 1.64,-2.79 2.02,-2.17l9.44 -8.04c18.01,-11.63 23.9,-4.85 36.62,-17.92 -19.2,1.03 -73.15,27.89 -93.95,38.6 -33.27,17.14 -139.06,87.92 -157,105.81 -25.47,25.39 -59.54,42.99 -58.23,69.43 7.03,-2.37 11.75,-1.75 20.79,-5.26l118.94 -58.73c113.69,-53.09 207.11,-66.64 329.19,-82.39 17.17,-2.22 33.77,-0.76 51.07,-1.64 21.66,-1.09 24.45,-6.13 43.39,3.88 11.56,6.11 60.74,27.17 67.52,34.41 -0.52,0.56 -1.26,1.31 -1.61,1.65l-10.26 8.5c-26.66,17.81 -46.73,36.26 -71.26,60.39 -70.23,69.07 -132.25,148.85 -177.22,236.14 -45.39,88.09 -65.94,138.13 -93.63,244.07 -14.43,55.22 -45.14,200.44 -37.73,260.23 16.2,11.68 42.07,10.49 65.58,13.15 78.64,8.91 64.11,6.54 72.01,-50.93 7.35,-53.37 10.69,-89.52 22.55,-143.74 21.27,-97.17 49.17,-162.1 92.31,-244.24 23.2,-44.17 105.78,-166.72 144.81,-187.71 21.58,10.32 145.52,183.07 146.66,215.53 -16.77,5.21 -35.19,9.74 -53.14,13.81l-55.26 14.15z"/>
   <path class="fil7" d="M1690.96 1230.66l-12.12 20c-0.33,0.61 -0.72,1.41 -1.05,2.02 -0.32,0.59 -0.72,1.39 -1.04,1.98 -6.01,10.94 -9.65,14.23 -18.24,23.73 -15.26,16.88 -3.5,15.23 -22.63,29.09l-40 33.67c-38.93,30.68 -46.77,30.69 -79.28,47.85 9.91,6.23 7.24,1.06 14.31,-2.26 12.51,-5.87 7.02,-4.14 23.62,-3.87l0.57 85.2c0.19,0.83 0.54,1.71 0.74,2.43 3.86,13.52 33.45,-0.1 44.03,-5.5 48.52,-24.75 25.1,-15.04 54.63,-34.06 11.88,-7.65 31.84,-31.57 46.82,-43.61 10.49,-11.91 40.4,-55.78 38.93,-73.75 -1.54,-16.52 26.04,-112.49 -20.15,-183.65 -7.37,17.34 0.8,32.43 -29.14,100.74z"/>
   <path class="fil7" d="M1580.02 1103.21c-3.2,0.86 -57.03,41.42 -69.8,48.72 -23.25,13.29 -57.13,35.22 -82.86,39.89l-22.95 10.02c-8.9,2.4 -3.32,-0.18 -5.24,5.02 19.33,-2.99 21.43,-11.44 44,-11.74 -12.93,10.59 -32.45,12.32 -43.7,23.3l12.84 4.62c0.61,0.31 1.7,0.85 2.42,1.46 -6.01,5.35 -7.74,0.74 -12.13,6.96 -3.87,5.49 0.06,11.15 0.37,12.27l1.41 4.67c1.19,5.98 0.76,11.51 0.75,17.65l6.23 -24.72c0,13.44 1.6,23.33 1.38,29.44 -0.72,20.35 -3.13,7.4 10.69,17.17 -2.41,12.91 -0.14,5.37 -0.14,21.43l-11.78 10.16c-5.74,4.96 -4.95,4.22 -11.97,7.38 35.15,-3.9 52.01,-20.41 58.75,-21.5 16.21,-2.64 3.56,-1.08 6.97,1.29 -9.43,6.56 -9.26,1.34 -16.18,12.96 11.93,-2.46 29.44,-9.96 34.64,-15.4 5.65,-8.63 55.88,-35.87 73.74,-47.47 4.65,-3.02 7.58,-5.94 12.26,-9.35 10.48,-7.64 16.22,-11.59 26.33,-19.43l3.49 -5.55c0.02,-0.3 -0.04,-1.19 -0.03,-1.55 1.35,-36.49 -10.96,-60.46 -4.3,-82.11 1.58,-5.13 19.76,-20.37 0.85,-45.01 -3.84,7.54 -5.16,8.28 -16.07,9.44z"/>
   <path class="fil3" d="M744.51 746.43c-3.12,4.31 -16.25,10.35 -25.37,14.79 -12.25,5.96 -18.97,9.86 -30.18,15.94 -10.03,5.44 -48.12,30.66 -53.35,31.78l-10.56 12.45c-3.67,2.78 -4.65,2.68 -9.08,5.64l-37.17 26.86c-10.2,7.36 -11.35,6.3 -14.81,19.06 14.47,-1.13 167.24,-71.21 265.45,-88.7 19.28,-3.43 40.72,-5.75 60.44,-10.08 37.52,-8.24 114.07,-6.75 128.4,-11.31 -5.85,-9.65 -15.5,-13.31 -24.27,-19.89 -8.4,-6.31 -17.46,-13.63 -23.88,-18.86 -14.91,-12.15 -33.21,-33.21 -46.69,-41.07 -9.07,12.74 -60.5,20.22 -89.41,30.92 -19.8,7.32 -73.37,30.61 -89.53,32.48z"/>
   <path class="fil8" d="M1644.54 1020.47c-4.4,13.75 -20.09,33.35 -28.71,43.68 -12.08,14.48 -26.99,24.14 -35.81,39.06 10.91,-1.16 12.23,-1.91 16.07,-9.44 18.92,24.64 0.73,39.88 -0.85,45.01 -6.66,21.65 5.65,45.62 4.3,82.11 -0.01,0.36 0.05,1.24 0.03,1.55l-3.49 5.55c-10.11,7.84 -15.86,11.8 -26.33,19.43 -4.69,3.41 -7.61,6.33 -12.26,9.35 -17.87,11.6 -68.1,38.83 -73.74,47.47 29.33,-6.83 94.13,-50.21 115.24,-66.96 18.66,-14.81 31.35,-25.53 46.91,-41.94 7.8,-8.21 36.22,-46.53 39.59,-48.3 5.53,-28.89 27.1,-44.97 27.91,-79.4 0.81,-30.59 8.81,-59.91 -0.11,-91.2 -5.64,-19.79 -7.06,-62.86 -28.73,-73.1 -7.78,20.98 3.29,22.13 -17.01,62.3l-19.35 47.93c-2.74,5.8 -1.86,4.08 -3.66,6.91z"/>
   <path class="fil2" d="M1685.48 1147.03c-3.38,1.77 -31.8,40.09 -39.59,48.3 -15.57,16.41 -28.25,27.13 -46.91,41.94 -21.11,16.75 -85.91,60.13 -115.24,66.96 -5.2,5.44 -22.7,12.94 -34.64,15.4l-0.49 1.22c6.46,3.24 2.54,-1.38 7.51,17.36l22.64 57.14c17.9,-2.17 44.57,-19.63 58.2,-27.21 15.85,-8.81 40.96,-28.91 53.66,-32.74 11.22,-18.46 53.32,-41.67 63.09,-66.67 -0.44,-13.98 -1.21,-7.24 6.77,-18.67 23.95,-34.3 42.53,-77.11 41.26,-121.41 1.91,4.22 7.03,-3.75 -2.54,8.51 -8.77,11.23 0.26,4.78 -13.71,9.87z"/>
   <path class="fil6" d="M1740.25 1313.57c1.48,17.97 -28.43,61.84 -38.93,73.75 -30.7,32.15 -46.7,49.64 -86.85,76.62 -35.41,23.8 -65.58,33.86 -105.19,55.94 9.67,4.31 2.79,-2.87 5.65,12.78 22.28,122.06 31.61,102.43 -41.31,114.93 -67.99,11.65 -56.5,20.08 -67.9,-42.39 -3.09,-16.96 -7.52,-30.66 -11.63,-45.57 -40.64,12 -254.25,61.7 -294.62,54.32l0.66 -116.32c28.29,-10.44 99.17,-17.67 134.48,-25.01 45.61,-9.48 87,-22.24 129.07,-32.02l3.46 -2.09 -7.33 -1.31c0.27,-14.12 -6.84,-36.06 -12.33,-45.18 -13.81,-10.2 -3.22,-5.44 -16.34,-23.28l-165.73 33.97c-2.56,0.41 -13.38,2.14 -13.52,2.19 -7.11,2.15 -6.54,2.14 -10.61,5.32 19.07,-0.5 34.07,-4.76 52.16,-6.81 47.64,-5.43 107,-28.53 138.81,-27.77 3.93,9.34 19.26,45.51 17.28,56.23 -39.14,17.5 -104.37,24.6 -139.01,35.06l-35.79 9.14c-35.72,11.08 -85.11,-15.69 -84.85,44.46 0.17,36.98 -5.26,83.55 9.02,103.76 42.76,3.22 225.87,-31.36 263.42,-44.95 37.65,-13.62 28.05,-5.98 37.59,41.36 3.57,17.72 3.22,28.85 12.24,42.29 24.95,2.6 107.65,-10.19 125.87,-24.14 2.41,-20.46 -1.92,-38 -5.82,-56.27 -2.86,-13.44 -9.04,-43.72 -8.87,-56.8 29.74,-15.64 98.1,-48.04 122.36,-70.32 6.61,-6.07 13.13,-10.16 20.06,-16.67 8.28,-7.77 9.39,-9.68 18.99,-17.29 15.58,-12.35 4.84,-10.46 16.57,-20.46 28.02,-23.86 -4.32,0.04 15.58,-18.98l8.71 -9.87c12.67,-20.52 22.91,-42.09 29.94,-65.87 10.16,-34.35 8.82,-69 4.68,-105.04 -1.63,-14.17 -1.02,-16.21 -6.73,-23.07l-6.44 -5.47c4.11,36.65 14.01,68.56 4.69,113.34 -2.59,12.43 -3.61,20.04 -11.51,27.48z"/>
   <path class="fil3" d="M822.26 552.85c-5.86,-11.82 -16.45,-23.29 -23.38,-36.69 9.43,-14.72 50.5,-36.5 66.38,-53.62 -74.75,16.11 -136.18,41.67 -203.24,76.52 -23.99,12.47 -155.27,89.71 -164.11,118.1 12.23,-1.57 61.75,-25.68 75.7,-32.35 23.64,-11.31 49.76,-21.87 74.79,-31.84 24.7,-9.84 145.65,-45.76 173.85,-40.13z"/>
   <path class="fil9" d="M740.98 1522.57c-0.83,26.78 -11.96,82.92 -9.26,96.2 3.24,15.93 -0.24,1.76 3,8.49 7.85,3.33 67.72,9.43 79.83,8.3 -3.8,-10.76 -25.8,-6.53 -36.83,-7.94 -14.08,-1.79 -25.08,-4.07 -38.81,-4.67 -6.08,-98.54 44.57,-294.56 77.21,-373.06 12.04,-28.98 20.56,-48.46 33.2,-76.63l71.93 -123.61c50.91,-68.96 104.37,-138.76 173.06,-191.37 48.36,-37.04 67.82,7.49 123.8,70.99 39.14,44.39 75.26,94.63 105.22,146.68l32.11 53c6.53,11.75 12.73,22.09 19.53,35.28l18.87 42.13 5.32 0.48c1.92,-5.2 -3.67,-2.61 5.24,-5.02 -8.21,-13.88 -44.67,-74.51 -44.7,-89.62 -4.3,-2.09 -3.06,2.72 -12.69,-14.62 -50.76,-91.38 -93.04,-133.76 -157.61,-212.95 -52.4,-64.27 -64.58,-63.88 -117.17,-17.94 -144.03,125.85 -250.8,301.15 -300.36,492.64 -7.46,28.8 -34.81,139.87 -30.91,163.24z"/>
   <path class="fil1" d="M1400.93 1557.52l-3.13 1.96c15.02,17.27 19.03,60.65 23.03,86.17 16.2,1.93 90.15,-11.36 100.56,-17.79 1.9,-32.16 -13.31,-71.58 -15.17,-105.69l-105.28 35.35z"/>
   <path class="fil1" d="M1336.49 1360.03c4.45,12.94 8.66,16.48 11.01,32 5.48,9.11 12.6,31.06 12.33,45.18l7.33 1.31c24,-5.48 98.49,-31.19 111.6,-43.16l-22.64 -57.14c-4.96,-18.74 -1.04,-14.11 -7.51,-17.36 -19.89,6.72 -38.4,14.88 -57.02,21.14 -14.77,4.97 -44.11,11.45 -55.1,18.03z"/>
   <path class="fil10" d="M1005.9 536.03c3.4,11.81 -2.02,4.4 6.18,9.37 2.39,-11.55 12.76,-8.86 24.94,-8.39 10.24,0.4 20.64,0.94 30.89,1.43 42.35,2.02 91.72,11.47 133.54,19.31l19.68 5.11c5.89,3.03 1.52,0.09 5.78,4.18 18.19,-1.04 33.84,8.26 49.51,13.1 13.97,4.32 32.57,15.35 46.63,14.44 42.22,3.26 195.23,92.58 235.34,129.31l36.8 36.52c4.43,4.26 6.17,5.35 9.68,8.75l41.89 49.82c12.16,16.5 5.44,16.05 24.34,18.74 -0.16,-43.96 -31.36,-111.85 -57.36,-144.91 -25.94,-32.99 -8.67,-17.12 -44.36,-53.5 -15.49,-15.8 -35.33,-41.55 -56.26,-48.02 5.25,11.91 11.59,14.6 24.03,25.21 21.04,17.94 51.76,53.66 66.44,74.65 13.2,18.87 25.05,37 35.4,59.82 24.33,53.66 22.09,61.24 21.51,64.45l-1.64 4.58c-13.15,-9.15 -38.85,-46.31 -54.74,-62.13 -22.03,-21.94 -37.41,-34.38 -62.22,-54.3 -62.12,-49.89 -77.02,-53.45 -144.8,-87.91 -94.06,-47.81 -257.2,-91.18 -386.81,-85.9l-4.38 6.27z"/>
   <path class="fil9" d="M850.36 1547.65c11.56,-15.3 3.29,-45.08 17.72,-60.75 1.25,-63.48 61.3,-210.47 93.04,-271.8 27.18,-52.52 117.81,-186.44 158.72,-206.1 22.98,11.48 149.69,184.38 147.01,208.11 5.98,4.52 5.75,1.18 9.92,11.84 2.48,6.35 1.7,7.41 2.24,13.92l8.91 -1.32 5.47 -2.91 -9.17 1.4c0.38,-23.93 -20.4,-50.51 -31.61,-68.97 -13.74,-22.61 -26.03,-43.3 -39.6,-62.05 -15.86,-21.93 -74.63,-111.4 -96.23,-108.3 -13.6,5.29 -38.22,35.26 -50.68,49.64 -24.76,28.57 -18.93,18.94 -45.61,55.59 -66.6,91.44 -97.07,161.84 -134.01,270.72 -17.76,52.36 -34.4,117.9 -36.12,170.98z"/>
   <path class="fil10" d="M635.61 808.94c-21.15,4 -50.37,29.99 -69.14,44.91 -9.27,7.37 -20.83,17.09 -30,25.03 -14.26,12.33 -25.09,18.45 -24.33,27.22 13.03,5.8 38.41,-12.11 57.31,-21.68 20.79,-10.51 38.01,-18.1 59.28,-26.87 42.37,-17.47 78.04,-32.13 122.81,-44.52 62.85,-17.39 231.46,-52.35 298.96,-33.83 -7.08,-6.29 -21.94,-14.31 -32.23,-16.33 -14.32,4.56 -90.88,3.07 -128.4,11.31 -19.72,4.33 -41.16,6.65 -60.44,10.08 -98.21,17.49 -250.98,87.56 -265.45,88.7 3.46,-12.75 4.61,-11.69 14.81,-19.06l37.17 -26.86c4.43,-2.96 5.41,-2.86 9.08,-5.64l10.56 -12.45z"/>
   <path class="fil6" d="M1012.08 545.4c2.12,14.14 32.56,54.54 40.33,65.75 5.96,8.59 15.83,20.26 22.87,29.13 7.04,8.85 21.34,21.84 25.97,28.89 20.93,1.46 39.5,1.07 58.44,3.49 16.03,2.05 41.72,8.47 57.09,4.78 18.55,-4.08 90,16.21 110.09,24 -9.28,-10.96 -25.22,-12.4 -42.26,-17.05 -70.74,-19.32 -93.35,-19.2 -167.96,-25.97 -11.57,-1.05 -11.36,-0.65 -20.34,-8.37 -17.43,-15.01 -67.52,-81.98 -69.4,-104.15 30.13,-0.8 72.34,3.63 100.41,8.02 22.54,3.52 82.59,15.66 99.57,13.12 -4.26,-4.09 0.12,-1.15 -5.78,-4.18l-19.68 -5.11c-41.82,-7.84 -91.19,-17.29 -133.54,-19.31 -10.24,-0.49 -20.65,-1.03 -30.89,-1.43 -12.18,-0.47 -22.55,-3.16 -24.94,8.39z"/>
   <path class="fil11" d="M1394.1 1559.64l3.7 -0.17 3.13 -1.96c-11,-8.08 -44.61,5.05 -68.04,10.58 -40.41,9.54 -188.55,39.63 -224.78,35.25l-0.18 -99.37 242.27 -52.23c12.86,-4.67 8.87,-1.72 13.5,-11.14 -42.07,9.78 -83.47,22.54 -129.07,32.02 -35.31,7.34 -106.19,14.57 -134.48,25.01l-0.66 116.32c40.37,7.38 253.98,-42.32 294.62,-54.32z"/>
   <path class="fil12" d="M1625.76 1034.93c-5.15,25.24 -83.87,87.76 -113.51,106.35 -8.75,5.49 -18.15,7.57 -24.95,12.03 -6.08,3.99 -15.7,12.44 -23.49,12.22 -4.46,7 -1.37,3.8 -7.39,8.66 -3.42,2.76 -6.46,3.78 -10.32,5.5 -11.37,5.07 -11.31,3.28 -18.75,12.13 25.73,-4.67 59.61,-26.6 82.86,-39.89 12.78,-7.3 66.61,-47.86 69.8,-48.72 8.82,-14.92 23.73,-24.58 35.81,-39.06 8.62,-10.33 24.31,-29.93 28.71,-43.68 -2.63,-29.09 -42.35,-52.07 -67.64,-76.56 -31.04,-30.04 -167.44,-109.22 -199.78,-105.12 4.59,10.68 3.61,2.06 40.94,19.33 62.83,29.06 127.82,67.03 178.63,112.05 9.83,8.71 20.6,18.28 30.33,28.12 8.37,8.48 15.93,17.47 7.44,29.46 -4.65,6.56 -1.13,2.59 -8.69,7.18z"/>
   <path class="fil11" d="M1321.76 1359.93c-21.21,-3.06 -162.8,38.05 -213.57,34.92l1.45 -104.73c15.98,-7.76 72.36,-16.2 93.19,-19.94 24.09,-4.33 72.01,-11.17 85.1,-28.64l-8.91 1.32c-28.73,11.97 -163.13,32.39 -173.57,39.6 -4.74,6.41 -2.19,-0.42 -3.55,11.48l-1.12 46.04c-0.5,21.94 -1.03,43.69 -0.76,65.65 40.78,-1.59 124.78,-19.24 169.23,-29.35 8.82,-2.01 18.19,-4.3 27.28,-6.6 3.52,-0.89 8.76,-2.04 12.11,-3.12 0.2,-0.07 6.78,-2.59 6.95,-2.68 5.52,-2.73 2.63,-0.78 6.17,-3.94z"/>
   <path class="fil5" d="M1158.11 1263.42c-9.81,-0.11 -36.41,4.6 -45.64,7.17 -19.52,5.43 -19.13,14.3 -19.5,35.56 -2.13,121.07 -12.09,108.48 48.34,104.08 4.07,-3.18 3.5,-3.17 10.61,-5.32 0.14,-0.04 10.97,-1.78 13.52,-2.19l165.73 -33.97c13.12,17.84 2.53,13.08 16.34,23.28 -2.35,-15.52 -6.56,-19.06 -11.01,-32l-14.74 -0.09c-3.54,3.17 -0.65,1.22 -6.17,3.94 -0.17,0.08 -6.74,2.61 -6.95,2.68 -3.35,1.08 -8.6,2.23 -12.11,3.12 -9.09,2.3 -18.46,4.59 -27.28,6.6 -44.45,10.12 -128.46,27.76 -169.23,29.35 -0.26,-21.95 0.26,-43.7 0.76,-65.65l1.12 -46.04c1.37,-11.89 -1.19,-5.07 3.55,-11.48 10.43,-7.21 144.83,-27.63 173.57,-39.6 -0.54,-6.51 0.24,-7.57 -2.24,-13.92 -4.17,-10.66 -3.94,-7.32 -9.92,-11.84l4.18 18.75c-33.04,13.34 -77.01,20.3 -112.93,27.56z"/>
   <path class="fil13" d="M1653.71 1268.73c-9.77,25 -51.87,48.21 -63.09,66.67 16.15,-0.64 22.16,-10.14 32.53,-18.75 5.17,-4.3 8.11,-6.86 12.9,-11.7 5.62,-5.69 7.27,-9.09 12.7,-15.01 14.41,-15.72 34.82,-37.23 42.2,-59.28 29.94,-68.31 21.77,-83.4 29.14,-100.74 46.19,71.17 18.61,167.13 20.15,183.65 7.9,-7.43 8.92,-15.05 11.51,-27.48 9.32,-44.79 -0.57,-76.7 -4.69,-113.34 -2.39,-4.15 -9.6,-27.28 -13.13,-36.11 -4.79,-12.01 -14.61,-24.35 -15.43,-35.31 -7.96,-2.88 -3.33,-2.99 -7.48,-0.22 1.06,35.82 -4.24,69.43 -14.88,98.41 -8.45,23 -24.7,59.19 -42.44,69.21z"/>
   <path class="fil9" d="M1397.8 1559.47l-3.7 0.17c4.11,14.91 8.54,28.61 11.63,45.57 11.4,62.47 -0.09,54.04 67.9,42.39 72.92,-12.5 63.59,7.13 41.31,-114.93 -2.85,-15.65 4.02,-8.47 -5.65,-12.78l-3.08 2.28c1.86,34.1 17.07,73.53 15.17,105.69 -10.41,6.43 -84.36,19.72 -100.56,17.79 -4,-25.52 -8.01,-68.9 -23.03,-86.17z"/>
   <path class="fil14" d="M850.36 1547.65l-8.89 87.07 -26.91 0.85c-12.11,1.13 -71.98,-4.97 -79.83,-8.3 -3.24,-6.74 0.24,7.43 -3,-8.49 -2.71,-13.28 8.43,-69.43 9.26,-96.2 -2.33,3.1 -1.96,1.95 -4.02,7.58 -5.67,15.55 -9.57,87.91 -8.12,100.17 12.87,6.02 98.82,14.33 118.01,11.65l21.23 -155.08c-14.43,15.67 -6.16,45.45 -17.72,60.75z"/>
   <path class="fil6" d="M1404.41 1201.83l22.95 -10.02c7.44,-8.85 7.38,-7.06 18.75,-12.13 3.86,-1.72 6.9,-2.74 10.32,-5.5 6.02,-4.86 2.93,-1.66 7.39,-8.66 -21.75,7.3 -37.4,19.15 -57.43,22.11l-31.98 -58.97c-2.3,-4.37 -2.54,-6.45 -5.26,-9.91 -5.58,-7.09 -0.8,-4.07 -9.43,-6.55 0.03,15.11 36.48,75.74 44.7,89.62z"/>
  </g>
 </g>
</svg>
