<?xml version="1.0" encoding="UTF-8"?>
<!DOCTYPE svg PUBLIC "-//W3C//DTD SVG 1.1//EN" "http://www.w3.org/Graphics/SVG/1.1/DTD/svg11.dtd">
<!-- Creator: CorelDRAW 2020 (64-Bit Evaluation Version) -->
<svg xmlns="http://www.w3.org/2000/svg" xml:space="preserve" width="2.13333in" height="2.13333in" version="1.1" style="shape-rendering:geometricPrecision; text-rendering:geometricPrecision; image-rendering:optimizeQuality; fill-rule:evenodd; clip-rule:evenodd"
viewBox="0 0 2133.33 2133.33"
 xmlns:xlink="http://www.w3.org/1999/xlink"
 xmlns:xodm="http://www.corel.com/coreldraw/odm/2003">
 <defs>
  <style type="text/css">
   <![CDATA[
    .fil0 {fill:#010064}
    .fil1 {fill:#F59139}
    .fil2 {fill:#FCFCFC}
   ]]>
  </style>
    <mask id="id0">
  <linearGradient id="id1" gradientUnits="userSpaceOnUse" x1="1696.67" y1="700" x2="1561.37" y2="1611.28">
   <stop offset="0" style="stop-opacity:1; stop-color:white"/>
   <stop offset="1" style="stop-opacity:0; stop-color:white"/>
  </linearGradient>
     <rect style="fill:url(#id1)" x="276.57" y="771.6" width="1620.35" height="732.17"/>
    </mask>
    <mask id="id2">
  <linearGradient id="id3" gradientUnits="userSpaceOnUse" x1="1696.67" y1="700" x2="1561.37" y2="1611.28">
   <stop offset="0" style="stop-opacity:1; stop-color:white"/>
   <stop offset="1" style="stop-opacity:0; stop-color:white"/>
  </linearGradient>
     <rect style="fill:url(#id3)" x="319.9" y="223.14" width="1496.86" height="547.45"/>
    </mask>
    <mask id="id4">
  <linearGradient id="id5" gradientUnits="userSpaceOnUse" x1="1696.67" y1="700" x2="1561.37" y2="1611.28">
   <stop offset="0" style="stop-opacity:1; stop-color:white"/>
   <stop offset="1" style="stop-opacity:0; stop-color:white"/>
  </linearGradient>
     <rect style="fill:url(#id5)" x="253.23" y="578.39" width="1630.19" height="639.3"/>
    </mask>
    <mask id="id6">
  <linearGradient id="id7" gradientUnits="userSpaceOnUse" x1="1696.67" y1="700" x2="1561.37" y2="1611.28">
   <stop offset="0" style="stop-opacity:1; stop-color:white"/>
   <stop offset="1" style="stop-opacity:0; stop-color:white"/>
  </linearGradient>
     <rect style="fill:url(#id7)" x="579.9" y="1120.17" width="1282.2" height="652.02"/>
    </mask>
    <mask id="id8">
  <linearGradient id="id9" gradientUnits="userSpaceOnUse" x1="1696.67" y1="700" x2="1561.37" y2="1611.28">
   <stop offset="0" style="stop-opacity:1; stop-color:white"/>
   <stop offset="1" style="stop-opacity:0; stop-color:white"/>
  </linearGradient>
     <rect style="fill:url(#id9)" x="239.41" y="692.12" width="1324.67" height="436.4"/>
    </mask>
    <mask id="id10">
  <linearGradient id="id11" gradientUnits="userSpaceOnUse" x1="1696.67" y1="700" x2="1561.37" y2="1611.28">
   <stop offset="0" style="stop-opacity:1; stop-color:white"/>
   <stop offset="1" style="stop-opacity:0; stop-color:white"/>
  </linearGradient>
     <rect style="fill:url(#id11)" x="783.33" y="111.6" width="890.09" height="317"/>
    </mask>
    <mask id="id12">
  <linearGradient id="id13" gradientUnits="userSpaceOnUse" x1="1696.67" y1="700" x2="1561.37" y2="1611.28">
   <stop offset="0" style="stop-opacity:1; stop-color:white"/>
   <stop offset="1" style="stop-opacity:0; stop-color:white"/>
  </linearGradient>
     <rect style="fill:url(#id13)" x="654.18" y="159.81" width="1119.24" height="381.34"/>
    </mask>
    <mask id="id14">
  <linearGradient id="id15" gradientUnits="userSpaceOnUse" x1="1696.67" y1="700" x2="1561.37" y2="1611.28">
   <stop offset="0" style="stop-opacity:1; stop-color:white"/>
   <stop offset="1" style="stop-opacity:0; stop-color:white"/>
  </linearGradient>
     <rect style="fill:url(#id15)" x="433.23" y="1046.3" width="1450.19" height="570.46"/>
    </mask>
 </defs>
 <g id="Layer_x0020_1">
  <metadata id="CorelCorpID_0Corel-Layer"/>
  <g id="_2670875453888">
   <path class="fil0" style="mask:url(#id0)" d="M276.67 1190.21c0.39,17.06 21.04,64.81 28.05,81.65 9.95,23.89 24.11,50.77 36.38,73.62 7.91,14.74 73.67,120.06 92.24,130.16 152.69,16.92 300.98,41.57 458.55,18.92 152.92,-21.98 243.91,-66.67 362.01,-134.14 51.66,-29.52 102.1,-65.84 147.38,-99.17 105.37,-77.56 286.85,-238.48 402.86,-211.92 44.45,10.18 55.38,28.31 79.2,47.38l1.87 -4.88c0.17,-0.6 0.6,-1.81 0.8,-2.56 15.56,-58.98 12.15,-214.09 3.44,-275.48 -1.78,-12.52 -5.85,-27.94 -6.11,-42.09 -53.13,7.89 -135.91,66.7 -172.06,92.92 -51.3,37.2 -101.88,72.69 -154.13,109.15 -102.71,71.68 -212.39,134.61 -339.43,183.26 -122.96,47.1 -317.45,70.65 -462.78,56.46 -78.28,-7.64 -160.65,-13.29 -240.62,-22.62 -75.44,-8.8 -163.13,-19.27 -237.64,-0.67z"/>
   <path class="fil1" style="mask:url(#id2)" d="M320 578.49l157.75 76.87c363.34,155.04 812.2,152.44 1176.08,-1.52 28.54,-12.07 54.59,-23.49 81.98,-35.03 26.62,-11.21 54.58,-28.85 80.84,-38.03 -13.65,-29.86 -25.67,-51.56 -43.33,-79.2 -56.88,4.87 -108.21,16.9 -166.79,22.46 -56.84,5.4 -109.51,14.04 -166.54,15.58 -205.15,5.51 -443.03,0.57 -616.39,-116.64 -67.39,-45.56 -142.74,-121.17 -169.33,-199.74 -25.49,5.22 -122.97,80.51 -150.18,107.44 -67.17,66.46 -104.35,109.56 -154.29,192.37 -9.72,16.13 -19.93,41.48 -29.81,55.44z"/>
   <path class="fil2" style="mask:url(#id4)" d="M276.67 692.22l281.83 112.53c222.51,80.37 434.01,130.94 678.43,101.89 58.76,-6.98 113.35,-14.26 168.59,-28.39 50.52,-12.92 105.92,-29.16 158.47,-42.1 -16.01,29.68 -201.35,147.93 -240.27,171 -164.4,97.43 -305.78,121.41 -497.06,121.27 -54.89,-0.04 -147.02,-2.1 -196.01,-12.53 -24.51,-5.21 -65.24,-5.94 -94.14,-9.68 -99.78,-12.9 -183.53,-24.02 -283.18,-5.16 0.23,9.03 15.82,77.7 23.33,89.16 74.52,-18.61 162.2,-8.14 237.64,0.67 79.97,9.33 162.34,14.98 240.62,22.62 145.33,14.19 339.81,-9.36 462.78,-56.46 127.05,-48.66 236.72,-111.58 339.43,-183.26 52.25,-36.46 102.83,-71.95 154.13,-109.15 36.15,-26.21 118.92,-85.03 172.06,-92.92 -2.46,-3.76 -11.47,-40.86 -13.33,-48.46 -4.02,-16.4 -8.61,-35.93 -14.7,-51.97 -11.2,-29.54 -23.76,-66.78 -38.64,-90.48 -26.26,9.18 -54.22,26.81 -80.84,38.03 -27.4,11.54 -53.45,22.96 -81.98,35.03 -363.88,153.96 -812.74,156.56 -1176.08,1.52l-157.75 -76.87c-7.86,18.59 -15.69,34.06 -23.81,54.26 -4.94,12.28 -19.14,44.53 -19.52,59.46z"/>
   <path class="fil0" style="mask:url(#id6)" d="M580 1612.4c27.71,29.12 128.5,80.8 160.43,93.74 215.54,87.41 440.65,86.2 639.1,6.62 78.51,-31.48 117.88,-57.17 181.85,-101.49 8.78,-6.08 11.05,-8.97 18.59,-14.74 107.12,-81.94 195.03,-197.42 250,-320 7.27,-16.22 33.59,-79.34 31.97,-96.63 -56.7,-136.62 -212,-3.64 -287.81,54.22 -100.45,76.67 -159.26,121.81 -263.99,195.96 -76.29,54.01 -207.84,122.92 -311.61,148.72 -70.86,17.62 -120.56,25.78 -195.92,34.02 -75.88,8.3 -148.38,0.78 -222.59,-0.41z"/>
   <path class="fil1" style="mask:url(#id8)" d="M253.33 1101.05c99.65,-18.86 183.4,-7.74 283.18,5.16 28.9,3.74 69.63,4.46 94.14,9.68 48.99,10.43 141.13,12.49 196.01,12.53 191.28,0.14 332.66,-23.85 497.06,-121.27 38.92,-23.06 224.26,-141.31 240.27,-171 -52.55,12.94 -107.95,29.19 -158.47,42.1 -55.24,14.13 -109.83,21.41 -168.59,28.39 -244.42,29.05 -455.92,-21.52 -678.43,-101.89l-281.83 -112.53c-16.06,27.78 -36.31,150.84 -36.8,190.89 -0.57,46.63 -2.28,178.68 13.46,217.94z"/>
   <path class="fil1" style="mask:url(#id10)" d="M783.43 159.91c20.52,67.61 87.82,125.71 137.98,161.78 139.01,99.95 324.06,119.72 498.02,99.93 110.19,-12.54 157.07,-28.93 253.89,-47.95 -9.11,-14.72 -57.27,-58.29 -74.3,-72.78l-87.1 -62.9c-63.03,-38.6 -127.7,-71 -206.67,-93.33 -157.34,-44.51 -305.37,-42.41 -463.3,-2.78l-58.52 18.04z"/>
   <path class="fil2" style="mask:url(#id12)" d="M654.28 223.24c26.59,78.57 101.94,154.18 169.33,199.74 173.36,117.21 411.24,122.15 616.39,116.64 57.03,-1.54 109.7,-10.18 166.54,-15.58 58.57,-5.56 109.91,-17.59 166.79,-22.46 -6.69,-18.92 -85.06,-119.14 -100,-127.92 -96.81,19.02 -143.7,35.41 -253.89,47.95 -173.97,19.8 -359.02,0.02 -498.02,-99.93 -50.16,-36.06 -117.46,-94.17 -137.98,-161.78 -14.54,6.85 -120.35,47.06 -129.15,63.33z"/>
   <path class="fil2" style="mask:url(#id14)" d="M433.33 1475.64c10.84,19.13 49.89,55.68 67.47,73.46l79.2 63.3c74.21,1.2 146.71,8.71 222.59,0.41 75.36,-8.24 125.06,-16.39 195.92,-34.02 103.77,-25.8 235.33,-94.71 311.61,-148.72 104.74,-74.15 163.54,-119.28 263.99,-195.96 75.81,-57.86 231.11,-190.84 287.81,-54.22 9.04,-10.03 21.4,-71.7 21.4,-83.19 -23.82,-19.07 -34.75,-37.2 -79.2,-47.38 -116,-26.57 -297.48,134.36 -402.86,211.92 -45.28,33.33 -95.72,69.65 -147.38,99.17 -118.09,67.47 -209.09,112.15 -362.01,134.14 -157.57,22.65 -305.86,-2 -458.55,-18.92z"/>
  </g>
 </g>
</svg>
