<?xml version="1.0" encoding="UTF-8"?>
<!DOCTYPE svg PUBLIC "-//W3C//DTD SVG 1.1//EN" "http://www.w3.org/Graphics/SVG/1.1/DTD/svg11.dtd">
<!-- Creator: CorelDRAW 2020 (64-Bit Evaluation Version) -->
<svg xmlns="http://www.w3.org/2000/svg" xml:space="preserve" width="2.13333in" height="2.13333in" version="1.1" style="shape-rendering:geometricPrecision; text-rendering:geometricPrecision; image-rendering:optimizeQuality; fill-rule:evenodd; clip-rule:evenodd"
viewBox="0 0 2133.33 2133.33"
 xmlns:xlink="http://www.w3.org/1999/xlink"
 xmlns:xodm="http://www.corel.com/coreldraw/odm/2003">
 <defs>
  <style type="text/css">
   <![CDATA[
    .fil0 {fill:#F2AE01}
   ]]>
  </style>
 </defs>
 <g id="Layer_x0020_1">
  <metadata id="CorelCorpID_0Corel-Layer"/>
  <g id="_2670875479232">
   <path class="fil0" d="M36.4 1082.58c21.19,31.32 445.48,272.43 462.41,272.99 27.86,0.93 446.11,-239.23 468.21,-276.15 -87.69,-47.24 -397.79,-246.93 -469.05,-264.75 -78.26,36.56 -155.85,87.38 -234.27,133.48 -69.31,40.74 -171.26,89.93 -227.3,134.44z"/>
   <path class="fil0" d="M1212.83 1082.58c24.47,35.9 450.17,272.83 463.54,273.15l444.65 -249.43c1.73,-1.43 4.29,-3.69 5.86,-5.16 14.71,-13.76 6.25,-4.5 15.11,-18.57 -33.69,-26.77 -436.47,-265.3 -465.47,-264.59 -23.67,0.58 -424.09,239.41 -463.69,264.59z"/>
   <path class="fil0" d="M1149.2 432.54l0.58 544.61c50.56,-11.69 417.19,-222.48 469.41,-259.65l0.52 -536.62c-73.12,5.5 -368.54,210.98 -470.51,251.66z"/>
   <path class="fil0" d="M1148.33 1683.77c2.82,70.18 19.75,64.85 68.26,92.12 57.59,32.38 353.34,213.02 403.1,217.51l-0.65 -533.07c-4.96,-12.13 -413.66,-253.64 -469.72,-262.56l-1 486.01z"/>
   <path class="fil0" d="M556.76 715.94c58.18,38.59 442.41,257.8 468.39,260.28l1.56 -538.04c-45.35,-40.15 -439.93,-260.37 -467.67,-262.42l-2.28 540.17z"/>
   <path class="fil0" d="M559 2000c33.44,-4.19 405.62,-226.21 466.11,-258.02l-0.83 -542.42c-46.39,10.72 -431.86,230.43 -467.62,260.76l2.34 539.67z"/>
  </g>
 </g>
</svg>
