<?xml version="1.0" encoding="UTF-8"?>
<!DOCTYPE svg PUBLIC "-//W3C//DTD SVG 1.1//EN" "http://www.w3.org/Graphics/SVG/1.1/DTD/svg11.dtd">
<!-- Creator: CorelDRAW 2020 (64-Bit Evaluation Version) -->
<svg xmlns="http://www.w3.org/2000/svg" xml:space="preserve" width="2.13333in" height="2.13333in" version="1.1" style="shape-rendering:geometricPrecision; text-rendering:geometricPrecision; image-rendering:optimizeQuality; fill-rule:evenodd; clip-rule:evenodd"
viewBox="0 0 2133.33 2133.33"
 xmlns:xlink="http://www.w3.org/1999/xlink"
 xmlns:xodm="http://www.corel.com/coreldraw/odm/2003">
 <defs>
  <style type="text/css">
   <![CDATA[
    .fil0 {fill:#051D7A}
    .fil2 {fill:#090B55}
    .fil6 {fill:#091B76}
    .fil3 {fill:#0B0B5B}
    .fil1 {fill:#303D8C}
    .fil5 {fill:#FAFAFA}
    .fil4 {fill:#FCFCFC}
   ]]>
  </style>
 </defs>
 <g id="Layer_x0020_1">
  <metadata id="CorelCorpID_0Corel-Layer"/>
  <g id="_2670897036368">
   <path class="fil0" d="M721.13 1711.69c-42.43,-95.64 -198.97,-174.23 -69.16,-382.44 81.77,-131.15 205.9,-129.17 368.27,-81.62l2.65 -860.81 -70.55 107.5c-13.57,31.37 -21.74,52.98 -36.85,87.7 -141.08,324.32 -63.06,244.26 -220.19,326.78 -82.19,43.18 -468.87,704.59 -499.29,799.54l525.12 3.35z"/>
   <path class="fil1" d="M1977.87 1755.17l36.53 0 0 -1244.91 -472.37 301.11c-18.69,14.62 -21.37,18.64 -34.44,31.39 -2.46,2.41 -8.91,15.81 -10.67,12.19 -1.76,-3.67 -7.2,8.21 -10.52,12.53l491.48 887.68z"/>
   <path class="fil0" d="M1568.51 1282.33c-16.3,-39.56 -29.33,-34.3 6.78,-34.3 0,-45.74 -6.15,-3 44.89,-21.14 -42.44,-34.89 -225.5,-403.45 -281.24,-500.41l-70.18 -122.19c-21.69,-31.79 -13.37,-20.52 -31.61,-40.57l1.31 684.27c141,-38.12 227.88,-52.76 330.05,34.34z"/>
   <path class="fil2" d="M808.36 1309.5c223.42,-94.42 329.06,233.61 147.28,328.41 -213.49,111.32 -403.06,-220.29 -147.28,-328.41zm175 -34.69c-70.92,-38.36 -134.5,-42.73 -207.41,-10.67 -344,151.23 43.87,657.39 256.52,363.33l15.51 28.66c42.7,64.69 -1.04,30.47 51.52,55.34 21.94,-207.41 27.87,-1350.32 -22.58,-1482.04l-18.91 1092.21 -74.65 -46.83z"/>
   <path class="fil3" d="M1336.29 1297.91c231.16,-64.85 319.97,292.2 109.34,350.87 -256.92,71.54 -319.43,-291.93 -109.34,-350.87zm-116.31 332.83c155.3,149.59 392.69,54.44 393.9,-150.85 0.89,-153.14 -129.67,-332.53 -412.59,-162.69 5.83,-186.14 52.24,-794.75 -47.13,-907.81l5.29 1299.13c59.23,-20.8 32.66,-27.15 60.52,-77.77z"/>
   <path class="fil4" d="M808.36 1309.5c-255.78,108.12 -66.21,439.74 147.28,328.41 181.77,-94.8 76.13,-422.83 -147.28,-328.41z"/>
   <path class="fil5" d="M1336.29 1297.91c-210.09,58.94 -147.58,422.41 109.34,350.87 210.63,-58.66 121.82,-415.71 -109.34,-350.87z"/>
   <path class="fil6" d="M1568.51 1282.33c53.63,62.41 93.06,127.18 74.4,240.19 -16.65,100.78 -80.85,122.46 -112.91,187.48l333.35 -5.98 -243.17 -477.13c-51.05,18.14 -44.89,-24.59 -44.89,21.14 -36.11,0 -23.08,-5.26 -6.78,34.3z"/>
  </g>
 </g>
</svg>
