<?xml version="1.0" encoding="UTF-8"?>
<!DOCTYPE svg PUBLIC "-//W3C//DTD SVG 1.1//EN" "http://www.w3.org/Graphics/SVG/1.1/DTD/svg11.dtd">
<!-- Creator: CorelDRAW 2020 (64-Bit Evaluation Version) -->
<svg xmlns="http://www.w3.org/2000/svg" xml:space="preserve" width="2.13333in" height="2.13333in" version="1.1" style="shape-rendering:geometricPrecision; text-rendering:geometricPrecision; image-rendering:optimizeQuality; fill-rule:evenodd; clip-rule:evenodd"
viewBox="0 0 2133.33 2133.33"
 xmlns:xlink="http://www.w3.org/1999/xlink"
 xmlns:xodm="http://www.corel.com/coreldraw/odm/2003">
 <defs>
  <style type="text/css">
   <![CDATA[
    .fil6 {fill:#090201}
    .fil13 {fill:#340B02}
    .fil12 {fill:#4C0E03}
    .fil26 {fill:#731C05}
    .fil17 {fill:#782707}
    .fil24 {fill:#9C3B09}
    .fil10 {fill:#A4420A}
    .fil30 {fill:#AD4A0B}
    .fil25 {fill:#B64609}
    .fil11 {fill:#C4590D}
    .fil15 {fill:#C95509}
    .fil8 {fill:#DB730D}
    .fil0 {fill:#E2650A}
    .fil2 {fill:#E36A0D}
    .fil5 {fill:#E6650D}
    .fil23 {fill:#E8760C}
    .fil22 {fill:#E99719}
    .fil21 {fill:#E9A825}
    .fil27 {fill:#EFC423}
    .fil7 {fill:#F3790E}
    .fil28 {fill:#F3F1A8}
    .fil4 {fill:#F47E15}
    .fil29 {fill:#F4E548}
    .fil16 {fill:#F4E857}
    .fil31 {fill:#F6EB77}
    .fil20 {fill:#F7A927}
    .fil14 {fill:#F7C729}
    .fil19 {fill:#FBA31C}
    .fil9 {fill:#FBA423}
    .fil18 {fill:#FBFAE8}
    .fil3 {fill:#FE8E15}
    .fil1 {fill:#FE8F15}
   ]]>
  </style>
 </defs>
 <g id="Layer_x0020_1">
  <metadata id="CorelCorpID_0Corel-Layer"/>
  <g id="_2670874488000">
   <path class="fil0" d="M664.89 1026.87c-0.68,24.76 -5.2,30.87 -5.16,90.45 0.09,153.96 3.16,265.74 100.15,400.08 16.68,23.09 27.07,33.16 45.05,52.93l10.04 10.6c16.17,15.49 30.61,32.42 45.04,36.62l17.35 -1.31c36.03,-8.22 -20.83,6.59 40.24,-38.81 0.52,0.25 4.48,7.77 14.97,9.06 16.91,2.09 -8.96,-34 47.92,41.08 4.11,-46.99 26.38,-31.27 51.62,-16.76 5.48,3.15 -0.75,-2.99 6.94,4.7 4.37,4.39 2.94,4.76 7.46,11.07 33.76,2.78 17.46,-5.87 35.59,6.8 11.01,7.69 51.35,10.86 39.82,48.47 -3.79,12.36 -7.43,10.73 -16.3,23.37 21.34,0 77.5,-4.08 90.33,-10.31 -10.35,-20.76 -28.22,-27.35 -37.3,-35.05 -1.07,-0.9 -6.41,-6.24 -7.8,-8.02l-9.42 -16.03c-11.33,-17.06 -8,-8.37 -32.56,-18.37 -12.68,-5.17 -2.36,2.19 -12.21,-6.41 20.62,-5.87 16.22,-9.61 37.06,-6.61 -20.47,-31.59 -38.81,-29.06 -83.14,-43.01l-91.75 -38.13c-13.96,8.23 -18.81,19.55 -39.66,25.44 -39.28,11.09 -14.8,2.21 -24.49,-4.75l-15.34 -11.84c-0.78,-0.54 -2.49,-1.33 -3.55,-2.24 0.27,-12.4 0.5,-20.49 5.97,-30.56l12.81 -12.86c0.91,-0.63 2.3,-1.31 3.24,-1.91l6.52 -3.81c81.01,-51.24 91.4,-58.77 174.25,-56.32 -11,-10.93 3.35,-2.2 -12.33,-7.44 -9.48,-3.17 -9.87,-2.21 -19.7,-3.15 -18.89,-1.8 -15.26,1.33 -29.9,-6.39l40.87 -0.67c-9.54,-21.82 3.07,-2.07 -21.39,-15.84l56.7 -0.45c-16.61,-10.82 -27.06,-6.99 -40.87,-15l40.97 0.94c-27.93,-48.27 -59.51,-18.15 -68.18,-185.21 -0.79,-15.24 0.06,-9.9 0.96,-32.41 2.07,-51.61 2.7,-94.62 10.43,-139.53 4.61,-26.82 23.23,-105.76 17.26,-128.86l2.73 -20.51c-11.28,5.94 -70.24,30.41 -90.76,47.78 -39.84,33.72 -45.28,14.76 -80.77,32.9l-6.58 3.8c-71.34,31.03 -41.58,-28.51 -162.38,49.25l-21.02 14.65c-21.78,14.57 -6.83,10.24 -19.4,18.6 -8.57,-8.54 -1.81,6.68 -10.31,-10.01z"/>
   <path class="fil1" d="M154.35 1215.31l5.16 108.3c15.6,-10.44 26.26,-31.6 38.17,-49.5 38.07,-57.2 152.76,-199.49 210.88,-248.08l50.04 -42.78c10.39,-8.01 14.91,-13.16 25.07,-21.34 65.36,-52.59 20.82,-36.37 69.25,-157.65l81.61 -191.71c28.18,-58.94 72.45,-118.11 107.71,-170.76 -27.5,6.41 -83.75,46.8 -108.54,61.64 -36.11,21.61 -66.5,43.85 -100.69,69.49 -88.43,66.29 -194.35,166.49 -251.44,259.09 -65.84,106.81 -127.22,243.01 -127.22,383.31z"/>
   <path class="fil2" d="M1463.2 1117.33l-0.55 16.1c10.58,-10.87 3.77,12 9.75,-19.58 7.58,20.7 20.36,18.53 20.39,64.93 0.02,21.68 -6.96,-1.26 2.23,28.2 18.53,-5.19 14.5,-16.83 30.26,-33.59 7.68,-8.17 2.35,-2.39 7.81,-6.98l29.67 -26.41c-0.52,-18.52 -12.58,-41.89 11.77,-54.01l10.68 -3.14c11.86,-1.96 19.39,13.06 31.04,26.01l18.15 20c9.5,-1.94 10.4,-2.48 19.27,-4.99 2.06,-0.59 3.03,-0.9 5.13,-1.51 2.24,-0.65 3.35,-0.98 5.44,-1.6l11.38 -3.4c-4.87,21.57 -3.97,16.34 -12.41,33.87 -4.02,8.34 -1.99,5.11 -6.96,13.03l-7.3 10.27c-0.64,0.87 -1.85,2.41 -2.8,3.59 -5,18.81 -2,1.88 6.84,9.26l25.39 -16.42c2.85,41.17 -17.59,19.96 -38.09,64.26 16.49,17.68 10.83,3.15 21.83,22.67l6.86 3.85c29.74,-15.11 8.33,-35.21 19.02,-54.67l49.53 -50.93 29.23 14.19c-4.86,26.58 -18.35,37.75 -9,54.93 0.3,0.56 1.43,1.7 1.76,2.17l8.95 14.07c12.29,-21.59 5.99,-28.48 35.38,-36.48 -14.16,39.55 2.37,39.57 11.27,67.02 19.57,-23.39 33.67,-50.76 50.4,-78.28 37.29,-61.34 113.11,-225.68 114.39,-282.7 -14.55,-6.98 -26.84,-10.8 -42.95,-18.93 -112.07,-56.59 -222.66,-77.81 -338.67,-104.83l-26.41 87.04c-8.75,26.13 -19.77,60.63 -32,86.61 -13.07,27.76 -22.52,50.13 -36.12,77.33l-40.55 79.07z"/>
   <path class="fil1" d="M711.3 807.91c18.27,-1.52 9.77,-0.26 23.81,-7.13 87.33,-42.75 176.71,-80.04 272.36,-104.09 20.47,-5.15 104.18,-20.14 111.6,-27.65l80.41 -192.9c16.03,-31.89 28.04,-57.95 45.94,-88.14l53.76 -85.47 -1.94 0 -128.36 0 -3.52 0.26c-40.54,3.17 -78.97,13.6 -117.6,21.63 -105.41,21.93 -109.3,32.04 -163.24,110.08 -49.35,71.41 -107.62,182.13 -140.13,267.27 -9.87,25.86 -31.07,81.69 -33.1,106.14z"/>
   <path class="fil3" d="M1624.08 570.69c0,42.68 -5.16,64.63 -5.16,108.3l156.81 39.15c46.34,11.88 149.16,53.42 192.16,76.19 43.74,23.16 37.8,20.06 37.8,-58.61 0,-228.56 -186.72,-410.26 -397.72,-432.55 -2.28,-0.24 -4.63,-0.45 -7.05,-0.63l-109.28 0 -1.65 0 27.51 18.91c14.66,8.84 16.76,11.9 28.09,23.48 52.48,53.65 78.49,145.29 78.49,225.77z"/>
   <path class="fil4" d="M292.52 1617.55c0.92,-0.93 2.44,-3.58 2.88,-2.68l8.48 -7.74c7.6,-7.39 5.85,-4.73 11.62,-13.82 10.69,-16.84 2.09,-20 28.32,-23.5 -9.5,-10.73 -8.18,-5.54 -8.88,-24.46 1.09,-0.73 3.05,-2.64 3.59,-1.59 0.03,0.06 14.5,-2.66 25.23,-20.85l50.52 -71.79c0.23,-0.74 0.38,-2.43 0.67,-3.12l11.06 -9.58 -19.45 -11.91c5.66,-8.39 5.4,-4.04 5.35,-25.59 6.78,-1.7 18.02,-4.07 24.81,-6.61 8.52,-3.18 0.67,1.19 10.49,-4.93 19.65,-12.22 9.55,-15.17 9.52,-15.35 -0.79,-4.18 -9.09,8.88 0.69,-10.84 0.21,-0.41 1.11,-1.58 1.37,-2.01l9.7 -15.94c16.74,-48.47 -1.81,-3.38 23.63,-44.67 0.43,-0.7 1.16,-2.31 1.87,-3.38l11.02 32.34 -10.6 -124.25c-3.93,-49.2 0.28,-74.19 0.28,-129.2 -19.16,5.11 -17.86,11.67 -32.5,24.23l-151.92 147.18 -105.44 136.94c-27.09,39.61 -21.84,38.11 -3.43,82.92 16.13,39.26 61.55,127.35 91.11,150.21z"/>
   <path class="fil5" d="M292.52 1617.55c22.23,34.09 32.52,37.82 63.62,61.21 21.57,16.22 53.36,35.86 83.59,41.93 35.69,-27.63 39.69,-16.58 75.95,-24.37l15.96 -5.65c18.46,-11.55 7.94,-19.82 33,-33.67 13.08,-7.23 1.79,3.09 13.42,-7.22 10.65,-9.44 7.77,-18.13 14.95,-32.11 8.23,-16.07 7.58,-5.61 13.67,-20.06 4.94,-11.73 6.22,-20.2 11.81,-31.11l20.62 9.46c-10.94,-26.27 -23.44,-26.55 -44.32,-53.35 -15.21,-19.53 -25.04,-33.2 -36.54,-56.28 -44.37,-88.99 -31.26,-86.6 -49.95,-130.22l-3.28 -6.6 -11.02 -32.34c-0.72,1.07 -1.45,2.69 -1.87,3.38 -25.45,41.28 -6.89,-3.8 -23.63,44.67l-9.7 15.94c-0.26,0.43 -1.16,1.6 -1.37,2.01 -9.79,19.72 -1.48,6.67 -0.69,10.84 0.04,0.19 10.13,3.13 -9.52,15.35 -9.82,6.12 -1.96,1.75 -10.49,4.93 -6.8,2.54 -18.04,4.91 -24.81,6.61 0.05,21.55 0.31,17.2 -5.35,25.59l19.45 11.91 -11.06 9.58c-0.29,0.69 -0.44,2.38 -0.67,3.12l-50.52 71.79c-10.74,18.2 -25.2,20.91 -25.23,20.85 -0.54,-1.04 -2.5,0.86 -3.59,1.59 0.7,18.91 -0.62,13.72 8.88,24.46 -26.23,3.5 -17.63,6.66 -28.32,23.5 -5.77,9.09 -4.02,6.43 -11.62,13.82l-8.48 7.74c-0.44,-0.9 -1.96,1.75 -2.88,2.68z"/>
   <path class="fil6" d="M1495.02 1206.98c-14.89,-9.33 -2.85,4.6 -18.04,-15.23 -2.4,-3.13 -6.38,-11.58 -9.22,-16.2 -6.12,-9.97 -11.56,-21.93 -19.02,-32.1 -14.16,8.89 -18.67,22.77 -29.39,37.32 -12.33,16.76 -18.56,21.52 -26.57,39.7 2.7,31.24 36.71,124.75 59.7,150.93l12.94 14.09c-26,23.17 -23.83,6.81 -61.7,9.78 -13.86,12.47 -13.48,7.83 -21.34,30.56l0.11 27.79 12.6 1.32 -0.98 24.22 0.24 2.2c9.33,-3.86 9.02,-4.64 18.3,-8.61l-1.66 17.26 17.27 -0.79c0.87,-0.91 2.27,-3.54 2.69,-2.65 0.42,0.87 2.12,-2.11 2.69,-2.63 63.33,-56.94 12.94,-13.56 122.42,-54.38 0.98,-1.04 0.96,-2.31 8.25,-6.37 7.03,-3.91 7.24,-3.42 13.59,-5.7 11,-3.95 20.1,-6.86 30.69,-11.15 30.39,-26.96 50.15,-36.48 98,-32.48l4.84 11.83c5.46,13.79 -2.98,1.76 5.47,13.74 11.2,-13.5 25.16,-20.39 31.68,-39.72 -7.16,-17.89 -13.17,-15.14 -39.22,-15.04 -16.72,12.99 -39.04,10.47 -64.66,11.48 -0.71,-0.76 -1.59,-2.23 -1.93,-2.49 -0.3,-0.23 -1.52,-1.79 -1.89,-1.98 -0.3,-0.16 -1.48,-1.04 -1.85,-1.13 -7.13,-1.66 -4.54,5.73 -30,6.85l8 -30.79c-19.59,2.58 -1.95,-1.39 -10.43,13.21 -14.86,25.57 -7.25,13.07 -13.38,14.76l-13.92 -170.88c-1.81,-28.02 1.78,-33.78 -16.56,-43.71l-29.67 26.41c-5.45,4.59 -0.13,-1.18 -7.81,6.98 -15.76,16.75 -11.73,28.4 -30.26,33.59z"/>
   <path class="fil6" d="M1078.57 1424.43c-82.85,-2.44 -93.24,5.09 -174.25,56.32l-6.52 3.81c-0.94,0.6 -2.33,1.28 -3.24,1.91l-12.81 12.86c-5.46,10.06 -5.7,18.15 -5.97,30.56 1.06,0.91 2.78,1.7 3.55,2.24l15.34 11.84c9.69,6.96 -14.78,15.84 24.49,4.75 20.85,-5.89 25.7,-17.21 39.66,-25.44l91.75 38.13c44.33,13.95 62.67,11.41 83.14,43.01 15.91,1.35 17.57,5.4 34.55,10.16 13.12,3.67 30.3,4 48.38,3.14 20.47,2.36 38.02,16 45.4,-13.69 23.9,16.87 26.6,2.23 28.24,0.43l7.28 -3.68c-6.78,-16.87 -27.01,-10.58 5.81,-24.47l-9.37 -5.74c-20.5,-3.44 -42.86,-10.01 -58.86,-22.02 -25.98,-12.54 -87.58,-64.65 -97.23,-87.31 68.32,-26.06 103.04,-21.05 132.69,-34.48 -55.15,-49.4 -97.1,34.16 -192.04,-2.31z"/>
   <path class="fil7" d="M664.89 1026.87c8.5,16.69 1.74,1.47 10.31,10.01 12.57,-8.36 -2.38,-4.03 19.4,-18.6l21.02 -14.65c120.8,-77.76 91.04,-18.22 162.38,-49.25l6.58 -3.8c35.49,-18.13 40.93,0.82 80.77,-32.9 20.52,-17.37 79.48,-41.83 90.76,-47.78l-2.73 20.51c15.32,-14.49 12.16,-33.93 21.55,-65.3 10.94,-36.55 4.58,-30.22 -31.39,-20.54 -74.1,19.95 -185.27,53.07 -253.14,87.58 -20.63,10.49 -36.44,15 -56.4,26.12 -9.83,5.47 -17.21,9.27 -26.67,14.59 -13.36,7.52 -16.04,10.52 -32.14,14.27 0,30.12 -9.76,50.37 -10.31,79.72z"/>
   <path class="fil8" d="M1221.84 1373.79c19.79,7.03 30.3,16.17 50.11,23.64 25.94,9.78 25.33,18.89 45.08,26.31 11.58,9.37 5.21,4.87 20.41,11.78 3.96,1.8 6.71,2.61 11.02,4.64 6.15,2.9 8.07,3.98 10.5,5.57l8.64 6.41 14.9 1.49 -0.11 -27.79 -31.59 14.55c-6.55,-25.46 -14.05,-18.44 -38.04,-23.12 -4.83,-22.22 -10.47,-22.86 -14.86,-43.2 22.44,8.6 14.72,18.22 52.55,31.34l-13.73 -35.86c-28.86,-52.16 3.1,-49.76 22.94,-40.07 10.32,5.04 51.17,39.85 44.07,65.8 37.87,-2.96 35.7,13.4 61.7,-9.78l-12.94 -14.09c-22.99,-26.18 -57,-119.69 -59.7,-150.93 -15.94,9.73 -7.1,3.79 -18.57,18.35l-59.53 64.18c-17.7,13.36 -24.8,24.84 -44.25,38.26 -14.35,9.91 -39.98,22.89 -48.6,32.53z"/>
   <path class="fil9" d="M1078.57 1424.43c94.94,36.46 136.89,-47.09 192.04,2.31 -29.65,13.43 -64.36,8.41 -132.69,34.48 9.65,22.66 71.24,74.77 97.23,87.31 1.91,-28.44 3.36,4.2 -0.07,-16.93 -3.74,-23.17 6.59,14.57 -2.08,-6.14l5.64 -42.94c14.59,-16.77 1.26,15.61 13.44,-21.99 9.3,-28.71 14.77,-17.37 21.35,-13.13 1.04,-11.94 -11.3,-28.47 43.59,-23.66 -19.75,-7.42 -19.14,-16.52 -45.08,-26.31 -19.81,-7.47 -30.32,-16.61 -50.11,-23.64 -21.74,4.27 -42.26,15.09 -62.55,16.4 -29.67,1.91 -42.22,-14.22 -66.38,-13.76l-40.97 -0.94c13.8,8 24.26,4.17 40.87,15l-56.7 0.45c24.46,13.77 11.86,-5.98 21.39,15.84l-40.87 0.67c14.65,7.72 11.02,4.59 29.9,6.39 9.84,0.94 10.22,-0.02 19.7,3.15 15.69,5.24 1.33,-3.49 12.33,7.44z"/>
   <path class="fil10" d="M1668.98 1261.74c-17.98,20.56 -10.28,3.33 -17.18,30.18 35.41,-3.39 10.8,4.57 28.02,-16.74 0.72,-0.89 1.44,-2.19 2.1,-3.08 7.27,-9.7 15.36,-25.73 31.74,-28.4l10.65 16.54c5.11,10 3.99,3.56 6.51,16.94l-17.3 -2.73c-11.57,3.68 -13.56,17.2 -17.94,27.02 12.51,-3.52 14.06,2.8 21.23,11.83l-7.43 31.35c26.06,-0.1 32.07,-2.85 39.22,15.04 18.81,-13.89 53.85,-64.87 66.54,-87.67 -8.9,-27.44 -25.43,-27.46 -11.27,-67.02 -29.39,8.01 -23.09,14.89 -35.38,36.48l-8.95 -14.07c-0.33,-0.47 -1.46,-1.62 -1.76,-2.17 -9.35,-17.18 4.14,-28.35 9,-54.93l-29.23 -14.19 -49.53 50.93c-10.7,19.46 10.71,39.56 -19.02,54.67z"/>
   <path class="fil11" d="M1562.76 1140c18.33,9.93 14.74,15.69 16.56,43.71l13.92 170.88c6.13,-1.7 -1.48,10.81 13.38,-14.76 8.48,-14.6 -9.16,-10.63 10.43,-13.21 22.36,-16.7 5.29,-14.02 37.95,-28.77 6.8,21.13 -2.69,3.41 18.08,20.6l-4.9 22.2c-8.7,-36.76 48.16,-27.43 29.5,-17.04 11.22,-15.48 -2.23,-4.21 19.11,-10.29 -7.17,-9.04 -8.72,-15.36 -21.23,-11.83 4.39,-9.82 6.37,-23.34 17.94,-27.02l17.3 2.73c-2.52,-13.38 -1.4,-6.94 -6.51,-16.94l-10.65 -16.54c-16.38,2.67 -24.47,18.7 -31.74,28.4 -0.66,0.89 -1.38,2.19 -2.1,3.08 -17.22,21.31 7.39,13.35 -28.02,16.74 6.91,-26.85 -0.8,-9.62 17.18,-30.18l-6.86 -3.85 -16.61 22.13c-9.76,-14.58 -7.59,-8.92 -11.89,-7.99 -3.99,15.02 -1.9,3.35 -3.44,16.62 -0.12,1.04 -0.95,19.02 -0.97,19.46l-11.04 -5.8c-10.13,-16.68 0.04,-12.68 0.25,-13.04l-9.81 29.02c-9.04,-29.97 2.37,-52.05 -8.57,-106.58l7.75 -37.63c2.07,15.82 4.64,29.79 9.08,41.9 3.44,-9.76 4.19,-19.94 8.54,-28.88 1.84,-3.78 3.62,-9.02 8.85,-11.41 17.1,-7.83 -2.02,-15.2 11.87,2.44 0.96,-1.18 2.17,-2.72 2.8,-3.59l7.3 -10.27c4.97,-7.92 2.94,-4.69 6.96,-13.03 8.44,-17.53 7.55,-12.3 12.41,-33.87l-11.38 3.4c-2.09,0.62 -3.2,0.96 -5.44,1.6 -2.11,0.61 -3.07,0.93 -5.13,1.51 -8.87,2.51 -9.78,3.06 -19.27,4.99l-18.15 -20c-11.65,-12.95 -19.18,-27.97 -31.04,-26.01l-10.68 3.14c-24.35,12.12 -12.29,35.49 -11.77,54.01z"/>
   <path class="fil12" d="M860 1617.55c13.03,16.77 68.13,47.59 89.14,56.11 35.1,14.23 69.56,26.25 117.99,26.46 3.04,-3.21 14.26,6.5 4.95,-22.73l-15.26 -18.56c3.7,4.83 -4.03,8.93 6.31,2.74l14.28 -18.21c-17.85,-6.54 -19.06,-3.06 -43.13,-4.31 -0.82,-0.04 -2.31,-0.26 -3.2,-0.24l-25.84 5.25c-3.69,-47.75 1.42,-17.53 -14.98,-31.63 -0.77,20.65 2.22,9.65 -9.8,15.15 -56.88,-75.08 -31.02,-38.99 -47.92,-41.08 -10.49,-1.3 -14.45,-8.81 -14.97,-9.06 -61.07,45.4 -4.21,30.58 -40.24,38.81l-17.35 1.31z"/>
   <path class="fil13" d="M520.47 1741.31c38.93,17.31 138.22,0.21 182.5,-13.49l36.2 -15.35c1.37,-0.7 5.47,-2.89 6.63,-3.52 0.83,-0.45 2.52,-1.49 3.18,-1.86 0.66,-0.37 2.17,-1.15 3.15,-1.87l2.38 -25.76c-1.59,-0.83 -3.89,-2.59 -4.47,-1.36l-12.7 -4.17c-5.41,-4.41 0.19,11.23 -3.61,-6.9 -0.09,-0.46 -0.26,-13.07 -0.34,-14.27l-7.84 3.54c-12.84,3.95 -0.69,1.77 -9.13,2.26 -39.95,2.33 -20.56,5.81 -51.52,18.64 -16.98,-10.72 -25.02,-33.43 -44.72,-2.04 -46.75,74.51 -90.27,40.97 -99.7,66.16z"/>
   <path class="fil14" d="M1235.15 1548.53c16,12.01 38.35,18.58 58.86,22.02 -9.43,-9.21 -5.37,-11.14 -5.13,-12.33 28.58,-14.37 22.7,5.09 53.23,6.61 -14.57,-18.42 -24.72,-21.39 -35.5,-30.2 -8.13,-6.65 -31.52,-25.43 -17.72,-47.48l37.11 27.07c10.62,12.3 7.93,23.28 24.8,31.51 -0.08,0.01 1.06,16.2 -7.44,-4.52 -6.65,-16.19 1.1,-17.47 1.1,-17.47 18.44,5.37 3.61,0.29 10.63,7.27 14.64,14.52 9.48,23.69 28.75,20.91 -1.9,-9.37 -2.25,-2.43 -5.48,-9.46l4.42 -12.68 53.41 21.26c-11.65,-24.4 -6.41,-9 -24.22,-20.95 -6.3,-4.22 -13.71,-13.55 -17.79,-19.12l-15.59 -4.15c-20.91,18.07 12.34,1.77 -9.21,5.58 -38.04,6.73 -71.71,-37.08 -59.41,-57.93 9.17,-15.53 -11.18,-7.34 49,-8.73 -2.43,-1.58 -4.35,-2.67 -10.5,-5.57 -4.31,-2.03 -7.06,-2.85 -11.02,-4.64 -15.2,-6.91 -8.83,-2.41 -20.41,-11.78 -54.89,-4.81 -42.56,11.72 -43.59,23.66 -6.58,-4.23 -12.05,-15.57 -21.35,13.13 -12.18,37.6 1.15,5.22 -13.44,21.99l-5.64 42.94c8.67,20.71 -1.66,-17.04 2.08,6.14 3.43,21.14 1.98,-11.51 0.07,16.93z"/>
   <path class="fil15" d="M439.73 1720.69c4.24,3.79 -1.17,1.36 8.54,5.54 8.19,3.53 4.6,2.2 15.53,4.65 11.86,2.66 18.97,4.28 30.33,5.28 17.95,-24.19 61.28,-11.22 84.7,-44.83 2.34,-3.36 28.25,-69.76 86.06,-37.95 16.83,-20.45 1.96,-29.67 41.25,-27.49l-32.45 -27.51c-18.7,-13.91 -23.48,-21.72 -34.58,-22.41l-20.62 -9.46c-5.59,10.91 -6.87,19.38 -11.81,31.11 -6.08,14.44 -5.43,3.99 -13.67,20.06 -7.18,13.98 -4.3,22.67 -14.95,32.11 -11.63,10.32 -0.33,-0 -13.42,7.22 -25.06,13.85 -14.54,22.12 -33,33.67l-15.96 5.65c-36.26,7.78 -40.26,-3.26 -75.95,24.37z"/>
   <path class="fil16" d="M1294.01 1570.55l9.37 5.74c-32.82,13.89 -12.59,7.61 -5.81,24.47l-7.28 3.68c25.17,9.89 8.6,37.43 32.72,48.23 13.05,5.85 1.19,5.04 22.59,3.14 20.5,0.93 46.56,-8.18 60.8,-22.79 3.2,-12.32 1.4,-10.02 7.6,-19.07 11.64,-17 22.7,-13.49 26.96,-42.81 -42.04,-17.18 -43.91,7.26 -98.85,-6.31 -30.53,-1.52 -24.65,-20.98 -53.23,-6.61 -0.24,1.19 -4.3,3.13 5.13,12.33z"/>
   <path class="fil17" d="M494.13 1736.16c11.39,5.3 8.85,4.11 26.34,5.16 9.43,-25.19 52.95,8.35 99.7,-66.16 19.7,-31.39 27.74,-8.68 44.72,2.04 30.96,-12.83 11.57,-16.3 51.52,-18.64 8.44,-0.49 -3.71,1.69 9.13,-2.26l7.84 -3.54c0.08,1.2 0.24,13.81 0.34,14.27 3.81,18.13 -1.8,2.49 3.61,6.9l12.7 4.17c0.58,-1.24 2.88,0.52 4.47,1.36l-2.38 25.76c20.29,-10.23 45.61,-22.49 52,-46.41 -16.49,-3.84 -34.94,-10.01 -50.91,-16.13 -17.9,-6.86 -28.59,-17.94 -47.08,-16.78 -39.29,-2.18 -24.43,7.04 -41.25,27.49 -57.81,-31.8 -83.72,34.59 -86.06,37.95 -23.42,33.61 -66.75,20.63 -84.7,44.83z"/>
   <path class="fil18" d="M1458.71 1569.85c2.21,22.76 -1.59,24.3 20.97,25.35 21,-6.96 66.56,-37.63 86.16,-55 20.06,-17.78 1.17,-39.32 -13.28,-41.28 -20.84,-5.93 -14.84,-9.07 -36.78,-13.75 -8.41,6.26 -3.31,2.82 -9.95,9.37 -17.55,17.34 1.8,5.38 -16.6,8.61 -27.65,4.86 -11.48,4.92 -36.8,15.89l6.27 50.81z"/>
   <path class="fil19" d="M1195.95 1694.91c16.76,0 33.16,-1.78 42.9,-3.55 10.36,-1.88 11.97,-1.09 21.29,-4.43 14.93,-5.33 10.04,-2.06 18.43,-11.39 -14.25,1.3 -19.41,3.39 -28.81,-2.62 -9.54,-6.1 -2.09,-0.38 -5.78,-10.88l-3.7 -9.63c-6.3,-11.47 -18.37,-23.76 -32.08,-25.93 15.6,2.96 1.19,1.63 8.46,-8.79 -18.09,0.86 -35.26,0.54 -48.38,-3.14 -16.98,-4.76 -18.64,-8.81 -34.55,-10.16 -20.85,-3 -16.44,0.75 -37.06,6.61 9.85,8.6 -0.47,1.25 12.21,6.41 24.55,10 21.23,1.31 32.56,18.37l9.42 16.03c1.39,1.78 6.73,7.11 7.8,8.02 9.07,7.69 26.94,14.29 37.3,35.05z"/>
   <path class="fil20" d="M1382.38 1425.83c7.86,-22.73 7.48,-18.09 21.34,-30.56 7.09,-25.95 -33.75,-60.75 -44.07,-65.8 -19.84,-9.69 -51.8,-12.09 -22.94,40.07l13.73 35.86c-37.83,-13.11 -30.11,-22.74 -52.55,-31.34 4.39,20.34 10.04,20.98 14.86,43.2 24,4.69 31.5,-2.34 38.04,23.12l31.59 -14.55z"/>
   <path class="fil21" d="M1428.26 1489.22c21.18,3.87 19.83,6.77 35.96,15.89l16.63 -11.26c19.17,-9.09 35.28,-18.12 50.43,-14.68 23.84,5.41 15.17,5.28 21.3,19.75 14.45,1.96 33.33,23.51 13.28,41.28 10.63,-4.35 10.43,-6.59 22.11,-15.47 -4.12,-21.47 -3.53,-37.28 -9.77,-51.93 -6.98,-16.39 -14.84,-23.39 -22.13,-43.24 -109.48,40.82 -59.09,-2.56 -122.42,54.38 -0.57,0.52 -2.28,3.5 -2.69,2.63 -0.41,-0.89 -1.81,1.74 -2.69,2.65z"/>
   <path class="fil22" d="M1342.11 1564.82c54.94,13.57 56.81,-10.87 98.85,6.31 -4.25,29.31 -15.32,25.81 -26.96,42.81 -6.2,9.05 -4.4,6.76 -7.6,19.07l64.39 -29.86c7.81,-5.74 2.81,-1.2 8.89,-7.96 -22.57,-1.06 -18.76,-2.6 -20.97,-25.35 -18.64,-8.86 -10.71,-6.89 -22.54,-18.81l-53.41 -21.26 -4.42 12.68c3.24,7.03 3.59,0.09 5.48,9.46 -19.27,2.77 -14.11,-6.39 -28.75,-20.91 -7.03,-6.98 7.81,-1.9 -10.63,-7.27 0,0 -7.75,1.28 -1.1,17.47 8.51,20.72 7.37,4.53 7.44,4.52 -16.88,-8.23 -14.19,-19.21 -24.8,-31.51l-37.11 -27.07c-13.8,22.06 9.6,40.84 17.72,47.48 10.78,8.82 20.93,11.78 35.5,30.2z"/>
   <path class="fil23" d="M1608.59 1406.33l7.86 16.95c-1.24,22.79 -2.81,20.54 -6.91,35.21l5.06 18.84c18.21,-26.37 -12.26,-8.66 18.98,-24.78 14.45,-7.46 20.41,-4.78 26.64,-20.62 27.2,15.16 3.45,-6.48 15.41,15.44l41.28 -47.94c-8.45,-11.98 -0.01,0.05 -5.47,-13.74l-4.84 -11.83c-47.86,-4.01 -67.62,5.52 -98,32.48z"/>
   <path class="fil24" d="M1662.12 1257.89c-11,-19.53 -5.33,-4.99 -21.83,-22.67 20.5,-44.3 40.94,-23.09 38.09,-64.26l-25.39 16.42c-8.84,-7.38 -11.85,9.55 -6.84,-9.26 -13.89,-17.63 5.23,-10.26 -11.87,-2.44 -5.23,2.39 -7.02,7.64 -8.85,11.41 -4.35,8.94 -5.09,19.13 -8.54,28.88 -4.44,-12.11 -7.01,-26.07 -9.08,-41.9l-7.75 37.63c10.94,54.53 -0.47,76.61 8.57,106.58l9.81 -29.02c-0.21,0.37 -10.39,-3.63 -0.25,13.04l11.04 5.8c0.02,-0.44 0.85,-18.42 0.97,-19.46 1.54,-13.27 -0.55,-1.6 3.44,-16.62 4.3,-0.93 2.13,-6.59 11.89,7.99l16.61 -22.13z"/>
   <path class="fil25" d="M1556.06 1429.56c7.29,19.85 15.15,26.84 22.13,43.24 6.24,14.65 5.65,30.46 9.77,51.93 3.64,-4.7 34.89,-31.2 41.28,-36.09 18.33,-14.04 25.68,-25.52 46.38,-41.26 -11.96,-21.92 11.79,-0.29 -15.41,-15.44 -6.23,15.83 -12.19,13.16 -26.64,20.62 -31.24,16.12 -0.77,-1.59 -18.98,24.78l-5.06 -18.84c4.11,-14.67 5.68,-12.42 6.91,-35.21l-7.86 -16.95c-10.59,4.3 -19.68,7.2 -30.69,11.15 -6.35,2.28 -6.57,1.8 -13.59,5.7 -7.29,4.06 -7.27,5.33 -8.25,6.37z"/>
   <path class="fil26" d="M980.48 1627.57c12.01,-5.51 9.03,5.49 9.8,-15.15 16.39,14.11 11.28,-16.11 14.98,31.63l25.84 -5.25c0.89,-0.02 2.38,0.2 3.2,0.24 24.07,1.26 25.28,-2.22 43.13,4.31l-14.28 18.21c-10.35,6.19 -2.62,2.08 -6.31,-2.74l15.26 18.56c9.31,29.24 -1.92,19.52 -4.95,22.73l15.82 4.85c6.09,0.83 16.17,0.24 22.67,0.24 8.87,-12.64 12.51,-11.01 16.3,-23.37 11.52,-37.61 -28.81,-40.78 -39.82,-48.47 -18.13,-12.67 -1.83,-4.02 -35.59,-6.8 -4.52,-6.31 -3.09,-6.69 -7.46,-11.07 -7.69,-7.69 -1.46,-1.55 -6.94,-4.7 -25.24,-14.5 -47.51,-30.22 -51.62,16.76z"/>
   <path class="fil27" d="M1216.66 1617.71c-7.27,10.42 7.14,11.74 -8.46,8.79 13.7,2.17 25.78,14.46 32.08,25.93l3.7 9.63c3.69,10.5 -3.77,4.78 5.78,10.88 9.41,6 14.56,3.92 28.81,2.62 14.46,3.37 18.03,1.49 34.1,-2.94 0.02,0 15.03,-4.81 15.71,-5.12 18.89,-8.57 6.44,-0.06 17.23,-11.68 -21.4,1.9 -9.54,2.71 -22.59,-3.14 -24.12,-10.8 -7.55,-38.33 -32.72,-48.23 -1.64,1.8 -4.33,16.44 -28.24,-0.43 -7.38,29.69 -24.93,16.05 -45.4,13.69z"/>
   <path class="fil28" d="M1394.35 1481.36l-0.18 29.6c4.07,5.57 11.49,14.9 17.79,19.12 17.81,11.95 12.57,-3.45 24.22,20.95 11.83,11.93 3.9,9.95 22.54,18.81l-6.27 -50.81c25.32,-10.96 9.15,-11.02 36.8,-15.89 18.4,-3.23 -0.95,8.73 16.6,-8.61 6.63,-6.56 1.54,-3.11 9.95,-9.37 21.94,4.68 15.93,7.82 36.78,13.75 -6.12,-14.47 2.55,-14.33 -21.3,-19.75 -15.14,-3.44 -31.25,5.59 -50.43,14.68l-16.63 11.26c-16.13,-9.12 -14.78,-12.02 -35.96,-15.89l-17.27 0.79 1.66 -17.26c-9.28,3.97 -8.97,4.75 -18.3,8.61z"/>
   <path class="fil23" d="M1617.05 1326.61l-8 30.79c25.46,-1.12 22.87,-8.51 30,-6.85 0.37,0.08 1.54,0.97 1.85,1.13 0.38,0.19 1.6,1.75 1.89,1.98 0.33,0.26 1.21,1.72 1.93,2.49 25.62,-1.01 47.94,1.51 64.66,-11.48l7.43 -31.35c-21.33,6.07 -7.88,-5.19 -19.11,10.29 18.66,-10.38 -38.2,-19.72 -29.5,17.04l4.9 -22.2c-20.77,-17.19 -11.29,0.53 -18.08,-20.6 -32.66,14.74 -15.59,12.07 -37.95,28.77z"/>
   <path class="fil29" d="M1394.17 1510.96l0.18 -29.6 -0.24 -2.2c-14.88,-0.42 -24.1,-3.45 -34.83,-7.25l6.91 34.76c-20.63,-3.22 -31.34,-4.04 -32.7,-28.83 -1.44,-26.42 7.09,-23.3 34.1,-25.71l-8.64 -6.41c-60.17,1.39 -39.83,-6.8 -49,8.73 -12.3,20.85 21.37,64.66 59.41,57.93 21.55,-3.81 -11.7,12.49 9.21,-5.58l15.59 4.15z"/>
   <path class="fil30" d="M1463.2 1117.33c-11.45,9.67 -10.44,8.33 -14.46,26.12 7.46,10.17 12.9,22.13 19.02,32.1 2.84,4.62 6.82,13.07 9.22,16.2 15.19,19.83 3.16,5.9 18.04,15.23 -9.19,-29.46 -2.21,-6.52 -2.23,-28.2 -0.03,-46.4 -12.8,-44.23 -20.39,-64.93 -5.98,31.59 0.83,8.72 -9.75,19.58l0.55 -16.1z"/>
   <path class="fil31" d="M1394.11 1479.16l0.98 -24.22 -12.6 -1.32 -14.9 -1.49c-27.01,2.41 -35.54,-0.7 -34.1,25.71 1.36,24.78 12.07,25.61 32.7,28.83l-6.91 -34.76c10.74,3.8 19.95,6.83 34.83,7.25z"/>
  </g>
 </g>
</svg>
