<?xml version="1.0" encoding="UTF-8"?>
<!DOCTYPE svg PUBLIC "-//W3C//DTD SVG 1.1//EN" "http://www.w3.org/Graphics/SVG/1.1/DTD/svg11.dtd">
<!-- Creator: CorelDRAW 2020 (64-Bit Evaluation Version) -->
<svg xmlns="http://www.w3.org/2000/svg" xml:space="preserve" width="2.13333in" height="2.13333in" version="1.1" style="shape-rendering:geometricPrecision; text-rendering:geometricPrecision; image-rendering:optimizeQuality; fill-rule:evenodd; clip-rule:evenodd"
viewBox="0 0 2133.33 2133.33"
 xmlns:xlink="http://www.w3.org/1999/xlink"
 xmlns:xodm="http://www.corel.com/coreldraw/odm/2003">
 <defs>
  <style type="text/css">
   <![CDATA[
    .fil1 {fill:#221E1F}
    .fil0 {fill:#D02149}
   ]]>
  </style>
 </defs>
 <g id="Layer_x0020_1">
  <metadata id="CorelCorpID_0Corel-Layer"/>
  <g id="_2670673368480">
   <path class="fil0" d="M252.5 876.66l146.54 48.46c23.42,8.26 24.06,13.36 48.46,19.04 -8.81,33.01 -55.42,58.39 -93.32,86.68l-148.71 128.79c-38.74,37.23 -110.47,111.63 -110.47,167.02 0,57.56 88.54,14.18 118.37,5.85 222.56,-62.13 417.64,-110.64 610,45.78 20.02,16.29 10.16,16.29 36.64,23.36 -25.83,-96.74 -222.53,-210 -367.49,-210 -130.6,0 -119.16,14.59 -217.51,37.5 24.18,-36.09 63.21,-60.52 99.64,-87.85 66.67,-50.03 221.98,-159.48 273.67,-206.35 39.27,-35.59 52.52,-71.65 -4.97,-71.92 -17.86,-0.09 -22.7,6.14 -53.34,6.14l-142.49 0c-75.9,0 -125.63,-15 -195.01,-15l0 22.5z"/>
   <path class="fil0" d="M1025 1199.16c37.76,-162.06 9.71,-172.5 90,-172.5 -1.18,52.57 -25.63,120.05 -30,172.5l97.5 0c0,-35.94 9.35,-64.47 15.6,-96.9 14.31,-74.28 5.49,-75.59 66.9,-75.59 0,64.81 -22.5,105.74 -22.5,172.5l105 0c8.51,-102.24 84.13,-262.5 -22.5,-262.5 -89.63,0 -56.71,17.1 -105,30 -39.15,-26.22 -9.99,-30 -75,-30 -35.87,0 -46.58,8.49 -67.5,22.5l-7.5 -22.5 -97.5 0c-13.31,57.15 -21.83,113.89 -34.37,175.63 -21.66,106.61 -35.5,86.87 86.87,86.87z"/>
   <path class="fil0" d="M1677.49 1199.16l105.01 0c7.05,-30.26 11.46,-60.29 18.06,-94.44 15.28,-79.09 12.65,-78.06 71.94,-78.06 -1.26,56.52 -28.75,115.98 -30,172.5l105 0c3.68,-44.11 21.17,-106.62 29.1,-151.01 16.98,-95.06 -4.49,-111.49 -74.1,-111.49 -44.91,0 -44.79,14.43 -74.99,22.5l0 -22.5 -97.5 0c-10.16,21.18 -49.54,226.99 -52.5,262.5z"/>
   <path class="fil0" d="M1550 996.66l7.5 0c24.94,0 21.96,13.46 22.5,37.5l-60 0c1.86,-22.37 5.39,-37.5 30,-37.5zm-142.5 97.5c0,122.21 158.65,117.14 198.83,86.33 15.89,-12.19 24.24,-48.19 26.16,-71.33 -59.25,13.81 -106.19,36.74 -119.99,-22.5l142.49 0c2.54,-30.42 7.5,-18.67 7.5,-67.5 0,-127.89 -255,-119.77 -255,75z"/>
   <path class="fil0" d="M807.5 996.66c24.94,0 21.97,13.46 22.5,37.5l-60 0c5.16,-22.11 11.15,-37.5 37.5,-37.5zm-142.5 75c0,63.97 9.61,127.5 112.5,127.5 99.49,0 82.19,-26.83 112.5,-90 -31.51,2.62 -109.64,44.41 -127.5,-22.5l142.5 0c24.87,-106.75 -14.99,-177.76 -131.81,-147.16 -58.48,15.31 -108.19,63.19 -108.19,132.17z"/>
   <path class="fil0" d="M80 1086.66c0,65.59 10.81,77.34 22.5,127.5 13.24,-6.35 24.27,-8.65 37.5,-15 -81.4,-153.84 51.85,-390 225,-390 60.26,0 97.32,-5.07 150.22,22.41 33.78,17.55 43.17,36.11 67.28,0.09 -57.25,-78.15 -300.01,-94.26 -414.44,35.56 -46.57,52.83 -88.05,122.91 -88.05,219.44z"/>
   <path class="fil1" d="M1115 764.16l-15 0c0,-35.09 2.19,-52.61 22.5,-67.49 12.8,26.66 -0.59,38.61 -7.5,67.49zm-105 -60c-9.07,17.15 -45.44,91.2 -61.19,75.44 -9.99,-9.98 2.06,-36.04 11.08,-50.29 13.13,-20.71 19.54,-24.48 50.11,-25.16zm-112.5 67.5c0,45.07 57.39,22.5 105,22.5 17.46,-26.09 37.68,-81.15 60,-97.49 -1.24,55.83 -64.88,112.82 97.5,74.99 8.85,-38.01 48.91,-105.97 -103.71,-89.06 -45.05,5 -158.79,2.04 -158.79,89.06z"/>
   <path class="fil1" d="M1827.5 719.16l22.5 0c-29.55,55.84 4.35,9.48 -17.8,86.66 -6.25,21.78 -4.7,23.72 -4.7,48.34l45 0c0,-46.35 10.1,-49.67 20.85,-84.81 14.24,-46.58 0.91,2.89 -1.07,-31.42 -1.63,-28.28 71.98,-69.44 35.41,59.46 -16.64,58.67 -15.38,56.78 42.3,56.78 0,-101.32 26.64,-94.49 0,-150 -65,-15.14 -39.42,-4.83 -97.49,0 13.59,-28.31 6.57,-31.76 0,-60l-2.99 0c-61.34,0.06 -42.01,2.48 -42.01,74.99z"/>
   <path class="fil1" d="M1602.5 1266.66c0,92.28 -13.32,142.5 22.5,142.5 34.82,0 22.5,-59.82 22.5,-97.5 29.07,19.47 28.79,29.08 50.72,54.28 26.76,30.73 33.03,40.52 40.46,43.22l28.81 0 0 -165 -37.5 0 0 97.49c-50.72,-33.96 -62.81,-97.49 -105,-97.49 -17.28,0 -22.5,5.22 -22.5,22.5z"/>
   <path class="fil1" d="M1272.5 1334.16l30 0c24.94,0 21.97,13.46 22.5,37.5l-52.5 0 0 -37.5zm32.83 75l-70.33 0 0 -165c44.86,0 84.59,-6.43 109.5,10.5l18.01 19.49c-2.79,33.46 -14.5,28.52 -10.2,49.39 1.61,7.74 12.68,19.05 17.7,40.61 -4.13,31.82 -32.83,42.11 -64.67,45zm-32.83 -135l30 0c22.68,0 20.74,8.83 22.5,30l-52.5 0 0 -30z"/>
   <path class="fil1" d="M1812.49 1266.66c0,92.28 -13.31,142.5 22.5,142.5 32.5,0 22.5,-34.11 22.5,-67.5 56,37.51 32.94,67.5 127.51,67.5 -21.84,-32.61 -54.3,-63.61 -90,-82.5l76.63 -80.89c-83.44,-2.77 -43.72,18.74 -114.14,65.89 0,-33.41 10,-67.5 -22.5,-67.5 -17.27,0 -22.5,5.22 -22.5,22.5z"/>
   <path class="fil1" d="M830 734.17c-23.22,1.98 -14.17,-0.1 -30,7.49 0,-55.75 3.26,-52.49 -52.5,-52.49 41.78,87.07 -66.05,164.99 45,164.99 -10.42,-21.72 0,-55.32 0,-105l30 0c0,48.07 -7.5,61.96 -7.5,105l52.5 0c-16.6,-34.58 7.5,-119.55 7.5,-172.5l-45 0 0 52.5z"/>
   <path class="fil0" d="M417.5 1371.65c-132.68,0 -98.5,-20.26 -172.5,-37.5 -3.99,17.09 -5.82,17.25 -7.5,37.5 80.15,18.67 51.39,37.5 180,37.5 95.89,0 152.36,-51.41 210,-90l-23.78 -28.84c-49.63,32.69 -93,81.35 -186.22,81.35z"/>
   <path class="fil1" d="M1482.5 1289.16c6.67,28.61 15.84,31.39 22.5,60l-60 0c12.58,-23.78 16.7,-44.76 37.5,-60zm97.5 120l-37.73 0c-7.89,-2.1 -9.92,-9.15 -14.78,-30l-97.5 0c-7.77,29.09 -10.12,29.22 -45,30 2.66,-31.94 24.94,-64.86 37.5,-90 58.05,-116.2 64.47,-88.74 114.96,5.04 16.22,30.12 34.32,49.68 42.54,84.96z"/>
   <path class="fil1" d="M1497.5 741.66c0,65.9 -4.04,60.01 52.5,60.01 -10.18,-21.22 -8.42,-36.49 -8.25,-67.85 0.25,-44.97 -4.52,-41.06 23.24,-59.64 50.64,33.9 3.43,98.09 22.5,179.99l45 0c-17.94,-77 43.7,-222.39 -75.34,-188.48 -34.11,9.72 -59.65,35.5 -59.65,75.98z"/>
   <path class="fil1" d="M1190 674.17c9.13,39.2 3.3,12.79 0,52.49 62.26,-5.18 36.98,-30.13 67.5,-52.49 17.7,36.87 -5.6,32.3 -15,67.49l45 0c-15.26,28.83 -44.13,73.35 -45,112.5l52.5 0c0.87,-39.15 29.74,-83.67 45,-112.5 -20.85,-10 -14.53,-7.49 -45,-7.49 49.88,-94.27 -30.57,-67.79 -105,-60z"/>
   <path class="fil1" d="M1662.5 674.17c0,35.69 -15.8,59.14 16.74,48.28 34.48,-11.51 16.51,-35.89 50.76,-48.28 13.4,28.97 -6.54,31.19 -15,67.49l37.5 0c-9.5,40.78 -33.56,63.44 -45,112.5 80.56,0 54.11,-13.01 62.43,-34.58 12.38,-32.13 31.95,-48.02 35.07,-85.41l-37.51 0c7.31,-31.37 14.13,-20.61 15.01,-60 -64.66,-15.07 -63,-5.97 -120,0z"/>
   <path class="fil0" d="M650 951.67c6.36,27.28 4.15,24.04 22.5,37.5 11.54,-17.23 14.34,-15.07 15,-45 -14.25,1.19 -26.26,3.14 -37.5,7.5z"/>
   <path class="fil0" d="M657.5 1206.66c17.1,3.98 17.25,5.81 37.5,7.49 -2.54,-30.58 -3.85,-30.52 -30,-37.5 -1.49,17.41 -1.65,19.18 -7.5,30z"/>
  </g>
 </g>
</svg>
