<?xml version="1.0" encoding="UTF-8"?>
<!DOCTYPE svg PUBLIC "-//W3C//DTD SVG 1.1//EN" "http://www.w3.org/Graphics/SVG/1.1/DTD/svg11.dtd">
<!-- Creator: CorelDRAW 2020 (64-Bit Evaluation Version) -->
<svg xmlns="http://www.w3.org/2000/svg" xml:space="preserve" width="2.13333in" height="2.13333in" version="1.1" style="shape-rendering:geometricPrecision; text-rendering:geometricPrecision; image-rendering:optimizeQuality; fill-rule:evenodd; clip-rule:evenodd"
viewBox="0 0 2133.33 2133.33"
 xmlns:xlink="http://www.w3.org/1999/xlink"
 xmlns:xodm="http://www.corel.com/coreldraw/odm/2003">
 <defs>
  <style type="text/css">
   <![CDATA[
    .fil0 {fill:#00ADEE}
    .fil4 {fill:#126D8E}
    .fil2 {fill:#275465}
    .fil3 {fill:#2B6C84}
    .fil1 {fill:#3E6979}
   ]]>
  </style>
 </defs>
 <g id="Layer_x0020_1">
  <metadata id="CorelCorpID_0Corel-Layer"/>
  <g id="_2670893005296">
   <path class="fil0" d="M992.31 1090.35l-4.38 -4.89c-153.5,247.52 -454.79,-116.39 -199.07,-229.24 107.07,-47.24 216.5,28.24 224.47,143.69 7.59,109.95 45.57,193.2 144.37,249.46 204.48,116.44 453.57,-61.52 411.13,-295.28 -28.81,-158.65 -196.64,-265.87 -351.41,-217.85 -29.76,9.23 -109.1,47.65 -121.54,75.54l54.73 109.47c3.13,3.83 0.32,0.55 4.76,2.91 63.93,-104.93 206.97,-109.79 274.48,-5.81 68.14,104.95 -7.1,244.63 -131.14,247.96 -57.13,1.54 -108.02,-25.17 -139.78,-72.49 -38.93,-58 -20.21,-110.68 -39.99,-175.35 -33.7,-110.19 -125.16,-176.02 -235.9,-194.28l-63.43 0c-189.07,30.69 -309.2,229 -216.04,407.02 82.5,157.65 321,214.91 444.02,68.27l-2.63 1.37 -52.67 -110.5z"/>
   <path class="fil0" d="M1844.96 824.69c176.75,-24.14 223.15,259.93 29.7,283.85 -176.22,21.78 -222.37,-257.52 -29.7,-283.85zm-181.03 695.71l4.69 0c19.4,-29.01 60.07,-48.53 56.91,-87.35l-18.57 -15.58 12.57 -40.72 -18.35 -12.31 15.58 -73.05c-9.34,-12.67 -27.83,-14.22 -16.2,-35.24 3.39,-6.13 25.84,-18.04 33.94,-23.37l0.51 -58.44c85.68,38.7 157.24,52.99 244.27,2.67 92.31,-53.37 90.48,-99.2 122.06,-185.74l0 -48.89c-24.06,-96.85 -63.61,-174.08 -166.74,-205.89 -96.73,-29.84 -206.39,0.85 -266.68,84.39 -66.98,92.8 -47.28,213.26 -47.28,323.74 0,61.61 0,123.22 0,184.84 0,27.66 -11.98,158.2 20.52,161.42 4.26,-13.42 1.14,-179.5 1.14,-208.14 0,-1.16 -9.59,-238.3 20.43,-177.44 3.53,7.15 1.2,373.11 1.2,415.09z"/>
   <path class="fil0" d="M104.68 968.72l0 64.98c15.69,104.5 72.76,192.31 173.72,231.78 61.31,23.96 110.86,26.91 174.58,10.2 31.4,-8.24 110.64,-46.9 124.31,-76.36l-55.97 -112.28 -4.76 0.15c-91.37,144.31 -294.36,72.29 -295.07,-80.65 -0.31,-67.47 47.17,-132.21 110.33,-154.76 82.49,-29.46 130,5.96 179.1,65.74l60.41 -111.79c-25.23,-20.68 -38.65,-34.94 -68.82,-50.8 -31.45,-16.53 -68.05,-19.78 -90.11,-30.76l-52.06 0c-74.2,20.51 -110.42,23.72 -170.15,79.39 -62.24,58 -59.91,92.41 -85.5,165.16z"/>
   <path class="fil0" d="M946.99 1354.99c48.41,-18.91 63.29,81.94 19.48,93.14 -51.74,13.23 -61.39,-76.76 -19.48,-93.14zm-62.05 55.73c7.61,93.55 152.26,87.71 142.71,-18.29 -8.73,-96.9 -150.94,-82.8 -142.71,18.29z"/>
   <path class="fil0" d="M136.75 1410.22c16,-0 42.01,-1.22 41.7,20.8 -0.29,20.39 -25.44,20.05 -41.38,19.21l-0.32 -40.01zm1.01 -57.59c12.96,-1.2 38.63,-2.1 37.13,17.03 -1.38,17.63 -25.34,16.67 -38.27,16.67l1.13 -33.7zm-33.09 120.72c25.52,3.05 71.6,4.89 93.18,-10.07 25.11,-17.41 20.74,-56.91 -12.19,-67.08 78.17,-53.61 -28.08,-72.2 -80.99,-65.74l0 142.89z"/>
   <path class="fil0" d="M1290.65 1473.69c0,-19.2 -8.74,-78.92 16.69,-79.94 25.63,-1.04 15.47,62.6 15.47,80.27l32.84 -0.33c0,-19.69 -11.15,-93.07 25.67,-78.11l4.19 -0.18 2.31 78.62 32.83 -0.33c0,-20.82 3.43,-75.13 -6.07,-91.11 -19.96,-33.58 -48.75,-6.94 -64.2,-0.67 -19.19,-13.96 -40.1,-26.49 -61.24,-1.02l1.37 -4.2 -32.09 -10.44c-1.97,8.31 -0.63,92.22 -0.6,107.77l32.84 -0.33z"/>
   <polygon class="fil0" points="583.72,1369.62 543.4,1370.2 514.5,1411.64 514.13,1321.7 480.71,1321.82 480.69,1473.98 512.96,1473 518.17,1433.09 523.68,1432.49 549.26,1473.98 590,1473.46 547.59,1410.74 "/>
   <path class="fil0" d="M690.85 1391.33c30.99,-7.46 34.33,54.25 8.48,60.33 -30.35,7.13 -36.6,-53.57 -8.48,-60.33zm57.97 45.8c23.07,-72.59 -87.73,-98.12 -108.34,-32.93 -22.67,71.69 85.91,103.51 108.34,32.93z"/>
   <path class="fil0" d="M1175.65 1392.01c30.7,-10.83 37.45,47.15 14.38,58.3 -31.71,15.31 -41.07,-48.89 -14.38,-58.3zm-48.74 43.09c14.7,65.25 122.98,52.37 110,-27.54 -10.22,-62.91 -128.02,-52.44 -110,27.54z"/>
   <path class="fil0" d="M293.2 1425.33c0.77,10.09 1.53,16.78 -6.55,23.21 -22.66,18.05 -44.66,-24.78 6.55,-23.21zm35 48.65c-3.13,-29.26 6.39,-82.45 -18.61,-99.57 -12.43,-8.52 -83.73,-20.5 -66.15,20.85l48.56 -2.18 -0.14 7.7c-1.26,1.68 -88.66,8.66 -57.61,61.08 8.95,15.11 32.47,18.03 48.14,10.35 17.74,-8.69 11.94,1.76 45.81,1.76z"/>
   <path class="fil0" d="M384.91 1379.21l-3.57 2.43 -1.27 -11.37 -28.93 -0.52 0.46 104.22 33.96 0c0,-19.44 -9.05,-79.63 17.83,-80.41 27.82,-0.8 17.59,61.35 17.59,80.55l34.2 -1.19c0,-62.04 12.08,-130.23 -70.26,-93.72z"/>
   <path class="fil0" d="M1564.91 1425.33c3,33 -22.65,28.87 -26.99,24.81 -2.6,-2.43 -15.13,-26.06 26.99,-24.81zm33.98 47.8c-2.73,-42 14.02,-101.63 -42.6,-106.07 -15.84,-1.24 -54.16,-1.13 -44.79,21.56 7.03,17.02 44.43,-14.35 52.23,12.01 -8.42,10.43 -62.1,-3.14 -62.37,42.58 -0.21,35.61 36.26,39.95 62.53,23.27l35 6.65z"/>
   <path class="fil0" d="M761.34 1391.01l15.5 2.35 0.11 80.64 31.99 -0.67 0 -74.7 27.68 -23.26 -5.83 -5.85c-61.38,0 1.87,-23.31 5.06,-25.54l0.38 -23.66c-15.12,-0.24 -41.45,-5.61 -55.02,19.44 -6.53,12.05 -1.47,20.99 -8.75,27.28 -11.67,10.09 -11.78,-3.73 -11.13,23.96z"/>
   <path class="fil0" d="M1083.72 1473.98c0,-14.58 -3.07,-59.12 4.51,-68.95 14.33,-18.58 38.08,10.2 26.93,-38l-2.31 -4.06 -30.64 17.95 -30.46 -16.01 -2.08 108.89 34.04 0.17z"/>
   <polygon class="fil0" points="1448.2,1473.69 1481.98,1473.98 1481.98,1369.4 1448.05,1370.5 "/>
   <path class="fil0" d="M1447.93 1345.72c5.29,18.79 41.39,11.65 33.81,-11.71 -4.98,-15.38 -41.26,-14.76 -33.81,11.71z"/>
   <path class="fil1" d="M776.96 1474l-0.11 -80.64 -15.5 -2.35 1.45 3.24 12.15 0c0,15.28 -3.33,70.64 2.02,79.75z"/>
   <polygon class="fil2" points="384.91,1379.21 380.07,1370.28 381.34,1381.64 "/>
   <polygon class="fil2" points="992.31,1090.35 991.74,1084.12 987.94,1085.46 "/>
   <path class="fil3" d="M1155.39 924.16c-4.44,-2.35 -1.64,0.93 -4.76,-2.91l0.61 5.77 4.15 -2.87z"/>
   <polygon class="fil4" points="516.56,1087.2 521.31,1087.05 519.82,1083.85 "/>
  </g>
 </g>
</svg>
