<svg height="512pt" viewBox="0 0 512 512" width="512pt" xmlns="http://www.w3.org/2000/svg"><path d="m300.6875 364.6875-28.6875 28.6875v-89.375h-32v89.375l-28.6875-28.6875-22.625 22.625 67.3125 67.3125 67.3125-67.3125zm0 0" fill="#9562b7"/><path d="m480 512h-448v-192h-32v-32h64v192h384v-192h64v32h-32zm0 0" fill="#a477bd"/><path d="m416 160c0 88.367188-71.632812 160-160 160s-160-71.632812-160-160 71.632812-160 160-160 160 71.632812 160 160zm0 0" fill="#ffcb5a"/><path d="m256 112h48v-32h-32v-32h-32v34.945312c-18.574219 6.621094-32 24.222657-32 45.054688 0 26.464844 21.535156 48 48 48 8.816406 0 16 7.167969 16 16s-7.183594 16-16 16h-48v32h32v32h32v-34.945312c18.574219-6.621094 32-24.222657 32-45.054688 0-26.464844-21.535156-48-48-48-8.816406 0-16-7.167969-16-16s7.183594-16 16-16zm0 0" fill="#fff"/><g fill="#ffcb5a"><path d="m160 448h-64v-64h32v32h32zm0 0"/><path d="m416 448h-64v-32h32v-32h32zm0 0"/></g></svg>