<?xml version="1.0" encoding="UTF-8"?>
<!DOCTYPE svg PUBLIC "-//W3C//DTD SVG 1.1//EN" "http://www.w3.org/Graphics/SVG/1.1/DTD/svg11.dtd">
<!-- Creator: CorelDRAW 2020 (64-Bit Evaluation Version) -->
<svg xmlns="http://www.w3.org/2000/svg" xml:space="preserve" width="2.64161in" height="0.520811in" version="1.1" style="shape-rendering:geometricPrecision; text-rendering:geometricPrecision; image-rendering:optimizeQuality; fill-rule:evenodd; clip-rule:evenodd"
viewBox="0 0 2641.61 520.81"
 xmlns:xlink="http://www.w3.org/1999/xlink"
 xmlns:xodm="http://www.corel.com/coreldraw/odm/2003">
 <defs>
  <style type="text/css">
   <![CDATA[
    .str0 {stroke:black;stroke-width:13.33;stroke-miterlimit:2.61313}
    .str1 {stroke:white;stroke-width:83.33;stroke-miterlimit:2.61313;stroke-dasharray:416.673228 250.003937}
    .fil2 {fill:none}
    .fil0 {fill:white}
    .fil1 {fill:white;fill-rule:nonzero}
   ]]>
  </style>
 </defs>
 <g id="Layer_x0020_1">
  <metadata id="CorelCorpID_0Corel-Layer"/>
  <path class="fil0" d="M119.84 114.14c95.76,-39.43 136.52,105.1 59.13,132.27 -106.1,37.25 -140.47,-98.78 -59.13,-132.27zm29.71 309.76c30.82,-53.84 76.2,-120.67 97.85,-190.35 26.78,-86.2 -16.74,-167.23 -104.46,-163.74 -203.11,8.11 -52.46,279 6.62,354.08z"/>
  <path class="fil0" d="M2512.83 60.35c89.33,-36.79 127.36,98.04 55.17,123.39 -98.98,34.75 -131.04,-92.15 -55.17,-123.39zm27.72 288.97c28.75,-50.23 71.09,-112.57 91.28,-177.57 24.98,-80.41 -15.62,-156.01 -97.45,-152.75 -189.48,7.56 -48.94,260.27 6.17,330.32z"/>
  <path id="path278" class="fil1" d="M1586.62 405.65l-114.16 121.52c-4.34,4.76 -10.77,7.56 -17.5,7.74l-19.75 0.5c-7.93,0.2 -13.32,-7.57 -10.17,-14.49l56.41 -120.28c1.2,-2.42 3.59,-4.01 6.43,-4.07l93.21 -2.36c6.28,-0.17 9.87,6.95 5.53,11.45z"/>
  <g>
   <path id="path280" class="fil1" d="M1460.07 256.7l137.72 131.63c5.11,4.87 1.53,13.18 -5.62,13.37l-106.19 2.69c-3.24,0.08 -6.13,-1.59 -7.5,-4.27l-71.93 -133.56c-4.09,-7.7 1.53,-16.85 10.74,-17.08l22.33 -0.56c7.67,-0.21 15.17,2.61 20.45,7.79l0 -0zm0 0l0 0 0 0z"/>
  </g>
  <circle class="fil0 str0" cx="2544.52" cy="411.57" r="42"/>
  <line class="fil2 str1" x1="310.2" y1="403.9" x2="2383.53" y2= "403.9" />
 </g>
</svg>
