<?xml version="1.0" encoding="UTF-8"?>
<!DOCTYPE svg PUBLIC "-//W3C//DTD SVG 1.1//EN" "http://www.w3.org/Graphics/SVG/1.1/DTD/svg11.dtd">
<!-- Creator: CorelDRAW 2020 (64-Bit Evaluation Version) -->
<svg xmlns="http://www.w3.org/2000/svg" xml:space="preserve" width="4.26666in" height="0.520811in" version="1.1" style="shape-rendering:geometricPrecision; text-rendering:geometricPrecision; image-rendering:optimizeQuality; fill-rule:evenodd; clip-rule:evenodd"
viewBox="0 0 4266.66 520.81"
 xmlns:xlink="http://www.w3.org/1999/xlink"
 xmlns:xodm="http://www.corel.com/coreldraw/odm/2003">
 <defs>
  <style type="text/css">
   <![CDATA[
    .str1 {stroke:black;stroke-width:13.33;stroke-miterlimit:2.61313}
    .str0 {stroke:black;stroke-width:13.33;stroke-miterlimit:2.61313;stroke-dasharray:66.673228 40.003937}
    .fil1 {fill:none}
    .fil3 {fill:black}
    .fil0 {fill:#020202}
    .fil2 {fill:#2D2D2D;fill-rule:nonzero}
   ]]>
  </style>
 </defs>
 <g id="Layer_x0020_1">
  <metadata id="CorelCorpID_0Corel-Layer"/>
  <path class="fil0" d="M166.56 84.65c68.44,-28.19 97.58,75.12 42.26,94.54 -75.83,26.63 -100.41,-70.6 -42.26,-94.54zm21.23 221.41c22.03,-38.48 54.46,-86.25 69.94,-136.05 19.14,-61.61 -11.96,-119.54 -74.67,-117.04 -145.18,5.8 -37.5,199.42 4.73,253.09z"/>
  <line class="fil1 str0" x1="276.67" y1="373.74" x2="3863.33" y2= "383.74" />
  <path class="fil0" d="M3932.81 88.83c68.44,-28.19 97.58,75.12 42.26,94.54 -75.83,26.63 -100.41,-70.6 -42.26,-94.54zm21.23 221.41c22.03,-38.48 54.46,-86.25 69.94,-136.05 19.14,-61.61 -11.96,-119.54 -74.67,-117.04 -145.18,5.8 -37.5,199.42 4.73,253.09z"/>
  <path id="path278" class="fil2" d="M2181.4 385.88l-87.67 93.31c-3.33,3.65 -8.27,5.8 -13.44,5.94l-15.17 0.38c-6.09,0.15 -10.23,-5.81 -7.81,-11.13l43.32 -92.37c0.92,-1.86 2.76,-3.08 4.94,-3.13l71.58 -1.81c4.83,-0.13 7.58,5.33 4.25,8.8z"/>
  <g>
   <path id="path280" class="fil2" d="M2087.06 279.57l92.83 88.73c3.44,3.29 1.03,8.88 -3.79,9.01l-71.58 1.81c-2.18,0.06 -4.13,-1.07 -5.05,-2.88l-48.49 -90.03c-2.76,-5.19 1.04,-11.35 7.24,-11.51l15.05 -0.38c5.17,-0.14 10.23,1.76 13.79,5.25l0 -0zm0 0l0 0 0 0z"/>
  </g>
  <circle class="fil3 str1" cx="190" cy="377.07" r="40"/>
  <circle class="fil3 str1" cx="3956.66" cy="378.07" r="36"/>
 </g>
</svg>
