<?xml version="1.0" encoding="UTF-8"?>
<!DOCTYPE svg PUBLIC "-//W3C//DTD SVG 1.1//EN" "http://www.w3.org/Graphics/SVG/1.1/DTD/svg11.dtd">
<!-- Creator: CorelDRAW 2020 (64-Bit Evaluation Version) -->
<svg xmlns="http://www.w3.org/2000/svg" xml:space="preserve" width="8.72913in" height="2.79166in" version="1.1" style="shape-rendering:geometricPrecision; text-rendering:geometricPrecision; image-rendering:optimizeQuality; fill-rule:evenodd; clip-rule:evenodd"
viewBox="0 0 8729.13 2791.66"
 xmlns:xlink="http://www.w3.org/1999/xlink"
 xmlns:xodm="http://www.corel.com/coreldraw/odm/2003">
 <defs>
  <style type="text/css">
   <![CDATA[
    .fil0 {fill:#020202}
    .fil1 {fill:#727272}
    .fil3 {fill:#0F0605;fill-rule:nonzero}
    .fil2 {fill:#2D2D2D;fill-rule:nonzero}
    .fil4 {fill:white;fill-rule:nonzero}
   ]]>
  </style>
 </defs>
 <g id="Layer_x0020_1">
  <metadata id="CorelCorpID_0Corel-Layer"/>
  <path class="fil0" d="M323.94 1338.58c-82.29,-145.63 33.62,-263.45 144.83,-189.28 80.74,53.85 84.6,254.76 -144.83,189.28zm84.69 288.59c48.55,-86.94 117.15,-187.35 154.11,-300.47 44.24,-135.41 -16.9,-251.61 -152.25,-257.26 -302.82,-12.65 -149.62,395.69 -1.86,557.73z"/>
  <path class="fil0" d="M7688.2 1301.33c99.85,54.2 102.61,-14.28 103.83,-15.69 -93.1,-45.89 -103.51,15.24 -103.83,15.69z"/>
  <path class="fil0" d="M4478.24 1820.91c42.8,-90.87 -30.8,-100.8 -31.28,-101.13 -39.33,64.12 26.26,97.26 31.28,101.13z"/>
  <path class="fil0" d="M1562.74 1581.09c81.56,-17.7 14.63,-3.85 43.17,-28.76 -4.04,-1.92 10.7,-26.52 -60.77,-11.3 -86.91,18.5 -10.98,0.52 -44.1,26.99 5.39,3.37 -14.45,29.61 61.7,13.07z"/>
  <path class="fil0" d="M1354.88 1583.7c1.29,1.36 3.35,62.98 103.62,0 -0.62,-0.54 0.53,-62 -103.62,0z"/>
  <path class="fil0" d="M4431.31 1679.5c1.54,-2.91 48.13,0.13 -15.64,-101.68 -9.26,13.01 -41.97,-43.4 -13.74,63.51 13.54,51.25 21.37,30.18 29.38,38.17z"/>
  <path class="fil0" d="M7835.85 1285.64c32.08,21.96 -48.51,19.04 52.14,20.99 82.55,1.61 41.85,-13.38 54.31,-20.99 -20.74,-11.84 34.27,-17.2 -54.1,-18.84 -72.5,-1.33 -42.02,12.84 -52.35,18.84z"/>
  <path class="fil0" d="M5812.89 2171.59c113.25,-27.46 85.1,-38.58 98.15,-75.45 -109.22,27.85 -83.03,40.91 -98.15,75.45z"/>
  <path class="fil0" d="M5127.88 2382.05c19.34,20.63 -45.98,35.43 52.95,40.13 81.36,3.88 45.69,-17.58 53,-22.71l-22.66 -12.06c-44,-12.4 18.17,0.92 -28.81,-5.75 -4.81,-0.68 -49.48,0.41 -54.48,0.39z"/>
  <path class="fil0" d="M3257.67 530.76c89.74,-21.74 86.03,-34.57 88.91,-71.13 -27.46,3.43 -23.63,-1.87 -52.41,14.49 -58.26,33.12 -29.35,7.5 -36.5,56.63z"/>
  <path class="fil0" d="M4978.51 2365.93c0.2,0.21 4.85,76.87 105.35,33.54 -12.27,-21.28 26.2,-15.41 -42.19,-30.72 -19.83,-4.44 -43.85,-2.32 -63.15,-2.82z"/>
  <path class="fil0" d="M4274.91 1102.43c2.56,-4.48 61.11,7.16 -15.64,-102.4 -21.03,31.83 -28.11,-49.92 -16.08,47.47 4.52,36.63 27.96,50.3 31.72,54.93z"/>
  <path class="fil0" d="M5939.06 2092.15c56.26,-13.76 80.07,-20.63 98.17,-66.09 -23.38,-8.83 -22.7,-12.74 -49.2,2.51 -50.02,28.8 -32.04,21.46 -48.97,63.58z"/>
  <path class="fil0" d="M2912.2 815.93c63.83,-15.29 70.63,-23.27 88.58,-85.37 -62.88,20.24 -75.79,24.96 -88.58,85.37z"/>
  <path class="fil0" d="M2073.45 1411.14c40.93,16.61 68.05,-7.64 97.31,-31.37 -12.7,-7.39 41.34,-44.94 -60.32,-8.7 -50.55,18.02 -30.94,26.9 -36.98,40.07z"/>
  <path class="fil0" d="M2336.45 1283.59c109.63,-25.2 87.99,-53.84 90.14,-73.3 -101.71,21.64 -86.18,56.71 -90.14,73.3z"/>
  <path class="fil0" d="M2696.13 1016.46c56.7,-21.42 63.75,-27.81 85.06,-85 -69.95,18.91 -84,19.27 -85.06,85z"/>
  <path class="fil0" d="M4768.4 2247.34c-31.72,-18.8 -23.42,-10.66 -38.91,-5.61 3.54,12.58 -30.19,42.52 80.98,70.93 -11.34,-45.51 -3.94,-42.72 -42.07,-65.31z"/>
  <path class="fil0" d="M1791.44 1505.26c83.7,46.81 100.36,-26.91 105.07,-37.2 -60.41,2.04 -71.11,-1.7 -105.07,37.2z"/>
  <path class="fil0" d="M3028.18 715.55c55.23,-17.74 61.71,-27.9 84.13,-83.94 -67.62,20.35 -86.78,18.99 -84.13,83.94z"/>
  <path class="fil0" d="M3133.84 615.71c51.8,-7.3 86.79,-17.97 85.26,-75.22 -54.76,12.54 -71.55,20.9 -85.26,75.22z"/>
  <path class="fil0" d="M3524.62 385.18c30.69,36.59 -43.54,23.15 47.01,30.45 56,4.51 56.08,-20.21 61.15,-24.19 -21.87,-14.94 31.04,-13.19 -46.53,-16.5 -14.37,-0.61 -53.52,6.59 -61.64,10.24z"/>
  <path class="fil0" d="M6065.18 2011.55c54.99,-15.71 74.14,-24.69 96.38,-64.42 -20.88,-9.83 -18.63,-15.24 -49.33,1.81 -67.82,37.66 -30.27,8.11 -47.05,62.61z"/>
  <path class="fil0" d="M6190.85 1921.09c24.74,1.69 45.4,2.03 65.77,-13.01 43.39,-32.03 19.7,5.64 22.46,-55.27 -48.27,13.4 -73.53,27.85 -88.23,68.28z"/>
  <path class="fil0" d="M3912.37 482.28c-3.88,-44.48 15.14,-25.26 -22.54,-48.49 -20.5,-12.65 -44.98,-13.68 -73.35,-18.59 22.96,51.36 37.72,55.26 95.88,67.09z"/>
  <path class="fil0" d="M4227.98 960.25c4.7,-7.58 40.6,34.28 10.04,-58.77 -9.31,-28.35 -21.9,-32.83 -34.7,-44.94 -18.78,39.24 -15.04,54.11 24.66,103.71z"/>
  <path class="fil0" d="M6831.97 1536.64c12.15,5.63 3.85,11.67 35.21,10.54 65.94,-2.39 63.76,-54.55 63.77,-54.57 -101.24,7.84 -95.29,40.17 -98.98,44.02z"/>
  <path class="fil0" d="M5686.13 2240.49c29.12,0.38 40.07,2.39 60.91,-10.54 41.14,-25.52 21.16,-13.67 38.07,-55.62 -52.23,11.92 -78.36,14.27 -98.98,66.16z"/>
  <path class="fil0" d="M7107.44 1426.83c46.25,26.4 75.78,13.54 104.67,-33.61 -24.08,-7.63 -24.56,-12 -59.69,0.15 -41.57,14.37 -28.79,13.69 -44.99,33.46z"/>
  <path class="fil0" d="M1933.23 1458.2c15.66,10.48 6.68,28.43 61.31,6.04 57.86,-23.71 28.41,-16.87 42.31,-43.42 -42.69,-6.93 -72.49,4.52 -103.62,37.38z"/>
  <path class="fil0" d="M5277.33 2399.47c35.69,19.97 67.8,10.21 102.82,-15.69 -6.6,-5.87 17.2,-27.04 -55.79,-17.13 -66.24,8.99 -39.45,22.25 -47.03,32.82z"/>
  <path class="fil0" d="M6696.76 1619.23c109.13,-19.3 91.81,-41.3 99.93,-51.21 -63.69,-31.81 -87.18,16.35 -99.93,51.21z"/>
  <path class="fil0" d="M3672.61 395.83c100.83,70.65 106.96,11.32 107.02,11.29 -3.61,-2.49 -8.69,-11.15 -10.63,-7.71 -2.73,4.8 -57.91,-49.16 -96.39,-3.58z"/>
  <path class="fil0" d="M3385.43 438.5c14.15,10.63 -35.37,31.93 52.36,9.9 22.63,-5.68 38.39,-17.81 50.8,-24.96 -29.16,-42.25 -59.82,-22.86 -103.16,15.07z"/>
  <path class="fil0" d="M4840.7 2336.72c35.15,33.61 62.72,48.19 101.64,31.06 -13.89,-18.84 -10.91,-28.53 -49.9,-40.83 -79.25,-24.98 -45.39,4.99 -51.74,9.77z"/>
  <path class="fil0" d="M4405.34 1537.2c-3.17,-62.95 2.7,-76.15 -36.59,-105.39 -14.44,21.24 -19.3,23.97 -6.07,61.64 21.93,62.5 5.53,25.59 42.67,43.75z"/>
  <path class="fil0" d="M7497.18 1332.7c-9.76,-8 35.5,-34.8 -61.1,-16.19 -40.24,7.75 -30.69,15.56 -41.63,31.88 33.89,22.79 73.86,3.02 102.73,-15.69z"/>
  <path class="fil0" d="M4122.82 692.6c-15.09,-63.87 -21.69,-93.59 -73.21,-87.87 2.57,23.67 -1.74,19.42 14.31,43.39 28.12,41.98 23.61,29.8 58.89,44.48z"/>
  <path class="fil0" d="M4529.61 1893.91c-10.85,-23.12 -19.91,-25.74 -32.08,-36.64 -28.47,27.02 2.98,74.88 27.63,102.69 3.39,-4.81 40.94,11.67 4.45,-66.05z"/>
  <path class="fil0" d="M5557.82 2305.34c50.37,23.05 73.69,-20.22 98.34,-37.52 -21.37,-19.15 -13.67,-21.59 -48.94,-8.39 -60.09,22.48 -38.13,23.08 -49.41,45.91z"/>
  <path class="fil0" d="M1207.56 1599.39c14.75,13.34 -43.8,33.16 63.3,21.3 42.52,-4.71 30.07,-12.57 41.06,-21.3 -36.56,-30.01 -63.46,-20.99 -104.36,0z"/>
  <path class="fil0" d="M1056.9 1615.08c37.73,29.8 64.37,24.71 106.09,0 -10.52,-8.76 29.37,-28.57 -62.46,-20.67 -51.24,4.41 -36.96,15.66 -43.63,20.67z"/>
  <path class="fil0" d="M7249.32 1379.76c11.63,7.73 4.28,30.75 65.78,7.63 61.65,-23.17 23.88,-7.86 39.51,-39.74 -58.3,0.3 -70.13,-0.14 -105.29,32.12z"/>
  <path class="fil0" d="M4181.06 820.7c15.18,-43.65 0.6,-74.85 -51.19,-99.51 13.47,118.28 27.92,86.79 51.19,99.51z"/>
  <path class="fil0" d="M6319.33 1836.63c67.31,20.35 89.4,-48.8 89.5,-48.99 -46.52,-18.92 -88.62,13.66 -89.5,48.99z"/>
  <path class="fil0" d="M4556.45 1996.14c-27.42,41.08 13.19,79.07 43.16,98.69 23.88,-40.79 -7.68,-75.97 -43.16,-98.69z"/>
  <path class="fil0" d="M2204.45 1340.27c16.55,14.36 14.24,28.18 61.77,2.95 47.61,-25.27 30.63,-12.53 33.58,-52.63 -43.44,5.93 -70.2,31.8 -95.35,49.68z"/>
  <path class="fil0" d="M5522.99 2340.19c-4.35,-4.2 9.59,-45.02 -65.77,-12.66 -50.19,21.56 -25.9,15.8 -36.93,51.34l102.7 -38.68z"/>
  <path class="fil0" d="M6571.87 1674.67c16.69,9.53 -4.37,11.17 26.79,9.2 0.86,-0.05 24.91,-6.81 32.24,-10.95 40.81,-23.03 29.2,-9.1 28.59,-49.43 -42.39,2.1 -84.19,28.76 -87.61,51.17z"/>
  <path class="fil0" d="M4353.11 1391.02c27.94,-39.52 10.91,-70.06 -15.64,-104.73 -7.71,10.52 -28.94,-27.02 -12.53,57.34 5.46,28.06 18.54,36.34 28.17,47.39z"/>
  <path class="fil0" d="M2465.84 1200.82c52.79,-16.8 72.47,-21.55 85.94,-72.74 -53,3.9 -83.67,24.18 -85.94,72.74z"/>
  <path class="fil0" d="M608.67 1622.84c37.45,29.08 65.9,27.89 110.43,6.44 -33.72,-40.59 -71.16,-33.22 -110.43,-6.44z"/>
  <path class="fil0" d="M1647.03 1536.64c10.48,7.49 -28.3,30.96 59.41,12.84 23.01,-4.75 38.51,-22.77 45.22,-28.52 -41.28,-26.27 -72.04,-7.67 -104.64,15.68z"/>
  <path class="fil0" d="M2578.97 1104.09c27.22,0.18 26.03,0.69 45.59,-12.65 45.15,-30.77 28.21,-18.87 43.51,-61.71 -50.95,11.88 -80.9,33.01 -89.09,74.35z"/>
  <path class="fil0" d="M1017.09 1613.9c-44.2,-22.27 -76.15,-19.94 -110.86,9.91 41.51,21.93 72.51,32.54 110.86,-9.91z"/>
  <path class="fil0" d="M6448.23 1756.52c34.17,12.87 73.37,-18.69 86.43,-54.76 -49.32,-4.77 -96.74,17.68 -86.43,54.76z"/>
  <path class="fil0" d="M4699.44 2213.94c-11.23,-48.32 -35.37,-78.46 -72.71,-89.05 -0.13,27.26 0.24,37.27 18.24,58.7 30.74,36.59 7.91,17.5 54.46,30.35z"/>
  <path class="fil0" d="M6966.86 1490.63c64.28,-2.76 83.39,-6.45 104.98,-49.85 -57.61,-1.92 -83.33,1.92 -104.98,49.85z"/>
  <path class="fil0" d="M7539.37 1317.01c44.28,22.4 73.78,18.42 105.53,-15.68 -68.72,-41.75 -105.43,15.59 -105.53,15.68z"/>
  <path class="fil0" d="M863.61 1630.77c-23.09,-41.49 -81.23,-41.7 -102.48,0 40.24,18.84 65.36,16.39 102.48,0z"/>
  <path class="fil0" d="M2849.8 845.01l-18.63 12.6 -18.81 12.52 -6.82 22.31 5.34 11.16 22.66 2.62 19.58 -11.59 18.27 -12.9 13.29 -17.11 -11.02 -30.46 -4.24 -3.01c0,22.46 4.86,15.92 -19.62,13.86z"/>
  <path class="fil0" d="M4320.66 1248.26c17.41,-32.85 14.57,-77.91 -30.11,-103.5 -16.62,44.48 1.06,76.83 30.11,103.5z"/>
  <path class="fil0" d="M4023.66 560.04c12.67,-27.93 -35.43,-56.97 -72.4,-69.09 2.73,37.24 4.83,32.14 30.41,55.28 51.91,46.93 31.85,19.31 41.99,13.81z"/>
  <path class="fil0" d="M7984.15 1285.64c13.65,10.34 -27.09,18.57 42.96,17.01 66.37,-1.48 6.48,1.98 32.62,-17.01 -21.3,-14.87 34.51,-18.18 -44.48,-16.13 -58.74,1.52 -12.96,3.15 -31.1,16.13z"/>
  <path class="fil0" d="M565.94 1615.08c-51.66,-23.33 -37.86,-15.19 -69.28,5.02 28.8,25.23 42.81,43.16 69.28,-5.02z"/>
  <path class="fil1" d="M2831.18 857.61l-18.81 12.52c-27.58,-2.69 -18.44,-5.73 -6.82,22.31l5.34 11.16c-12.04,50.44 16.28,11.65 22.66,2.62l19.58 -11.59 18.27 -12.9c23.02,1.44 17.65,6.34 13.29,-17.11 42.42,-9.74 -4.03,-27.15 -11.02,-30.46l11.02 30.46 -13.29 17.11 -18.27 12.9 -19.58 11.59 -22.66 -2.62 -5.34 -11.16 6.82 -22.31 18.81 -12.52 18.63 -12.6c24.48,2.06 19.62,8.6 19.62,-13.86l-19.62 13.86 -18.63 12.6z"/>
  <path id="path254" class="fil2" d="M7904.73 1322.72l-41.41 0c-5.8,0 -10.43,-4.41 -10.43,-9.83 0,-5.43 4.64,-9.83 10.43,-9.83l41.41 0c5.63,0 10.27,4.41 10.27,9.83 0,5.43 -4.64,9.83 -10.27,9.83z"/>
  <path id="path266" class="fil2" d="M7943.99 1308.53c0,-32.63 27.83,-59.07 62.28,-59.07 34.29,0 62.12,26.44 62.12,59.07 0,32.63 -27.83,59.07 -62.12,59.07 -34.45,0 -62.28,-26.44 -62.28,-59.07z"/>
  <path id="path268" class="fil3" d="M7788.61 850.17c0,-114.15 97.4,-206.71 217.67,-206.71 120.26,0 217.66,92.55 217.66,206.71 0,109.7 -179.9,370.9 -217.66,370.9 -37.77,0 -217.67,-238.95 -217.67,-370.9z"/>
  <path id="path270" class="fil4" d="M7867.3 850.17c0,-72.86 62.28,-131.93 138.98,-131.93 76.7,0 138.98,59.07 138.98,131.93 0,72.86 -62.28,131.94 -138.98,131.94 -76.7,0 -138.98,-59.08 -138.98,-131.94z"/>
  <g>
   <path id="path280" class="fil2" d="M5235.86 2172.02l186.76 178.51c6.93,6.61 2.07,17.87 -7.63,18.13l-144 3.65c-4.39,0.11 -8.32,-2.15 -10.17,-5.79l-97.54 -181.12c-5.55,-10.45 2.07,-22.85 14.56,-23.16l30.28 -0.76c10.4,-0.29 20.57,3.54 27.74,10.56l0.01 -0.01zm0 0l0 0 0 0z"/>
  </g>
  <path id="path278" class="fil2" d="M5446.3 2402.95l-170.15 201.26c-6.45,7.87 -16.38,12.82 -26.99,13.67l-31.13 2.41c-12.5,0.97 -21.65,-10.85 -17.26,-22.03l79.09 -194.54c1.69,-3.91 5.34,-6.62 9.82,-6.96l146.94 -11.44c9.91,-0.79 16.16,10.15 9.68,17.62z"/>
 </g>
</svg>
