<?xml version="1.0" encoding="UTF-8"?>
<!DOCTYPE svg PUBLIC "-//W3C//DTD SVG 1.1//EN" "http://www.w3.org/Graphics/SVG/1.1/DTD/svg11.dtd">
<!-- Creator: CorelDRAW 2020 (64-Bit Evaluation Version) -->
<svg xmlns="http://www.w3.org/2000/svg" xml:space="preserve" width="2.81298in" height="0.1in" version="1.1" style="shape-rendering:geometricPrecision; text-rendering:geometricPrecision; image-rendering:optimizeQuality; fill-rule:evenodd; clip-rule:evenodd"
viewBox="0 0 2812.98 100"
 xmlns:xlink="http://www.w3.org/1999/xlink"
 xmlns:xodm="http://www.corel.com/coreldraw/odm/2003">
 <defs>
  <style type="text/css">
   <![CDATA[
    .str0 {stroke:#FEFEFE;stroke-width:6.93;stroke-miterlimit:2.61313}
    .str3 {stroke:#FEFEFE;stroke-width:33.33;stroke-miterlimit:2.61313}
    .str2 {stroke:#FEFEFE;stroke-width:33.33;stroke-miterlimit:2.61313;stroke-dasharray:166.673228 100.003937}
    .str1 {stroke:#FEFEFE;stroke-width:33.33;stroke-miterlimit:2.61313;stroke-dasharray:166.673228 166.673228}
    .fil2 {fill:none}
    .fil0 {fill:#FEFEFE}
    .fil1 {fill:#FEFEFE;fill-rule:nonzero}
   ]]>
  </style>
 </defs>
 <g id="Layer_x0020_1">
  <metadata id="CorelCorpID_0Corel-Layer"/>
  <circle class="fil0 str0" cx="59.82" cy="60" r="31"/>
  <circle class="fil0 str0" cx="2776.49" cy="66.67" r="30"/>
  <path id="path278" class="fil1" d="M1706.63 58.78l-37.68 40.1c-1.43,1.57 -3.56,2.5 -5.78,2.56l-6.52 0.17c-2.62,0.06 -4.39,-2.5 -3.36,-4.78l18.62 -39.69c0.39,-0.8 1.19,-1.32 2.12,-1.34l30.76 -0.78c2.07,-0.06 3.26,2.29 1.83,3.78z"/>
  <g>
   <path id="path280" class="fil1" d="M1666.08 13.09l39.9 38.13c1.48,1.41 0.44,3.81 -1.63,3.87l-30.76 0.78c-0.94,0.02 -1.78,-0.46 -2.17,-1.24l-20.84 -38.69c-1.19,-2.23 0.44,-4.88 3.11,-4.95l6.47 -0.16c2.22,-0.06 4.39,0.76 5.93,2.26l0 -0zm0 0l0 0 0 0z"/>
  </g>
  <g>
   <line class="fil2 str1" x1="90.82" y1="60" x2="1678.43" y2= "55.89" />
  </g>
  <g>
   <line class="fil2 str2" x1="2746.49" y1="66.67" x2="1763.15" y2= "60" />
  </g>
  <g>
   <line class="fil2 str3" x1="90.82" y1="60" x2="826.92" y2= "58.09" />
  </g>
  <g>
   <line class="fil2 str3" x1="2688.13" y1="66.27" x2="2304.86" y2= "63.67" />
  </g>
 </g>
</svg>
