<?xml version="1.0" encoding="UTF-8"?>
<!DOCTYPE svg PUBLIC "-//W3C//DTD SVG 1.1//EN" "http://www.w3.org/Graphics/SVG/1.1/DTD/svg11.dtd">
<!-- Creator: CorelDRAW 2020 (64-Bit Evaluation Version) -->
<svg xmlns="http://www.w3.org/2000/svg" xml:space="preserve" width="2.09998in" height="0.233331in" version="1.1" style="shape-rendering:geometricPrecision; text-rendering:geometricPrecision; image-rendering:optimizeQuality; fill-rule:evenodd; clip-rule:evenodd"
viewBox="0 0 2099.98 233.33"
 xmlns:xlink="http://www.w3.org/1999/xlink"
 xmlns:xodm="http://www.corel.com/coreldraw/odm/2003">
 <defs>
  <style type="text/css">
   <![CDATA[
    .fil4 {fill:#010101}
    .fil0 {fill:#020202}
    .fil7 {fill:#090909}
    .fil3 {fill:#0A0A0A}
    .fil9 {fill:#0C0C0C}
    .fil8 {fill:#0F0F0F}
    .fil10 {fill:#101010}
    .fil2 {fill:#111111}
    .fil6 {fill:#121212}
    .fil5 {fill:#131313}
    .fil1 {fill:#FCFCFC}
   ]]>
  </style>
 </defs>
 <g id="Layer_x0020_1">
  <metadata id="CorelCorpID_0Corel-Layer"/>
  <g id="_2670891463184">
   <path class="fil0" d="M2014.06 118.53l-43.56 0.19c-9.17,-11.73 -12.19,-23.44 -24.47,-29.97 13.8,67.64 0.2,48.35 1.39,79.4 8.84,-10.65 13.71,-18.75 22.83,-30.65l42.85 -0.31 -12.01 74.35c21.02,-0.74 7.19,-17.96 31,-43.56 19.87,-21.37 -15.22,-29.65 44.5,-30.73 5.41,-0.1 9.81,0.19 15.1,-1.17 13.47,-3.48 8.74,-2.76 13.3,-7.75l0 -0.54c-15.98,-18.25 -44.51,-1.76 -58.89,-10.87 -14.14,-14.4 -4.4,-10.52 -7.11,-19.8 -4,-13.68 -2.46,-1.12 -12.37,-15.34 -15.25,-21.9 -3.39,-29.1 -25.6,-39.08l13.05 75.83z"/>
   <path class="fil0" d="M40.54 7.13c36.39,-14.85 53.88,38.81 22.68,50.86 -40.04,15.46 -54.68,-37.8 -22.68,-50.86zm9.99 119.69c20.1,-24.67 82.93,-134.46 2.42,-136.77 -83.29,-2.39 -23.19,110.19 -2.42,136.77z"/>
   <path class="fil1" d="M40.54 7.13c-32,13.07 -17.37,66.32 22.68,50.86 31.2,-12.05 13.71,-65.72 -22.68,-50.86z"/>
   <path class="fil2" d="M1542.28 128.07c0.28,0.18 7.94,15.13 26.85,0 -1.43,-1.2 3.04,-4.06 -10.18,-5.02 -17.01,-1.24 -14.03,3.29 -16.67,5.02z"/>
   <path class="fil3" d="M918.62 128.07c2.72,1.99 -5.2,3.93 11.2,4.87 16.03,0.92 12.56,-2.83 15.47,-4.87 -0.02,-0.02 -6.69,-15.35 -26.67,0z"/>
   <path class="fil3" d="M1065.45 128.07c2.72,2.02 -5.2,3.94 11.1,4.88 15.62,0.9 12.41,-2.71 15.52,-4.88 -0.42,-0.31 -6.85,-15.33 -26.62,0z"/>
   <path class="fil3" d="M771.83 128.07c2.78,2.04 -5.59,3.94 11.26,4.87 15.42,0.86 12.37,-2.74 15.39,-4.87 -0.07,-0.06 -6.48,-15.35 -26.65,0z"/>
   <path class="fil3" d="M1212.21 128.07c2.37,1.75 -4.64,3.91 11.07,4.84 15.84,0.94 12.46,-2.68 15.58,-4.84 -0.18,-0.13 -6.82,-15.39 -26.65,0z"/>
   <path class="fil3" d="M1726.05 128.07c2.22,1.7 -4.33,3.94 10.81,4.85 15.61,0.94 12.61,-2.72 15.73,-4.85 -0.21,-0.15 -7.09,-15.52 -26.54,0z"/>
   <path class="fil4" d="M882.11 128.07c3.8,2.35 -7.62,5.23 12.83,4.78 21.6,-0.47 8.35,-1.87 13.46,-4.78 -4.19,-2.47 8.55,-5.38 -13.45,-4.88 -21.73,0.5 -7.49,1.51 -12.84,4.88z"/>
   <path class="fil5" d="M955.09 128.07c0.06,0.04 8.04,15.57 26.88,0 -1.38,-1.19 2.6,-4.06 -9.96,-5.02 -12.02,-0.92 -14.53,3.47 -16.92,5.02z"/>
   <path class="fil6" d="M1395.56 128.07c0.45,0.29 7.55,15.49 26.76,0 -13.1,-11.17 -19.26,-4.96 -26.76,0z"/>
   <path class="fil2" d="M1615.76 128.07c0.45,0.29 7.54,15.34 26.8,0 -13.68,-11.43 -19.65,-4.74 -26.8,0z"/>
   <path class="fil4" d="M808.69 128.07c3.73,2.27 -7.52,5.17 12.88,4.74 20.98,-0.45 8.8,-2.1 13.44,-4.74 -3.85,-2.27 8.16,-5.38 -13.43,-4.89 -22.16,0.5 -7.15,1.29 -12.89,4.89z"/>
   <path class="fil4" d="M221.56 128.07c3.69,2.2 -7.39,5.19 13.07,4.74 21.47,-0.46 7.98,-1.69 13.19,-4.74 -3.97,-2.41 8.24,-5.38 -13.18,-4.9 -22.51,0.5 -7.25,1.31 -13.07,4.9z"/>
   <path class="fil4" d="M441.78 128.07c3.69,2.2 -7.26,5.15 12.96,4.74 22.2,-0.45 7.7,-1.47 13.31,-4.74 -4.16,-2.5 8.31,-5.39 -13.32,-4.89 -22.04,0.51 -7.59,1.56 -12.95,4.89z"/>
   <path class="fil3" d="M1359.02 128.07c2.26,1.68 -4.54,3.92 11,4.83 15.51,0.91 12.57,-2.74 15.61,-4.83 -0.09,-0.06 -6.91,-15.29 -26.61,0z"/>
   <path class="fil0" d="M661.96 128.07c3.71,2.24 -7.28,5.15 12.89,4.74 22.32,-0.46 7.8,-1.52 13.38,-4.74 -4.01,-2.37 8.03,-5.38 -13.39,-4.89 -22.18,0.51 -7.29,1.38 -12.87,4.89z"/>
   <path class="fil4" d="M294.96 128.07c3.3,1.96 -6.78,5.18 13.04,4.75 21.57,-0.46 7.89,-1.64 13.21,-4.75 -4.01,-2.43 8.36,-5.38 -13.2,-4.89 -21.93,0.5 -7.87,1.71 -13.04,4.89z"/>
   <path class="fil3" d="M1138.84 128.07c2.54,1.89 -4.73,3.94 11.09,4.85 15.51,0.9 12.36,-2.67 15.48,-4.85 -0.16,-0.11 -6.93,-15.22 -26.57,0z"/>
   <path class="fil4" d="M515.14 128.07c3.62,2.19 -7.35,5.2 12.96,4.77 21.39,-0.47 8.45,-1.94 13.3,-4.77 -3.67,-2.18 7.67,-5.32 -13.31,-4.85 -21.92,0.49 -7.56,1.52 -12.96,4.85z"/>
   <path class="fil4" d="M74.83 128.07c3.61,2.13 -7.07,5.16 13.07,4.74 22.19,-0.46 7.46,-1.37 13.17,-4.74 -3.91,-2.37 7.98,-5.37 -13.19,-4.89 -22.89,0.52 -6.98,1.16 -13.06,4.89z"/>
   <path class="fil7" d="M478.35 128.07c3.02,2.22 -5.74,3.94 11.28,4.87 15.24,0.83 12.15,-2.66 15.26,-4.87 -0.04,-0.02 -6.67,-15.13 -26.54,0z"/>
   <path class="fil7" d="M698.52 128.07c2.95,2.17 -5.31,3.94 11.21,4.87 15.41,0.86 12.09,-2.59 15.29,-4.87 -0.04,-0.03 -6.96,-15.18 -26.5,0z"/>
   <path class="fil4" d="M148.2 128.07c3.53,2.09 -6.91,5.17 13.06,4.74 21.31,-0.45 8.04,-1.73 13.15,-4.74 -3.57,-2.17 7.82,-5.36 -13.15,-4.89 -22.15,0.5 -7.81,1.66 -13.06,4.89z"/>
   <path class="fil6" d="M1175.39 128.07c6.14,3.92 -9.26,4.36 13.14,5.02 12.09,0.35 8.88,-1.13 13.63,-5.02 -1.34,-1.15 2.84,-4.04 -10.05,-5.02 -18.6,-1.41 -14.46,3.52 -16.72,5.02z"/>
   <path class="fil7" d="M258.11 128.07c3.35,2.44 -6.44,3.93 11.4,4.87 15.15,0.8 12.01,-2.6 15.17,-4.87 -0.17,-0.13 -6.63,-15 -26.57,0z"/>
   <path class="fil4" d="M368.38 128.07c3.56,2.14 -7.11,5.18 12.98,4.74 21.48,-0.47 7.9,-1.65 13.18,-4.74 -3.89,-2.36 8.22,-5.37 -13.18,-4.89 -22.02,0.51 -7.65,1.59 -12.98,4.89z"/>
   <path class="fil4" d="M588.58 128.07c3.85,2.35 -7.57,5.2 12.89,4.74 21.08,-0.48 8.39,-1.93 13.26,-4.74 -3.56,-2.13 7.85,-5.35 -13.26,-4.89 -22.67,0.5 -6.74,1.01 -12.89,4.89z"/>
   <path class="fil2" d="M1468.98 128.07c0.11,0.07 7.74,15.26 26.81,0 -13.59,-11.26 -19.54,-4.84 -26.81,0z"/>
   <path class="fil7" d="M111.37 128.07c3.46,2.51 -6.16,3.96 11.42,4.87 15.22,0.8 11.87,-2.55 15.08,-4.87 -0.1,-0.08 -6.71,-15 -26.5,0z"/>
   <path class="fil5" d="M1248.74 128.07c6.52,4.15 -9.75,4.32 13.15,5.03 12.41,0.38 9.01,-1.18 13.66,-5.03 -1.69,-1.43 2.11,-4.11 -10.07,-5.04 -17.78,-1.35 -14.27,3.41 -16.74,5.04z"/>
   <path class="fil3" d="M1432.37 128.07c1.15,1.05 3.63,9 18.38,4.14 6.86,-2.26 4.29,-1.41 8.23,-4.14 -0.41,-0.3 -6.54,-15.55 -26.61,0z"/>
   <path class="fil8" d="M1909.4 128.07c0.03,0.02 7.58,15.06 26.7,0 -13.77,-11.3 -19.46,-4.91 -26.7,0z"/>
   <path class="fil3" d="M551.7 128.07c3.24,2.38 -5.93,3.94 11.29,4.88 15.42,0.83 12.13,-2.66 15.25,-4.88 -4.43,-3.26 7.87,-4.06 -11.68,-5.06 -16.05,-0.82 -12.35,3.13 -14.86,5.06z"/>
   <path class="fil7" d="M331.54 128.07c3.67,2.69 -6.55,3.93 11.36,4.89 15.67,0.83 12.17,-2.73 15.17,-4.89 -4.52,-3.37 8.05,-4.06 -11.6,-5.04 -15.65,-0.78 -12.24,3.01 -14.93,5.04z"/>
   <path class="fil9" d="M1505.87 128.07c2.26,1.71 -4.03,3.96 10.9,4.89 16.36,1.02 12.89,-2.94 15.7,-4.89 -5.56,-3.96 9.03,-4.16 -12.14,-5.09 -14.45,-0.63 -11.19,2.49 -14.46,5.09z"/>
   <path class="fil7" d="M184.74 128.07c3.35,2.42 -6.24,3.93 11.41,4.86 15,0.79 11.87,-2.52 15.14,-4.86 -4.52,-3.38 7.86,-4.06 -11.57,-5.07 -15.91,-0.81 -12.31,3.04 -14.98,5.07z"/>
   <path class="fil7" d="M625.06 128.07c3.04,2.21 -5.6,3.93 11.3,4.86 15.33,0.84 12.02,-2.56 15.26,-4.86 -4.62,-3.39 8.1,-4.04 -11.69,-5.04 -16.15,-0.81 -12.41,3.16 -14.87,5.04z"/>
   <path class="fil3" d="M845.23 128.07c2.88,2.13 -5.74,3.92 11.21,4.86 15.78,0.87 12.42,-2.76 15.41,-4.86 -4.71,-3.42 8.28,-4.08 -11.81,-5.05 -15.07,-0.73 -11.7,2.69 -14.81,5.05z"/>
   <path class="fil3" d="M404.93 128.07c3.22,2.35 -5.96,3.94 11.32,4.86 14.8,0.79 11.57,-2.29 15.2,-4.86 -4.78,-3.55 8.49,-4.03 -11.62,-5.05 -15.68,-0.8 -12.21,3 -14.91,5.05z"/>
   <path class="fil3" d="M1285.7 128.07c2.35,1.76 -4.39,3.94 10.96,4.86 16.12,0.97 12.56,-2.77 15.59,-4.86 -4.98,-3.57 8.77,-4.11 -12.01,-5.06 -14.6,-0.66 -11.35,2.56 -14.53,5.06z"/>
   <path class="fil3" d="M992.02 128.07c2.68,1.97 -5.21,3.92 11.17,4.85 15.29,0.86 12.02,-2.48 15.43,-4.85 -5.43,-3.96 9.24,-4.06 -11.84,-5.05 -14.9,-0.7 -11.68,2.7 -14.76,5.05z"/>
   <path class="fil9" d="M1652.59 128.07c12.6,9.48 17.49,6.31 26.64,0 -0.07,-0.04 -7.07,-15.44 -26.64,0z"/>
   <path class="fil2" d="M1762.57 128.07c5.78,3.76 -8.77,4.31 12.89,5.01 12.33,0.4 9.05,-1.19 13.8,-5.01 -13.81,-11.67 -19.74,-4.69 -26.69,0z"/>
   <path class="fil6" d="M1322.13 128.07c6.51,4.18 -9.81,4.36 13.12,5.03 12.06,0.35 8.78,-1.06 13.65,-5.03 -13.46,-11.52 -19.77,-4.59 -26.77,0z"/>
   <path class="fil5" d="M1028.54 128.07c5.78,3.6 -8.88,4.34 13.25,4.98 11.84,0.34 8.52,-0.86 13.57,-4.98 -0.03,-0.02 -1.04,-7.8 -17.26,-4.72 -8.02,1.52 -5.94,2.36 -9.56,4.72z"/>
   <path class="fil2" d="M1835.94 128.07c6.13,3.97 -9.48,4.24 12.88,4.98 12.62,0.42 8.99,-1.07 13.88,-4.98 -13.61,-11.31 -19.42,-4.9 -26.76,0z"/>
   <path class="fil10" d="M1689.13 128.07c6.08,3.94 -9.35,4.31 12.96,5.01 12.4,0.39 9.16,-1.24 13.87,-5.01 -13.31,-10.98 -19.12,-5.11 -26.83,0z"/>
   <path class="fil9" d="M1872.83 128.07c12.83,9.84 17.77,6.04 26.64,0 -5.61,-3.91 9.33,-4.16 -12.3,-5.07 -14.11,-0.6 -10.74,2.2 -14.34,5.07z"/>
   <path class="fil9" d="M1799.41 128.07c12.55,9.53 17.47,6.24 26.58,0 -5.82,-4.12 9.57,-4.17 -12.19,-5.08 -14.07,-0.59 -10.75,2.2 -14.4,5.08z"/>
   <path class="fil9" d="M1579.19 128.07c12.41,9.27 17.3,6.36 26.67,0 -5.96,-4.26 9.63,-4.17 -12.15,-5.09 -14.13,-0.61 -10.96,2.31 -14.52,5.09z"/>
   <path class="fil4" d="M735.48 132.42l20.11 -1.21c1.06,-0.3 2.26,-1.15 3.09,-1.44 0.82,-0.3 1.95,-1.13 2.93,-1.7 -1.31,-0.78 5.57,-6.1 -13.69,-5.15 -23.72,1.17 -7.66,4.37 -12.44,9.5z"/>
   <path class="fil6" d="M1101.93 128.07c6.5,4.15 -9.94,4.37 13.22,5.04 12.22,0.35 8.81,-1.05 13.63,-5.04 -7.47,-6.33 -14.56,-7.98 -26.85,0z"/>
  </g>
 </g>
</svg>
