<?xml version="1.0" encoding="UTF-8"?>
<!DOCTYPE svg PUBLIC "-//W3C//DTD SVG 1.1//EN" "http://www.w3.org/Graphics/SVG/1.1/DTD/svg11.dtd">
<!-- Creator: CorelDRAW 2020 (64-Bit Evaluation Version) -->
<svg xmlns="http://www.w3.org/2000/svg" xml:space="preserve" width="1.06666in" height="0.233331in" version="1.1" style="shape-rendering:geometricPrecision; text-rendering:geometricPrecision; image-rendering:optimizeQuality; fill-rule:evenodd; clip-rule:evenodd"
viewBox="0 0 1066.66 233.33"
 xmlns:xlink="http://www.w3.org/1999/xlink"
 xmlns:xodm="http://www.corel.com/coreldraw/odm/2003">
 <defs>
  <style type="text/css">
   <![CDATA[
    .fil4 {fill:#010101}
    .fil0 {fill:#020202}
    .fil7 {fill:#090909}
    .fil3 {fill:#0A0A0A}
    .fil9 {fill:#0C0C0C}
    .fil8 {fill:#0F0F0F}
    .fil10 {fill:#101010}
    .fil2 {fill:#111111}
    .fil6 {fill:#121212}
    .fil5 {fill:#131313}
    .fil1 {fill:#FCFCFC}
   ]]>
  </style>
 </defs>
 <g id="Layer_x0020_1">
  <metadata id="CorelCorpID_0Corel-Layer"/>
  <g id="_2670874514208">
   <path class="fil0" d="M1019.54 109.26l-21.78 0.09c-4.59,-5.87 -6.09,-11.72 -12.23,-14.98 6.9,33.81 0.1,24.17 0.69,39.7 4.42,-5.32 6.85,-9.37 11.42,-15.33l21.42 -0.16 -6 37.17c10.51,-0.37 3.59,-8.98 15.5,-21.78 9.94,-10.69 -7.61,-14.82 22.25,-15.37 2.7,-0.05 4.9,0.1 7.55,-0.58 6.74,-1.74 4.37,-1.38 6.65,-3.87l0 -0.27c-7.99,-9.12 -22.26,-0.88 -29.44,-5.43 -7.07,-7.2 -2.2,-5.26 -3.56,-9.9 -2,-6.84 -1.23,-0.56 -6.19,-7.67 -7.63,-10.95 -1.7,-14.55 -12.8,-19.54l6.53 37.92z"/>
   <path class="fil0" d="M32.78 53.56c18.19,-7.43 26.94,19.41 11.34,25.43 -20.02,7.73 -27.34,-18.9 -11.34,-25.43zm5 59.84c10.05,-12.34 41.46,-67.24 1.21,-68.39 -41.65,-1.19 -11.6,55.1 -1.21,68.39z"/>
   <path class="fil1" d="M32.78 53.56c-16,6.53 -8.69,33.16 11.34,25.43 15.6,-6.02 6.85,-32.86 -11.34,-25.43z"/>
   <path class="fil2" d="M783.65 114.04c0.14,0.09 3.97,7.56 13.43,0 -0.71,-0.6 1.52,-2.03 -5.09,-2.51 -8.5,-0.62 -7.02,1.64 -8.33,2.51z"/>
   <path class="fil3" d="M471.82 114.04c1.36,1 -2.6,1.96 5.6,2.43 8.01,0.46 6.28,-1.41 7.73,-2.43 -0.01,-0.01 -3.34,-7.67 -13.33,0z"/>
   <path class="fil3" d="M545.23 114.04c1.36,1.01 -2.6,1.97 5.55,2.44 7.81,0.45 6.2,-1.35 7.76,-2.44 -0.21,-0.15 -3.43,-7.67 -13.31,0z"/>
   <path class="fil3" d="M398.42 114.04c1.39,1.02 -2.8,1.96 5.63,2.44 7.71,0.43 6.19,-1.37 7.69,-2.44 -0.04,-0.03 -3.24,-7.67 -13.32,0z"/>
   <path class="fil3" d="M618.61 114.04c1.19,0.87 -2.32,1.96 5.54,2.42 7.92,0.47 6.23,-1.34 7.79,-2.42 -0.09,-0.07 -3.41,-7.7 -13.33,0z"/>
   <path class="fil3" d="M875.53 114.04c1.11,0.85 -2.17,1.97 5.4,2.43 7.81,0.47 6.31,-1.36 7.87,-2.43 -0.11,-0.08 -3.55,-7.76 -13.27,0z"/>
   <path class="fil4" d="M453.56 114.04c1.9,1.17 -3.81,2.61 6.42,2.39 10.8,-0.24 4.17,-0.93 6.73,-2.39 -2.1,-1.24 4.28,-2.69 -6.73,-2.44 -10.87,0.25 -3.74,0.76 -6.42,2.44z"/>
   <path class="fil5" d="M490.06 114.04c0.03,0.02 4.02,7.78 13.44,0 -0.69,-0.59 1.3,-2.03 -4.98,-2.51 -6.01,-0.46 -7.27,1.74 -8.46,2.51z"/>
   <path class="fil6" d="M710.29 114.04c0.22,0.14 3.77,7.74 13.38,0 -6.55,-5.59 -9.63,-2.48 -13.38,0z"/>
   <path class="fil2" d="M820.39 114.04c0.22,0.14 3.77,7.67 13.4,0 -6.84,-5.72 -9.83,-2.37 -13.4,0z"/>
   <path class="fil4" d="M416.85 114.04c1.87,1.13 -3.76,2.58 6.44,2.37 10.49,-0.23 4.4,-1.05 6.72,-2.37 -1.92,-1.14 4.08,-2.69 -6.71,-2.45 -11.08,0.25 -3.57,0.65 -6.44,2.45z"/>
   <path class="fil4" d="M123.29 114.04c1.84,1.1 -3.7,2.59 6.53,2.37 10.74,-0.23 3.99,-0.85 6.59,-2.37 -1.98,-1.21 4.12,-2.69 -6.59,-2.45 -11.26,0.25 -3.63,0.66 -6.54,2.45z"/>
   <path class="fil4" d="M233.39 114.04c1.85,1.1 -3.63,2.57 6.48,2.37 11.1,-0.22 3.85,-0.73 6.66,-2.37 -2.08,-1.25 4.15,-2.7 -6.66,-2.44 -11.02,0.26 -3.79,0.78 -6.48,2.44z"/>
   <path class="fil3" d="M692.01 114.04c1.13,0.84 -2.26,1.96 5.5,2.42 7.76,0.45 6.28,-1.37 7.8,-2.42 -0.04,-0.04 -3.46,-7.65 -13.31,0z"/>
   <path class="fil0" d="M343.49 114.04c1.86,1.12 -3.64,2.57 6.44,2.37 11.16,-0.23 3.9,-0.76 6.69,-2.37 -2,-1.19 4.01,-2.69 -6.7,-2.45 -11.09,0.25 -3.65,0.69 -6.44,2.45z"/>
   <path class="fil4" d="M159.98 114.04c1.65,0.98 -3.39,2.59 6.52,2.37 10.78,-0.23 3.94,-0.82 6.61,-2.37 -2,-1.22 4.18,-2.69 -6.61,-2.44 -10.96,0.25 -3.93,0.85 -6.52,2.44z"/>
   <path class="fil3" d="M581.93 114.04c1.28,0.94 -2.36,1.96 5.55,2.42 7.75,0.45 6.18,-1.33 7.74,-2.42 -0.08,-0.06 -3.46,-7.61 -13.28,0z"/>
   <path class="fil4" d="M270.07 114.04c1.81,1.09 -3.68,2.6 6.48,2.38 10.69,-0.23 4.22,-0.97 6.65,-2.38 -1.84,-1.09 3.83,-2.66 -6.65,-2.43 -10.96,0.24 -3.78,0.76 -6.48,2.43z"/>
   <path class="fil4" d="M49.92 114.04c1.8,1.06 -3.54,2.58 6.54,2.37 11.09,-0.23 3.73,-0.69 6.58,-2.37 -1.96,-1.19 3.99,-2.69 -6.59,-2.45 -11.44,0.26 -3.49,0.58 -6.53,2.45z"/>
   <path class="fil7" d="M251.68 114.04c1.51,1.11 -2.87,1.97 5.64,2.43 7.62,0.41 6.07,-1.33 7.63,-2.43 -0.02,-0.01 -3.33,-7.57 -13.27,0z"/>
   <path class="fil7" d="M361.76 114.04c1.48,1.08 -2.65,1.97 5.61,2.43 7.7,0.43 6.04,-1.3 7.65,-2.43 -0.02,-0.02 -3.48,-7.59 -13.25,0z"/>
   <path class="fil4" d="M86.61 114.04c1.76,1.04 -3.46,2.58 6.53,2.37 10.65,-0.22 4.02,-0.87 6.57,-2.37 -1.79,-1.09 3.91,-2.68 -6.58,-2.44 -11.08,0.25 -3.9,0.83 -6.53,2.44z"/>
   <path class="fil6" d="M600.2 114.04c3.07,1.96 -4.63,2.18 6.57,2.51 6.05,0.18 4.44,-0.56 6.82,-2.51 -0.67,-0.57 1.42,-2.02 -5.02,-2.51 -9.3,-0.7 -7.23,1.76 -8.36,2.51z"/>
   <path class="fil7" d="M141.56 114.04c1.68,1.22 -3.22,1.96 5.7,2.43 7.58,0.4 6,-1.3 7.59,-2.43 -0.09,-0.07 -3.31,-7.5 -13.29,0z"/>
   <path class="fil4" d="M196.7 114.04c1.78,1.07 -3.56,2.59 6.49,2.37 10.74,-0.24 3.95,-0.83 6.59,-2.37 -1.94,-1.18 4.11,-2.69 -6.59,-2.44 -11.01,0.26 -3.83,0.8 -6.49,2.44z"/>
   <path class="fil4" d="M306.8 114.04c1.92,1.17 -3.79,2.59 6.44,2.37 10.54,-0.24 4.19,-0.96 6.63,-2.37 -1.78,-1.07 3.92,-2.68 -6.63,-2.45 -11.33,0.25 -3.37,0.51 -6.44,2.45z"/>
   <path class="fil2" d="M747 114.04c0.06,0.04 3.87,7.63 13.41,0 -6.8,-5.63 -9.77,-2.43 -13.41,0z"/>
   <path class="fil7" d="M68.19 114.04c1.73,1.26 -3.08,1.98 5.71,2.44 7.61,0.4 5.93,-1.28 7.54,-2.44 -0.05,-0.04 -3.36,-7.5 -13.25,0z"/>
   <path class="fil5" d="M636.88 114.04c3.26,2.07 -4.88,2.16 6.57,2.51 6.2,0.19 4.5,-0.59 6.83,-2.51 -0.84,-0.72 1.06,-2.06 -5.04,-2.52 -8.89,-0.68 -7.13,1.7 -8.37,2.52z"/>
   <path class="fil3" d="M728.69 114.04c0.58,0.52 1.81,4.5 9.19,2.07 3.43,-1.13 2.15,-0.7 4.12,-2.07 -0.21,-0.15 -3.27,-7.78 -13.31,0z"/>
   <path class="fil8" d="M967.2 114.04c0.01,0.01 3.79,7.53 13.35,0 -6.88,-5.65 -9.73,-2.46 -13.35,0z"/>
   <path class="fil3" d="M288.35 114.04c1.62,1.19 -2.96,1.97 5.65,2.44 7.71,0.42 6.06,-1.33 7.62,-2.44 -2.22,-1.63 3.93,-2.03 -5.84,-2.53 -8.03,-0.41 -6.18,1.57 -7.43,2.53z"/>
   <path class="fil7" d="M178.28 114.04c1.83,1.34 -3.28,1.96 5.68,2.44 7.83,0.42 6.09,-1.36 7.58,-2.44 -2.26,-1.69 4.03,-2.03 -5.8,-2.52 -7.82,-0.39 -6.12,1.5 -7.46,2.52z"/>
   <path class="fil9" d="M765.44 114.04c1.13,0.85 -2.02,1.98 5.45,2.44 8.18,0.51 6.44,-1.47 7.85,-2.44 -2.78,-1.98 4.52,-2.08 -6.07,-2.55 -7.22,-0.31 -5.6,1.24 -7.23,2.55z"/>
   <path class="fil7" d="M104.88 114.04c1.68,1.21 -3.12,1.96 5.7,2.43 7.5,0.39 5.94,-1.26 7.57,-2.43 -2.26,-1.69 3.93,-2.04 -5.78,-2.54 -7.95,-0.41 -6.15,1.52 -7.49,2.54z"/>
   <path class="fil7" d="M325.04 114.04c1.52,1.1 -2.8,1.96 5.65,2.43 7.67,0.43 6.01,-1.28 7.63,-2.43 -2.31,-1.7 4.05,-2.02 -5.85,-2.52 -8.07,-0.41 -6.2,1.57 -7.43,2.52z"/>
   <path class="fil3" d="M435.12 114.04c1.44,1.06 -2.87,1.96 5.61,2.43 7.89,0.44 6.21,-1.38 7.7,-2.43 -2.35,-1.71 4.15,-2.04 -5.91,-2.53 -7.54,-0.36 -5.85,1.35 -7.41,2.53z"/>
   <path class="fil3" d="M214.97 114.04c1.61,1.17 -2.98,1.97 5.66,2.43 7.41,0.39 5.79,-1.15 7.6,-2.43 -2.39,-1.78 4.24,-2.02 -5.81,-2.53 -7.84,-0.4 -6.11,1.5 -7.46,2.53z"/>
   <path class="fil3" d="M655.36 114.04c1.17,0.88 -2.2,1.97 5.48,2.43 8.06,0.48 6.28,-1.39 7.8,-2.43 -2.49,-1.79 4.38,-2.06 -6.01,-2.53 -7.3,-0.33 -5.67,1.28 -7.26,2.53z"/>
   <path class="fil3" d="M508.51 114.04c1.34,0.98 -2.61,1.96 5.58,2.42 7.65,0.43 6.02,-1.24 7.72,-2.42 -2.71,-1.98 4.62,-2.04 -5.92,-2.53 -7.45,-0.35 -5.84,1.35 -7.38,2.53z"/>
   <path class="fil9" d="M838.8 114.04c6.3,4.74 8.74,3.15 13.32,0 -0.03,-0.02 -3.54,-7.72 -13.32,0z"/>
   <path class="fil2" d="M893.79 114.04c2.89,1.88 -4.38,2.15 6.44,2.5 6.17,0.2 4.53,-0.6 6.9,-2.5 -6.91,-5.84 -9.87,-2.35 -13.35,0z"/>
   <path class="fil6" d="M673.57 114.04c3.26,2.09 -4.91,2.18 6.56,2.51 6.03,0.18 4.39,-0.52 6.82,-2.51 -6.73,-5.76 -9.89,-2.3 -13.39,0z"/>
   <path class="fil5" d="M526.78 114.04c2.89,1.8 -4.44,2.17 6.63,2.49 5.92,0.17 4.26,-0.43 6.79,-2.49 -0.01,-0.01 -0.52,-3.9 -8.63,-2.36 -4.01,0.76 -2.97,1.18 -4.78,2.36z"/>
   <path class="fil2" d="M930.48 114.04c3.07,1.98 -4.74,2.12 6.44,2.49 6.31,0.21 4.5,-0.54 6.94,-2.49 -6.8,-5.66 -9.71,-2.45 -13.38,0z"/>
   <path class="fil10" d="M857.07 114.04c3.04,1.97 -4.67,2.15 6.48,2.5 6.2,0.2 4.58,-0.62 6.94,-2.5 -6.66,-5.49 -9.56,-2.56 -13.42,0z"/>
   <path class="fil9" d="M948.92 114.04c6.42,4.92 8.89,3.02 13.32,0 -2.81,-1.96 4.67,-2.08 -6.15,-2.54 -7.06,-0.3 -5.37,1.1 -7.17,2.54z"/>
   <path class="fil9" d="M912.21 114.04c6.28,4.76 8.74,3.12 13.29,0 -2.91,-2.06 4.78,-2.08 -6.09,-2.54 -7.04,-0.3 -5.38,1.11 -7.2,2.54z"/>
   <path class="fil9" d="M802.1 114.04c6.2,4.63 8.65,3.18 13.33,0 -2.98,-2.13 4.81,-2.08 -6.08,-2.55 -7.06,-0.3 -5.48,1.16 -7.26,2.55z"/>
   <path class="fil4" d="M380.24 116.21l10.06 -0.6c0.53,-0.15 1.13,-0.57 1.55,-0.72 0.41,-0.15 0.98,-0.57 1.46,-0.85 -0.66,-0.39 2.79,-3.05 -6.85,-2.57 -11.86,0.58 -3.83,2.19 -6.22,4.75z"/>
   <path class="fil6" d="M563.47 114.04c3.25,2.07 -4.97,2.18 6.61,2.52 6.11,0.17 4.41,-0.53 6.82,-2.52 -3.74,-3.17 -7.28,-3.99 -13.43,0z"/>
  </g>
 </g>
</svg>
