<?xml version="1.0" encoding="UTF-8"?>
<!DOCTYPE svg PUBLIC "-//W3C//DTD SVG 1.1//EN" "http://www.w3.org/Graphics/SVG/1.1/DTD/svg11.dtd">
<!-- Creator: CorelDRAW 2020 (64-Bit Evaluation Version) -->
<svg xmlns="http://www.w3.org/2000/svg" xml:space="preserve" width="1.84659in" height="0.333331in" version="1.1" style="shape-rendering:geometricPrecision; text-rendering:geometricPrecision; image-rendering:optimizeQuality; fill-rule:evenodd; clip-rule:evenodd"
viewBox="0 0 1846.59 333.33"
 xmlns:xlink="http://www.w3.org/1999/xlink"
 xmlns:xodm="http://www.corel.com/coreldraw/odm/2003">
 <defs>
  <style type="text/css">
   <![CDATA[
    .str0 {stroke:white;stroke-width:3.33;stroke-miterlimit:2.61313}
    .fil0 {fill:white}
    .fil1 {fill:white;fill-rule:nonzero}
   ]]>
  </style>
 </defs>
 <g id="Layer_x0020_1">
  <metadata id="CorelCorpID_0Corel-Layer"/>
  <path class="fil0 str0" d="M1761.94 195.56c-69.17,-3.02 26.43,-6.41 0,0z"/>
  <g id="_2515072834112">
   <path class="fil0" d="M56.35 214.96c0,-10.09 17.84,-16.95 26.26,-19.63 5.92,-1.88 12.03,-3.2 18.79,-4.33 4.99,-0.83 15.87,-2.27 20.85,-2.27 1.11,2.09 3.2,4.7 4.63,6.76 0.6,0.87 0.94,1.47 1.53,2.26 5.51,7.42 6.28,11.89 11.3,4.64 0.64,-0.92 0.98,-1.28 1.59,-2.2l7.87 -11.46c3.25,0 7.37,0.41 10.55,0.84 3.67,0.5 6.52,0.8 10.01,1.38 12.59,2.11 45.35,9.71 45.35,24 0,3.65 -2.63,5.99 -4.92,8.19 -3.8,3.67 -11.75,7.52 -16.94,9.28 -13.05,4.43 -24.37,6.64 -38.49,7.74 -1.46,0.11 -4.44,0.21 -6.09,0.46 -2,0.3 -4.2,0.2 -6.35,0.2 -2.72,-0 -4.24,0.37 -6.56,0.37l-24.75 -1.5c-7.42,-0.91 -15.65,-2.24 -22.45,-4.12 -8.81,-2.43 -24.63,-7.44 -30.24,-15.65 -0.83,-1.22 -1.92,-3.13 -1.92,-4.98zm82.94 32.09l-6.8 0c-9.33,-0.13 -18.32,-0.77 -26.36,-1.83 -13.09,-1.72 -22.86,-4.24 -34.56,-8.92l-8.68 -4.43c-4.56,-3.03 -9.24,-6.31 -11.5,-11.63 -1.58,-3.73 -1.49,-7.11 -0.03,-10.94 5.21,-13.71 31.54,-20.96 43.01,-23.24 3.68,-0.73 19.13,-3.19 23.38,-3.19 -0.31,-1.19 -1.71,-2.72 -2.41,-3.8l-12.22 -17.46c-1.7,-2.45 -3.15,-4.47 -4.83,-6.9 -0.9,-1.3 -1.72,-2.39 -2.51,-3.7 -0.81,-1.35 -1.55,-2.23 -2.29,-3.57 -1.39,-2.51 -2.81,-5.07 -3.81,-7.92 -3.43,-9.71 -4.01,-12.69 -4.01,-23.59 0,-9.16 4.16,-19.51 9.11,-26.08 0.92,-1.22 1.75,-2.06 2.67,-3.2 1.61,-1.99 3.78,-3.99 5.81,-5.57 10.25,-7.95 20.09,-10.69 33.82,-10.69 9.67,0 25.25,5.85 32.35,12.5 0.57,0.54 0.8,0.86 1.41,1.35 0.73,0.58 1,0.65 1.7,1.4 14.65,15.67 16.2,34.42 9.09,54.14 -0.35,0.99 -0.53,1.22 -0.96,2.14l-6.61 11.34c-3,4.41 -20.03,28.13 -20.42,29.61 4.36,0 19.47,2.42 23.38,3.19 11.33,2.25 15.81,4.02 25.47,8l6.43 3.58c2.02,1.3 3.71,2.27 5.54,4.12 5.04,5.06 8.76,10.88 5.54,18.48 -2.16,5.1 -8.65,10.39 -13.68,12.89 -0.89,0.44 -1.53,0.73 -2.31,1.14l-6.85 3.17c-16.02,6.5 -37.4,9.33 -57.89,9.61zm-3.24 -49.69l-0.69 0c-0.35,-1.3 -10.59,-15.41 -11.8,-17.19l-9.53 -13.59c-7.21,-10.82 -15.78,-20.28 -19.87,-32.57 -4.62,-13.87 -2.95,-29.4 5.85,-41 6.97,-9.19 18.06,-15.18 29.53,-16.37 0.99,-0.1 5.61,-0.35 6.06,-0.31 4.11,0.44 7.33,0.69 11.08,1.71 10.78,2.94 21.38,9.19 26.97,18.93 6.75,11.76 7.89,24.17 3.6,37.04 -2.3,6.91 -4.8,11.21 -8.96,16.92l-32.24 46.43z"/>
   <path class="fil0" d="M113.62 117.65c0,-6.76 2.69,-12.2 6.12,-15.62 2,-2 3.61,-3.42 6.39,-4.65 22.8,-10.08 42.16,17.11 25.28,35.29 -5.82,6.27 -16.02,8.41 -24.44,4.75 -4.93,-2.14 -9.01,-6.01 -11.2,-10.89 -1.1,-2.46 -2.16,-5.46 -2.16,-8.88zm20.7 27.6c9.32,0 15.22,-2.31 21.48,-8.54 10.93,-10.87 10.57,-28.65 -0.17,-39.33 -2.44,-2.43 -4.96,-4.29 -8.31,-5.84 -12.44,-5.79 -27.13,-1.07 -34.39,9.21 -0.85,1.21 -1.99,2.76 -2.62,4.28 -5.37,12.94 -2.53,26.39 8.54,34.67 4.1,3.07 9.83,5.56 15.48,5.56z"/>
  </g>
  <g id="_2515072835504">
   <path class="fil0" d="M1742.41 194.54l34.18 0c2.34,0 4.01,1.33 5.12,2.69 2.62,3.2 0.42,7.64 2.24,13.39 0.87,2.73 1.85,3.41 2.73,5.08l-54.69 0c3.01,-4.5 3.61,-5.41 3.58,-12.04 -0.02,-3.34 0.03,-4.24 1.48,-6.33 0.93,-1.34 3.25,-2.78 5.36,-2.78zm-42.65 -96.35c0,-4.83 2.94,-7.16 7.81,-7.16l104.17 0c9.68,0 7.81,8.02 7.81,17.9l-24.42 0c-6.46,0 -4.11,5.21 -2.28,5.21l26.69 0 0 56.31c0,5.39 -3.5,7.16 -8.46,7.16l-102.87 0c-4.96,0 -8.46,-1.78 -8.46,-7.16l0 -56.31 84.31 0c2.04,0 4.04,-5.21 -2.28,-5.21l-82.03 0 0 -10.74zm118.82 -11.07l0 0zm-117.84 0l0 0zm0 0c0.29,-3.48 4.85,-7.39 8.52,-8.41 3.31,-0.92 44.94,-0.38 50.41,-0.38 5.47,0 47.09,-0.54 50.41,0.38 3.66,1.02 8.22,4.93 8.52,8.41 -3.71,-0.86 -0.83,-0.99 -6.51,-0.98l-108.33 0.07c-0.87,0.15 -1.96,0.66 -3,0.9zm-6.19 7.49l0 95.38c0,5.82 4.69,4.49 5.15,2.22 0.37,-1.81 0.06,-8.98 0.06,-11.34 2.09,0.49 2.49,1.63 5.54,1.63l108.72 0c3.05,0 3.44,-1.14 5.54,-1.63 0,9.34 1.46,22.07 -2.05,28.55l-2.89 3.29c-4.23,3.63 -10.29,2.99 -15.89,2.99 -3.96,0 -6.82,-1.58 -8.47,-3.89 -4.52,-6.32 1.46,-11.69 -5.77,-18.98 -2.35,-2.37 -5.15,-3.5 -8.87,-3.5l-32.56 0c-3.65,0 -6.78,1.53 -8.72,3.33 -2.3,2.13 -3.42,4.8 -3.9,8.47 -0.63,4.89 0.75,6.96 -1.7,10.35 -3.68,5.09 -8.47,4.22 -14.66,4.22 -6.59,0 -10.78,-3 -12.92,-7.59 -2.24,-4.81 0.07,-11.93 -4.46,-10.76 -4.19,1.09 -2.15,12.18 3.13,17.95 3.68,4.02 9.19,5.61 14.9,5.61l89.84 0c13.33,0 20.19,-8.33 20.19,-21.16l0 -105.15c0,-2.97 -0.25,-6.32 -0.93,-8.51 -2.23,-7.16 -9.22,-12.98 -16,-12.98l-96.35 0c-2.5,0 -5.56,1.22 -7.27,2.17 -7.53,4.2 -9.66,10.88 -9.66,19.31z"/>
   <path class="fil0" d="M1804.58 206.59c-5.88,0 -8.79,-7.29 -4.49,-11.33 3.91,-3.68 10.89,-1.14 10.85,4.82 -0.02,2.43 -1.58,5.01 -3.78,5.83 -0.3,0.11 -2.36,0.68 -2.58,0.68zm-11.72 -7.16c0,3.72 1.1,6.51 3.32,8.72 0.77,0.77 2.21,1.91 3.18,2.36 4.02,1.87 9.39,1.32 12.63,-1.71 3.84,-3.59 3.98,-5.57 3.98,-10.02 0,-7.36 -11.13,-14.91 -19.58,-7.21 -1.82,1.66 -3.53,5.08 -3.53,7.86z"/>
   <path class="fil0" d="M1714.41 193.57c7.6,0 8.27,8.2 4.98,11.17 -2.66,2.4 -6.46,2.33 -8.98,-0 -4.3,-3.98 -1.14,-11.16 4,-11.16zm-11.07 5.54l0 1.63c0,6.2 5.77,10.93 11.67,10.85 9.36,-0.12 13.88,-10.36 10.21,-16.78 -0.27,-0.46 -0.7,-1.2 -1,-1.6l-0.74 -0.88c-7.69,-8.49 -20.14,-1.97 -20.14,6.8z"/>
   <path class="fil0" d="M1834.53 127.48l0 22.14c0,9.04 -6.59,4.69 -7.56,8.71 -1.42,5.87 12.44,2.82 12.44,-6.11l0 -27.34c0,-7 -9.72,-11.29 -12.04,-8.11 -1.04,1.43 -0.72,3.5 2.63,4.17 3.57,0.72 4.53,2.85 4.53,6.54z"/>
   <path class="fil0" d="M1679.9 124.88l0 27.34c0,8.55 13.34,12.04 12.49,6.33 -0.66,-4.42 -7.61,0.31 -7.61,-8.94l0 -22.14c0,-3.76 1.15,-5.85 4.25,-6.49 5.76,-1.19 2.88,-5.23 1.28,-5.23 -6.22,0 -10.42,4.6 -10.42,9.11z"/>
   <path class="fil0" d="M1709.2 224.17l0 13.67c0,0.78 1.17,1.95 1.95,1.95l19.53 0c1.57,0 2.61,-1.03 2.61,-2.6l0 -13.35c0,-2.3 -5.21,-3.8 -5.21,1.3l0 9.44 -14 0 0 -10.42c0,-3.22 -4.88,-3.22 -4.88,0z"/>
   <path class="fil0" d="M1786.02 223.84l0 13.35c0,1.57 1.03,2.6 2.61,2.6l19.53 0c0.78,0 1.95,-1.17 1.95,-1.95l0 -13.67c0,-3.22 -4.88,-3.22 -4.88,0l0 10.42 -14 0 0 -9.44c0,-1.72 -0.6,-3.07 -2.13,-3.4 -1.3,-0.28 -3.08,0.8 -3.08,2.1z"/>
  </g>
  <g id="_2515072832192">
   <g>
    <path class="fil1" d="M909.55 149.99l-70.82 0 0 -10 70.82 0 0 10zm14.67 0.87l-7.62 -11.75 0 11.75 -55.24 -35.81 7.61 -11.75 55.24 35.81 0 11.75zm0 0l0 -11.75 9.06 5.87 -9.06 5.88zm-59.05 29.96l-3.81 -5.87 55.24 -35.84 7.62 11.75 -55.24 35.84 -3.81 -5.87z"/>
   </g>
  </g>
  <g>
   <g>
    <path class="fil1" d="M298.3 223.45l-0.02 10 -50 -0.12 0.02 -10 50 0.12zm80 0.19l-0.02 10 -50 -0.12 0.02 -10 50 0.12zm80 0.19l-0.02 10 -50 -0.12 0.02 -10 50 0.12zm80 0.19l-0.02 10 -50 -0.12 0.02 -10 50 0.12zm80 0.19l-0.02 10 -50 -0.12 0.02 -10 50 0.12zm80 0.19l-0.02 10 -50 -0.12 0.02 -10 50 0.12zm80 0.19l-0.02 10 -50 -0.12 0.02 -10 50 0.12zm80 0.19l-0.02 10 -50 -0.12 0.02 -10 50 0.12zm80 0.19l-0.02 10 -50 -0.12 0.02 -10 50 0.12zm80 0.19l-0.02 10 -50 -0.12 0.02 -10 50 0.12zm80 0.19l-0.02 10 -50 -0.12 0.02 -10 50 0.12zm80 0.19l-0.02 10 -50 -0.12 0.02 -10 50 0.12zm80 0.19l-0.02 10 -50 -0.12 0.02 -10 50 0.12zm80 0.19l-0.02 10 -50 -0.12 0.02 -10 50 0.12zm80 0.19l-0.02 10 -50 -0.12 0.02 -10 50 0.12zm80 0.19l-0.02 10 -50 -0.12 0.02 -10 50 0.12zm80 0.2l-0.02 10 -50 -0.13 0.02 -10 50 0.13zm47.33 10.12l-17.35 -0.05 0.02 -10 17.35 0.05 -0.02 10zm19.43 -32.96l-0.04 14 0 0 -0.72 0.02 -0.71 0.06 -0.7 0.09 -0.69 0.12 -0.67 0.15 -0.66 0.19 -0.65 0.22 -0.63 0.25 -0.62 0.28 -0.6 0.31 -0.59 0.34 -0.57 0.36 -0.55 0.39 -0.54 0.42 -0.51 0.44 -0.49 0.46 -0.46 0.48 -0.44 0.51 -0.42 0.53 -0.39 0.55 -0.37 0.57 -0.34 0.59 -0.31 0.6 -0.28 0.62 -0.25 0.63 -0.22 0.65 -0.19 0.66 -0.16 0.67 -0.13 0.69 -0.09 0.7 -0.06 0.71 -0.02 0.73 -14 -0.04 0.04 -1.43 0.11 -1.42 0.18 -1.4 0.25 -1.38 0.32 -1.36 0.38 -1.33 0.44 -1.3 0.51 -1.27 0.57 -1.24 0.62 -1.21 0.68 -1.17 0.73 -1.13 0.78 -1.09 0.83 -1.06 0.88 -1.01 0.93 -0.97 0.97 -0.92 1.02 -0.88 1.06 -0.83 1.1 -0.78 1.14 -0.73 1.17 -0.67 1.21 -0.62 1.24 -0.56 1.28 -0.5 1.3 -0.44 1.33 -0.37 1.35 -0.31 1.38 -0.24 1.4 -0.17 1.42 -0.11 1.43 -0.03 0 0zm27.93 28.07l-14 -0.04 0 0 -0.02 -0.72 -0.06 -0.71 -0.09 -0.7 -0.12 -0.69 -0.15 -0.67 -0.19 -0.66 -0.22 -0.65 -0.25 -0.63 -0.28 -0.62 -0.31 -0.6 -0.34 -0.59 -0.36 -0.57 -0.39 -0.55 -0.42 -0.53 -0.44 -0.51 -0.46 -0.49 -0.49 -0.47 -0.51 -0.44 -0.53 -0.42 -0.55 -0.39 -0.57 -0.37 -0.59 -0.34 -0.6 -0.31 -0.62 -0.28 -0.63 -0.25 -0.65 -0.22 -0.66 -0.19 -0.67 -0.16 -0.69 -0.13 -0.7 -0.09 -0.71 -0.06 -0.72 -0.02 0.04 -14 1.43 0.04 1.42 0.11 1.4 0.19 1.38 0.25 1.35 0.32 1.33 0.38 1.3 0.44 1.27 0.51 1.24 0.56 1.21 0.62 1.17 0.68 1.13 0.73 1.09 0.78 1.06 0.83 1.01 0.88 0.97 0.93 0.93 0.97 0.88 1.02 0.83 1.06 0.78 1.1 0.72 1.14 0.67 1.17 0.62 1.21 0.56 1.24 0.5 1.28 0.44 1.3 0.37 1.33 0.31 1.36 0.24 1.38 0.18 1.4 0.11 1.42 0.03 1.43 0 0zm-28.07 27.93l0.04 -14 0 0 0.72 -0.02 0.71 -0.06 0.7 -0.09 0.69 -0.12 0.67 -0.15 0.66 -0.19 0.65 -0.22 0.63 -0.25 0.62 -0.28 0.6 -0.31 0.59 -0.34 0.57 -0.36 0.55 -0.39 0.54 -0.42 0.51 -0.44 0.49 -0.46 0.46 -0.48 0.44 -0.51 0.42 -0.53 0.39 -0.55 0.37 -0.57 0.34 -0.59 0.31 -0.6 0.28 -0.62 0.25 -0.63 0.22 -0.65 0.19 -0.66 0.16 -0.67 0.13 -0.69 0.09 -0.7 0.06 -0.71 0.02 -0.73 14 0.04 -0.04 1.43 -0.11 1.42 -0.18 1.4 -0.25 1.38 -0.32 1.36 -0.38 1.33 -0.44 1.3 -0.51 1.27 -0.57 1.24 -0.62 1.21 -0.68 1.17 -0.73 1.13 -0.78 1.09 -0.83 1.06 -0.88 1.01 -0.93 0.97 -0.97 0.92 -1.02 0.88 -1.06 0.83 -1.1 0.78 -1.14 0.73 -1.17 0.67 -1.21 0.62 -1.24 0.56 -1.28 0.5 -1.3 0.44 -1.33 0.37 -1.35 0.31 -1.38 0.24 -1.4 0.17 -1.42 0.11 -1.43 0.03 0 0zm-27.93 -28.07l14 0.04 0.02 0.72 0.06 0.71 0.09 0.7 0.12 0.69 0.15 0.67 0.19 0.66 0.22 0.65 0.25 0.63 0.28 0.62 0.31 0.6 0.34 0.59 0.36 0.57 0.39 0.55 0.42 0.53 0.44 0.51 0.46 0.49 0.49 0.47 0.51 0.44 0.53 0.42 0.55 0.39 0.57 0.37 0.59 0.34 0.6 0.31 0.62 0.28 0.63 0.25 0.65 0.22 0.66 0.19 0.67 0.16 0.69 0.13 0.7 0.09 0.71 0.06 0.72 0.02 -0.04 14 -1.43 -0.04 -1.42 -0.11 -1.4 -0.19 -1.38 -0.25 -1.35 -0.32 -1.33 -0.38 -1.3 -0.44 -1.27 -0.51 -1.24 -0.56 -1.21 -0.62 -1.17 -0.68 -1.13 -0.73 -1.09 -0.78 -1.06 -0.83 -1.01 -0.88 -0.97 -0.93 -0.93 -0.97 -0.88 -1.02 -0.83 -1.06 -0.78 -1.1 -0.72 -1.14 -0.67 -1.17 -0.62 -1.21 -0.56 -1.24 -0.5 -1.28 -0.44 -1.3 -0.37 -1.33 -0.31 -1.36 -0.24 -1.38 -0.18 -1.4 -0.11 -1.42 -0.03 -1.43z"/>
   </g>
  </g>
 </g>
</svg>
