<?xml version="1.0" encoding="UTF-8"?>
<!DOCTYPE svg PUBLIC "-//W3C//DTD SVG 1.1//EN" "http://www.w3.org/Graphics/SVG/1.1/DTD/svg11.dtd">
<!-- Creator: CorelDRAW 2020 (64-Bit Evaluation Version) -->
<svg xmlns="http://www.w3.org/2000/svg" xml:space="preserve" width="1.19577in" height="1.13329in" version="1.1" style="shape-rendering:geometricPrecision; text-rendering:geometricPrecision; image-rendering:optimizeQuality; fill-rule:evenodd; clip-rule:evenodd"
viewBox="0 0 1195.77 1133.29"
 xmlns:xlink="http://www.w3.org/1999/xlink"
 xmlns:xodm="http://www.corel.com/coreldraw/odm/2003">
 <defs>
  <style type="text/css">
   <![CDATA[
    .fil1 {fill:#09793E}
    .fil3 {fill:#121611}
    .fil0 {fill:#E52A26}
    .fil2 {fill:#FCFCFC}
   ]]>
  </style>
 </defs>
 <g id="Layer_x0020_1">
  <metadata id="CorelCorpID_0Corel-Layer"/>
  <g id="_1663718794672">
   <path class="fil0" d="M267.05 542.31c0.56,-0.11 15.03,-0.42 18.57,-0.76 -8.03,-14.33 -27.09,-21.08 -40.08,-48.29 -23.11,-48.45 -1.83,-44.33 4,-60.55 -23.97,-17.51 -29.66,-69.18 -31.19,-105.81 25.35,15.45 31.95,37.52 67.1,55.16 33.2,16.66 51.26,3.87 82.23,35.18 47.43,47.93 5.67,163.09 52.27,175.97 26.7,-45.36 -29.27,-99.48 -6.8,-150.64 30.78,-70.1 73.8,-19.15 114.67,-1.71 -6.04,5.72 -0.26,0.35 -10.1,5.43 -6.31,3.26 -17.43,3.71 -20.29,20.81 -5.82,34.86 49.69,89.96 60.06,108.58 28.69,51.55 9.13,142.59 -30.07,171.37 -63.89,46.91 -126.09,-6.11 -164.01,-28.78 -94.82,-56.7 -116.24,-3.74 -159.35,14.04l5.23 -108.19c23.1,7.7 23.98,17.83 44.67,24.22 18.81,5.81 47.41,4.27 67.69,5.06 -8.63,-16.73 0.84,-3.55 -13.54,-17.83 -10.54,-10.46 -15.55,-9.69 -30.64,-30.36 -13.87,-19.01 -22.09,-34.3 -28.44,-56.76l8.86 -3.76c1.47,-0.44 2.89,-1.01 4.52,-1.41 1.62,-0.4 2.99,-0.66 4.62,-0.96zm476.63 46.17c56.24,4.75 2.2,-124.06 59.79,-175.09 29.13,-25.8 53.91,-17.4 83.38,-33.8 35.61,-19.83 42.4,-43.55 63.16,-53.07 -2.46,40.28 -11.24,85.74 -30.93,109.22 3.15,18.44 26.3,10.31 1.7,58.9 -12.04,23.78 -31.59,35.33 -37.98,48.07l36.44 -0.96c-14.11,74.35 -60.44,81.31 -74.09,110.84 104.04,1.28 73.43,-16.41 113.5,-27.85l4.45 107.41c-25.26,-8.8 -32.85,-32.46 -75.85,-37.09 -95.92,-10.3 -157.28,123.45 -249.23,51.09 -37.17,-29.25 -56.13,-116.57 -29.34,-168.74 13.33,-25.96 68.36,-76.22 60.6,-110.95 -5.81,-25.99 -13.52,-13.88 -32.16,-20.48 0.81,-1.21 86.98,-80.14 113.78,-7.28 21.61,58.77 -25.33,109.79 -7.24,149.78zm-656.96 199.83l995.79 0.08c-2.33,-40.3 29.9,-118.76 -9.54,-256.74 -119.07,-416.55 -644.85,-486.03 -879.14,-189.79 -71.21,90.05 -118.02,189.74 -118.88,314.16 -0.39,56.2 6.54,83.13 11.76,132.29z"/>
   <path class="fil1" d="M268.24 1067.55c36.4,-27.31 385.14,-21.7 408.06,-103.44 -31.75,-25.31 -152.29,-35.85 -171.17,-89.76 -12.91,-36.87 3.91,-49.16 14.22,-72.65 -64.63,1.5 -401.09,10.49 -431.3,-4.56 11.2,27.09 18.58,57.16 30.73,83.82 11.91,26.15 26.76,50.51 40.84,72.3 18.82,29.11 74.03,95.39 108.62,114.3z"/>
   <path class="fil2" d="M743.67 588.48c-18.09,-40 28.85,-91.01 7.24,-149.78 -26.8,-72.86 -112.97,6.07 -113.78,7.28 18.64,6.6 26.35,-5.52 32.16,20.48 7.76,34.73 -47.27,84.99 -60.6,110.95 -26.79,52.17 -7.82,139.49 29.34,168.74 91.95,72.37 153.31,-61.39 249.23,-51.09 43,4.62 50.59,28.29 75.85,37.09l-4.45 -107.41c-40.07,11.44 -9.46,29.13 -113.5,27.85 13.65,-29.53 59.98,-36.48 74.09,-110.84l-36.44 0.96c6.39,-12.74 25.94,-24.29 37.98,-48.07 24.6,-48.59 1.44,-40.46 -1.7,-58.9 19.69,-23.48 28.46,-68.94 30.93,-109.22 -20.76,9.52 -27.54,33.24 -63.16,53.07 -29.46,16.4 -54.25,8 -83.38,33.8 -57.59,51.03 -3.55,179.84 -59.79,175.09z"/>
   <path class="fil2" d="M249.54 432.71c-5.84,16.22 -27.12,12.1 -4,60.55 12.98,27.21 32.05,33.96 40.08,48.29 -3.54,0.34 -18.01,0.65 -18.57,0.76 -1.63,0.3 -3,0.56 -4.62,0.96 -1.63,0.4 -3.05,0.98 -4.52,1.41l-8.86 3.76c6.34,22.47 14.57,37.75 28.44,56.76 15.09,20.68 20.1,19.9 30.64,30.36 14.38,14.28 4.91,1.1 13.54,17.83 -20.29,-0.79 -48.88,0.75 -67.69,-5.06 -20.69,-6.39 -21.57,-16.52 -44.67,-24.22l-5.23 108.19c43.11,-17.78 64.53,-70.74 159.35,-14.04 37.92,22.68 100.12,75.69 164.01,28.78 39.2,-28.78 58.76,-119.82 30.07,-171.37 -10.37,-18.63 -65.87,-73.72 -60.06,-108.58 2.86,-17.1 13.98,-17.56 20.29,-20.81 9.84,-5.08 4.07,0.29 10.1,-5.43 -40.87,-17.44 -83.89,-68.39 -114.67,1.71 -22.47,51.15 33.5,105.28 6.8,150.64 -46.6,-12.88 -4.85,-128.04 -52.27,-175.97 -30.98,-31.31 -49.03,-18.52 -82.23,-35.18 -35.15,-17.64 -41.75,-39.71 -67.1,-55.16 1.52,36.63 7.21,88.3 31.19,105.81z"/>
   <path class="fil1" d="M800.04 1111.97l36.27 0c20.67,-19.37 56.74,-38.03 76.65,-56.02 23.71,-21.43 42.32,-39.55 67.44,-70.87 42.96,-53.57 70,-110.22 91.77,-182.22l-420.72 -0.04c-16.26,-0.18 -46.19,-5.7 -56.31,8.12 -35.5,48.44 153.72,1.08 238.05,78.54 78.63,72.22 27.62,159.06 -33.14,222.5z"/>
   <path class="fil0" d="M1168.22 650.71c-2.13,-83.53 -27.57,-173.34 -58.75,-237.09 -24.15,-49.37 -91.38,-147.86 -126.41,-168.9l-21.63 18.47c8.11,14.63 -2.01,8.55 15.23,27.12 44.99,48.46 69.58,77.5 101.77,143.16 89.96,183.5 71.45,384.65 -43.52,549.98 -14.67,21.1 -54.92,64.54 -60.06,77.29 10.82,13.22 8.05,11.44 24.97,18.54 38.09,-18.43 102.2,-127.56 122.47,-178.07 32.37,-80.61 48.44,-151.14 45.92,-250.49z"/>
   <path class="fil3" d="M88.05 797.13c30.21,15.06 366.67,6.06 431.3,4.56 -10.31,23.5 -27.13,35.78 -14.22,72.65 18.88,53.92 139.42,64.45 171.17,89.76 -22.91,81.74 -371.65,76.13 -408.06,103.44 10.93,7.17 418.41,-29.46 419.8,-99.02 0.61,-30.97 -77.23,-30.59 -139.87,-65.9 -21.5,-12.12 -45.65,-28.41 -34.76,-66.05 9,-31.09 33.5,-31.11 68.06,-32.72 0.7,36.28 6.13,41.23 44.04,43.07 65.03,3.16 148.59,7.51 197.4,47.38 94.91,77.54 1.25,171.15 -36.89,217.65l14.01 0c60.76,-63.44 111.77,-150.28 33.14,-222.5 -84.33,-77.45 -273.55,-30.09 -238.05,-78.54 10.12,-13.81 40.05,-8.3 56.31,-8.12l420.72 0.04 13.3 -0.4 -2.96 -14.06 -995.79 -0.08 1.34 8.82z"/>
   <path class="fil2" d="M1047.75 1111.97l131.37 0 0 -210.45c-15.22,19.61 -37.84,80.25 -57.71,111.66 -23.36,36.95 -50.3,70.2 -73.67,98.79z"/>
   <path class="fil0" d="M26.46 451.26l0 122.18c15.86,-31.02 16.41,-86.97 69.13,-176.13 14.78,-25 34.9,-52.21 50.7,-72.29 16.07,-20.43 49.94,-48.65 60.17,-68.59l-25.41 -20.71c-90.68,67.2 -129.58,179.96 -154.59,215.54z"/>
   <path class="fil0" d="M1179.13 534.46l0 -97.37c-4.89,-5.89 -103.5,-214.65 -166.43,-228.98 -25.11,35 -11.25,22.43 39.02,83.59 46.68,56.8 86.63,126.31 110.15,197.52 5.37,16.28 7.94,32.06 17.25,45.23z"/>
   <path class="fil0" d="M26.46 891.9c20.31,31.45 33.83,70.49 57.94,105.65 18.34,26.73 52.67,82.54 82.45,90.23l16.13 -21.32c-8.72,-23.64 -30.85,-39.63 -48.61,-62.4 -83.5,-107.06 -88.28,-199.57 -107.91,-217.74l0 105.59z"/>
   <path class="fil0" d="M1035.26 1111.97l12.5 0c23.37,-28.59 50.3,-61.84 73.67,-98.79 19.87,-31.41 42.48,-92.06 57.71,-111.66l0 -92.97c-10.97,15.76 -18.37,53.33 -30.85,82.79 -54.37,128.26 -85.93,134.27 -129.67,200.13l16.65 20.5z"/>
   <path class="fil0" d="M329.44 60.82c3.82,21.69 6.56,8.39 9.35,32.15 -40.19,32.21 -36.2,74.93 5.29,111.65 18.37,-1.96 19.01,-5.2 31.3,-14.78 -0.66,-1.11 -1.83,-4.04 -2.17,-3.22 -0.12,0.29 -36.34,-41.31 -30.05,-90.46 20.18,-11.05 33.29,-24.24 49.22,8.99 8.33,17.39 17.74,48.91 22.9,64.93 21.73,1.18 16.09,0.21 35.02,-7.23 -3.09,-17.58 -3.95,-7.31 -10.78,-26.8 -3.87,-11.04 -4.97,-20.48 -8.24,-32.33 -8.99,-32.59 -16.17,-36.52 -51.34,-34.65 -0.84,-1.26 -1.7,-4.87 -2.1,-4.03 -5.5,11.88 2.49,-6.62 -13.27,-20.19l-35.13 15.97z"/>
   <path class="fil0" d="M558.17 7.67l-2.09 7.91c-8.42,32.06 -17.02,11.56 -37.28,41.79 -19.65,29.32 -17.8,51.07 27.25,42.33 4.5,-29.35 2.11,-45.18 28.56,-52.33 33.03,38.13 -24.83,89.83 43.56,92.41 -0.88,-24.22 1.61,-75.55 -6.19,-95.39 -8.98,-22.86 -26.58,-42.49 -53.81,-36.71z"/>
   <path class="fil0" d="M26.46 336.69l0 67.45c18.69,-20.43 44.88,-88.51 118.19,-157.54 13.8,-12.99 12.91,-7.78 15.75,-26.03 -32.17,-26.47 -38.04,-5.56 -75.56,38.01 -21.26,24.69 -36.74,53.57 -58.38,78.11z"/>
   <path class="fil0" d="M689.33 151.88c52.2,9.3 9.35,4.77 82.54,-25.53 46.8,-19.37 24.66,-45.19 58.89,-55.91 12.43,25.19 -21.91,37.13 20.5,64.17l21.98 -47.24c-17.74,-16.45 -51.29,-33.45 -83.45,-37.87 -21.97,30.31 -7.86,37.94 -42.68,56.24 -26.72,14.04 -48.85,15.47 -57.77,46.14z"/>
   <path class="fil0" d="M26.46 1008.47c13.29,12.93 24.66,34.43 39.28,53.81 13.06,17.33 28.59,34.8 40.83,49.69l38.99 0c-1.7,-23.75 -17.57,-32.7 -30.93,-47.09 -14.34,-15.43 -19.85,-22.97 -32.24,-39.51 -18.38,-24.54 -37.65,-64.5 -55.92,-86.45l0 69.56z"/>
   <path class="fil2" d="M26.46 1111.97l80.11 0c-12.24,-14.89 -27.77,-32.35 -40.83,-49.69 -14.62,-19.39 -25.99,-40.89 -39.28,-53.81l0 103.5z"/>
   <path class="fil0" d="M869.95 145.2c74.21,24.83 69.25,-41.46 15.86,-49.01 2.73,8.76 7.63,17 1.89,27.51 -6.34,11.59 1.77,-2.73 -7.51,7.83l-5.46 5.92c-0.8,1.01 -1.82,2.88 -2.46,3.75 -0.65,0.89 -1.6,2.64 -2.32,4.01z"/>
   <path class="fil0" d="M705.15 89.43l23.09 6.76c4.71,-6.87 2.75,-1.97 7.07,-13.57 14.63,-39.37 6.28,-8.05 21.63,-39.42 -33.14,-0.37 -67.64,8.71 -51.78,46.24z"/>
  </g>
 </g>
</svg>
