<?xml version="1.0" encoding="UTF-8"?>
<!DOCTYPE svg PUBLIC "-//W3C//DTD SVG 1.1//EN" "http://www.w3.org/Graphics/SVG/1.1/DTD/svg11.dtd">
<!-- Creator: CorelDRAW 2020 (64-Bit Evaluation Version) -->
<svg xmlns="http://www.w3.org/2000/svg" xml:space="preserve" width="2.01943in" height="0.183331in" version="1.1" style="shape-rendering:geometricPrecision; text-rendering:geometricPrecision; image-rendering:optimizeQuality; fill-rule:evenodd; clip-rule:evenodd"
viewBox="0 0 2019.43 183.33"
 xmlns:xlink="http://www.w3.org/1999/xlink"
 xmlns:xodm="http://www.corel.com/coreldraw/odm/2003">
 <defs>
  <style type="text/css">
   <![CDATA[
    .fil0 {fill:none;fill-rule:nonzero}
    .fil5 {fill:#0F0605;fill-rule:nonzero}
    .fil3 {fill:#140201;fill-rule:nonzero}
    .fil1 {fill:#2D2D2D;fill-rule:nonzero}
    .fil4 {fill:white;fill-rule:nonzero}
    .fil2 {fill:#2D2D2D;fill-rule:nonzero}
   ]]>
  </style>
 </defs>
 <g id="Layer_x0020_1">
  <metadata id="CorelCorpID_0Corel-Layer"/>
  <path id="path158" class="fil0" d="M1659.81 126.35c-0.6,-0.64 -1.41,-1.07 -2.31,-1.24l-5.47 -1.01c-1.19,-0.22 -2.25,0.79 -1.99,1.93l0.06 0.33"/>
  <path id="path254" class="fil1" d="M1949.48 150.3l-8.28 0c-1.16,0 -2.09,-0.88 -2.09,-1.96 0,-1.09 0.93,-1.96 2.09,-1.96l8.28 0c1.13,0 2.06,0.88 2.06,1.96 0,1.09 -0.93,1.96 -2.06,1.96z"/>
  <path id="path256" class="fil2" d="M105.38 150.3l-16.54 0c-1.15,0 -2.07,-0.88 -2.07,-1.96 0,-1.09 0.93,-1.96 2.07,-1.96l16.54 0c1.14,0 2.07,0.88 2.07,1.96 0,1.09 -0.93,1.96 -2.07,1.96zm44.1 0l-16.54 0c-1.14,0 -2.07,-0.88 -2.07,-1.96 0,-1.09 0.93,-1.96 2.07,-1.96l16.54 0c1.14,0 2.07,0.88 2.07,1.96 0,1.09 -0.93,1.96 -2.07,1.96zm44.1 0l-16.54 0c-1.15,0 -2.07,-0.88 -2.07,-1.96 0,-1.09 0.93,-1.96 2.07,-1.96l16.54 0c1.15,0 2.07,0.88 2.07,1.96 0,1.09 -0.92,1.96 -2.07,1.96zm44.11 0l-16.54 0c-1.14,0 -2.07,-0.88 -2.07,-1.96 0,-1.09 0.93,-1.96 2.07,-1.96l16.54 0c1.14,0 2.07,0.88 2.07,1.96 0,1.09 -0.93,1.96 -2.07,1.96zm44.1 0l-16.54 0c-1.15,0 -2.07,-0.88 -2.07,-1.96 0,-1.09 0.93,-1.96 2.07,-1.96l16.54 0c1.14,0 2.07,0.88 2.07,1.96 0,1.09 -0.93,1.96 -2.07,1.96zm44.11 0l-16.54 0c-1.15,0 -2.07,-0.88 -2.07,-1.96 0,-1.09 0.93,-1.96 2.07,-1.96l16.54 0c1.14,0 2.07,0.88 2.07,1.96 0,1.09 -0.93,1.96 -2.07,1.96zm44.1 0l-16.54 0c-1.14,0 -2.07,-0.88 -2.07,-1.96 0,-1.09 0.93,-1.96 2.07,-1.96l16.54 0c1.14,0 2.07,0.88 2.07,1.96 0,1.09 -0.93,1.96 -2.07,1.96zm44.1 0l-16.54 0c-1.15,0 -2.07,-0.88 -2.07,-1.96 0,-1.09 0.93,-1.96 2.07,-1.96l16.54 0c1.14,0 2.07,0.88 2.07,1.96 0,1.09 -0.93,1.96 -2.07,1.96zm44.1 0l-16.54 0c-1.14,0 -2.07,-0.88 -2.07,-1.96 0,-1.09 0.93,-1.96 2.07,-1.96l16.54 0c1.14,0 2.07,0.88 2.07,1.96 0,1.09 -0.93,1.96 -2.07,1.96zm44.11 0l-16.54 0c-1.15,0 -2.07,-0.88 -2.07,-1.96 0,-1.09 0.93,-1.96 2.07,-1.96l16.54 0c1.14,0 2.07,0.88 2.07,1.96 0,1.09 -0.93,1.96 -2.07,1.96zm44.1 0l-16.54 0c-1.15,0 -2.07,-0.88 -2.07,-1.96 0,-1.09 0.93,-1.96 2.07,-1.96l16.54 0c1.15,0 2.07,0.88 2.07,1.96 0,1.09 -0.93,1.96 -2.07,1.96zm44.1 0l-16.54 0c-1.14,0 -2.07,-0.88 -2.07,-1.96 0,-1.09 0.93,-1.96 2.07,-1.96l16.54 0c1.15,0 2.07,0.88 2.07,1.96 0,1.09 -0.93,1.96 -2.07,1.96zm44.11 0l-16.54 0c-1.15,0 -2.07,-0.88 -2.07,-1.96 0,-1.09 0.93,-1.96 2.07,-1.96l16.54 0c1.13,0 2.06,0.88 2.06,1.96 0,1.09 -0.93,1.96 -2.06,1.96zm44.09 0l-16.53 0c-1.16,0 -2.09,-0.88 -2.09,-1.96 0,-1.09 0.93,-1.96 2.09,-1.96l16.53 0c1.16,0 2.09,0.88 2.09,1.96 0,1.09 -0.93,1.96 -2.09,1.96zm44.1 0l-16.53 0c-1.13,0 -2.06,-0.88 -2.06,-1.96 0,-1.09 0.93,-1.96 2.06,-1.96l16.53 0c1.16,0 2.09,0.88 2.09,1.96 0,1.09 -0.93,1.96 -2.09,1.96zm44.13 0l-16.57 0c-1.13,0 -2.06,-0.88 -2.06,-1.96 0,-1.09 0.93,-1.96 2.06,-1.96l16.57 0c1.13,0 2.05,0.88 2.05,1.96 0,1.09 -0.93,1.96 -2.05,1.96zm44.09 0l-16.53 0c-1.16,0 -2.09,-0.88 -2.09,-1.96 0,-1.09 0.93,-1.96 2.09,-1.96l16.53 0c1.13,0 2.05,0.88 2.05,1.96 0,1.09 -0.93,1.96 -2.05,1.96zm44.09 0l-16.53 0c-1.16,0 -2.09,-0.88 -2.09,-1.96 0,-1.09 0.93,-1.96 2.09,-1.96l16.53 0c1.16,0 2.09,0.88 2.09,1.96 0,1.09 -0.93,1.96 -2.09,1.96zm44.09 0l-16.53 0c-1.13,0 -2.05,-0.88 -2.05,-1.96 0,-1.09 0.93,-1.96 2.05,-1.96l16.53 0c1.16,0 2.09,0.88 2.09,1.96 0,1.09 -0.93,1.96 -2.09,1.96zm44.1 0l-16.53 0c-1.13,0 -2.06,-0.88 -2.06,-1.96 0,-1.09 0.93,-1.96 2.06,-1.96l16.53 0c1.16,0 2.09,0.88 2.09,1.96 0,1.09 -0.93,1.96 -2.09,1.96zm44.13 0l-16.53 0c-1.16,0 -2.09,-0.88 -2.09,-1.96 0,-1.09 0.93,-1.96 2.09,-1.96l16.53 0c1.13,0 2.06,0.88 2.06,1.96 0,1.09 -0.93,1.96 -2.06,1.96zm44.1 0l-16.53 0c-1.16,0 -2.09,-0.88 -2.09,-1.96 0,-1.09 0.93,-1.96 2.09,-1.96l16.53 0c1.13,0 2.05,0.88 2.05,1.96 0,1.09 -0.93,1.96 -2.05,1.96zm44.09 0l-16.53 0c-1.16,0 -2.09,-0.88 -2.09,-1.96 0,-1.09 0.93,-1.96 2.09,-1.96l16.53 0c1.16,0 2.09,0.88 2.09,1.96 0,1.09 -0.93,1.96 -2.09,1.96zm44.09 0l-16.53 0c-1.13,0 -2.06,-0.88 -2.06,-1.96 0,-1.09 0.93,-1.96 2.06,-1.96l16.53 0c1.16,0 2.09,0.88 2.09,1.96 0,1.09 -0.93,1.96 -2.09,1.96zm44.13 0l-16.53 0c-1.16,0 -2.09,-0.88 -2.09,-1.96 0,-1.09 0.93,-1.96 2.09,-1.96l16.53 0c1.13,0 2.06,0.88 2.06,1.96 0,1.09 -0.93,1.96 -2.06,1.96zm44.09 0l-16.53 0c-1.16,0 -2.09,-0.88 -2.09,-1.96 0,-1.09 0.93,-1.96 2.09,-1.96l16.53 0c1.13,0 2.06,0.88 2.06,1.96 0,1.09 -0.93,1.96 -2.06,1.96zm44.09 0l-16.53 0c-1.16,0 -2.05,-0.88 -2.05,-1.96 0,-1.09 0.89,-1.96 2.05,-1.96l16.53 0c1.16,0 2.09,0.88 2.09,1.96 0,1.09 -0.93,1.96 -2.09,1.96zm44.1 0l-16.53 0c-1.13,0 -2.06,-0.88 -2.06,-1.96 0,-1.09 0.93,-1.96 2.06,-1.96l16.53 0c1.16,0 2.09,0.88 2.09,1.96 0,1.09 -0.93,1.96 -2.09,1.96zm44.13 0l-16.56 0c-1.13,0 -2.06,-0.88 -2.06,-1.96 0,-1.09 0.93,-1.96 2.06,-1.96l16.56 0c1.13,0 2.06,0.88 2.06,1.96 0,1.09 -0.93,1.96 -2.06,1.96zm44.1 0l-16.53 0c-1.16,0 -2.09,-0.88 -2.09,-1.96 0,-1.09 0.93,-1.96 2.09,-1.96l16.53 0c1.13,0 2.05,0.88 2.05,1.96 0,1.09 -0.93,1.96 -2.05,1.96zm44.09 0l-16.53 0c-1.16,0 -2.09,-0.88 -2.09,-1.96 0,-1.09 0.93,-1.96 2.09,-1.96l16.53 0c1.16,0 2.09,0.88 2.09,1.96 0,1.09 -0.93,1.96 -2.09,1.96zm44.09 0l-16.53 0c-1.13,0 -2.06,-0.88 -2.06,-1.96 0,-1.09 0.93,-1.96 2.06,-1.96l16.53 0c1.16,0 2.09,0.88 2.09,1.96 0,1.09 -0.93,1.96 -2.09,1.96zm44.13 0l-16.57 0c-1.13,0 -2.05,-0.88 -2.05,-1.96 0,-1.09 0.93,-1.96 2.05,-1.96l16.57 0c1.13,0 2.06,0.88 2.06,1.96 0,1.09 -0.93,1.96 -2.06,1.96zm44.09 0l-16.53 0c-1.16,0 -2.09,-0.88 -2.09,-1.96 0,-1.09 0.93,-1.96 2.09,-1.96l16.53 0c1.13,0 2.06,0.88 2.06,1.96 0,1.09 -0.93,1.96 -2.06,1.96zm44.09 0l-16.53 0c-1.16,0 -2.09,-0.88 -2.09,-1.96 0,-1.09 0.93,-1.96 2.09,-1.96l16.53 0c1.16,0 2.09,0.88 2.09,1.96 0,1.09 -0.93,1.96 -2.09,1.96zm44.1 0l-16.53 0c-1.13,0 -2.06,-0.88 -2.06,-1.96 0,-1.09 0.93,-1.96 2.06,-1.96l16.53 0c1.16,0 2.09,0.88 2.09,1.96 0,1.09 -0.93,1.96 -2.09,1.96zm44.13 0l-16.57 0c-1.13,0 -2.06,-0.88 -2.06,-1.96 0,-1.09 0.93,-1.96 2.06,-1.96l16.57 0c1.13,0 2.05,0.88 2.05,1.96 0,1.09 -0.93,1.96 -2.05,1.96zm44.09 0l-16.53 0c-1.16,0 -2.09,-0.88 -2.09,-1.96 0,-1.09 0.93,-1.96 2.09,-1.96l16.53 0c1.13,0 2.06,0.88 2.06,1.96 0,1.09 -0.93,1.96 -2.06,1.96zm44.09 0l-16.53 0c-1.16,0 -2.09,-0.88 -2.09,-1.96 0,-1.09 0.93,-1.96 2.09,-1.96l16.53 0c1.16,0 2.09,0.88 2.09,1.96 0,1.09 -0.93,1.96 -2.09,1.96zm44.09 0l-16.53 0c-1.13,0 -2.05,-0.88 -2.05,-1.96 0,-1.09 0.93,-1.96 2.05,-1.96l16.53 0c1.16,0 2.09,0.88 2.09,1.96 0,1.09 -0.93,1.96 -2.09,1.96zm44.13 0l-16.56 0c-1.13,0 -2.06,-0.88 -2.06,-1.96 0,-1.09 0.93,-1.96 2.06,-1.96l16.56 0c1.13,0 2.06,0.88 2.06,1.96 0,1.09 -0.93,1.96 -2.06,1.96zm44.09 0l-16.53 0c-1.16,0 -2.09,-0.88 -2.09,-1.96 0,-1.09 0.93,-1.96 2.09,-1.96l16.53 0c1.13,0 2.06,0.88 2.06,1.96 0,1.09 -0.93,1.96 -2.06,1.96z"/>
  <path id="path258" class="fil1" d="M61.28 150.3l-8.28 0c-1.15,0 -2.07,-0.88 -2.07,-1.96 0,-1.09 0.93,-1.96 2.07,-1.96l8.28 0c1.14,0 2.07,0.88 2.07,1.96 0,1.09 -0.93,1.96 -2.07,1.96z"/>
  <path id="path260" class="fil1" d="M40.56 141.5c0,-6.52 5.57,-11.81 12.44,-11.81 6.87,0 12.44,5.29 12.44,11.81 0,6.53 -5.57,11.81 -12.44,11.81 -6.87,0 -12.44,-5.28 -12.44,-11.81z"/>
  <path id="path262" class="fil3" d="M9.46 49.83c0,-22.83 19.49,-41.35 43.54,-41.35 24.04,0 43.53,18.51 43.53,41.35 0,21.94 -35.97,74.18 -43.53,74.18 -7.56,0 -43.54,-47.79 -43.54,-74.18z"/>
  <path id="path264" class="fil4" d="M25.2 49.83c0,-14.57 12.44,-26.39 27.79,-26.39 15.34,0 27.78,11.81 27.78,26.39 0,14.57 -12.44,26.39 -27.78,26.39 -15.35,0 -27.79,-11.81 -27.79,-26.39z"/>
  <path id="path266" class="fil1" d="M1957.33 147.46c0,-6.53 5.56,-11.81 12.46,-11.81 6.85,0 12.42,5.29 12.42,11.81 0,6.52 -5.57,11.81 -12.42,11.81 -6.89,0 -12.46,-5.29 -12.46,-11.81z"/>
  <path id="path268" class="fil5" d="M1926.26 55.79c0,-22.83 19.48,-41.34 43.53,-41.34 24.05,0 43.53,18.51 43.53,41.34 0,21.94 -35.98,74.18 -43.53,74.18 -7.56,0 -43.53,-47.79 -43.53,-74.18z"/>
  <path id="path270" class="fil4" d="M1941.99 55.79c0,-14.57 12.46,-26.39 27.8,-26.39 15.34,0 27.8,11.81 27.8,26.39 0,14.57 -12.46,26.39 -27.8,26.39 -15.34,0 -27.8,-11.81 -27.8,-26.39z"/>
  <path id="path278" class="fil1" d="M1094.07 149.04l-25.28 26.91c-0.96,1.06 -2.39,1.67 -3.88,1.72l-4.37 0.11c-1.76,0.05 -2.95,-1.67 -2.26,-3.21l12.49 -26.63c0.26,-0.53 0.8,-0.89 1.43,-0.9l20.64 -0.52c1.39,-0.04 2.19,1.54 1.22,2.54z"/>
  <g>
   <path id="path280" class="fil1" d="M1067.17 118.32l26.77 25.59c0.99,0.95 0.3,2.56 -1.09,2.6l-20.64 0.52c-0.63,0.02 -1.19,-0.31 -1.46,-0.83l-13.98 -25.96c-0.8,-1.5 0.3,-3.28 2.09,-3.32l4.34 -0.11c1.49,-0.04 2.95,0.51 3.97,1.52l0 -0zm0 0l0 0 0 0z"/>
  </g>
 </g>
</svg>
