<?xml version="1.0" encoding="UTF-8"?>
<!DOCTYPE svg PUBLIC "-//W3C//DTD SVG 1.1//EN" "http://www.w3.org/Graphics/SVG/1.1/DTD/svg11.dtd">
<!-- Creator: CorelDRAW 2020 (64-Bit Evaluation Version) -->
<svg xmlns="http://www.w3.org/2000/svg" xml:space="preserve" width="22.0261in" height="1.68333in" version="1.1" style="shape-rendering:geometricPrecision; text-rendering:geometricPrecision; image-rendering:optimizeQuality; fill-rule:evenodd; clip-rule:evenodd"
viewBox="0 0 22026.09 1683.33"
 xmlns:xlink="http://www.w3.org/1999/xlink"
 xmlns:xodm="http://www.corel.com/coreldraw/odm/2003">
 <defs>
  <style type="text/css">
   <![CDATA[
    .fil0 {fill:none;fill-rule:nonzero}
    .fil5 {fill:#0F0605;fill-rule:nonzero}
    .fil3 {fill:#140201;fill-rule:nonzero}
    .fil1 {fill:#2D2D2D;fill-rule:nonzero}
    .fil4 {fill:white;fill-rule:nonzero}
    .fil2 {fill:#2D2D2D;fill-rule:nonzero}
   ]]>
  </style>
 </defs>
 <g id="Layer_x0020_1">
  <metadata id="CorelCorpID_0Corel-Layer"/>
  <path id="path158" class="fil0" d="M17499.01 1275.33c-5.97,-6.35 -14.08,-10.76 -23.16,-12.41l-54.67 -10.09c-11.93,-2.2 -22.53,7.93 -19.88,19.25l0.54 3.26"/>
  <path id="path254" class="fil1" d="M20395.64 1514.81l-82.83 0c-11.6,0 -20.87,-8.81 -20.87,-19.67 0,-10.85 9.28,-19.66 20.87,-19.66l82.83 0c11.26,0 20.54,8.81 20.54,19.66 0,10.85 -9.28,19.67 -20.54,19.67z"/>
  <path id="path256" class="fil2" d="M1954.66 1514.81l-165.39 0c-11.43,0 -20.71,-8.81 -20.71,-19.67 0,-10.85 9.28,-19.66 20.71,-19.66l165.39 0c11.43,0 20.71,8.81 20.71,19.66 0,10.85 -9.28,19.67 -20.71,19.67zm441.05 0l-165.39 0c-11.43,0 -20.7,-8.81 -20.7,-19.67 0,-10.85 9.28,-19.66 20.7,-19.66l165.39 0c11.4,0 20.71,8.81 20.71,19.66 0,10.85 -9.31,19.67 -20.71,19.67zm440.99 0l-165.35 0c-11.47,0 -20.71,-8.81 -20.71,-19.67 0,-10.85 9.24,-19.66 20.71,-19.66l165.35 0c11.47,0 20.71,8.81 20.71,19.66 0,10.85 -9.24,19.67 -20.71,19.67zm441.06 0l-165.39 0c-11.43,0 -20.71,-8.81 -20.71,-19.67 0,-10.85 9.28,-19.66 20.71,-19.66l165.39 0c11.4,0 20.71,8.81 20.71,19.66 0,10.85 -9.31,19.67 -20.71,19.67zm441.02 0l-165.38 0c-11.43,0 -20.71,-8.81 -20.71,-19.67 0,-10.85 9.28,-19.66 20.71,-19.66l165.38 0c11.43,0 20.71,8.81 20.71,19.66 0,10.85 -9.28,19.67 -20.71,19.67zm441.09 0l-165.42 0c-11.46,0 -20.7,-8.81 -20.7,-19.67 0,-10.85 9.24,-19.66 20.7,-19.66l165.42 0c11.4,0 20.7,8.81 20.7,19.66 0,10.85 -9.3,19.67 -20.7,19.67zm441.02 0l-165.39 0c-11.43,0 -20.71,-8.81 -20.71,-19.67 0,-10.85 9.28,-19.66 20.71,-19.66l165.39 0c11.43,0 20.71,8.81 20.71,19.66 0,10.85 -9.28,19.67 -20.71,19.67zm441.02 0l-165.35 0c-11.47,0 -20.71,-8.81 -20.71,-19.67 0,-10.85 9.24,-19.66 20.71,-19.66l165.35 0c11.43,0 20.71,8.81 20.71,19.66 0,10.85 -9.28,19.67 -20.71,19.67zm441.02 0l-165.38 0c-11.43,0 -20.7,-8.81 -20.7,-19.67 0,-10.85 9.28,-19.66 20.7,-19.66l165.38 0c11.43,0 20.71,8.81 20.71,19.66 0,10.85 -9.28,19.67 -20.71,19.67zm441.06 0l-165.39 0c-11.43,0 -20.71,-8.81 -20.71,-19.67 0,-10.85 9.28,-19.66 20.71,-19.66l165.39 0c11.4,0 20.71,8.81 20.71,19.66 0,10.85 -9.31,19.67 -20.71,19.67zm440.99 0l-165.35 0c-11.47,0 -20.71,-8.81 -20.71,-19.67 0,-10.85 9.24,-19.66 20.71,-19.66l165.35 0c11.46,0 20.7,8.81 20.7,19.66 0,10.85 -9.24,19.67 -20.7,19.67zm441.05 0l-165.38 0c-11.43,0 -20.7,-8.81 -20.7,-19.67 0,-10.85 9.28,-19.66 20.7,-19.66l165.38 0c11.43,0 20.71,8.81 20.71,19.66 0,10.85 -9.28,19.67 -20.71,19.67zm441.09 0l-165.45 0c-11.43,0 -20.71,-8.81 -20.71,-19.67 0,-10.85 9.28,-19.66 20.71,-19.66l165.45 0c11.26,0 20.54,8.81 20.54,19.66 0,10.85 -9.28,19.67 -20.54,19.67zm440.96 0l-165.32 0c-11.6,0 -20.87,-8.81 -20.87,-19.67 0,-10.85 9.28,-19.66 20.87,-19.66l165.32 0c11.59,0 20.87,8.81 20.87,19.66 0,10.85 -9.28,19.67 -20.87,19.67zm440.96 0l-165.32 0c-11.26,0 -20.54,-8.81 -20.54,-19.67 0,-10.85 9.28,-19.66 20.54,-19.66l165.32 0c11.6,0 20.87,8.81 20.87,19.66 0,10.85 -9.28,19.67 -20.87,19.67zm441.29 0l-165.65 0c-11.26,0 -20.54,-8.81 -20.54,-19.67 0,-10.85 9.28,-19.66 20.54,-19.66l165.65 0c11.26,0 20.54,8.81 20.54,19.66 0,10.85 -9.28,19.67 -20.54,19.67zm440.95 0l-165.31 0c-11.6,0 -20.87,-8.81 -20.87,-19.67 0,-10.85 9.28,-19.66 20.87,-19.66l165.31 0c11.26,0 20.54,8.81 20.54,19.66 0,10.85 -9.28,19.67 -20.54,19.67zm440.96 0l-165.32 0c-11.6,0 -20.87,-8.81 -20.87,-19.67 0,-10.85 9.28,-19.66 20.87,-19.66l165.32 0c11.6,0 20.87,8.81 20.87,19.66 0,10.85 -9.28,19.67 -20.87,19.67zm440.96 0l-165.32 0c-11.26,0 -20.54,-8.81 -20.54,-19.67 0,-10.85 9.28,-19.66 20.54,-19.66l165.32 0c11.6,0 20.87,8.81 20.87,19.66 0,10.85 -9.28,19.67 -20.87,19.67zm440.96 0l-165.32 0c-11.26,0 -20.54,-8.81 -20.54,-19.67 0,-10.85 9.28,-19.66 20.54,-19.66l165.32 0c11.6,0 20.87,8.81 20.87,19.66 0,10.85 -9.28,19.67 -20.87,19.67zm441.29 0l-165.32 0c-11.59,0 -20.87,-8.81 -20.87,-19.67 0,-10.85 9.28,-19.66 20.87,-19.66l165.32 0c11.26,0 20.54,8.81 20.54,19.66 0,10.85 -9.28,19.67 -20.54,19.67zm440.95 0l-165.31 0c-11.6,0 -20.87,-8.81 -20.87,-19.67 0,-10.85 9.28,-19.66 20.87,-19.66l165.31 0c11.26,0 20.54,8.81 20.54,19.66 0,10.85 -9.28,19.67 -20.54,19.67zm440.96 0l-165.32 0c-11.6,0 -20.87,-8.81 -20.87,-19.67 0,-10.85 9.28,-19.66 20.87,-19.66l165.32 0c11.6,0 20.87,8.81 20.87,19.66 0,10.85 -9.28,19.67 -20.87,19.67zm440.96 0l-165.32 0c-11.26,0 -20.54,-8.81 -20.54,-19.67 0,-10.85 9.28,-19.66 20.54,-19.66l165.32 0c11.6,0 20.87,8.81 20.87,19.66 0,10.85 -9.28,19.67 -20.87,19.67zm441.29 0l-165.32 0c-11.6,0 -20.87,-8.81 -20.87,-19.67 0,-10.85 9.28,-19.66 20.87,-19.66l165.32 0c11.26,0 20.54,8.81 20.54,19.66 0,10.85 -9.28,19.67 -20.54,19.67zm440.95 0l-165.31 0c-11.6,0 -20.87,-8.81 -20.87,-19.67 0,-10.85 9.28,-19.66 20.87,-19.66l165.31 0c11.26,0 20.54,8.81 20.54,19.66 0,10.85 -9.28,19.67 -20.54,19.67zm440.96 0l-165.31 0c-11.6,0 -20.54,-8.81 -20.54,-19.67 0,-10.85 8.94,-19.66 20.54,-19.66l165.31 0c11.6,0 20.87,8.81 20.87,19.66 0,10.85 -9.28,19.67 -20.87,19.67zm440.96 0l-165.32 0c-11.26,0 -20.54,-8.81 -20.54,-19.67 0,-10.85 9.28,-19.66 20.54,-19.66l165.32 0c11.59,0 20.87,8.81 20.87,19.66 0,10.85 -9.28,19.67 -20.87,19.67zm441.29 0l-165.65 0c-11.26,0 -20.54,-8.81 -20.54,-19.67 0,-10.85 9.28,-19.66 20.54,-19.66l165.65 0c11.26,0 20.54,8.81 20.54,19.66 0,10.85 -9.28,19.67 -20.54,19.67zm440.96 0l-165.32 0c-11.6,0 -20.87,-8.81 -20.87,-19.67 0,-10.85 9.28,-19.66 20.87,-19.66l165.32 0c11.26,0 20.54,8.81 20.54,19.66 0,10.85 -9.28,19.67 -20.54,19.67zm440.95 0l-165.31 0c-11.6,0 -20.87,-8.81 -20.87,-19.67 0,-10.85 9.28,-19.66 20.87,-19.66l165.31 0c11.6,0 20.87,8.81 20.87,19.66 0,10.85 -9.28,19.67 -20.87,19.67zm440.96 0l-165.32 0c-11.26,0 -20.54,-8.81 -20.54,-19.67 0,-10.85 9.28,-19.66 20.54,-19.66l165.32 0c11.6,0 20.87,8.81 20.87,19.66 0,10.85 -9.28,19.67 -20.87,19.67zm441.29 0l-165.65 0c-11.26,0 -20.54,-8.81 -20.54,-19.67 0,-10.85 9.28,-19.66 20.54,-19.66l165.65 0c11.26,0 20.54,8.81 20.54,19.66 0,10.85 -9.28,19.67 -20.54,19.67zm440.96 0l-165.32 0c-11.6,0 -20.87,-8.81 -20.87,-19.67 0,-10.85 9.28,-19.66 20.87,-19.66l165.32 0c11.26,0 20.54,8.81 20.54,19.66 0,10.85 -9.28,19.67 -20.54,19.67zm440.95 0l-165.31 0c-11.6,0 -20.87,-8.81 -20.87,-19.67 0,-10.85 9.28,-19.66 20.87,-19.66l165.31 0c11.6,0 20.87,8.81 20.87,19.66 0,10.85 -9.28,19.67 -20.87,19.67zm440.96 0l-165.31 0c-11.26,0 -20.54,-8.81 -20.54,-19.67 0,-10.85 9.28,-19.66 20.54,-19.66l165.31 0c11.6,0 20.87,8.81 20.87,19.66 0,10.85 -9.28,19.67 -20.87,19.67zm441.29 0l-165.65 0c-11.26,0 -20.54,-8.81 -20.54,-19.67 0,-10.85 9.28,-19.66 20.54,-19.66l165.65 0c11.26,0 20.54,8.81 20.54,19.66 0,10.85 -9.28,19.67 -20.54,19.67zm440.96 0l-165.32 0c-11.6,0 -20.87,-8.81 -20.87,-19.67 0,-10.85 9.28,-19.66 20.87,-19.66l165.32 0c11.26,0 20.54,8.81 20.54,19.66 0,10.85 -9.28,19.67 -20.54,19.67zm440.96 0l-165.32 0c-11.6,0 -20.87,-8.81 -20.87,-19.67 0,-10.85 9.28,-19.66 20.87,-19.66l165.32 0c11.6,0 20.87,8.81 20.87,19.66 0,10.85 -9.28,19.67 -20.87,19.67zm440.95 0l-165.31 0c-11.26,0 -20.54,-8.81 -20.54,-19.67 0,-10.85 9.28,-19.66 20.54,-19.66l165.31 0c11.6,0 20.87,8.81 20.87,19.66 0,10.85 -9.28,19.67 -20.87,19.67zm441.29 0l-165.65 0c-11.26,0 -20.54,-8.81 -20.54,-19.67 0,-10.85 9.28,-19.66 20.54,-19.66l165.65 0c11.26,0 20.54,8.81 20.54,19.66 0,10.85 -9.28,19.67 -20.54,19.67zm440.96 0l-165.32 0c-11.6,0 -20.87,-8.81 -20.87,-19.67 0,-10.85 9.28,-19.66 20.87,-19.66l165.32 0c11.26,0 20.54,8.81 20.54,19.66 0,10.85 -9.28,19.67 -20.54,19.67z"/>
  <path id="path258" class="fil1" d="M1513.59 1514.81l-82.82 0c-11.47,0 -20.71,-8.81 -20.71,-19.67 0,-10.85 9.24,-19.66 20.71,-19.66l82.82 0c11.4,0 20.71,8.81 20.71,19.66 0,10.85 -9.31,19.67 -20.71,19.67z"/>
  <path id="path260" class="fil1" d="M1306.41 1426.85c0,-65.25 55.69,-118.13 124.41,-118.13 68.67,0 124.4,52.88 124.4,118.13 0,65.25 -55.73,118.1 -124.4,118.1 -68.72,0 -124.41,-52.85 -124.41,-118.1z"/>
  <path id="path262" class="fil3" d="M995.41 510.14c0,-228.34 194.93,-413.44 435.39,-413.44 240.46,0 435.32,185.11 435.32,413.44 0,219.37 -359.72,741.79 -435.32,741.79 -75.6,0 -435.39,-477.94 -435.39,-741.79z"/>
  <path id="path264" class="fil4" d="M1152.91 510.14c0,-145.75 124.43,-263.89 277.89,-263.89 153.46,0 277.85,118.13 277.85,263.89 0,145.72 -124.4,263.85 -277.85,263.85 -153.46,0 -277.89,-118.13 -277.89,-263.85z"/>
  <path id="path266" class="fil1" d="M20474.15 1486.43c0,-65.25 55.66,-118.13 124.56,-118.13 68.57,0 124.24,52.88 124.24,118.13 0,65.25 -55.66,118.13 -124.24,118.13 -68.91,0 -124.56,-52.88 -124.56,-118.13z"/>
  <path id="path268" class="fil5" d="M20163.4 569.72c0,-228.3 194.8,-413.42 435.33,-413.42 240.52,0 435.32,185.11 435.32,413.42 0,219.41 -359.79,741.79 -435.32,741.79 -75.53,0 -435.33,-477.91 -435.33,-741.79z"/>
  <path id="path270" class="fil4" d="M20320.77 569.72c0,-145.72 124.56,-263.85 277.96,-263.85 153.39,0 277.96,118.13 277.96,263.85 0,145.73 -124.56,263.89 -277.96,263.89 -153.39,0 -277.96,-118.16 -277.96,-263.89z"/>
  <path id="path278" class="fil1" d="M11841.55 1502.29l-252.78 269.07c-9.61,10.54 -23.85,16.74 -38.76,17.15l-43.73 1.09c-17.56,0.44 -29.49,-16.76 -22.53,-32.09l124.9 -266.33c2.65,-5.35 7.96,-8.87 14.25,-9.03l206.4 -5.22c13.92,-0.37 21.86,15.38 12.26,25.35z"/>
  <g>
   <path id="path280" class="fil1" d="M11572.54 1195.08l267.68 255.86c9.94,9.47 2.98,25.61 -10.93,25.99l-206.4 5.22c-6.29,0.16 -11.93,-3.09 -14.57,-8.3l-139.81 -259.61c-7.95,-14.97 2.98,-32.74 20.87,-33.19l43.39 -1.1c14.91,-0.41 29.49,5.07 39.75,15.13l0.01 -0.01zm0 0l0 0 0 0z"/>
  </g>
 </g>
</svg>
