<?xml version="1.0" encoding="UTF-8"?>
<!DOCTYPE svg PUBLIC "-//W3C//DTD SVG 1.1//EN" "http://www.w3.org/Graphics/SVG/1.1/DTD/svg11.dtd">
<!-- Creator: CorelDRAW 2020 (64-Bit Evaluation Version) -->
<svg xmlns="http://www.w3.org/2000/svg" xml:space="preserve" width="0.352764in" height="0.0499921in" version="1.1" style="shape-rendering:geometricPrecision; text-rendering:geometricPrecision; image-rendering:optimizeQuality; fill-rule:evenodd; clip-rule:evenodd"
viewBox="0 0 352.76 49.99"
 xmlns:xlink="http://www.w3.org/1999/xlink"
 xmlns:xodm="http://www.corel.com/coreldraw/odm/2003">
 <defs>
  <style type="text/css">
   <![CDATA[
    .fil1 {fill:none;fill-rule:nonzero}
    .fil2 {fill:#2D2D2D;fill-rule:nonzero}
    .fil3 {fill:#F72116;fill-rule:nonzero}
    .fil0 {fill:white;fill-rule:nonzero}
   ]]>
  </style>
 </defs>
 <g id="Layer_x0020_1">
  <metadata id="CorelCorpID_0Corel-Layer"/>
  <polygon id="path14" class="fil0" points="330.07,-13.23 330.07,32.3 39.31,32.3 39.31,-13.23 "/>
  <path id="path158" class="fil1" d="M286.33 32.3c-0.1,-0.11 -0.24,-0.19 -0.39,-0.22l-0.91 -0.18c-0.2,-0.04 -0.38,0.14 -0.33,0.34l0.01 0.06"/>
  <path id="path254" class="fil2" d="M334.69 36.51l-1.38 0c-0.19,0 -0.35,-0.16 -0.35,-0.35 0,-0.19 0.15,-0.35 0.35,-0.35l1.38 0c0.19,0 0.35,0.15 0.35,0.35 0,0.19 -0.16,0.35 -0.35,0.35z"/>
  <path id="path256" class="fil2" d="M26.76 36.51l-2.76 0c-0.19,0 -0.35,-0.16 -0.35,-0.35 0,-0.19 0.16,-0.35 0.35,-0.35l2.76 0c0.19,0 0.35,0.15 0.35,0.35 0,0.19 -0.15,0.35 -0.35,0.35zm7.37 0l-2.76 0c-0.19,0 -0.35,-0.16 -0.35,-0.35 0,-0.19 0.15,-0.35 0.35,-0.35l2.76 0c0.19,0 0.35,0.15 0.35,0.35 0,0.19 -0.16,0.35 -0.35,0.35zm7.37 0l-2.76 0c-0.19,0 -0.35,-0.16 -0.35,-0.35 0,-0.19 0.16,-0.35 0.35,-0.35l2.76 0c0.19,0 0.34,0.15 0.34,0.35 0,0.19 -0.15,0.35 -0.34,0.35zm7.36 0l-2.76 0c-0.19,0 -0.35,-0.16 -0.35,-0.35 0,-0.19 0.15,-0.35 0.35,-0.35l2.76 0c0.19,0 0.35,0.15 0.35,0.35 0,0.19 -0.15,0.35 -0.35,0.35zm7.37 0l-2.76 0c-0.19,0 -0.35,-0.16 -0.35,-0.35 0,-0.19 0.16,-0.35 0.35,-0.35l2.76 0c0.19,0 0.35,0.15 0.35,0.35 0,0.19 -0.16,0.35 -0.35,0.35zm7.37 0l-2.76 0c-0.19,0 -0.35,-0.16 -0.35,-0.35 0,-0.19 0.15,-0.35 0.35,-0.35l2.76 0c0.19,0 0.34,0.15 0.34,0.35 0,0.19 -0.15,0.35 -0.34,0.35zm7.36 0l-2.76 0c-0.19,0 -0.35,-0.16 -0.35,-0.35 0,-0.19 0.15,-0.35 0.35,-0.35l2.76 0c0.19,0 0.35,0.15 0.35,0.35 0,0.19 -0.15,0.35 -0.35,0.35zm7.37 0l-2.76 0c-0.19,0 -0.34,-0.16 -0.34,-0.35 0,-0.19 0.15,-0.35 0.34,-0.35l2.76 0c0.19,0 0.34,0.15 0.34,0.35 0,0.19 -0.15,0.35 -0.34,0.35zm7.36 0l-2.76 0c-0.19,0 -0.35,-0.16 -0.35,-0.35 0,-0.19 0.15,-0.35 0.35,-0.35l2.76 0c0.19,0 0.35,0.15 0.35,0.35 0,0.19 -0.15,0.35 -0.35,0.35zm7.37 0l-2.76 0c-0.19,0 -0.34,-0.16 -0.34,-0.35 0,-0.19 0.15,-0.35 0.34,-0.35l2.76 0c0.19,0 0.35,0.15 0.35,0.35 0,0.19 -0.16,0.35 -0.35,0.35zm7.36 0l-2.76 0c-0.19,0 -0.35,-0.16 -0.35,-0.35 0,-0.19 0.15,-0.35 0.35,-0.35l2.76 0c0.19,0 0.35,0.15 0.35,0.35 0,0.19 -0.15,0.35 -0.35,0.35zm7.37 0l-2.76 0c-0.19,0 -0.34,-0.16 -0.34,-0.35 0,-0.19 0.15,-0.35 0.34,-0.35l2.76 0c0.19,0 0.35,0.15 0.35,0.35 0,0.19 -0.16,0.35 -0.35,0.35zm7.37 0l-2.76 0c-0.19,0 -0.35,-0.16 -0.35,-0.35 0,-0.19 0.16,-0.35 0.35,-0.35l2.76 0c0.19,0 0.34,0.15 0.34,0.35 0,0.19 -0.15,0.35 -0.34,0.35zm7.36 0l-2.76 0c-0.19,0 -0.35,-0.16 -0.35,-0.35 0,-0.19 0.16,-0.35 0.35,-0.35l2.76 0c0.19,0 0.35,0.15 0.35,0.35 0,0.19 -0.16,0.35 -0.35,0.35zm7.36 0l-2.76 0c-0.19,0 -0.34,-0.16 -0.34,-0.35 0,-0.19 0.15,-0.35 0.34,-0.35l2.76 0c0.19,0 0.35,0.15 0.35,0.35 0,0.19 -0.16,0.35 -0.35,0.35zm7.37 0l-2.77 0c-0.19,0 -0.34,-0.16 -0.34,-0.35 0,-0.19 0.16,-0.35 0.34,-0.35l2.77 0c0.19,0 0.34,0.15 0.34,0.35 0,0.19 -0.15,0.35 -0.34,0.35zm7.36 0l-2.76 0c-0.19,0 -0.35,-0.16 -0.35,-0.35 0,-0.19 0.15,-0.35 0.35,-0.35l2.76 0c0.19,0 0.34,0.15 0.34,0.35 0,0.19 -0.15,0.35 -0.34,0.35zm7.36 0l-2.76 0c-0.19,0 -0.35,-0.16 -0.35,-0.35 0,-0.19 0.15,-0.35 0.35,-0.35l2.76 0c0.2,0 0.35,0.15 0.35,0.35 0,0.19 -0.15,0.35 -0.35,0.35zm7.37 0l-2.76 0c-0.19,0 -0.35,-0.16 -0.35,-0.35 0,-0.19 0.16,-0.35 0.35,-0.35l2.76 0c0.19,0 0.35,0.15 0.35,0.35 0,0.19 -0.15,0.35 -0.35,0.35zm7.36 0l-2.76 0c-0.19,0 -0.34,-0.16 -0.34,-0.35 0,-0.19 0.15,-0.35 0.34,-0.35l2.76 0c0.19,0 0.35,0.15 0.35,0.35 0,0.19 -0.15,0.35 -0.35,0.35zm7.37 0l-2.76 0c-0.19,0 -0.35,-0.16 -0.35,-0.35 0,-0.19 0.15,-0.35 0.35,-0.35l2.76 0c0.19,0 0.34,0.15 0.34,0.35 0,0.19 -0.16,0.35 -0.34,0.35zm7.36 0l-2.76 0c-0.19,0 -0.35,-0.16 -0.35,-0.35 0,-0.19 0.16,-0.35 0.35,-0.35l2.76 0c0.19,0 0.34,0.15 0.34,0.35 0,0.19 -0.15,0.35 -0.34,0.35zm7.36 0l-2.76 0c-0.19,0 -0.35,-0.16 -0.35,-0.35 0,-0.19 0.16,-0.35 0.35,-0.35l2.76 0c0.19,0 0.35,0.15 0.35,0.35 0,0.19 -0.16,0.35 -0.35,0.35zm7.36 0l-2.76 0c-0.19,0 -0.34,-0.16 -0.34,-0.35 0,-0.19 0.15,-0.35 0.34,-0.35l2.76 0c0.2,0 0.35,0.15 0.35,0.35 0,0.19 -0.15,0.35 -0.35,0.35zm7.37 0l-2.76 0c-0.19,0 -0.35,-0.16 -0.35,-0.35 0,-0.19 0.16,-0.35 0.35,-0.35l2.76 0c0.19,0 0.34,0.15 0.34,0.35 0,0.19 -0.15,0.35 -0.34,0.35zm7.36 0l-2.76 0c-0.19,0 -0.35,-0.16 -0.35,-0.35 0,-0.19 0.15,-0.35 0.35,-0.35l2.76 0c0.19,0 0.34,0.15 0.34,0.35 0,0.19 -0.15,0.35 -0.34,0.35zm7.37 0l-2.76 0c-0.19,0 -0.34,-0.16 -0.34,-0.35 0,-0.19 0.15,-0.35 0.34,-0.35l2.76 0c0.19,0 0.35,0.15 0.35,0.35 0,0.19 -0.15,0.35 -0.35,0.35zm7.36 0l-2.76 0c-0.19,0 -0.34,-0.16 -0.34,-0.35 0,-0.19 0.15,-0.35 0.34,-0.35l2.76 0c0.19,0 0.35,0.15 0.35,0.35 0,0.19 -0.15,0.35 -0.35,0.35zm7.37 0l-2.77 0c-0.19,0 -0.34,-0.16 -0.34,-0.35 0,-0.19 0.15,-0.35 0.34,-0.35l2.77 0c0.19,0 0.34,0.15 0.34,0.35 0,0.19 -0.16,0.35 -0.34,0.35zm7.36 0l-2.76 0c-0.2,0 -0.35,-0.16 -0.35,-0.35 0,-0.19 0.15,-0.35 0.35,-0.35l2.76 0c0.19,0 0.34,0.15 0.34,0.35 0,0.19 -0.15,0.35 -0.34,0.35zm7.36 0l-2.76 0c-0.19,0 -0.35,-0.16 -0.35,-0.35 0,-0.19 0.16,-0.35 0.35,-0.35l2.76 0c0.19,0 0.35,0.15 0.35,0.35 0,0.19 -0.16,0.35 -0.35,0.35zm7.36 0l-2.76 0c-0.19,0 -0.34,-0.16 -0.34,-0.35 0,-0.19 0.15,-0.35 0.34,-0.35l2.76 0c0.19,0 0.35,0.15 0.35,0.35 0,0.19 -0.16,0.35 -0.35,0.35zm7.37 0l-2.77 0c-0.19,0 -0.34,-0.16 -0.34,-0.35 0,-0.19 0.16,-0.35 0.34,-0.35l2.77 0c0.19,0 0.34,0.15 0.34,0.35 0,0.19 -0.15,0.35 -0.34,0.35zm7.36 0l-2.76 0c-0.19,0 -0.35,-0.16 -0.35,-0.35 0,-0.19 0.15,-0.35 0.35,-0.35l2.76 0c0.19,0 0.34,0.15 0.34,0.35 0,0.19 -0.15,0.35 -0.34,0.35zm7.36 0l-2.76 0c-0.19,0 -0.35,-0.16 -0.35,-0.35 0,-0.19 0.15,-0.35 0.35,-0.35l2.76 0c0.2,0 0.35,0.15 0.35,0.35 0,0.19 -0.15,0.35 -0.35,0.35zm7.37 0l-2.76 0c-0.19,0 -0.35,-0.16 -0.35,-0.35 0,-0.19 0.16,-0.35 0.35,-0.35l2.76 0c0.19,0 0.35,0.15 0.35,0.35 0,0.19 -0.15,0.35 -0.35,0.35zm7.37 0l-2.76 0c-0.19,0 -0.34,-0.16 -0.34,-0.35 0,-0.19 0.15,-0.35 0.34,-0.35l2.76 0c0.19,0 0.34,0.15 0.34,0.35 0,0.19 -0.15,0.35 -0.34,0.35zm7.37 0l-2.76 0c-0.19,0 -0.35,-0.16 -0.35,-0.35 0,-0.19 0.15,-0.35 0.35,-0.35l2.76 0c0.19,0 0.34,0.15 0.34,0.35 0,0.19 -0.16,0.35 -0.34,0.35zm7.36 0l-2.76 0c-0.19,0 -0.35,-0.16 -0.35,-0.35 0,-0.19 0.16,-0.35 0.35,-0.35l2.76 0c0.19,0 0.35,0.15 0.35,0.35 0,0.19 -0.15,0.35 -0.35,0.35zm7.36 0l-2.76 0c-0.19,0 -0.34,-0.16 -0.34,-0.35 0,-0.19 0.15,-0.35 0.34,-0.35l2.76 0c0.19,0 0.35,0.15 0.35,0.35 0,0.19 -0.16,0.35 -0.35,0.35zm7.37 0l-2.77 0c-0.19,0 -0.34,-0.16 -0.34,-0.35 0,-0.19 0.15,-0.35 0.34,-0.35l2.77 0c0.19,0 0.34,0.15 0.34,0.35 0,0.19 -0.15,0.35 -0.34,0.35zm7.36 0l-2.76 0c-0.19,0 -0.35,-0.16 -0.35,-0.35 0,-0.19 0.16,-0.35 0.35,-0.35l2.76 0c0.19,0 0.34,0.15 0.34,0.35 0,0.19 -0.15,0.35 -0.34,0.35z"/>
  <path id="path258" class="fil2" d="M19.4 36.51l-1.39 0c-0.19,0 -0.34,-0.16 -0.34,-0.35 0,-0.19 0.15,-0.35 0.34,-0.35l1.39 0c0.19,0 0.35,0.15 0.35,0.35 0,0.19 -0.16,0.35 -0.35,0.35z"/>
  <path id="path260" class="fil2" d="M15.94 34.96c0,-1.15 0.93,-2.08 2.08,-2.08 1.15,0 2.07,0.93 2.07,2.08 0,1.15 -0.93,2.07 -2.07,2.07 -1.15,0 -2.08,-0.93 -2.08,-2.07z"/>
  <path id="path262" class="fil3" d="M10.74 18.84c0,-4.02 3.26,-7.27 7.27,-7.27 4.01,0 7.27,3.26 7.27,7.27 0,3.86 -6.01,13.04 -7.27,13.04 -1.26,0 -7.27,-8.4 -7.27,-13.04z"/>
  <path id="path264" class="fil0" d="M13.37 18.84c0,-2.56 2.08,-4.64 4.64,-4.64 2.56,0 4.64,2.08 4.64,4.64 0,2.56 -2.08,4.64 -4.64,4.64 -2.56,0 -4.64,-2.08 -4.64,-4.64z"/>
  <path id="path266" class="fil2" d="M336 36.01c0,-1.15 0.93,-2.08 2.08,-2.08 1.15,0 2.07,0.93 2.07,2.08 0,1.15 -0.93,2.08 -2.07,2.08 -1.15,0 -2.08,-0.93 -2.08,-2.08z"/>
  <path id="path268" class="fil3" d="M330.81 19.89c0,-4.01 3.26,-7.27 7.27,-7.27 4.02,0 7.27,3.25 7.27,7.27 0,3.86 -6.01,13.05 -7.27,13.05 -1.26,0 -7.27,-8.41 -7.27,-13.05z"/>
  <path id="path270" class="fil0" d="M333.44 19.89c0,-2.56 2.08,-4.64 4.64,-4.64 2.56,0 4.64,2.07 4.64,4.64 0,2.56 -2.08,4.64 -4.64,4.64 -2.56,0 -4.64,-2.08 -4.64,-4.64z"/>
  <path id="path278" class="fil2" d="M191.85 36.29l-4.22 4.73c-0.16,0.19 -0.4,0.29 -0.65,0.3l-0.73 0.02c-0.29,0.01 -0.49,-0.3 -0.37,-0.56l2.09 -4.69c0.04,-0.09 0.13,-0.16 0.24,-0.16l3.44 -0.09c0.23,-0 0.37,0.27 0.2,0.45z"/>
  <g>
   <path id="path280" class="fil2" d="M187.36 30.89l4.47 4.5c0.17,0.17 0.05,0.45 -0.19,0.46l-3.44 0.09c-0.11,0 -0.2,-0.06 -0.24,-0.15l-2.33 -4.57c-0.13,-0.26 0.05,-0.57 0.35,-0.58l0.72 -0.02c0.25,-0.01 0.49,0.09 0.66,0.27l0 0zm0 0l0 0 0 0z"/>
  </g>
 </g>
</svg>
